<?xml version="1.0" encoding="UTF-8" standalone="no"?>
<svg
   width="528.372582pt"
   height="457.92pt"
   viewBox="0 0 528.372582 457.92"
   version="1.1"
   id="svg39040"
   sodipodi:docname="bipartite.svg"
   inkscape:version="1.2.1 (9c6d41e410, 2022-07-14)"
   xmlns:inkscape="http://www.inkscape.org/namespaces/inkscape"
   xmlns:sodipodi="http://sodipodi.sourceforge.net/DTD/sodipodi-0.dtd"
   xmlns:xlink="http://www.w3.org/1999/xlink"
   xmlns="http://www.w3.org/2000/svg"
   xmlns:svg="http://www.w3.org/2000/svg"
   xmlns:rdf="http://www.w3.org/1999/02/22-rdf-syntax-ns#"
   xmlns:cc="http://creativecommons.org/ns#"
   xmlns:dc="http://purl.org/dc/elements/1.1/">
  <sodipodi:namedview
     id="namedview39042"
     pagecolor="#ffffff"
     bordercolor="#000000"
     borderopacity="0.25"
     inkscape:showpageshadow="2"
     inkscape:pageopacity="0.0"
     inkscape:pagecheckerboard="0"
     inkscape:deskcolor="#d1d1d1"
     inkscape:document-units="pt"
     showgrid="false"
     inkscape:zoom="0.92537997"
     inkscape:cx="362.55377"
     inkscape:cy="262.59484"
     inkscape:window-width="1366"
     inkscape:window-height="705"
     inkscape:window-x="-8"
     inkscape:window-y="-8"
     inkscape:window-maximized="1"
     inkscape:current-layer="g143239" />
  <metadata
     id="metadata38730">
    <rdf:RDF>
      <cc:Work>
        <dc:type
           rdf:resource="http://purl.org/dc/dcmitype/StillImage" />
        <dc:date>2022-12-05T21:35:45.941533</dc:date>
        <dc:format>image/svg+xml</dc:format>
        <dc:creator>
          <cc:Agent>
            <dc:title>Matplotlib v3.5.2, https://matplotlib.org/</dc:title>
          </cc:Agent>
        </dc:creator>
      </cc:Work>
    </rdf:RDF>
  </metadata>
  <defs
     id="defs38734">
    <style
       type="text/css"
       id="style38732">*{stroke-linejoin: round; stroke-linecap: butt}</style>
    <clipPath
       id="pc39d38f1dc-0">
      <rect
         x="7.1999998"
         y="7.1999998"
         width="446.39999"
         height="443.51999"
         id="rect39035-5" />
    </clipPath>
  </defs>
  <g
     id="figure_1">
    <g
       id="g143239">
      <g
         id="g129939"
         transform="translate(0,37.5)">
        <path
           d="m 166.75034,164.98076 -0.16164,-1.22785 -0.47394,-1.14417 -0.75391,-0.98252 -0.98252,-0.75392 -1.14417,-0.47393 -1.22785,-0.16165 -1.22785,0.16165 -1.14417,0.47393 -0.98252,0.75392 -0.75392,0.98252 -0.47393,1.14417 -0.16165,1.22785 0.16165,1.22784 0.47393,1.14417 0.75392,0.98253 0.98252,0.75391 1.14417,0.47393 1.22785,0.16165 1.22785,-0.16165 1.14417,-0.47393 0.98252,-0.75391 0.75391,-0.98253 0.47394,-1.14417 z"
           clip-path="url(#pc39d38f1dc-0)"
           style="fill:#000000;fill-opacity:1;stroke-linecap:butt;stroke-linejoin:round"
           id="path38754-6"
           transform="translate(18.040741,-91.9769)" />
        <path
           d="m 166.75034,164.98076 -0.16164,-1.22785 -0.47394,-1.14417 -0.75391,-0.98252 -0.98252,-0.75392 -1.14417,-0.47393 -1.22785,-0.16165 -1.22785,0.16165 -1.14417,0.47393 -0.98252,0.75392 -0.75392,0.98252 -0.47393,1.14417 -0.16165,1.22785 0.16165,1.22784 0.47393,1.14417 0.75392,0.98253 0.98252,0.75391 1.14417,0.47393 1.22785,0.16165 1.22785,-0.16165 1.14417,-0.47393 0.98252,-0.75391 0.75391,-0.98253 0.47394,-1.14417 z"
           clip-path="url(#pc39d38f1dc-0)"
           style="fill:#000000;fill-opacity:1;stroke-linecap:butt;stroke-linejoin:round"
           id="path126759"
           transform="translate(17.919785,-68.7997)" />
        <path
           d="m 166.75034,164.98076 -0.16164,-1.22785 -0.47394,-1.14417 -0.75391,-0.98252 -0.98252,-0.75392 -1.14417,-0.47393 -1.22785,-0.16165 -1.22785,0.16165 -1.14417,0.47393 -0.98252,0.75392 -0.75392,0.98252 -0.47393,1.14417 -0.16165,1.22785 0.16165,1.22784 0.47393,1.14417 0.75392,0.98253 0.98252,0.75391 1.14417,0.47393 1.22785,0.16165 1.22785,-0.16165 1.14417,-0.47393 0.98252,-0.75391 0.75391,-0.98253 0.47394,-1.14417 z"
           clip-path="url(#pc39d38f1dc-0)"
           style="fill:#000000;fill-opacity:1;stroke-linecap:butt;stroke-linejoin:round"
           id="path126761"
           transform="translate(17.109307,-24.622496)" />
        <g
           id="text_3"
           transform="rotate(1.0691278,-23.90424,-1789.034)">
          <g
             id="patch_4">
            <path
               d="M 167.75034,180.35771 H 330.58628 V 149.6038 H 167.75034 Z"
               style="fill:none"
               id="path38837" />
          </g>
          <!-- P.Bailey-brown -->
          <g
             transform="matrix(0.25,0,0,-0.25,171.75034,170.96318)"
             id="g38877">
            <defs
               id="defs38847">
              <path
                 id="TimesNewRomanPSMT-50"
                 d="M 1313,1984 V 750 q 0,-400 87,-497 119,-137 359,-137 h 163 V 0 H 106 v 116 h 160 q 268,0 384,175 63,97 63,459 v 2738 q 0,400 -85,496 -122,138 -362,138 H 106 v 116 h 1553 q 569,0 897,-118 328,-117 553,-395 225,-278 225,-659 0,-519 -342,-844 -342,-325 -967,-325 -153,0 -331,22 -178,22 -381,65 z m 0,179 q 165,-32 293,-48 128,-15 219,-15 325,0 561,251 236,252 236,652 0,275 -113,511 -112,236 -319,353 -206,117 -468,117 -159,0 -409,-59 z"
                 transform="scale(0.015625)" />
              <path
                 id="TimesNewRomanPSMT-6c"
                 d="M 1184,4444 V 647 q 0,-269 39,-357 40,-87 121,-132 81,-45 303,-45 V 0 H 244 v 113 q 197,0 268,40 72,41 113,134 41,94 41,360 v 2600 q 0,484 -22,595 -22,111 -71,151 -48,41 -123,41 -81,0 -206,-50 l -53,110 853,350 z"
                 transform="scale(0.015625)" />
              <path
                 id="TimesNewRomanPSMT-2d"
                 d="M 259,1672 H 1875 V 1200 H 259 Z"
                 transform="scale(0.015625)" />
              <path
                 id="TimesNewRomanPSMT-62"
                 d="m 984,2369 q 416,578 897,578 441,0 769,-377 328,-376 328,-1029 Q 2978,778 2472,313 2038,-88 1503,-88 1253,-88 995,3 738,94 469,275 v 2966 q 0,487 -24,599 -23,113 -73,153 -50,41 -125,41 -88,0 -219,-50 l -44,110 860,350 h 140 z m 0,-200 V 456 q 160,-156 330,-236 170,-79 349,-79 284,0 529,312 246,313 246,910 0,550 -246,845 -245,295 -558,295 -165,0 -331,-84 -125,-63 -319,-250 z"
                 transform="scale(0.015625)" />
              <path
                 id="TimesNewRomanPSMT-6f"
                 d="m 1600,2947 q 650,0 1044,-494 334,-422 334,-969 0,-384 -185,-778 Q 2609,313 2286,112 1963,-88 1566,-88 919,-88 538,428 216,863 216,1403 q 0,394 195,783 195,389 514,575 319,186 675,186 z m -97,-203 q -165,0 -333,-99 -167,-98 -270,-345 -103,-247 -103,-634 0,-625 248,-1079 249,-453 655,-453 303,0 500,250 197,250 197,860 0,762 -328,1200 -222,300 -566,300 z"
                 transform="scale(0.015625)" />
              <path
                 id="TimesNewRomanPSMT-77"
                 d="m 41,2863 h 1200 v -116 q -166,-13 -218,-60 -51,-46 -51,-134 0,-97 53,-234 l 613,-1647 615,1341 -162,421 q -75,188 -197,260 -69,44 -256,53 v 116 h 1362 v -116 q -225,-9 -319,-81 -62,-50 -62,-160 0,-62 25,-128 l 650,-1644 603,1585 q 62,169 62,269 0,59 -61,106 -60,47 -239,53 v 116 h 904 v -116 q -272,-41 -400,-369 L 3206,-88 H 3078 L 2363,1741 1528,-88 H 1413 L 494,2319 q -91,228 -179,307 -87,80 -274,121 z"
                 transform="scale(0.015625)" />
              <path
                 id="TimesNewRomanPSMT-6e"
                 d="m 1034,2341 q 504,606 960,606 234,0 403,-117 169,-117 269,-386 68,-188 68,-575 V 647 q 0,-272 44,-369 35,-78 111,-122 77,-43 283,-43 V 0 H 1756 v 113 h 60 q 200,0 279,60 80,61 111,180 13,47 13,294 v 1172 q 0,390 -102,567 -101,177 -342,177 -372,0 -741,-407 V 647 q 0,-291 35,-359 44,-91 120,-133 77,-42 311,-42 V 0 H 84 v 113 h 63 q 219,0 295,110 77,111 77,424 v 1062 q 0,516 -24,628 -23,113 -72,153 -48,41 -129,41 -88,0 -210,-47 l -46,113 862,350 h 134 z"
                 transform="scale(0.015625)" />
            </defs>
            <use
               xlink:href="#TimesNewRomanPSMT-50"
               id="use38849" />
            <path
               id="use38851"
               d="m 56.990234,9.46875 q 2.296875,0 3.859375,-1.59375 1.5625,-1.578125 1.5625,-3.828125 0,-2.234375 -1.59375,-3.828125 -1.578125,-1.59375 -3.828125,-1.59375 -2.25,0 -3.84375,1.59375 -1.578125,1.59375 -1.578125,3.828125 0,2.296875 1.578125,3.859375 1.59375,1.5625 3.84375,1.5625 z"
               style="stroke-width:0.015625" />
            <path
               id="use38853"
               d="m 115.67773,33.796875 q 6.89063,-1.46875 10.3125,-4.6875 4.73438,-4.5 4.73438,-11 0,-4.921875 -3.125,-9.4375 -3.125,-4.515625 -8.57813,-6.59375 Q 113.58398,0 102.39648,0 H 71.146484 v 1.8125 h 2.5 q 4.140625,0 5.953125,2.625 1.125,1.71875 1.125,7.28125 V 54.5 q 0,6.140625 -1.421875,7.75 -1.90625,2.15625 -5.65625,2.15625 h -2.5 v 1.8125 h 28.625 q 7.999996,0 12.828126,-1.171875 7.32812,-1.765625 11.1875,-6.234375 3.85937,-4.46875 3.85937,-10.28125 0,-4.96875 -3.03125,-8.90625 -3.03125,-3.9375 -8.9375,-5.828125 z m -25.578121,2.625 q 1.796875,-0.34375 4.109375,-0.515625 2.328125,-0.15625 5.109375,-0.15625 7.140621,0 10.718751,1.53125 3.59375,1.53125 5.5,4.703125 1.90625,3.1875 1.90625,6.9375 0,5.8125 -4.73438,9.90625 -4.73437,4.109375 -13.828121,4.109375 -4.875,0 -8.78125,-1.078125 z m 0,-31.640625 q 5.65625,-1.3125 11.171871,-1.3125 8.84375,0 13.48438,3.96875 4.64062,3.984375 4.64062,9.84375 0,3.859375 -2.10937,7.421875 -2.09375,3.5625 -6.82813,5.609375 -4.73437,2.0625 -11.718746,2.0625 -3.03125,0 -5.1875,-0.109375 -2.140625,-0.09375 -3.453125,-0.328125 z"
               style="stroke-width:0.015625" />
          </g>
        </g>
        <g
           id="g126425"
           transform="rotate(0.23463724,25960.507,-13001.061)">
          <g
             id="g126389">
            <path
               d="M 148.13794,264.90234 H 267.13012 V 234.19531 H 148.13794 Z"
               style="fill:none"
               id="path126387" />
          </g>
          <!-- M.B.Wyatt -->
          <g
             transform="matrix(0.25,0,0,-0.25,152.13794,255.50781)"
             id="g126423">
            <defs
               id="defs126403">
              <path
                 id="path126391"
                 d="M 2619,0 981,3566 V 734 q 0,-390 85,-487 115,-131 365,-131 h 150 V 0 H 106 v 116 h 150 q 269,0 382,162 68,100 68,456 v 2769 q 0,281 -62,406 -44,91 -161,152 -117,61 -377,61 v 116 H 1306 L 2844,922 4356,4238 h 1200 v -116 h -147 q -271,0 -384,-163 -69,-100 -69,-456 V 734 q 0,-390 88,-487 115,-131 365,-131 h 147 V 0 H 3756 v 116 h 150 q 272,0 382,162 68,100 68,456 V 3566 L 2722,0 Z"
                 transform="scale(0.015625)" />
              <path
                 id="path126393"
                 d="m 2956,2163 q 441,-94 660,-300 303,-288 303,-704 0,-315 -200,-604 Q 3519,266 3170,133 2822,0 2106,0 H 106 v 116 h 160 q 265,0 381,168 72,110 72,466 v 2738 q 0,393 -91,496 -122,138 -362,138 H 106 v 116 h 1832 q 512,0 821,-75 469,-113 716,-399 247,-286 247,-658 0,-318 -194,-570 -194,-252 -572,-373 z m -1637,168 q 115,-22 263,-33 149,-10 327,-10 457,0 686,98 230,98 352,301 122,204 122,444 0,372 -303,634 -303,263 -885,263 -312,0 -562,-69 z m 0,-2025 q 362,-84 715,-84 566,0 863,254 297,255 297,630 0,247 -135,475 -134,228 -437,359 -303,132 -750,132 -194,0 -332,-7 -137,-6 -221,-21 z"
                 transform="scale(0.015625)" />
              <path
                 id="path126395"
                 d="m 5991,4238 v -116 q -166,0 -269,-60 -103,-59 -197,-221 -62,-110 -197,-522 L 4147,-97 H 4022 L 3056,2613 2097,-97 H 1984 L 725,3422 q -141,394 -178,466 -63,118 -171,176 -107,58 -292,58 v 116 h 1569 v -116 h -75 q -165,0 -253,-75 -87,-75 -87,-181 0,-110 137,-503 l 834,-2379 704,2022 -125,357 -100,284 q -66,156 -147,275 -41,59 -100,100 -78,56 -157,81 -59,19 -187,19 v 116 h 1650 v -116 h -113 q -175,0 -256,-75 -81,-75 -81,-203 0,-160 141,-556 l 812,-2304 806,2335 q 138,387 138,537 0,72 -46,134 -45,63 -114,88 -118,44 -309,44 v 116 z"
                 transform="scale(0.015625)" />
              <path
                 id="path126397"
                 d="m 38,2863 h 1334 v -116 h -66 q -140,0 -211,-61 -70,-61 -70,-152 0,-121 103,-337 l 697,-1444 641,1581 q 53,129 53,254 0,56 -22,84 -25,34 -78,54 -53,21 -188,21 v 116 h 932 v -116 q -116,-13 -179,-51 -62,-37 -137,-140 -28,-43 -106,-240 L 1575,-541 q -169,-415 -443,-627 -273,-213 -526,-213 -184,0 -303,106 -119,106 -119,244 0,131 86,211 86,79 236,79 103,0 282,-68 125,-47 156,-47 94,0 204,97 111,96 224,375 L 1575,113 547,2272 q -47,97 -150,241 -78,109 -128,146 -72,50 -231,88 z"
                 transform="scale(0.015625)" />
              <path
                 id="path126399"
                 d="M 1822,413 Q 1381,72 1269,19 1100,-59 909,-59 613,-59 420,144 228,347 228,678 q 0,210 94,363 128,212 445,399 317,188 1055,457 v 112 q 0,429 -136,588 -136,159 -395,159 -197,0 -313,-106 -119,-106 -119,-244 l 7,-181 q 0,-144 -74,-222 -73,-78 -192,-78 -116,0 -189,81 -73,82 -73,222 0,269 275,494 275,225 771,225 382,0 625,-128 185,-97 272,-303 57,-135 57,-550 V 994 q 0,-410 15,-502 16,-92 52,-123 36,-31 83,-31 50,0 87,21 66,41 253,229 V 413 q -350,-469 -669,-469 -153,0 -244,106 -90,106 -93,363 z m 0,203 V 1706 Q 1350,1519 1213,1441 966,1303 859,1153 753,1003 753,825 q 0,-225 134,-374 135,-148 310,-148 237,0 625,313 z"
                 transform="scale(0.015625)" />
              <path
                 id="path126401"
                 d="m 1031,3803 v -940 h 669 V 2644 H 1031 V 788 q 0,-279 80,-376 80,-96 205,-96 103,0 200,64 97,64 150,189 h 122 Q 1678,263 1478,108 1278,-47 1066,-47 922,-47 784,33 647,113 581,261 516,409 516,719 V 2644 H 63 v 103 q 171,69 351,233 180,164 320,389 72,119 200,434 z"
                 transform="scale(0.015625)" />
            </defs>
            <path
               id="use126405"
               d="m 40.921875,0 -25.59375,55.71875 v -44.25 q 0,-6.09375 1.328125,-7.609375 Q 18.453125,1.8125 22.359375,1.8125 h 2.34375 V 0 H 1.65625 V 1.8125 H 4 q 4.203125,0 5.96875,2.53125 1.0625,1.5625 1.0625,7.125 v 43.265625 q 0,4.390625 -0.96875,6.34375 Q 9.375,62.5 7.546875,63.453125 5.71875,64.40625 1.65625,64.40625 v 1.8125 h 18.75 l 24.03125,-51.8125 23.625,51.8125 h 18.75 v -1.8125 h -2.296875 q -4.234375,0 -6,-2.546875 -1.078125,-1.5625 -1.078125,-7.125 V 11.46875 q 0,-6.09375 1.375,-7.609375 Q 80.609375,1.8125 84.515625,1.8125 H 86.8125 V 0 h -28.125 v 1.8125 h 2.34375 q 4.25,0 5.96875,2.53125 1.0625,1.5625 1.0625,7.125 v 44.25 L 42.53125,0 Z"
               style="stroke-width:0.015625" />
            <path
               id="use126407"
               d="m 101.41602,9.46875 q 2.29687,0 3.85937,-1.59375 1.5625,-1.578125 1.5625,-3.828125 0,-2.234375 -1.59375,-3.828125 -1.57812,-1.59375 -3.82812,-1.59375 -2.250004,0 -3.843754,1.59375 -1.578125,1.59375 -1.578125,3.828125 0,2.296875 1.578125,3.859375 1.59375,1.5625 3.843754,1.5625 z"
               style="stroke-width:0.015625" />
            <path
               id="use126409"
               d="m 160.10352,33.796875 q 6.89063,-1.46875 10.3125,-4.6875 4.73438,-4.5 4.73438,-11 0,-4.921875 -3.125,-9.4375 -3.125,-4.515625 -8.57813,-6.59375 Q 158.00977,0 146.82227,0 h -31.25 v 1.8125 h 2.5 q 4.14063,0 5.95313,2.625 1.125,1.71875 1.125,7.28125 V 54.5 q 0,6.140625 -1.42188,7.75 -1.90625,2.15625 -5.65625,2.15625 h -2.5 v 1.8125 h 28.625 q 8,0 12.82813,-1.171875 7.32812,-1.765625 11.1875,-6.234375 3.85937,-4.46875 3.85937,-10.28125 0,-4.96875 -3.03125,-8.90625 -3.03125,-3.9375 -8.9375,-5.828125 z m -25.57812,2.625 q 1.79687,-0.34375 4.10937,-0.515625 2.32813,-0.15625 5.10938,-0.15625 7.14062,0 10.71875,1.53125 3.59375,1.53125 5.5,4.703125 1.90625,3.1875 1.90625,6.9375 0,5.8125 -4.73438,9.90625 -4.73437,4.109375 -13.82812,4.109375 -4.875,0 -8.78125,-1.078125 z m 0,-31.640625 q 5.65625,-1.3125 11.17187,-1.3125 8.84375,0 13.48438,3.96875 4.64062,3.984375 4.64062,9.84375 0,3.859375 -2.10937,7.421875 -2.09375,3.5625 -6.82813,5.609375 -4.73437,2.0625 -11.71875,2.0625 -3.03125,0 -5.1875,-0.109375 -2.14062,-0.09375 -3.45312,-0.328125 z"
               style="stroke-width:0.015625" />
            <path
               id="use126411"
               d="m 193.11523,9.46875 q 2.29688,0 3.85938,-1.59375 1.5625,-1.578125 1.5625,-3.828125 0,-2.234375 -1.59375,-3.828125 -1.57813,-1.59375 -3.82813,-1.59375 -2.25,0 -3.84375,1.59375 -1.57812,1.59375 -1.57812,3.828125 0,2.296875 1.57812,3.859375 1.59375,1.5625 3.84375,1.5625 z"
               style="stroke-width:0.015625" />
            <path
               id="use126413"
               d="m 299.22461,66.21875 v -1.8125 q -2.59375,0 -4.20313,-0.9375 -1.60937,-0.921875 -3.07812,-3.453125 -0.96875,-1.71875 -3.07813,-8.15625 l -18.45312,-53.375 h -1.95313 l -15.09375,42.34375 -14.98437,-42.34375 h -1.76563 L 216.94336,53.46875 q -2.20313,6.15625 -2.78125,7.28125 -0.98438,1.84375 -2.67188,2.75 -1.67187,0.90625 -4.5625,0.90625 v 1.8125 h 24.51563 v -1.8125 h -1.17188 q -2.57812,0 -3.95312,-1.171875 -1.35938,-1.171875 -1.35938,-2.828125 0,-1.71875 2.14063,-7.859375 L 240.13086,15.375 l 11,31.59375 -1.95313,5.578125 -1.5625,4.4375 q -1.03125,2.4375 -2.29687,4.296875 -0.64063,0.921875 -1.5625,1.5625 -1.21875,0.875 -2.45313,1.265625 -0.92187,0.296875 -2.92187,0.296875 v 1.8125 h 25.78125 v -1.8125 h -1.76563 q -2.73437,0 -4,-1.171875 -1.26562,-1.171875 -1.26562,-3.171875 0,-2.5 2.20312,-8.6875 l 12.6875,-36 12.59375,36.484375 q 2.15625,6.046875 2.15625,8.390625 0,1.125 -0.71875,2.09375 -0.70312,0.984375 -1.78125,1.375 -1.84375,0.6875 -4.82812,0.6875 v 1.8125 z"
               style="stroke-width:0.015625" />
          </g>
        </g>
        <g
           id="g126471"
           transform="rotate(0.61126684,11579.279,-9571.1914)">
          <g
             id="g126429">
            <path
               d="m 232.80807,233.02574 h 104.0625 v -30.70703 h -104.0625 z"
               style="fill:none"
               id="path126427" />
          </g>
          <!-- C.Jeffries -->
          <g
             transform="matrix(0.25,0,0,-0.25,236.80807,223.67809)"
             id="g126469">
            <defs
               id="defs126447">
              <path
                 id="path126431"
                 d="m 3853,4334 97,-1440 h -97 q -194,647 -553,931 -359,284 -862,284 -422,0 -763,-214 -341,-214 -536,-683 -195,-468 -195,-1165 0,-575 184,-997 185,-422 555,-647 370,-225 845,-225 413,0 728,176 316,177 694,702 l 97,-62 Q 3728,428 3303,165 2878,-97 2294,-97 1241,-97 663,684 231,1266 231,2053 q 0,635 284,1166 285,531 783,823 499,292 1090,292 459,0 906,-225 131,-68 187,-68 85,0 147,59 81,84 116,234 z"
                 transform="scale(0.015625)" />
              <path
                 id="path126433"
                 d="M 800,606 Q 947,606 1047,504 1147,403 1147,259 1147,116 1045,14 944,-88 800,-88 656,-88 554,14 453,116 453,259 q 0,147 101,247 102,100 246,100 z"
                 transform="scale(0.015625)" />
              <path
                 id="path126435"
                 d="m 638,4122 v 116 h 1815 v -116 h -153 q -259,0 -378,-153 -75,-100 -75,-481 V 1416 Q 1847,938 1742,641 1638,344 1381,123 1125,-97 763,-97 469,-97 300,48 131,194 131,381 q 0,153 78,232 104,96 241,96 100,0 179,-66 80,-65 202,-349 72,-169 185,-169 84,0 157,103 74,103 74,366 v 2894 q 0,321 -41,425 -31,78 -131,134 -134,75 -284,75 z"
                 transform="scale(0.015625)" />
              <path
                 id="path126437"
                 d="m 681,1784 q -3,-637 310,-1000 312,-362 734,-362 281,0 489,154 208,155 349,530 l 96,-62 Q 2594,616 2278,264 1963,-88 1488,-88 972,-88 605,314 238,716 238,1394 q 0,734 376,1145 377,411 945,411 482,0 791,-317 309,-317 309,-849 z m 0,182 h 1325 q -15,275 -65,387 -78,175 -233,275 -155,100 -324,100 -259,0 -464,-202 -204,-201 -239,-560 z"
                 transform="scale(0.015625)" />
              <path
                 id="path126439"
                 d="M 1319,2638 V 756 q 0,-400 87,-506 116,-137 310,-137 h 259 V 0 H 266 v 113 h 128 q 125,0 228,62 103,63 142,169 39,106 39,412 V 2638 H 247 v 225 h 556 v 187 q 0,428 137,725 138,297 421,480 283,183 636,183 328,0 603,-213 181,-141 181,-316 0,-93 -81,-176 -81,-83 -175,-83 -72,0 -152,51 -79,52 -195,222 -115,171 -212,230 -97,60 -216,60 -144,0 -244,-77 -100,-77 -144,-238 -43,-160 -43,-829 v -206 h 737 v -225 z"
                 transform="scale(0.015625)" />
              <path
                 id="path126441"
                 d="m 1038,2947 v -644 q 359,644 737,644 172,0 284,-105 113,-104 113,-242 0,-122 -82,-207 -81,-84 -193,-84 -109,0 -245,108 -136,108 -202,108 -56,0 -122,-62 -140,-129 -290,-422 V 669 q 0,-238 59,-360 41,-84 144,-140 103,-56 297,-56 V 0 H 72 v 113 q 219,0 325,68 78,50 109,160 16,53 16,303 v 1109 q 0,500 -21,595 -20,96 -75,139 -54,44 -135,44 -97,0 -219,-47 l -31,113 865,350 z"
                 transform="scale(0.015625)" />
              <path
                 id="path126443"
                 d="m 928,4444 q 131,0 223,-93 93,-92 93,-223 0,-131 -93,-225 -92,-94 -223,-94 -131,0 -225,94 -94,94 -94,225 0,131 92,223 93,93 227,93 z M 1188,2947 V 647 q 0,-269 39,-358 39,-89 115,-133 77,-43 280,-43 V 0 H 231 v 113 q 210,0 281,40 72,41 114,134 43,94 43,360 v 1103 q 0,466 -28,603 -22,100 -69,139 -47,39 -128,39 -88,0 -213,-47 l -43,113 862,350 z"
                 transform="scale(0.015625)" />
              <path
                 id="path126445"
                 d="m 2050,2947 v -975 h -103 q -119,459 -305,625 -186,166 -473,166 -219,0 -354,-116 -134,-116 -134,-256 0,-175 100,-300 97,-128 394,-272 l 456,-222 Q 2266,1288 2266,781 2266,391 1970,151 1675,-88 1309,-88 1047,-88 709,6 606,38 541,38 469,38 428,-44 H 325 V 978 H 428 Q 516,541 762,319 1009,97 1316,97 q 215,0 351,126 136,127 136,305 0,216 -152,363 -151,147 -604,372 -453,225 -594,406 -140,178 -140,450 0,353 242,590 242,238 626,238 169,0 410,-72 159,-47 212,-47 50,0 78,22 28,22 66,97 z"
                 transform="scale(0.015625)" />
            </defs>
            <path
               id="use126449"
               d="m 60.203125,67.71875 1.515625,-22.5 h -1.515625 q -3.03125,10.109375 -8.640625,14.546875 -5.609375,4.4375 -13.46875,4.4375 -6.59375,0 -11.921875,-3.34375 Q 20.84375,57.515625 17.796875,50.1875 14.75,42.875 14.75,31.984375 14.75,23 17.625,16.40625 20.515625,9.8125 26.296875,6.296875 32.078125,2.78125 39.5,2.78125 q 6.453125,0 11.375,2.75 Q 55.8125,8.296875 61.71875,16.5 l 1.515625,-0.96875 Q 58.25,6.6875 51.609375,2.578125 44.96875,-1.515625 35.84375,-1.515625 q -16.453125,0 -25.484375,12.203125 -6.75,9.09375 -6.75,21.390625 0,9.921875 4.4375,18.21875 Q 12.5,58.59375 20.28125,63.15625 q 7.796875,4.5625 17.03125,4.5625 7.171875,0 14.15625,-3.515625 2.046875,-1.0625 2.921875,-1.0625 1.328125,0 2.296875,0.921875 1.265625,1.3125 1.8125,3.65625 z"
               style="stroke-width:0.015625" />
            <path
               id="use126451"
               d="m 79.199219,9.46875 q 2.296875,0 3.859375,-1.59375 1.5625,-1.578125 1.5625,-3.828125 0,-2.234375 -1.59375,-3.828125 -1.578125,-1.59375 -3.828125,-1.59375 -2.25,0 -3.84375,1.59375 -1.578125,1.59375 -1.578125,3.828125 0,2.296875 1.578125,3.859375 1.59375,1.5625 3.84375,1.5625 z"
               style="stroke-width:0.015625" />
            <path
               id="use126453"
               d="m 101.66797,64.40625 v 1.8125 h 28.35937 v -1.8125 h -2.39062 q -4.04688,0 -5.90625,-2.390625 -1.17188,-1.5625 -1.17188,-7.515625 V 22.125 q 0,-7.46875 -1.64062,-12.109375 -1.625,-4.640625 -5.64063,-8.09375 -4,-3.4375 -9.65625,-3.4375 -4.593746,0 -7.234371,2.265625 -2.640625,2.28125 -2.640625,5.203125 0,2.390625 1.21875,3.625 1.625,1.5 3.765625,1.5 1.562501,0 2.796871,-1.03125 1.25,-1.015625 3.15625,-5.453125 1.125,-2.640625 2.89063,-2.640625 1.3125,0 2.45312,1.609375 1.15625,1.609375 1.15625,5.71875 V 54.5 q 0,5.015625 -0.64062,6.640625 -0.48438,1.21875 -2.04688,2.09375 -2.09375,1.171875 -4.4375,1.171875 z"
               style="stroke-width:0.015625" />
          </g>
        </g>
        <g
           id="g8107"
           transform="matrix(0.72083489,-0.10578348,0.09921478,0.76855905,-93.576201,40.243028)"
           style="stroke-linecap:butt;stroke-linejoin:round">
          <rect
             style="fill:#ff0000;fill-opacity:0.501961;stroke:none;stroke-width:2.83465;stroke-linecap:butt;stroke-linejoin:round;stroke-dasharray:2.83465, 8.50395;stroke-dashoffset:0;stroke-opacity:0.994819"
             id="rect7769"
             width="48.346138"
             height="18.243826"
             x="610.1687"
             y="-29.743521"
             transform="rotate(7.8368761)" />
        </g>
        <g
           id="g8115"
           transform="matrix(0.72083489,-0.10578348,0.09921478,0.76855905,323.25135,63.246495)"
           style="stroke-linecap:butt;stroke-linejoin:round">
          <rect
             style="fill:#ffff00;fill-opacity:0.501961;stroke:none;stroke-width:2.83465;stroke-linecap:butt;stroke-linejoin:round;stroke-dasharray:2.83465, 8.50395;stroke-dashoffset:0;stroke-opacity:0.994819"
             id="rect8109"
             width="48.346138"
             height="18.243826"
             x="38.759163"
             y="-5.7155876"
             transform="rotate(7.8368761)" />
        </g>
        <g
           id="g8123"
           transform="matrix(0.72083489,-0.10578348,0.09921478,0.76855905,323.25134,101.83213)"
           style="stroke-linecap:butt;stroke-linejoin:round">
          <rect
             style="fill:#7d6fff;fill-opacity:0.529412;stroke:none;stroke-width:2.83465;stroke-linecap:butt;stroke-linejoin:round;stroke-dasharray:2.83465, 8.50395;stroke-dashoffset:0;stroke-opacity:0.994819"
             id="rect8117"
             width="48.346138"
             height="18.243826"
             x="38.759163"
             y="-5.7155876"
             transform="rotate(7.8368761)" />
        </g>
        <g
           id="g8131"
           transform="matrix(0.72083489,-0.10578348,0.09921478,0.76855905,323.15301,181.66102)"
           style="stroke-linecap:butt;stroke-linejoin:round">
          <rect
             style="fill:#00ff00;fill-opacity:0.513725;stroke:none;stroke-width:2.83465;stroke-linecap:butt;stroke-linejoin:round;stroke-dasharray:2.83465, 8.50395;stroke-dashoffset:0;stroke-opacity:0.994819"
             id="rect8125"
             width="48.346138"
             height="18.243826"
             x="38.759163"
             y="-5.7155876"
             transform="rotate(7.8368761)" />
        </g>
        <g
           id="g72215"
           transform="matrix(0.72083489,-0.10578348,0.09921478,0.76855905,323.48872,144.11122)"
           style="stroke-linecap:butt;stroke-linejoin:round">
          <rect
             style="fill:#00ffe1;fill-opacity:0.501961;stroke:none;stroke-width:2.83465;stroke-linecap:butt;stroke-linejoin:round;stroke-dasharray:2.83465, 8.50395;stroke-dashoffset:0;stroke-opacity:0.994819"
             id="rect72209"
             width="48.346138"
             height="18.243826"
             x="38.759163"
             y="-5.7155876"
             transform="rotate(7.8368761)" />
        </g>
        <g
           id="g127021"
           transform="rotate(0.64241861,18035.584,-26468.344)">
          <g
             id="g126997">
            <path
               d="M 424.82102,235.3812 H 525.17258 V 204.67417 H 424.82102 Z"
               style="fill:none"
               id="path126995" />
          </g>
          <!-- R.Barnes -->
          <g
             transform="matrix(0.25,0,0,-0.25,428.82102,226.03355)"
             id="g127019">
            <defs
               id="defs127001">
              <path
                 id="path126999"
                 d="M 4325,0 H 3194 L 1759,1981 q -159,-6 -259,-6 -41,0 -88,1 -46,2 -96,5 V 750 q 0,-400 87,-497 119,-137 356,-137 h 166 V 0 H 109 v 116 h 160 q 269,0 384,175 66,97 66,459 v 2738 q 0,400 -88,496 -122,138 -362,138 H 109 v 116 h 1544 q 675,0 995,-99 321,-98 544,-362 224,-264 224,-630 0,-391 -255,-679 -255,-287 -789,-405 L 3247,847 Q 3547,428 3762,290 3978,153 4325,116 Z M 1316,2178 q 59,0 103,-2 44,-1 72,-1 606,0 914,262 308,263 308,669 0,397 -249,645 -248,249 -658,249 -181,0 -490,-59 z"
                 transform="scale(0.015625)" />
            </defs>
            <path
               id="use127003"
               d="M 67.578125,0 H 49.90625 L 27.484375,30.953125 Q 25,30.859375 23.4375,30.859375 q -0.640625,0 -1.375,0.01563 -0.71875,0.03125 -1.5,0.07813 V 11.71875 q 0,-6.25 1.359375,-7.765625 Q 23.78125,1.8125 27.484375,1.8125 h 2.59375 V 0 h -28.375 v 1.8125 h 2.5 q 4.203125,0 6,2.734375 1.03125,1.515625 1.03125,7.171875 V 54.5 q 0,6.25 -1.375,7.75 -1.90625,2.15625 -5.65625,2.15625 h -2.5 v 1.8125 h 24.125 q 10.546875,0 15.546875,-1.546875 5.015625,-1.53125 8.5,-5.65625 3.5,-4.125 3.5,-9.84375 Q 53.375,43.0625 49.390625,38.5625 45.40625,34.078125 37.0625,32.234375 l 13.671875,-19 Q 55.421875,6.6875 58.78125,4.53125 62.15625,2.390625 67.578125,1.8125 Z M 20.5625,34.03125 q 0.921875,0 1.609375,-0.03125 0.6875,-0.01563 1.125,-0.01563 9.46875,0 14.28125,4.09375 4.8125,4.109375 4.8125,10.453125 0,6.203125 -3.890625,10.078125 Q 34.625,62.5 28.21875,62.5 q -2.828125,0 -7.65625,-0.921875 z"
               style="stroke-width:0.015625" />
            <path
               id="use127005"
               d="m 79.199219,9.46875 q 2.296875,0 3.859375,-1.59375 1.5625,-1.578125 1.5625,-3.828125 0,-2.234375 -1.59375,-3.828125 -1.578125,-1.59375 -3.828125,-1.59375 -2.25,0 -3.84375,1.59375 -1.578125,1.59375 -1.578125,3.828125 0,2.296875 1.578125,3.859375 1.59375,1.5625 3.84375,1.5625 z"
               style="stroke-width:0.015625" />
            <path
               id="use127007"
               d="m 137.88672,33.796875 q 6.89062,-1.46875 10.3125,-4.6875 4.73437,-4.5 4.73437,-11 0,-4.921875 -3.125,-9.4375 -3.125,-4.515625 -8.57812,-6.59375 Q 135.79297,0 124.60547,0 H 93.355469 v 1.8125 h 2.5 q 4.140625,0 5.953121,2.625 1.125,1.71875 1.125,7.28125 V 54.5 q 0,6.140625 -1.42187,7.75 -1.906251,2.15625 -5.656251,2.15625 h -2.5 v 1.8125 h 28.625001 q 8,0 12.82812,-1.171875 7.32813,-1.765625 11.1875,-6.234375 3.85938,-4.46875 3.85938,-10.28125 0,-4.96875 -3.03125,-8.90625 -3.03125,-3.9375 -8.9375,-5.828125 z m -25.57813,2.625 q 1.79688,-0.34375 4.10938,-0.515625 2.32812,-0.15625 5.10937,-0.15625 7.14063,0 10.71875,1.53125 3.59375,1.53125 5.5,4.703125 1.90625,3.1875 1.90625,6.9375 0,5.8125 -4.73437,9.90625 -4.73438,4.109375 -13.82813,4.109375 -4.875,0 -8.78125,-1.078125 z m 0,-31.640625 q 5.65625,-1.3125 11.17188,-1.3125 8.84375,0 13.48437,3.96875 4.64063,3.984375 4.64063,9.84375 0,3.859375 -2.10938,7.421875 -2.09375,3.5625 -6.82812,5.609375 -4.73438,2.0625 -11.71875,2.0625 -3.03125,0 -5.1875,-0.109375 -2.14063,-0.09375 -3.45313,-0.328125 z"
               style="stroke-width:0.015625" />
          </g>
        </g>
        <path
           d="m 166.75034,164.98076 -0.16164,-1.22785 -0.47394,-1.14417 -0.75391,-0.98252 -0.98252,-0.75392 -1.14417,-0.47393 -1.22785,-0.16165 -1.22785,0.16165 -1.14417,0.47393 -0.98252,0.75392 -0.75392,0.98252 -0.47393,1.14417 -0.16165,1.22785 0.16165,1.22784 0.47393,1.14417 0.75392,0.98253 0.98252,0.75391 1.14417,0.47393 1.22785,0.16165 1.22785,-0.16165 1.14417,-0.47393 0.98252,-0.75391 0.75391,-0.98253 0.47394,-1.14417 z"
           clip-path="url(#pc39d38f1dc-0)"
           style="fill:#000000;fill-opacity:1;stroke-linecap:butt;stroke-linejoin:round"
           id="path127023"
           transform="translate(17.109307,-145.23885)" />
        <g
           id="g127057"
           transform="rotate(1.1323852,10212.071,-10676.75)">
          <g
             id="g127027">
            <path
               d="M 335.13765,257.52273 H 458.09468 V 226.81569 H 335.13765 Z"
               style="fill:none"
               id="path127025" />
          </g>
          <!-- K.Williams -->
          <g
             transform="matrix(0.25,0,0,-0.25,339.13765,248.17507)"
             id="g127055">
            <defs
               id="defs127033">
              <path
                 id="path127029"
                 d="M 1913,2350 3475,797 Q 3859,413 4131,273 4403,134 4675,116 V 0 H 2659 v 116 q 182,0 261,61 80,61 80,136 0,75 -30,134 -29,59 -195,222 L 1313,2116 V 750 q 0,-322 40,-425 31,-78 131,-134 135,-75 285,-75 h 144 V 0 H 106 v 116 h 150 q 263,0 382,153 75,100 75,481 v 2738 q 0,321 -41,428 -31,75 -128,131 -138,75 -288,75 H 106 v 116 h 1807 v -116 h -144 q -147,0 -285,-72 -96,-50 -134,-150 -37,-100 -37,-412 V 2191 q 62,59 428,397 928,850 1122,1134 84,125 84,219 0,72 -66,126 -65,55 -222,55 h -96 v 116 h 1556 v -116 q -138,-3 -251,-38 -112,-34 -275,-133 -162,-98 -399,-317 -69,-62 -635,-640 z"
                 transform="scale(0.015625)" />
              <path
                 id="path127031"
                 d="m 1050,2338 q 313,312 369,359 140,119 302,184 163,66 323,66 269,0 462,-157 194,-156 260,-452 322,375 543,492 222,117 457,117 228,0 404,-117 177,-117 280,-383 69,-181 69,-569 V 647 q 0,-269 40,-369 32,-69 116,-117 84,-48 275,-48 V 0 H 3538 v 113 h 59 q 184,0 287,71 72,50 104,160 12,53 12,303 v 1231 q 0,350 -84,494 -122,200 -391,200 -166,0 -333,-83 -167,-83 -404,-308 l -7,-34 7,-134 V 647 q 0,-294 32,-366 33,-72 123,-120 91,-48 310,-48 V 0 H 1806 v 113 q 238,0 327,56 89,56 123,169 16,53 16,309 v 1231 q 0,350 -103,503 -138,200 -385,200 -168,0 -334,-90 -259,-138 -400,-310 V 647 q 0,-281 39,-366 39,-84 115,-126 77,-42 312,-42 V 0 H 100 v 113 q 197,0 275,42 78,42 118,134 41,92 41,358 v 1094 q 0,472 -28,609 -22,103 -69,142 -46,39 -128,39 -87,0 -209,-47 l -47,113 863,350 h 134 z"
                 transform="scale(0.015625)" />
            </defs>
            <path
               id="use127035"
               d="m 29.890625,36.71875 24.40625,-24.265625 q 6,-6 10.25,-8.1875 4.25,-2.171875 8.5,-2.453125 V 0 h -31.5 v 1.8125 q 2.84375,0 4.078125,0.953125 1.25,0.953125 1.25,2.125 0,1.171875 -0.46875,2.09375 -0.453125,0.921875 -3.046875,3.46875 L 20.515625,33.0625 V 11.71875 q 0,-5.03125 0.625,-6.640625 Q 21.625,3.859375 23.1875,2.984375 25.296875,1.8125 27.640625,1.8125 h 2.25 V 0 H 1.65625 V 1.8125 H 4 q 4.109375,0 5.96875,2.390625 1.171875,1.5625 1.171875,7.515625 V 54.5 q 0,5.015625 -0.640625,6.6875 -0.484375,1.171875 -2,2.046875 Q 6.34375,64.40625 4,64.40625 H 1.65625 v 1.8125 h 28.234375 v -1.8125 h -2.25 q -2.296875,0 -4.453125,-1.125 Q 21.6875,62.5 21.09375,60.9375 20.515625,59.375 20.515625,54.5 V 34.234375 q 0.96875,0.921875 6.6875,6.203125 14.5,13.28125 17.53125,17.71875 1.3125,1.953125 1.3125,3.421875 0,1.125 -1.03125,1.96875 Q 44,64.40625 41.546875,64.40625 h -1.5 v 1.8125 h 24.3125 v -1.8125 q -2.15625,-0.04687 -3.921875,-0.59375 -1.75,-0.53125 -4.296875,-2.078125 -2.53125,-1.53125 -6.234375,-4.953125 -1.078125,-0.96875 -9.921875,-10 z"
               style="stroke-width:0.015625" />
            <path
               id="use127037"
               d="m 84.716797,9.46875 q 2.296875,0 3.859375,-1.59375 1.5625,-1.578125 1.5625,-3.828125 0,-2.234375 -1.59375,-3.828125 -1.578125,-1.59375 -3.828125,-1.59375 -2.25,0 -3.84375,1.59375 -1.578125,1.59375 -1.578125,3.828125 0,2.296875 1.578125,3.859375 1.59375,1.5625 3.84375,1.5625 z"
               style="stroke-width:0.015625" />
            <path
               id="use127039"
               d="m 190.82617,66.21875 v -1.8125 q -2.59375,0 -4.20312,-0.9375 -1.60938,-0.921875 -3.07813,-3.453125 -0.96875,-1.71875 -3.07812,-8.15625 l -18.45313,-53.375 h -1.95312 L 144.9668,40.828125 129.98242,-1.515625 H 128.2168 L 108.54492,53.46875 q -2.20312,6.15625 -2.78125,7.28125 -0.98437,1.84375 -2.67187,2.75 -1.67188,0.90625 -4.562503,0.90625 v 1.8125 h 24.515623 v -1.8125 h -1.17187 q -2.57813,0 -3.95313,-1.171875 -1.35937,-1.171875 -1.35937,-2.828125 0,-1.71875 2.14062,-7.859375 L 131.73242,15.375 l 11,31.59375 -1.95312,5.578125 -1.5625,4.4375 q -1.03125,2.4375 -2.29688,4.296875 -0.64062,0.921875 -1.5625,1.5625 -1.21875,0.875 -2.45312,1.265625 -0.92188,0.296875 -2.92188,0.296875 v 1.8125 h 25.78125 v -1.8125 h -1.76562 q -2.73438,0 -4,-1.171875 -1.26563,-1.171875 -1.26563,-3.171875 0,-2.5 2.20313,-8.6875 l 12.6875,-36 12.59375,36.484375 q 2.15625,6.046875 2.15625,8.390625 0,1.125 -0.71875,2.09375 -0.70313,0.984375 -1.78125,1.375 -1.84375,0.6875 -4.82813,0.6875 v 1.8125 z"
               style="stroke-width:0.015625" />
          </g>
        </g>
        <path
           d="m 166.75034,164.98076 -0.16164,-1.22785 -0.47394,-1.14417 -0.75391,-0.98252 -0.98252,-0.75392 -1.14417,-0.47393 -1.22785,-0.16165 -1.22785,0.16165 -1.14417,0.47393 -0.98252,0.75392 -0.75392,0.98252 -0.47393,1.14417 -0.16165,1.22785 0.16165,1.22784 0.47393,1.14417 0.75392,0.98253 0.98252,0.75391 1.14417,0.47393 1.22785,0.16165 1.22785,-0.16165 1.14417,-0.47393 0.98252,-0.75391 0.75391,-0.98253 0.47394,-1.14417 z"
           clip-path="url(#pc39d38f1dc-0)"
           style="fill:#000000;fill-opacity:1;stroke-linecap:butt;stroke-linejoin:round"
           id="path127059"
           transform="translate(17.109307,-116.73885)" />
        <g
           id="g127097"
           transform="rotate(0.36566777,34072.494,-18345.322)">
          <g
             id="g127063">
            <path
               d="m 246.35038,303.57216 h 142.79687 v -30.7539 H 246.35038 Z"
               style="fill:none"
               id="path127061" />
          </g>
          <!-- J.Washington -->
          <g
             transform="matrix(0.25,0,0,-0.25,250.35038,294.17763)"
             id="g127095">
            <defs
               id="defs127069">
              <path
                 id="path127065"
                 d="M 1041,4444 V 2350 q 347,381 550,489 203,108 406,108 244,0 419,-135 175,-134 259,-421 59,-200 59,-732 V 647 q 0,-272 44,-372 31,-75 106,-119 75,-43 275,-43 V 0 H 1753 v 113 h 66 q 200,0 278,60 78,61 109,180 10,50 10,294 v 1012 q 0,469 -49,616 -48,147 -155,220 -106,74 -256,74 -153,0 -319,-82 -165,-81 -396,-328 V 647 q 0,-294 32,-366 33,-72 122,-120 89,-48 308,-48 V 0 H 84 v 113 q 191,0 300,59 63,31 100,118 38,88 38,357 v 2591 q 0,490 -24,602 -23,113 -72,153 -48,41 -129,41 -66,0 -213,-50 l -43,110 856,350 z"
                 transform="scale(0.015625)" />
              <path
                 id="path127067"
                 d="m 966,1044 q -263,128 -404,357 -140,230 -140,508 0,425 320,731 321,307 821,307 409,0 709,-200 h 606 q 135,0 156,-8 22,-8 32,-26 18,-29 18,-100 0,-82 -15,-113 -10,-16 -33,-25 -23,-9 -158,-9 h -372 q 175,-225 175,-575 0,-400 -306,-685 -306,-284 -822,-284 -212,0 -434,62 Q 981,866 932,777 884,688 884,625 q 0,-53 52,-103 52,-50 202,-72 87,-12 437,-22 644,-15 834,-44 291,-40 464,-215 174,-175 174,-432 0,-353 -331,-662 -488,-456 -1272,-456 -603,0 -1019,272 -234,156 -234,325 0,75 34,150 53,115 219,321 22,29 319,338 -163,97 -230,173 -67,77 -67,174 0,109 89,256 89,147 411,416 z m 543,1753 q -231,0 -387,-185 -156,-184 -156,-565 0,-494 212,-766 163,-206 413,-206 237,0 390,178 153,178 153,560 0,496 -215,778 -160,206 -410,206 z M 934,0 q -146,-159 -221,-296 -75,-138 -75,-254 0,-150 181,-263 312,-193 903,-193 562,0 829,199 268,198 268,423 0,162 -160,231 -162,69 -643,81 -703,19 -1082,72 z"
                 transform="scale(0.015625)" />
            </defs>
            <path
               id="use127071"
               d="m 9.96875,64.40625 v 1.8125 h 28.359375 v -1.8125 H 35.9375 q -4.046875,0 -5.90625,-2.390625 Q 28.859375,60.453125 28.859375,54.5 V 22.125 q 0,-7.46875 -1.640625,-12.109375 -1.625,-4.640625 -5.640625,-8.09375 -4,-3.4375 -9.65625,-3.4375 -4.59375,0 -7.234375,2.265625 -2.640625,2.28125 -2.640625,5.203125 0,2.390625 1.21875,3.625 1.625,1.5 3.765625,1.5 1.5625,0 2.796875,-1.03125 1.25,-1.015625 3.15625,-5.453125 1.125,-2.640625 2.890625,-2.640625 1.3125,0 2.453125,1.609375 1.15625,1.609375 1.15625,5.71875 V 54.5 q 0,5.015625 -0.640625,6.640625 -0.484375,1.21875 -2.046875,2.09375 -2.09375,1.171875 -4.4375,1.171875 z"
               style="stroke-width:0.015625" />
            <path
               id="use127073"
               d="m 51.416016,9.46875 q 2.296875,0 3.859375,-1.59375 1.5625,-1.578125 1.5625,-3.828125 0,-2.234375 -1.59375,-3.828125 -1.578125,-1.59375 -3.828125,-1.59375 -2.25,0 -3.84375,1.59375 -1.578125,1.59375 -1.578125,3.828125 0,2.296875 1.578125,3.859375 1.59375,1.5625 3.84375,1.5625 z"
               style="stroke-width:0.015625" />
            <path
               id="use127075"
               d="m 157.52539,66.21875 v -1.8125 q -2.59375,0 -4.20312,-0.9375 -1.60938,-0.921875 -3.07813,-3.453125 -0.96875,-1.71875 -3.07812,-8.15625 l -18.45313,-53.375 h -1.95312 L 111.66602,40.828125 96.681641,-1.515625 H 94.916016 L 75.244141,53.46875 q -2.203125,6.15625 -2.78125,7.28125 -0.984375,1.84375 -2.671875,2.75 -1.671875,0.90625 -4.5625,0.90625 v 1.8125 h 24.515625 v -1.8125 h -1.171875 q -2.578125,0 -3.953125,-1.171875 -1.359375,-1.171875 -1.359375,-2.828125 0,-1.71875 2.140625,-7.859375 L 98.431641,15.375 l 10.999999,31.59375 -1.95312,5.578125 -1.5625,4.4375 q -1.03125,2.4375 -2.29688,4.296875 -0.64062,0.921875 -1.5625,1.5625 -1.21875,0.875 -2.453124,1.265625 -0.921875,0.296875 -2.921875,0.296875 v 1.8125 h 25.781249 v -1.8125 h -1.76562 q -2.73438,0 -4,-1.171875 -1.26563,-1.171875 -1.26563,-3.171875 0,-2.5 2.20313,-8.6875 l 12.6875,-36 12.59375,36.484375 q 2.15625,6.046875 2.15625,8.390625 0,1.125 -0.71875,2.09375 -0.70313,0.984375 -1.78125,1.375 -1.84375,0.6875 -4.82813,0.6875 v 1.8125 z"
               style="stroke-width:0.015625" />
          </g>
        </g>
        <path
           d="m 166.75034,164.98076 -0.16164,-1.22785 -0.47394,-1.14417 -0.75391,-0.98252 -0.98252,-0.75392 -1.14417,-0.47393 -1.22785,-0.16165 -1.22785,0.16165 -1.14417,0.47393 -0.98252,0.75392 -0.75392,0.98252 -0.47393,1.14417 -0.16165,1.22785 0.16165,1.22784 0.47393,1.14417 0.75392,0.98253 0.98252,0.75391 1.14417,0.47393 1.22785,0.16165 1.22785,-0.16165 1.14417,-0.47393 0.98252,-0.75391 0.75391,-0.98253 0.47394,-1.14417 z"
           clip-path="url(#pc39d38f1dc-0)"
           style="fill:#000000;fill-opacity:1;stroke-linecap:butt;stroke-linejoin:round"
           id="path127151"
           transform="translate(17.346691,2.144269)" />
        <g
           id="g127166">
          <path
             style="fill:none;fill-opacity:1;stroke:#000000;stroke-width:2;stroke-dasharray:none;stroke-dashoffset:0;stroke-opacity:1"
             d="m 179.92609,21.072425 168.5794,3.241911 -167.76892,25.124815"
             id="path127163" />
        </g>
        <path
           style="fill:none;fill-opacity:1;stroke:#000000;stroke-width:2;stroke-dasharray:none;stroke-dashoffset:0;stroke-opacity:1"
           d="M 181.54705,94.825912 350.12644,65.648709 181.54705,73.753488"
           id="path127168" />
        <path
           style="fill:none;fill-opacity:1;stroke:#000000;stroke-width:2;stroke-dasharray:none;stroke-dashoffset:0;stroke-opacity:1"
           d="M 348.50549,65.648709 177.49465,49.439151"
           id="path127170" />
        <g
           id="g127196"
           transform="rotate(-0.88062615,-9302.7145,7781.3683)">
          <g
             id="g127174">
            <path
               d="m 239.83711,281.38432 h 86.97265 v -30.70703 h -86.97265 z"
               style="fill:none"
               id="path127172" />
          </g>
          <!-- M.Tune -->
          <g
             transform="matrix(0.25,0,0,-0.25,243.83711,272.03666)"
             id="g127194">
            <defs
               id="defs127180">
              <path
                 id="path127176"
                 d="m 3703,4238 47,-994 h -119 q -34,262 -93,375 -97,181 -258,267 -161,86 -424,86 H 2259 V 734 q 0,-390 85,-487 119,-131 365,-131 h 147 V 0 H 1059 v 116 h 150 q 269,0 382,162 68,100 68,456 V 3972 H 1150 Q 853,3972 728,3928 566,3869 450,3700 334,3531 313,3244 H 194 l 50,994 z"
                 transform="scale(0.015625)" />
              <path
                 id="path127178"
                 d="M 2709,2863 V 1128 q 0,-497 23,-608 24,-111 75,-155 52,-43 121,-43 97,0 219,53 L 3191,266 2334,-88 H 2194 V 519 Q 1825,119 1631,15 1438,-88 1222,-88 981,-88 804,51 628,191 559,409 491,628 491,1028 v 1278 q 0,203 -44,281 -44,79 -130,121 -86,42 -311,39 v 116 H 1009 V 947 q 0,-400 139,-525 140,-125 336,-125 135,0 305,84 170,85 405,322 v 1622 q 0,244 -89,330 -89,86 -371,92 v 116 z"
                 transform="scale(0.015625)" />
            </defs>
            <path
               id="use127182"
               d="m 40.921875,0 -25.59375,55.71875 v -44.25 q 0,-6.09375 1.328125,-7.609375 Q 18.453125,1.8125 22.359375,1.8125 h 2.34375 V 0 H 1.65625 V 1.8125 H 4 q 4.203125,0 5.96875,2.53125 1.0625,1.5625 1.0625,7.125 v 43.265625 q 0,4.390625 -0.96875,6.34375 Q 9.375,62.5 7.546875,63.453125 5.71875,64.40625 1.65625,64.40625 v 1.8125 h 18.75 l 24.03125,-51.8125 23.625,51.8125 h 18.75 v -1.8125 h -2.296875 q -4.234375,0 -6,-2.546875 -1.078125,-1.5625 -1.078125,-7.125 V 11.46875 q 0,-6.09375 1.375,-7.609375 Q 80.609375,1.8125 84.515625,1.8125 H 86.8125 V 0 h -28.125 v 1.8125 h 2.34375 q 4.25,0 5.96875,2.53125 1.0625,1.5625 1.0625,7.125 v 44.25 L 42.53125,0 Z"
               style="stroke-width:0.015625" />
            <path
               id="use127184"
               d="m 101.41602,9.46875 q 2.29687,0 3.85937,-1.59375 1.5625,-1.578125 1.5625,-3.828125 0,-2.234375 -1.59375,-3.828125 -1.57812,-1.59375 -3.82812,-1.59375 -2.250004,0 -3.843754,1.59375 -1.578125,1.59375 -1.578125,3.828125 0,2.296875 1.578125,3.859375 1.59375,1.5625 3.843754,1.5625 z"
               style="stroke-width:0.015625" />
            <path
               id="use127186"
               d="m 171.7754,66.21875 0.73437,-15.53125 h -1.85937 q -0.53125,4.09375 -1.45313,5.859375 -1.51562,2.828125 -4.03125,4.171875 -2.51562,1.34375 -6.625,1.34375 H 149.2129 V 11.46875 q 0,-6.09375 1.32812,-7.609375 Q 152.4004,1.8125 156.24415,1.8125 h 2.29687 V 0 H 130.4629 v 1.8125 h 2.34375 q 4.20312,0 5.96875,2.53125 1.0625,1.5625 1.0625,7.125 V 62.0625 h -7.95313 q -4.64062,0 -6.59375,-0.6875 -2.53125,-0.921875 -4.34375,-3.5625 -1.8125,-2.640625 -2.14062,-7.125 h -1.85938 l 0.78125,15.53125 z"
               style="stroke-width:0.015625" />
          </g>
        </g>
        <path
           d="m 166.75034,164.98076 -0.16164,-1.22785 -0.47394,-1.14417 -0.75391,-0.98252 -0.98252,-0.75392 -1.14417,-0.47393 -1.22785,-0.16165 -1.22785,0.16165 -1.14417,0.47393 -0.98252,0.75392 -0.75392,0.98252 -0.47393,1.14417 -0.16165,1.22785 0.16165,1.22784 0.47393,1.14417 0.75392,0.98253 0.98252,0.75391 1.14417,0.47393 1.22785,0.16165 1.22785,-0.16165 1.14417,-0.47393 0.98252,-0.75391 0.75391,-0.98253 0.47394,-1.14417 z"
           clip-path="url(#pc39d38f1dc-0)"
           style="fill:#000000;fill-opacity:1;stroke-linecap:butt;stroke-linejoin:round"
           id="path127198"
           transform="translate(17.109307,-44.122496)" />
        <path
           style="fill:none;fill-opacity:1;stroke:#000000;stroke-width:2;stroke-dasharray:none;stroke-dashoffset:0;stroke-opacity:1"
           d="M 179.92609,122.38216 348.50549,65.648709"
           id="path127200" />
        <g
           id="g127208"
           transform="matrix(1.0004566,0,0,0.90162415,-0.12081684,13.79736)">
          <path
             style="fill:none;fill-opacity:1;stroke:#000000;stroke-width:2;stroke-dasharray:none;stroke-dashoffset:0;stroke-opacity:1"
             d="m 179.11561,142.6441 170.20036,-42.14484 -168.5794,69.7011"
             id="path127202" />
          <path
             style="fill:none;fill-opacity:1;stroke:#000000;stroke-width:1.97372;stroke-dasharray:none;stroke-dashoffset:0;stroke-opacity:1"
             d="M 349.31482,99.713787 183.69942,89.767205"
             id="path127204" />
        </g>
        <g
           id="g127244"
           transform="translate(81,-43.5)">
          <g
             id="g127220">
            <path
               d="M 47.467053,253.45485 H 129.75611 V 222.74782 H 47.467053 Z"
               style="fill:none"
               id="path127218" />
          </g>
          <!-- L.Ernst -->
          <g
             transform="matrix(0.25,0,0,-0.25,51.467053,244.10719)"
             id="g127242">
            <defs
               id="defs127226">
              <path
                 id="path127222"
                 d="M 3669,1172 3772,1150 3409,0 H 128 v 116 h 160 q 268,0 384,175 66,100 66,462 v 2735 q 0,396 -88,496 -122,138 -362,138 H 128 v 116 h 1919 v -116 q -338,3 -474,-63 -135,-65 -185,-165 -50,-100 -50,-478 V 753 q 0,-259 50,-356 37,-66 115,-97 78,-31 488,-31 h 309 q 488,0 684,72 197,72 359,254 163,183 326,577 z"
                 transform="scale(0.015625)" />
              <path
                 id="path127224"
                 d="M 1338,4006 V 2331 h 931 q 362,0 484,110 163,143 181,506 h 116 V 1472 h -116 q -43,309 -87,397 -56,109 -185,171 -128,63 -393,63 H 1338 V 706 q 0,-281 25,-342 25,-61 87,-97 63,-36 238,-36 h 718 q 360,0 522,50 163,50 313,197 193,194 397,585 h 125 L 3397,0 H 131 v 116 h 150 q 150,0 285,72 100,50 136,150 36,100 36,409 v 2753 q 0,403 -82,497 -112,125 -375,125 H 131 v 116 h 3266 l 47,-929 h -122 q -66,335 -146,460 -79,125 -235,190 -125,47 -441,47 z"
                 transform="scale(0.015625)" />
            </defs>
            <path
               id="use127228"
               d="M 57.328125,18.3125 58.9375,17.96875 53.265625,0 H 2 v 1.8125 h 2.5 q 4.1875,0 6,2.734375 1.03125,1.5625 1.03125,7.21875 V 54.5 q 0,6.1875 -1.375,7.75 Q 8.25,64.40625 4.5,64.40625 H 2 v 1.8125 h 29.984375 v -1.8125 q -5.28125,0.04687 -7.40625,-0.984375 Q 22.46875,62.40625 21.6875,60.84375 20.90625,59.28125 20.90625,53.375 V 11.765625 q 0,-4.046875 0.78125,-5.5625 0.578125,-1.03125 1.796875,-1.515625 1.21875,-0.484375 7.625,-0.484375 H 35.9375 q 7.625,0 10.6875,1.125 3.078125,1.125 5.609375,3.96875 2.546875,2.859375 5.09375,9.015625 z"
               style="stroke-width:0.015625" />
            <path
               id="use127230"
               d="m 73.583984,9.46875 q 2.296875,0 3.859375,-1.59375 1.5625,-1.578125 1.5625,-3.828125 0,-2.234375 -1.59375,-3.828125 -1.578125,-1.59375 -3.828125,-1.59375 -2.25,0 -3.84375,1.59375 -1.578125,1.59375 -1.578125,3.828125 0,2.296875 1.578125,3.859375 1.59375,1.5625 3.84375,1.5625 z"
               style="stroke-width:0.015625" />
            <path
               id="use127232"
               d="M 106.99023,62.59375 V 36.421875 h 14.54688 q 5.65625,0 7.5625,1.71875 2.54687,2.234375 2.82812,7.90625 h 1.8125 V 23 h -1.8125 q -0.67187,4.828125 -1.35937,6.203125 -0.875,1.703125 -2.89063,2.671875 -2,0.984375 -6.14062,0.984375 H 106.99023 V 11.03125 q 0,-4.390625 0.39063,-5.34375 0.39062,-0.953125 1.35937,-1.515625 0.98438,-0.5625 3.71875,-0.5625 h 11.21875 q 5.625,0 8.15625,0.78125 2.54688,0.78125 4.89063,3.078125 3.01562,3.03125 6.20312,9.140625 h 1.95313 L 139.16211,0 H 88.130859 v 1.8125 h 2.34375 q 2.34375,0 4.453125,1.125 1.5625,0.78125 2.125,2.34375 0.5625,1.5625 0.5625,6.390625 V 54.6875 q 0,6.296875 -1.28125,7.765625 -1.75,1.953125 -5.859375,1.953125 h -2.34375 v 1.8125 h 51.031251 l 0.73437,-14.515625 h -1.90625 q -1.03125,5.234375 -2.28125,7.1875 -1.23437,1.953125 -3.67187,2.96875 -1.95313,0.734375 -6.89063,0.734375 z"
               style="stroke-width:0.015625" />
          </g>
        </g>
        <g
           id="g127264"
           transform="rotate(-0.86786347,-4020.5854,-6257.6069)">
          <g
             id="g127248">
            <path
               d="M 50.336178,297.01494 H 115.28149 V 266.30791 H 50.336178 Z"
               style="fill:none"
               id="path127246" />
          </g>
          <!-- Kristi -->
          <g
             transform="matrix(0.25,0,0,-0.25,54.336178,287.66728)"
             id="g127262">
            <path
               id="use127250"
               d="m 29.890625,36.71875 24.40625,-24.265625 q 6,-6 10.25,-8.1875 4.25,-2.171875 8.5,-2.453125 V 0 h -31.5 v 1.8125 q 2.84375,0 4.078125,0.953125 1.25,0.953125 1.25,2.125 0,1.171875 -0.46875,2.09375 -0.453125,0.921875 -3.046875,3.46875 L 20.515625,33.0625 V 11.71875 q 0,-5.03125 0.625,-6.640625 Q 21.625,3.859375 23.1875,2.984375 25.296875,1.8125 27.640625,1.8125 h 2.25 V 0 H 1.65625 V 1.8125 H 4 q 4.109375,0 5.96875,2.390625 1.171875,1.5625 1.171875,7.515625 V 54.5 q 0,5.015625 -0.640625,6.6875 -0.484375,1.171875 -2,2.046875 Q 6.34375,64.40625 4,64.40625 H 1.65625 v 1.8125 h 28.234375 v -1.8125 h -2.25 q -2.296875,0 -4.453125,-1.125 Q 21.6875,62.5 21.09375,60.9375 20.515625,59.375 20.515625,54.5 V 34.234375 q 0.96875,0.921875 6.6875,6.203125 14.5,13.28125 17.53125,17.71875 1.3125,1.953125 1.3125,3.421875 0,1.125 -1.03125,1.96875 Q 44,64.40625 41.546875,64.40625 h -1.5 v 1.8125 h 24.3125 v -1.8125 q -2.15625,-0.04687 -3.921875,-0.59375 -1.75,-0.53125 -4.296875,-2.078125 -2.53125,-1.53125 -6.234375,-4.953125 -1.078125,-0.96875 -9.921875,-10 z"
               style="stroke-width:0.015625" />
          </g>
        </g>
        <path
           d="m 166.75034,164.98076 -0.16164,-1.22785 -0.47394,-1.14417 -0.75391,-0.98252 -0.98252,-0.75392 -1.14417,-0.47393 -1.22785,-0.16165 -1.22785,0.16165 -1.14417,0.47393 -0.98252,0.75392 -0.75392,0.98252 -0.47393,1.14417 -0.16165,1.22785 0.16165,1.22784 0.47393,1.14417 0.75392,0.98253 0.98252,0.75391 1.14417,0.47393 1.22785,0.16165 1.22785,-0.16165 1.14417,-0.47393 0.98252,-0.75391 0.75391,-0.98253 0.47394,-1.14417 z"
           clip-path="url(#pc39d38f1dc-0)"
           style="fill:#000000;fill-opacity:1;stroke-linecap:butt;stroke-linejoin:round"
           id="path127266"
           transform="translate(17.346691,29.144269)" />
        <path
           d="m 166.75034,164.98076 -0.16164,-1.22785 -0.47394,-1.14417 -0.75391,-0.98252 -0.98252,-0.75392 -1.14417,-0.47393 -1.22785,-0.16165 -1.22785,0.16165 -1.14417,0.47393 -0.98252,0.75392 -0.75392,0.98252 -0.47393,1.14417 -0.16165,1.22785 0.16165,1.22784 0.47393,1.14417 0.75392,0.98253 0.98252,0.75391 1.14417,0.47393 1.22785,0.16165 1.22785,-0.16165 1.14417,-0.47393 0.98252,-0.75391 0.75391,-0.98253 0.47394,-1.14417 z m -3.28574,0.29121 171.64177,-46.1341 z"
           clip-path="url(#pc39d38f1dc-0)"
           style="fill:#000000;fill-opacity:1;stroke-linecap:butt;stroke-linejoin:round"
           id="path127268"
           transform="translate(17.346691,51.644269)" />
        <g
           id="g127334">
          <g
             id="g127327">
            <path
               style="fill:none;fill-opacity:1;stroke:#000000;stroke-width:2;stroke-dasharray:none;stroke-dashoffset:0;stroke-opacity:1"
               d="m 179.78703,141.74229 170.81418,43.02282 -169.86464,8.93911"
               id="path127324"
               sodipodi:nodetypes="ccc" />
          </g>
          <path
             style="fill:none;fill-opacity:1;stroke:#000000;stroke-width:1.68728;stroke-dasharray:none;stroke-dashoffset:0;stroke-opacity:1"
             d="M 180.15969,217.70198 351.95847,184.89685"
             id="path127329" />
        </g>
      </g>
      <ellipse
         style="fill:none;fill-opacity:0.0466321;stroke:#0000ff;stroke-width:4.02168;stroke-linecap:butt;stroke-linejoin:round;stroke-dasharray:4.02168, 8.04337;stroke-dashoffset:0;stroke-opacity:1"
         id="path47287"
         cx="255.0374"
         cy="165.04868"
         rx="186.16708"
         ry="149.15208" />
      <g
         id="g133725">
        <path
           style="fill:none;fill-opacity:1;stroke:#000000;stroke-width:2;stroke-dasharray:none;stroke-dashoffset:0;stroke-opacity:1"
           d="M 179.37855,159.32024 351.30687,183.96331 179.37855,111.18032"
           id="path133719" />
        <path
           style="fill:none;fill-opacity:1;stroke:#000000;stroke-width:2;stroke-dasharray:none;stroke-dashoffset:0;stroke-opacity:1"
           d="M 351.34216,184.78896 181.54705,179.52085"
           id="path133721" />
      </g>
      <ellipse
         style="fill:#e9e9e9;fill-opacity:0.0466321;stroke:#0000ff;stroke-width:4;stroke-linecap:butt;stroke-linejoin:round;stroke-dasharray:4,8;stroke-dashoffset:0;stroke-opacity:1"
         id="ellipse133875"
         cx="268.53699"
         cy="137.57359"
         rx="151.29501"
         ry="70.037704" />
      <ellipse
         style="fill:#e9e9e9;fill-opacity:0.0466321;stroke:#0000ff;stroke-width:4;stroke-linecap:butt;stroke-linejoin:round;stroke-dasharray:4, 8;stroke-dashoffset:0;stroke-opacity:1"
         id="ellipse135329"
         cx="257.41794"
         cy="169.68846"
         rx="180.30334"
         ry="109.19886" />
      <text
         xml:space="preserve"
         style="font-style:normal;font-weight:normal;font-size:30px;line-height:1.25;font-family:sans-serif;fill:#000000;fill-opacity:1;stroke:none;stroke-width:0.75;stroke-linecap:butt;stroke-linejoin:round"
         x="171.55594"
         y="302.76025"
         id="text5566"><tspan
           sodipodi:role="line"
           id="tspan5564"
           style="font-style:normal;font-variant:normal;font-weight:bold;font-stretch:normal;font-size:22px;font-family:sans-serif;-inkscape-font-specification:'sans-serif, Bold';font-variant-ligatures:normal;font-variant-caps:normal;font-variant-numeric:normal;font-variant-east-asian:normal;stroke-width:0.75"
           x="171.55594"
           y="302.76025">2-core</tspan></text>
      <text
         xml:space="preserve"
         style="font-style:normal;font-weight:normal;font-size:30px;line-height:1.25;font-family:sans-serif;fill:#000000;fill-opacity:1;stroke:none;stroke-width:0.75;stroke-linecap:butt;stroke-linejoin:round"
         x="232.4142"
         y="275.28876"
         id="text138264"><tspan
           sodipodi:role="line"
           id="tspan138262"
           style="font-style:normal;font-variant:normal;font-weight:bold;font-stretch:normal;font-size:22px;font-family:sans-serif;-inkscape-font-specification:'sans-serif, Bold';font-variant-ligatures:normal;font-variant-caps:normal;font-variant-numeric:normal;font-variant-east-asian:normal;stroke-width:0.75"
           x="232.4142"
           y="275.28876">3-core</tspan></text>
      <text
         xml:space="preserve"
         style="font-style:normal;font-weight:normal;font-size:30px;line-height:1.25;font-family:sans-serif;fill:#000000;fill-opacity:1;stroke:none;stroke-width:0.75;stroke-linecap:butt;stroke-linejoin:round"
         x="341.94968"
         y="168.32957"
         id="text138268"><tspan
           sodipodi:role="line"
           id="tspan138266"
           style="font-style:normal;font-variant:normal;font-weight:bold;font-stretch:normal;font-size:22px;font-family:sans-serif;-inkscape-font-specification:'sans-serif, Bold';font-variant-ligatures:normal;font-variant-caps:normal;font-variant-numeric:normal;font-variant-east-asian:normal;stroke-width:0.75"
           x="341.94968"
           y="168.32957">4-core</tspan></text>
      <text
         xml:space="preserve"
         style="font-style:normal;font-weight:normal;font-size:30px;line-height:1.25;font-family:sans-serif;fill:#000000;fill-opacity:1;stroke:none;stroke-width:0.75;stroke-linecap:butt;stroke-linejoin:round"
         x="356.81854"
         y="66.917519"
         id="text147030"><tspan
           sodipodi:role="line"
           id="tspan147028"
           style="font-style:normal;font-variant:normal;font-weight:normal;font-stretch:normal;font-size:18px;font-family:sans-serif;-inkscape-font-specification:'sans-serif, Normal';font-variant-ligatures:normal;font-variant-caps:normal;font-variant-numeric:normal;font-variant-east-asian:normal;stroke-width:0.75"
           x="356.81854"
           y="66.917519">e1</tspan></text>
      <text
         xml:space="preserve"
         style="font-style:normal;font-weight:normal;font-size:30px;line-height:1.25;font-family:sans-serif;fill:#000000;fill-opacity:1;stroke:none;stroke-width:0.75;stroke-linecap:butt;stroke-linejoin:round"
         x="356.81854"
         y="108.91752"
         id="text147034"><tspan
           sodipodi:role="line"
           id="tspan147032"
           style="font-style:normal;font-variant:normal;font-weight:normal;font-stretch:normal;font-size:18px;font-family:sans-serif;-inkscape-font-specification:'sans-serif, Normal';font-variant-ligatures:normal;font-variant-caps:normal;font-variant-numeric:normal;font-variant-east-asian:normal;stroke-width:0.75"
           x="356.81854"
           y="108.91752">e2</tspan></text>
      <text
         xml:space="preserve"
         style="font-style:normal;font-weight:normal;font-size:30px;line-height:1.25;font-family:sans-serif;fill:#000000;fill-opacity:1;stroke:none;stroke-width:0.75;stroke-linecap:butt;stroke-linejoin:round"
         x="356.81854"
         y="147.91751"
         id="text147038"><tspan
           sodipodi:role="line"
           id="tspan147036"
           style="font-style:normal;font-variant:normal;font-weight:normal;font-stretch:normal;font-size:18px;font-family:sans-serif;-inkscape-font-specification:'sans-serif, Normal';font-variant-ligatures:normal;font-variant-caps:normal;font-variant-numeric:normal;font-variant-east-asian:normal;stroke-width:0.75"
           x="356.81854"
           y="147.91751">e3</tspan></text>
      <text
         xml:space="preserve"
         style="font-style:normal;font-weight:normal;font-size:30px;line-height:1.25;font-family:sans-serif;fill:#000000;fill-opacity:1;stroke:none;stroke-width:0.75;stroke-linecap:butt;stroke-linejoin:round"
         x="356.81854"
         y="189.91751"
         id="text147042"><tspan
           sodipodi:role="line"
           id="tspan147040"
           style="font-style:normal;font-variant:normal;font-weight:normal;font-stretch:normal;font-size:18px;font-family:sans-serif;-inkscape-font-specification:'sans-serif, Normal';font-variant-ligatures:normal;font-variant-caps:normal;font-variant-numeric:normal;font-variant-east-asian:normal;stroke-width:0.75"
           x="356.81854"
           y="189.91751">e4</tspan></text>
      <text
         xml:space="preserve"
         style="font-style:normal;font-weight:normal;font-size:30px;line-height:1.25;font-family:sans-serif;fill:#000000;fill-opacity:1;stroke:none;stroke-width:0.75;stroke-linecap:butt;stroke-linejoin:round"
         x="356.81854"
         y="228.91751"
         id="text147046"><tspan
           sodipodi:role="line"
           id="tspan147044"
           style="font-style:normal;font-variant:normal;font-weight:normal;font-stretch:normal;font-size:18px;font-family:sans-serif;-inkscape-font-specification:'sans-serif, Normal';font-variant-ligatures:normal;font-variant-caps:normal;font-variant-numeric:normal;font-variant-east-asian:normal;stroke-width:0.75"
           x="356.81854"
           y="228.91751">e5</tspan></text>
    </g>
  </g>
  <defs
     id="defs39038">
    <clipPath
       id="pc39d38f1dc">
      <rect
         x="7.2"
         y="7.2"
         width="446.4"
         height="443.52"
         id="rect39035" />
    </clipPath>
  </defs>
</svg>
