<?xml version="1.0" encoding="UTF-8" standalone="no"?>
<svg
   width="528.372582pt"
   height="457.92pt"
   viewBox="0 0 528.372582 457.92"
   version="1.1"
   id="svg39040"
   sodipodi:docname="clique_core3.svg"
   inkscape:version="1.2.1 (9c6d41e410, 2022-07-14)"
   xmlns:inkscape="http://www.inkscape.org/namespaces/inkscape"
   xmlns:sodipodi="http://sodipodi.sourceforge.net/DTD/sodipodi-0.dtd"
   xmlns:xlink="http://www.w3.org/1999/xlink"
   xmlns="http://www.w3.org/2000/svg"
   xmlns:svg="http://www.w3.org/2000/svg"
   xmlns:rdf="http://www.w3.org/1999/02/22-rdf-syntax-ns#"
   xmlns:cc="http://creativecommons.org/ns#"
   xmlns:dc="http://purl.org/dc/elements/1.1/">
  <sodipodi:namedview
     id="namedview39042"
     pagecolor="#ffffff"
     bordercolor="#000000"
     borderopacity="0.25"
     inkscape:showpageshadow="2"
     inkscape:pageopacity="0.0"
     inkscape:pagecheckerboard="0"
     inkscape:deskcolor="#d1d1d1"
     inkscape:document-units="pt"
     showgrid="false"
     inkscape:zoom="0.46268998"
     inkscape:cx="-46.4674"
     inkscape:cy="205.32107"
     inkscape:window-width="1366"
     inkscape:window-height="705"
     inkscape:window-x="-8"
     inkscape:window-y="-8"
     inkscape:window-maximized="1"
     inkscape:current-layer="axes_1" />
  <metadata
     id="metadata38730">
    <rdf:RDF>
      <cc:Work>
        <dc:type
           rdf:resource="http://purl.org/dc/dcmitype/StillImage" />
        <dc:date>2022-12-05T21:35:45.941533</dc:date>
        <dc:format>image/svg+xml</dc:format>
        <dc:creator>
          <cc:Agent>
            <dc:title>Matplotlib v3.5.2, https://matplotlib.org/</dc:title>
          </cc:Agent>
        </dc:creator>
      </cc:Work>
    </rdf:RDF>
  </metadata>
  <defs
     id="defs38734">
    <style
       type="text/css"
       id="style38732">*{stroke-linejoin: round; stroke-linecap: butt}</style>
    <path
       id="TimesNewRomanPSMT-68"
       d="M 1041,4444 V 2350 q 347,381 550,489 203,108 406,108 244,0 419,-135 175,-134 259,-421 59,-200 59,-732 V 647 q 0,-272 44,-372 31,-75 106,-119 75,-43 275,-43 V 0 H 1753 v 113 h 66 q 200,0 278,60 78,61 109,180 10,50 10,294 v 1012 q 0,469 -49,616 -48,147 -155,220 -106,74 -256,74 -153,0 -319,-82 -165,-81 -396,-328 V 647 q 0,-294 32,-366 33,-72 122,-120 89,-48 308,-48 V 0 H 84 v 113 q 191,0 300,59 63,31 100,118 38,88 38,357 v 2591 q 0,490 -24,602 -23,113 -72,153 -48,41 -129,41 -66,0 -213,-50 l -43,110 856,350 z"
       transform="scale(0.015625)" />
    <path
       id="TimesNewRomanPSMT-67"
       d="m 966,1044 q -263,128 -404,357 -140,230 -140,508 0,425 320,731 321,307 821,307 409,0 709,-200 h 606 q 135,0 156,-8 22,-8 32,-26 18,-29 18,-100 0,-82 -15,-113 -10,-16 -33,-25 -23,-9 -158,-9 h -372 q 175,-225 175,-575 0,-400 -306,-685 -306,-284 -822,-284 -212,0 -434,62 Q 981,866 932,777 884,688 884,625 q 0,-53 52,-103 52,-50 202,-72 87,-12 437,-22 644,-15 834,-44 291,-40 464,-215 174,-175 174,-432 0,-353 -331,-662 -488,-456 -1272,-456 -603,0 -1019,272 -234,156 -234,325 0,75 34,150 53,115 219,321 22,29 319,338 -163,97 -230,173 -67,77 -67,174 0,109 89,256 89,147 411,416 z m 543,1753 q -231,0 -387,-185 -156,-184 -156,-565 0,-494 212,-766 163,-206 413,-206 237,0 390,178 153,178 153,560 0,496 -215,778 -160,206 -410,206 z M 934,0 q -146,-159 -221,-296 -75,-138 -75,-254 0,-150 181,-263 312,-193 903,-193 562,0 829,199 268,198 268,423 0,162 -160,231 -162,69 -643,81 -703,19 -1082,72 z"
       transform="scale(0.015625)" />
  </defs>
  <g
     id="figure_1">
    <g
       id="axes_1">
      <g
         id="g68034">
        <g
           id="PolyCollection_1">
          <path
             d="M 128.64674 245.865282  L 128.161793 249.548822  L 128.64674 253.232363  L 130.068534 256.664876  L 132.330281 259.612442  L 135.277847 261.874189  L 138.71036 263.295983  L 142.393901 263.78093  L 146.077441 263.295983  L 230.747576 231.419388  L 234.180089 229.997594  L 237.127655 227.735847  L 239.389402 224.788281  L 240.811196 221.355768  L 241.296143 217.672227  L 240.811196 213.988687  L 239.389402 210.556173  L 237.127655 207.608607  L 172.069929 154.917136  L 169.122363 152.655389  L 165.689849 151.233595  L 162.006309 150.748648  L 158.322768 151.233595  L 154.890255 152.655389  L 151.942689 154.917136  L 149.680942 157.864702  L 148.259148 161.297215  z "
             clip-path="url(#pc39d38f1dc)"
             style="fill:#0000ff;fill-opacity:0.5;stroke:#000000;stroke-width:0.5"
             id="path38739" />
          <path
             d="M 333.077152 228.42205  L 231.975423 199.34268  L 227.064035 198.696083  L 222.152648 199.34268  L 217.575963 201.238405  L 213.645875 204.254067  L 210.630213 208.184155  L 208.734488 212.76084  L 208.087892 217.672227  L 208.734488 222.583615  L 220.34591 269.714344  L 226.85918 291.878749  L 228.280973 295.311262  L 230.54272 298.258828  L 233.490286 300.520575  L 236.9228 301.942369  L 240.60634 302.427316  L 244.289881 301.942369  L 247.722394 300.520575  L 336.509665 254.494578  L 339.457231 252.232831  L 341.718978 249.285265  L 343.140772 245.852751  L 343.625719 242.169211  L 343.140772 238.48567  L 341.718978 235.053157  L 339.457231 232.105591  L 336.509665 229.843844  z "
             clip-path="url(#pc39d38f1dc)"
             style="fill:#ffff00;fill-opacity:0.5;stroke:#000000;stroke-width:0.5"
             id="path38741" />
          <path
             d="M 415.393443 206.280529  L 324.482224 223.839663  L 319.90554 225.735388  L 315.975452 228.751051  L 312.959789 232.681139  L 311.064064 237.257823  L 310.417468 242.169211  L 311.064064 247.080598  L 312.959789 251.657283  L 315.975452 255.587371  L 319.90554 258.603033  L 324.482224 260.498758  L 329.393611 261.145354  L 334.304999 260.498758  L 422.760524 233.77485  L 426.193037 232.353056  L 429.140603 230.091309  L 431.40235 227.143743  L 432.824144 223.71123  L 433.309091 220.027689  L 432.824144 216.344148  L 431.40235 212.911635  L 429.140603 209.964069  L 426.193037 207.702322  L 422.760524 206.280529  L 419.076983 205.795581  z "
             clip-path="url(#pc39d38f1dc)"
             style="fill:#ff0000;fill-opacity:0.5;stroke:#000000;stroke-width:0.5"
             id="path38743" />
          <path
             d="m 142.3939,230.57268 -100.670883,-6.70346 -3.683541,0.48495 -3.432513,1.4218 -2.947566,2.26174 -2.261747,2.94757 -1.421794,3.43251 -0.484947,3.68354 2.869126,43.56009 0.484947,3.68354 1.421794,3.43252 2.261747,2.94756 2.947566,2.26175 3.432513,1.42179 3.683541,0.48495 3.68354,-0.48495 99.029607,-27.53021 4.57668,-1.89573 3.93009,-3.01566 3.01566,-3.93009 1.89573,-4.57668 0.64659,-4.91139 -0.64659,-4.91139 -1.89573,-4.57668 -3.01566,-3.93009 -3.93009,-3.01566 -4.57668,-1.89573 z"
             clip-path="url(#pc39d38f1dc)"
             style="fill:#008000;fill-opacity:0.501961;stroke:#000000;stroke-width:0.5"
             id="path38745"
             transform="translate(4.5,-3)" />
          <path
             d="M 243.581142 249.596981  L 239.004458 247.701257  L 148.533135 226.636888  L 142.393901 225.828643  L 136.254666 226.636888  L 130.533811 229.006544  L 125.621201 232.776122  L 121.851622 237.688732  L 119.481966 243.409588  L 118.673721 249.548822  L 119.481966 255.688057  L 121.851622 261.408912  L 125.621201 266.321522  L 130.533811 270.091101  L 136.254666 272.460757  L 235.694953 306.524756  L 240.60634 307.171352  L 245.517728 306.524756  L 250.094412 304.629031  L 254.0245 301.613368  L 257.040163 297.68328  L 258.935888 293.106596  L 259.582484 288.195208  L 258.935888 283.283821  L 252.422618 261.119416  L 250.526893 256.542732  L 247.511231 252.612644  z "
             clip-path="url(#pc39d38f1dc)"
             style="fill:#ffff00;fill-opacity:0.5;stroke:#000000;stroke-width:0.5"
             id="path38747" />
        </g>
        <g
           id="PolyCollection_2">
          <path
             d="M 231.808071 217.672227  L 231.646422 216.44438  L 231.172491 215.300209  L 230.418575 214.317687  L 229.436053 213.563772  L 228.291882 213.08984  L 227.064035 212.928191  L 225.836188 213.08984  L 224.692017 213.563772  L 223.709495 214.317687  L 222.95558 215.300209  L 222.481648 216.44438  L 222.319999 217.672227  L 222.481648 218.900074  L 222.95558 220.044245  L 223.709495 221.026767  L 224.692017 221.780683  L 225.836188 222.254614  L 227.064035 222.416263  L 228.291882 222.254614  L 229.436053 221.780683  L 230.418575 221.026767  L 231.172491 220.044245  L 231.646422 218.900074  z "
             clip-path="url(#pc39d38f1dc)"
             style="fill-opacity:0.5"
             id="path38750" />
          <path
             d="M 147.137936 249.548822  L 146.976287 248.320975  L 146.502356 247.176804  L 145.748441 246.194282  L 144.765918 245.440367  L 143.621747 244.966436  L 142.393901 244.804786  L 141.166054 244.966436  L 140.021883 245.440367  L 139.039361 246.194282  L 138.285445 247.176804  L 137.811514 248.320975  L 137.649865 249.548822  L 137.811514 250.776669  L 138.285445 251.92084  L 139.039361 252.903362  L 140.021883 253.657278  L 141.166054 254.131209  L 142.393901 254.292858  L 143.621747 254.131209  L 144.765918 253.657278  L 145.748441 252.903362  L 146.502356 251.92084  L 146.976287 250.776669  z "
             clip-path="url(#pc39d38f1dc)"
             style="fill-opacity:0.5"
             id="path38752" />
          <path
             d="M 166.750345 164.980756  L 166.588696 163.752909  L 166.114764 162.608738  L 165.360849 161.626216  L 164.378327 160.8723  L 163.234156 160.398369  L 162.006309 160.23672  L 160.778462 160.398369  L 159.634291 160.8723  L 158.651769 161.626216  L 157.897853 162.608738  L 157.423922 163.752909  L 157.262273 164.980756  L 157.423922 166.208603  L 157.897853 167.352774  L 158.651769 168.335296  L 159.634291 169.089211  L 160.778462 169.563143  L 162.006309 169.724792  L 163.234156 169.563143  L 164.378327 169.089211  L 165.360849 168.335296  L 166.114764 167.352774  L 166.588696 166.208603  z "
             clip-path="url(#pc39d38f1dc)"
             style="fill-opacity:0.5"
             id="path38754" />
          <path
             d="M 245.350376 288.195208  L 245.188727 286.967361  L 244.714796 285.82319  L 243.96088 284.840668  L 242.978358 284.086753  L 241.834187 283.612821  L 240.60634 283.451172  L 239.378493 283.612821  L 238.234322 284.086753  L 237.2518 284.840668  L 236.497885 285.82319  L 236.023953 286.967361  L 235.862304 288.195208  L 236.023953 289.423055  L 236.497885 290.567226  L 237.2518 291.549748  L 238.234322 292.303664  L 239.378493 292.777595  L 240.60634 292.939244  L 241.834187 292.777595  L 242.978358 292.303664  L 243.96088 291.549748  L 244.714796 290.567226  L 245.188727 289.423055  z "
             clip-path="url(#pc39d38f1dc)"
             style="fill-opacity:0.5"
             id="path38756" />
          <path
             d="M 334.137647 242.169211  L 333.975998 240.941364  L 333.502067 239.797193  L 332.748151 238.814671  L 331.765629 238.060755  L 330.621458 237.586824  L 329.393611 237.425175  L 328.165765 237.586824  L 327.021593 238.060755  L 326.039071 238.814671  L 325.285156 239.797193  L 324.811225 240.941364  L 324.649576 242.169211  L 324.811225 243.397057  L 325.285156 244.541229  L 326.039071 245.523751  L 327.021593 246.277666  L 328.165765 246.751597  L 329.393611 246.913247  L 330.621458 246.751597  L 331.765629 246.277666  L 332.748151 245.523751  L 333.502067 244.541229  L 333.975998 243.397057  z "
             clip-path="url(#pc39d38f1dc)"
             style="fill-opacity:0.5"
             id="path38758" />
          <path
             d="M 238.837107 266.030804  L 238.675457 264.802957  L 238.201526 263.658786  L 237.447611 262.676264  L 236.465089 261.922348  L 235.320917 261.448417  L 234.093071 261.286768  L 232.865224 261.448417  L 231.721053 261.922348  L 230.738531 262.676264  L 229.984615 263.658786  L 229.510684 264.802957  L 229.349035 266.030804  L 229.510684 267.258651  L 229.984615 268.402822  L 230.738531 269.385344  L 231.721053 270.13926  L 232.865224 270.613191  L 234.093071 270.77484  L 235.320917 270.613191  L 236.465089 270.13926  L 237.447611 269.385344  L 238.201526 268.402822  L 238.675457 267.258651  z "
             clip-path="url(#pc39d38f1dc)"
             style="fill-opacity:0.5"
             id="path38760" />
          <path
             d="M 423.821019 220.027689  L 423.65937 218.799842  L 423.185439 217.655671  L 422.431523 216.673149  L 421.449001 215.919233  L 420.30483 215.445302  L 419.076983 215.283653  L 417.849136 215.445302  L 416.704965 215.919233  L 415.722443 216.673149  L 414.968527 217.655671  L 414.494596 218.799842  L 414.332947 220.027689  L 414.494596 221.255536  L 414.968527 222.399707  L 415.722443 223.382229  L 416.704965 224.136145  L 417.849136 224.610076  L 419.076983 224.771725  L 420.30483 224.610076  L 421.449001 224.136145  L 422.431523 223.382229  L 423.185439 222.399707  L 423.65937 221.255536  z "
             clip-path="url(#pc39d38f1dc)"
             style="fill-opacity:0.5"
             id="path38762" />
          <path
             d="M 49.336178 281.661423  L 49.174529 280.433576  L 48.700598 279.289405  L 47.946683 278.306883  L 46.964161 277.552967  L 45.819989 277.079036  L 44.592143 276.917387  L 43.364296 277.079036  L 42.220125 277.552967  L 41.237603 278.306883  L 40.483687 279.289405  L 40.009756 280.433576  L 39.848107 281.661423  L 40.009756 282.88927  L 40.483687 284.033441  L 41.237603 285.015963  L 42.220125 285.769879  L 43.364296 286.24381  L 44.592143 286.405459  L 45.819989 286.24381  L 46.964161 285.769879  L 47.946683 285.015963  L 48.700598 284.033441  L 49.174529 282.88927  z "
             clip-path="url(#pc39d38f1dc)"
             style="fill-opacity:0.5"
             id="path38764" />
          <path
             d="M 46.467053 238.101333  L 46.305404 236.873486  L 45.831473 235.729315  L 45.077557 234.746793  L 44.095035 233.992877  L 42.950864 233.518946  L 41.723017 233.357297  L 40.49517 233.518946  L 39.350999 233.992877  L 38.368477 234.746793  L 37.614561 235.729315  L 37.14063 236.873486  L 36.978981 238.101333  L 37.14063 239.32918  L 37.614561 240.473351  L 38.368477 241.455873  L 39.350999 242.209789  L 40.49517 242.68372  L 41.723017 242.845369  L 42.950864 242.68372  L 44.095035 242.209789  L 45.077557 241.455873  L 45.831473 240.473351  L 46.305404 239.32918  z "
             clip-path="url(#pc39d38f1dc)"
             style="fill-opacity:0.5"
             id="path38766" />
        </g>
        <g
           id="text_1">
          <g
             id="patch_2">
            <path
               d="M 232.808071 233.025743  L 336.870571 233.025743  L 336.870571 202.318712  L 232.808071 202.318712  L 232.808071 233.025743  z "
               style="fill:none"
               id="path38769" />
          </g>
          <!-- C.Jeffries -->
          <g
             transform="matrix(0.25,0,0,-0.25,379.45218,401.17275)"
             id="g38802">
            <defs
               id="defs38780">
              <path
                 id="TimesNewRomanPSMT-43"
                 d="m 3853,4334 97,-1440 h -97 q -194,647 -553,931 -359,284 -862,284 -422,0 -763,-214 -341,-214 -536,-683 -195,-468 -195,-1165 0,-575 184,-997 185,-422 555,-647 370,-225 845,-225 413,0 728,176 316,177 694,702 l 97,-62 Q 3728,428 3303,165 2878,-97 2294,-97 1241,-97 663,684 231,1266 231,2053 q 0,635 284,1166 285,531 783,823 499,292 1090,292 459,0 906,-225 131,-68 187,-68 85,0 147,59 81,84 116,234 z"
                 transform="scale(0.015625)" />
              <path
                 id="TimesNewRomanPSMT-2e"
                 d="M 800,606 Q 947,606 1047,504 1147,403 1147,259 1147,116 1045,14 944,-88 800,-88 656,-88 554,14 453,116 453,259 q 0,147 101,247 102,100 246,100 z"
                 transform="scale(0.015625)" />
              <path
                 id="TimesNewRomanPSMT-4a"
                 d="m 638,4122 v 116 h 1815 v -116 h -153 q -259,0 -378,-153 -75,-100 -75,-481 V 1416 Q 1847,938 1742,641 1638,344 1381,123 1125,-97 763,-97 469,-97 300,48 131,194 131,381 q 0,153 78,232 104,96 241,96 100,0 179,-66 80,-65 202,-349 72,-169 185,-169 84,0 157,103 74,103 74,366 v 2894 q 0,321 -41,425 -31,78 -131,134 -134,75 -284,75 z"
                 transform="scale(0.015625)" />
              <path
                 id="TimesNewRomanPSMT-65"
                 d="m 681,1784 q -3,-637 310,-1000 312,-362 734,-362 281,0 489,154 208,155 349,530 l 96,-62 Q 2594,616 2278,264 1963,-88 1488,-88 972,-88 605,314 238,716 238,1394 q 0,734 376,1145 377,411 945,411 482,0 791,-317 309,-317 309,-849 z m 0,182 h 1325 q -15,275 -65,387 -78,175 -233,275 -155,100 -324,100 -259,0 -464,-202 -204,-201 -239,-560 z"
                 transform="scale(0.015625)" />
              <path
                 id="TimesNewRomanPSMT-66"
                 d="M 1319,2638 V 756 q 0,-400 87,-506 116,-137 310,-137 h 259 V 0 H 266 v 113 h 128 q 125,0 228,62 103,63 142,169 39,106 39,412 V 2638 H 247 v 225 h 556 v 187 q 0,428 137,725 138,297 421,480 283,183 636,183 328,0 603,-213 181,-141 181,-316 0,-93 -81,-176 -81,-83 -175,-83 -72,0 -152,51 -79,52 -195,222 -115,171 -212,230 -97,60 -216,60 -144,0 -244,-77 -100,-77 -144,-238 -43,-160 -43,-829 v -206 h 737 v -225 z"
                 transform="scale(0.015625)" />
              <path
                 id="TimesNewRomanPSMT-72"
                 d="m 1038,2947 v -644 q 359,644 737,644 172,0 284,-105 113,-104 113,-242 0,-122 -82,-207 -81,-84 -193,-84 -109,0 -245,108 -136,108 -202,108 -56,0 -122,-62 -140,-129 -290,-422 V 669 q 0,-238 59,-360 41,-84 144,-140 103,-56 297,-56 V 0 H 72 v 113 q 219,0 325,68 78,50 109,160 16,53 16,303 v 1109 q 0,500 -21,595 -20,96 -75,139 -54,44 -135,44 -97,0 -219,-47 l -31,113 865,350 z"
                 transform="scale(0.015625)" />
              <path
                 id="TimesNewRomanPSMT-69"
                 d="m 928,4444 q 131,0 223,-93 93,-92 93,-223 0,-131 -93,-225 -92,-94 -223,-94 -131,0 -225,94 -94,94 -94,225 0,131 92,223 93,93 227,93 z M 1188,2947 V 647 q 0,-269 39,-358 39,-89 115,-133 77,-43 280,-43 V 0 H 231 v 113 q 210,0 281,40 72,41 114,134 43,94 43,360 v 1103 q 0,466 -28,603 -22,100 -69,139 -47,39 -128,39 -88,0 -213,-47 l -43,113 862,350 z"
                 transform="scale(0.015625)" />
              <path
                 id="TimesNewRomanPSMT-73"
                 d="m 2050,2947 v -975 h -103 q -119,459 -305,625 -186,166 -473,166 -219,0 -354,-116 -134,-116 -134,-256 0,-175 100,-300 97,-128 394,-272 l 456,-222 Q 2266,1288 2266,781 2266,391 1970,151 1675,-88 1309,-88 1047,-88 709,6 606,38 541,38 469,38 428,-44 H 325 V 978 H 428 Q 516,541 762,319 1009,97 1316,97 q 215,0 351,126 136,127 136,305 0,216 -152,363 -151,147 -604,372 -453,225 -594,406 -140,178 -140,450 0,353 242,590 242,238 626,238 169,0 410,-72 159,-47 212,-47 50,0 78,22 28,22 66,97 z"
                 transform="scale(0.015625)" />
            </defs>
            <g
               id="g65595"
               transform="translate(-556.786,734.12349)">
              <use
                 xlink:href="#TimesNewRomanPSMT-43"
                 id="use38782" />
              <use
                 xlink:href="#TimesNewRomanPSMT-2e"
                 x="66.699219"
                 id="use38784" />
              <use
                 xlink:href="#TimesNewRomanPSMT-4a"
                 x="91.699219"
                 id="use38786" />
            </g>
          </g>
        </g>
        <g
           id="text_2"
           transform="rotate(51.521141,203.8482,128.63768)">
          <g
             id="patch_3">
            <path
               d="M 148.13794,264.90234 H 267.13012 V 234.19531 H 148.13794 Z"
               style="fill:none"
               id="path38805" />
          </g>
          <!-- M.B.Wyatt -->
          <g
             transform="matrix(0.25,0,0,-0.25,430.09501,174.12763)"
             id="g38834">
            <defs
               id="defs38814">
              <path
                 id="TimesNewRomanPSMT-4d"
                 d="M 2619,0 981,3566 V 734 q 0,-390 85,-487 115,-131 365,-131 h 150 V 0 H 106 v 116 h 150 q 269,0 382,162 68,100 68,456 v 2769 q 0,281 -62,406 -44,91 -161,152 -117,61 -377,61 v 116 H 1306 L 2844,922 4356,4238 h 1200 v -116 h -147 q -271,0 -384,-163 -69,-100 -69,-456 V 734 q 0,-390 88,-487 115,-131 365,-131 h 147 V 0 H 3756 v 116 h 150 q 272,0 382,162 68,100 68,456 V 3566 L 2722,0 Z"
                 transform="scale(0.015625)" />
              <path
                 id="TimesNewRomanPSMT-42"
                 d="m 2956,2163 q 441,-94 660,-300 303,-288 303,-704 0,-315 -200,-604 Q 3519,266 3170,133 2822,0 2106,0 H 106 v 116 h 160 q 265,0 381,168 72,110 72,466 v 2738 q 0,393 -91,496 -122,138 -362,138 H 106 v 116 h 1832 q 512,0 821,-75 469,-113 716,-399 247,-286 247,-658 0,-318 -194,-570 -194,-252 -572,-373 z m -1637,168 q 115,-22 263,-33 149,-10 327,-10 457,0 686,98 230,98 352,301 122,204 122,444 0,372 -303,634 -303,263 -885,263 -312,0 -562,-69 z m 0,-2025 q 362,-84 715,-84 566,0 863,254 297,255 297,630 0,247 -135,475 -134,228 -437,359 -303,132 -750,132 -194,0 -332,-7 -137,-6 -221,-21 z"
                 transform="scale(0.015625)" />
              <path
                 id="TimesNewRomanPSMT-57"
                 d="m 5991,4238 v -116 q -166,0 -269,-60 -103,-59 -197,-221 -62,-110 -197,-522 L 4147,-97 H 4022 L 3056,2613 2097,-97 H 1984 L 725,3422 q -141,394 -178,466 -63,118 -171,176 -107,58 -292,58 v 116 h 1569 v -116 h -75 q -165,0 -253,-75 -87,-75 -87,-181 0,-110 137,-503 l 834,-2379 704,2022 -125,357 -100,284 q -66,156 -147,275 -41,59 -100,100 -78,56 -157,81 -59,19 -187,19 v 116 h 1650 v -116 h -113 q -175,0 -256,-75 -81,-75 -81,-203 0,-160 141,-556 l 812,-2304 806,2335 q 138,387 138,537 0,72 -46,134 -45,63 -114,88 -118,44 -309,44 v 116 z"
                 transform="scale(0.015625)" />
              <path
                 id="TimesNewRomanPSMT-79"
                 d="m 38,2863 h 1334 v -116 h -66 q -140,0 -211,-61 -70,-61 -70,-152 0,-121 103,-337 l 697,-1444 641,1581 q 53,129 53,254 0,56 -22,84 -25,34 -78,54 -53,21 -188,21 v 116 h 932 v -116 q -116,-13 -179,-51 -62,-37 -137,-140 -28,-43 -106,-240 L 1575,-541 q -169,-415 -443,-627 -273,-213 -526,-213 -184,0 -303,106 -119,106 -119,244 0,131 86,211 86,79 236,79 103,0 282,-68 125,-47 156,-47 94,0 204,97 111,96 224,375 L 1575,113 547,2272 q -47,97 -150,241 -78,109 -128,146 -72,50 -231,88 z"
                 transform="scale(0.015625)" />
              <path
                 id="TimesNewRomanPSMT-61"
                 d="M 1822,413 Q 1381,72 1269,19 1100,-59 909,-59 613,-59 420,144 228,347 228,678 q 0,210 94,363 128,212 445,399 317,188 1055,457 v 112 q 0,429 -136,588 -136,159 -395,159 -197,0 -313,-106 -119,-106 -119,-244 l 7,-181 q 0,-144 -74,-222 -73,-78 -192,-78 -116,0 -189,81 -73,82 -73,222 0,269 275,494 275,225 771,225 382,0 625,-128 185,-97 272,-303 57,-135 57,-550 V 994 q 0,-410 15,-502 16,-92 52,-123 36,-31 83,-31 50,0 87,21 66,41 253,229 V 413 q -350,-469 -669,-469 -153,0 -244,106 -90,106 -93,363 z m 0,203 V 1706 Q 1350,1519 1213,1441 966,1303 859,1153 753,1003 753,825 q 0,-225 134,-374 135,-148 310,-148 237,0 625,313 z"
                 transform="scale(0.015625)" />
              <path
                 id="TimesNewRomanPSMT-74"
                 d="m 1031,3803 v -940 h 669 V 2644 H 1031 V 788 q 0,-279 80,-376 80,-96 205,-96 103,0 200,64 97,64 150,189 h 122 Q 1678,263 1478,108 1278,-47 1066,-47 922,-47 784,33 647,113 581,261 516,409 516,719 V 2644 H 63 v 103 q 171,69 351,233 180,164 320,389 72,119 200,434 z"
                 transform="scale(0.015625)" />
            </defs>
            <g
               id="g67054"
               transform="rotate(51.720019,-119.66713,-951.69023)">
              <use
                 xlink:href="#TimesNewRomanPSMT-4d"
                 id="use38816" />
              <use
                 xlink:href="#TimesNewRomanPSMT-2e"
                 x="88.916016"
                 id="use38818" />
              <use
                 xlink:href="#TimesNewRomanPSMT-42"
                 x="113.91602"
                 id="use38820" />
              <use
                 xlink:href="#TimesNewRomanPSMT-2e"
                 x="180.61523"
                 id="use38822" />
              <use
                 xlink:href="#TimesNewRomanPSMT-57"
                 x="205.61523"
                 id="use38824" />
            </g>
          </g>
        </g>
        <g
           id="text_5"
           transform="translate(29.177204,17.830514)">
          <g
             id="patch_6">
            <path
               d="M 335.13765,257.52273 H 458.09468 V 226.81569 H 335.13765 Z"
               style="fill:none"
               id="path38914" />
          </g>
          <!-- K.Williams -->
          <g
             transform="matrix(0.25,0,0,-0.25,367.90962,292.34612)"
             id="g38941">
            <defs
               id="defs38919">
              <path
                 id="TimesNewRomanPSMT-4b"
                 d="M 1913,2350 3475,797 Q 3859,413 4131,273 4403,134 4675,116 V 0 H 2659 v 116 q 182,0 261,61 80,61 80,136 0,75 -30,134 -29,59 -195,222 L 1313,2116 V 750 q 0,-322 40,-425 31,-78 131,-134 135,-75 285,-75 h 144 V 0 H 106 v 116 h 150 q 263,0 382,153 75,100 75,481 v 2738 q 0,321 -41,428 -31,75 -128,131 -138,75 -288,75 H 106 v 116 h 1807 v -116 h -144 q -147,0 -285,-72 -96,-50 -134,-150 -37,-100 -37,-412 V 2191 q 62,59 428,397 928,850 1122,1134 84,125 84,219 0,72 -66,126 -65,55 -222,55 h -96 v 116 h 1556 v -116 q -138,-3 -251,-38 -112,-34 -275,-133 -162,-98 -399,-317 -69,-62 -635,-640 z"
                 transform="scale(0.015625)" />
              <path
                 id="TimesNewRomanPSMT-6d"
                 d="m 1050,2338 q 313,312 369,359 140,119 302,184 163,66 323,66 269,0 462,-157 194,-156 260,-452 322,375 543,492 222,117 457,117 228,0 404,-117 177,-117 280,-383 69,-181 69,-569 V 647 q 0,-269 40,-369 32,-69 116,-117 84,-48 275,-48 V 0 H 3538 v 113 h 59 q 184,0 287,71 72,50 104,160 12,53 12,303 v 1231 q 0,350 -84,494 -122,200 -391,200 -166,0 -333,-83 -167,-83 -404,-308 l -7,-34 7,-134 V 647 q 0,-294 32,-366 33,-72 123,-120 91,-48 310,-48 V 0 H 1806 v 113 q 238,0 327,56 89,56 123,169 16,53 16,309 v 1231 q 0,350 -103,503 -138,200 -385,200 -168,0 -334,-90 -259,-138 -400,-310 V 647 q 0,-281 39,-366 39,-84 115,-126 77,-42 312,-42 V 0 H 100 v 113 q 197,0 275,42 78,42 118,134 41,92 41,358 v 1094 q 0,472 -28,609 -22,103 -69,142 -46,39 -128,39 -87,0 -209,-47 l -47,113 863,350 h 134 z"
                 transform="scale(0.015625)" />
            </defs>
            <g
               id="g65590"
               transform="rotate(12.143161,-754.54606,-794.14349)">
              <use
                 xlink:href="#TimesNewRomanPSMT-4b"
                 id="use38921" />
              <use
                 xlink:href="#TimesNewRomanPSMT-2e"
                 x="72.216797"
                 id="use38923" />
              <use
                 xlink:href="#TimesNewRomanPSMT-57"
                 x="97.216797"
                 id="use38925" />
            </g>
          </g>
        </g>
        <g
           id="text_6"
           transform="translate(107.1772,40.04549)">
          <g
             id="patch_7">
            <path
               d="m 239.83711,281.38432 h 86.97265 v -30.70703 h -86.97265 z"
               style="fill:none"
               id="path38944" />
          </g>
          <!-- M.Tune -->
          <g
             transform="matrix(0.25,0,0,-0.25,130.3702,216.11368)"
             id="g38963">
            <defs
               id="defs38949">
              <path
                 id="TimesNewRomanPSMT-54"
                 d="m 3703,4238 47,-994 h -119 q -34,262 -93,375 -97,181 -258,267 -161,86 -424,86 H 2259 V 734 q 0,-390 85,-487 119,-131 365,-131 h 147 V 0 H 1059 v 116 h 150 q 269,0 382,162 68,100 68,456 V 3972 H 1150 Q 853,3972 728,3928 566,3869 450,3700 334,3531 313,3244 H 194 l 50,994 z"
                 transform="scale(0.015625)" />
              <path
                 id="TimesNewRomanPSMT-75"
                 d="M 2709,2863 V 1128 q 0,-497 23,-608 24,-111 75,-155 52,-43 121,-43 97,0 219,53 L 3191,266 2334,-88 H 2194 V 519 Q 1825,119 1631,15 1438,-88 1222,-88 981,-88 804,51 628,191 559,409 491,628 491,1028 v 1278 q 0,203 -44,281 -44,79 -130,121 -86,42 -311,39 v 116 H 1009 V 947 q 0,-400 139,-525 140,-125 336,-125 135,0 305,84 170,85 405,322 v 1622 q 0,244 -89,330 -89,86 -371,92 v 116 z"
                 transform="scale(0.015625)" />
            </defs>
            <use
               xlink:href="#TimesNewRomanPSMT-4d"
               id="use38951" />
            <use
               xlink:href="#TimesNewRomanPSMT-2e"
               x="88.916016"
               id="use38953" />
            <use
               xlink:href="#TimesNewRomanPSMT-54"
               x="113.91602"
               id="use38955" />
          </g>
        </g>
        <ellipse
           style="fill:none;fill-opacity:0.501961;stroke:#000000;stroke-width:1.9125;stroke-dasharray:1.9125, 11.475;stroke-dashoffset:0"
           id="path47287"
           cx="231.35822"
           cy="236.7805"
           rx="223.66663"
           ry="100.47803" />
        <ellipse
           style="fill:none;fill-opacity:0.501961;stroke:#000000;stroke-width:2;stroke-dasharray:2, 6;stroke-dashoffset:0"
           id="ellipse47289"
           cx="179.89011"
           cy="232.32277"
           rx="169.14349"
           ry="88.099945" />
        <g
           id="text_4"
           transform="translate(-15.728055,94.058768)"
           style="stroke-linecap:butt;stroke-linejoin:round">
          <g
             id="patch_5"
             style="stroke-linecap:butt;stroke-linejoin:round">
            <path
               d="m 246.35038,303.57216 h 142.79687 v -30.7539 H 246.35038 Z"
               style="fill:none;stroke-linecap:butt;stroke-linejoin:round"
               id="path38880" />
          </g>
          <!-- J.Washington -->
          <g
             transform="matrix(0.25,0,0,-0.25,250.35038,294.17763)"
             id="g38911"
             style="stroke-linecap:butt;stroke-linejoin:round">
            <defs
               id="defs38885">
              <path
                 id="path67879"
                 d="M 1041,4444 V 2350 q 347,381 550,489 203,108 406,108 244,0 419,-135 175,-134 259,-421 59,-200 59,-732 V 647 q 0,-272 44,-372 31,-75 106,-119 75,-43 275,-43 V 0 H 1753 v 113 h 66 q 200,0 278,60 78,61 109,180 10,50 10,294 v 1012 q 0,469 -49,616 -48,147 -155,220 -106,74 -256,74 -153,0 -319,-82 -165,-81 -396,-328 V 647 q 0,-294 32,-366 33,-72 122,-120 89,-48 308,-48 V 0 H 84 v 113 q 191,0 300,59 63,31 100,118 38,88 38,357 v 2591 q 0,490 -24,602 -23,113 -72,153 -48,41 -129,41 -66,0 -213,-50 l -43,110 856,350 z"
                 transform="scale(0.015625)" />
              <path
                 id="path67881"
                 d="m 966,1044 q -263,128 -404,357 -140,230 -140,508 0,425 320,731 321,307 821,307 409,0 709,-200 h 606 q 135,0 156,-8 22,-8 32,-26 18,-29 18,-100 0,-82 -15,-113 -10,-16 -33,-25 -23,-9 -158,-9 h -372 q 175,-225 175,-575 0,-400 -306,-685 -306,-284 -822,-284 -212,0 -434,62 Q 981,866 932,777 884,688 884,625 q 0,-53 52,-103 52,-50 202,-72 87,-12 437,-22 644,-15 834,-44 291,-40 464,-215 174,-175 174,-432 0,-353 -331,-662 -488,-456 -1272,-456 -603,0 -1019,272 -234,156 -234,325 0,75 34,150 53,115 219,321 22,29 319,338 -163,97 -230,173 -67,77 -67,174 0,109 89,256 89,147 411,416 z m 543,1753 q -231,0 -387,-185 -156,-184 -156,-565 0,-494 212,-766 163,-206 413,-206 237,0 390,178 153,178 153,560 0,496 -215,778 -160,206 -410,206 z M 934,0 q -146,-159 -221,-296 -75,-138 -75,-254 0,-150 181,-263 312,-193 903,-193 562,0 829,199 268,198 268,423 0,162 -160,231 -162,69 -643,81 -703,19 -1082,72 z"
                 transform="scale(0.015625)" />
            </defs>
            <g
               id="g67933"
               transform="translate(105.44937,391.99658)">
              <use
                 xlink:href="#TimesNewRomanPSMT-4a"
                 id="use38887"
                 style="stroke-linecap:butt;stroke-linejoin:round" />
              <use
                 xlink:href="#TimesNewRomanPSMT-2e"
                 x="38.916016"
                 id="use38889"
                 style="stroke-linecap:butt;stroke-linejoin:round" />
              <use
                 xlink:href="#TimesNewRomanPSMT-57"
                 x="63.916016"
                 id="use38891"
                 style="stroke-linecap:butt;stroke-linejoin:round" />
            </g>
          </g>
        </g>
        <text
           xml:space="preserve"
           style="font-style:normal;font-weight:normal;font-size:30px;line-height:1.25;font-family:sans-serif;fill:#000000;fill-opacity:1;stroke:none;stroke-width:0.75;stroke-linecap:butt;stroke-linejoin:round"
           x="284.93811"
           y="165.66856"
           id="text5566-7"><tspan
             sodipodi:role="line"
             id="tspan5564-7"
             style="font-style:normal;font-variant:normal;font-weight:bold;font-stretch:normal;font-size:22px;font-family:sans-serif;-inkscape-font-specification:'sans-serif, Bold';font-variant-ligatures:normal;font-variant-caps:normal;font-variant-numeric:normal;font-variant-east-asian:normal;stroke-width:0.75"
             x="284.93811"
             y="165.66856">2-core</tspan></text>
        <path
           style="fill:none;fill-opacity:0.501961;stroke:#000000;stroke-width:2;stroke-dasharray:none"
           d="M 419.01707,221.26047 332.29594,241.52242 226.93381,218.01856"
           id="path55011" />
        <path
           style="fill:none;fill-opacity:0.501961;stroke:#000000;stroke-width:2.04206;stroke-dasharray:none"
           d="m 231.33772,270.36297 98.85878,-28.16196 -87.33553,42.5877"
           id="path55013"
           sodipodi:nodetypes="ccc" />
        <path
           style="fill:none;fill-opacity:0.501961;stroke:#000000;stroke-width:2;stroke-dasharray:none"
           d="m 227.74429,218.01856 3.9049,52.45212 9.97155,13.85958"
           id="path55015"
           sodipodi:nodetypes="ccc" />
        <path
           style="fill:none;fill-opacity:0.501961;stroke:#000000;stroke-width:2;stroke-dasharray:none"
           d="m 231.96871,270.41581 -88.35486,-18.44928 97.52438,33.49301"
           id="path55113"
           sodipodi:nodetypes="ccc" />
        <path
           style="fill:none;fill-opacity:0.501961;stroke:#000000;stroke-width:2;stroke-dasharray:none"
           d="M 229.23777,218.92207 162.75881,166.19738 144.4198,251.58845 Z"
           id="path55115" />
        <path
           style="fill:none;fill-opacity:0.501961;stroke:#000000;stroke-width:2;stroke-dasharray:none"
           d="M 142.70051,251.36917 41.262798,239.90728 45.274459,284.60864 Z"
           id="path55117" />
        <path
           style="fill:none;fill-opacity:0.501961;stroke:#000000;stroke-width:2;stroke-dasharray:none"
           d="m 230.95706,221.21444 v -1.14619"
           id="path55119" />
        <path
           style="fill:none;fill-opacity:0.501961;stroke:#000000;stroke-width:2;stroke-dasharray:none"
           d="m 229.81086,220.64135 12.75135,63.47021"
           id="path55121"
           sodipodi:nodetypes="cc" />
        <text
           xml:space="preserve"
           style="font-style:normal;font-weight:normal;font-size:30px;line-height:1.25;font-family:sans-serif;fill:#000000;fill-opacity:1;stroke:none;stroke-width:0.75;stroke-linecap:butt;stroke-linejoin:round"
           x="365.46512"
           y="140.49521"
           id="text5566"><tspan
             sodipodi:role="line"
             id="tspan5564"
             style="font-style:normal;font-variant:normal;font-weight:bold;font-stretch:normal;font-size:22px;font-family:sans-serif;-inkscape-font-specification:'sans-serif, Bold';font-variant-ligatures:normal;font-variant-caps:normal;font-variant-numeric:normal;font-variant-east-asian:normal;stroke-width:0.75"
             x="365.46512"
             y="140.49521">1-core</tspan></text>
        <ellipse
           style="fill:none;fill-opacity:0.501961;stroke:#000000;stroke-width:2;stroke-dasharray:2, 2;stroke-dashoffset:0"
           id="ellipse58273"
           cx="238.64977"
           cy="241.23669"
           rx="110.72878"
           ry="56.02417" />
        <text
           xml:space="preserve"
           style="font-style:normal;font-weight:normal;font-size:30px;line-height:1.25;font-family:sans-serif;fill:#000000;fill-opacity:1;stroke:none;stroke-width:0.75;stroke-linecap:butt;stroke-linejoin:round"
           x="199.02744"
           y="179.6524"
           id="text58277"><tspan
             sodipodi:role="line"
             id="tspan58275"
             style="font-style:normal;font-variant:normal;font-weight:bold;font-stretch:normal;font-size:22px;font-family:sans-serif;-inkscape-font-specification:'sans-serif, Bold';font-variant-ligatures:normal;font-variant-caps:normal;font-variant-numeric:normal;font-variant-east-asian:normal;stroke-width:0.75"
             x="199.02744"
             y="179.6524">3-core</tspan></text>
      </g>
    </g>
  </g>
  <defs
     id="defs39038">
    <clipPath
       id="pc39d38f1dc">
      <rect
         x="7.2"
         y="7.2"
         width="446.4"
         height="443.52"
         id="rect39035" />
    </clipPath>
  </defs>
</svg>
