<?xml version="1.0" encoding="UTF-8" standalone="no"?>
<!-- Created with Inkscape (http://www.inkscape.org/) -->

<svg
   version="1.1"
   id="svg98146"
   width="640.5047"
   height="364.23175"
   viewBox="0 0 640.5047 364.23175"
   sodipodi:docname="clique_core4.svg"
   inkscape:version="1.2.1 (9c6d41e410, 2022-07-14)"
   xmlns:inkscape="http://www.inkscape.org/namespaces/inkscape"
   xmlns:sodipodi="http://sodipodi.sourceforge.net/DTD/sodipodi-0.dtd"
   xmlns="http://www.w3.org/2000/svg"
   xmlns:svg="http://www.w3.org/2000/svg">
  <defs
     id="defs98150">
    <clipPath
       clipPathUnits="userSpaceOnUse"
       id="clipPath98164">
      <path
         d="M 0.309,0 H 446.707 V 274 H 0.309 Z"
         id="path98162" />
    </clipPath>
    <clipPath
       clipPathUnits="userSpaceOnUse"
       id="clipPath98172">
      <path
         d="M 0,0 H 481 V 274 H 0 Z"
         id="path98170" />
    </clipPath>
    <clipPath
       clipPathUnits="userSpaceOnUse"
       id="clipPath98190">
      <path
         d="M 0,0 H 481 V 274 H 0 Z"
         id="path98188" />
    </clipPath>
    <clipPath
       clipPathUnits="userSpaceOnUse"
       id="clipPath98208">
      <path
         d="M 0,0 H 481 V 274 H 0 Z"
         id="path98206" />
    </clipPath>
    <clipPath
       clipPathUnits="userSpaceOnUse"
       id="clipPath98226">
      <path
         d="M 4.809,0 H 451.207 V 274 H 4.809 Z"
         id="path98224" />
    </clipPath>
    <clipPath
       clipPathUnits="userSpaceOnUse"
       id="clipPath98234">
      <path
         d="M 0,0 H 481 V 274 H 0 Z"
         id="path98232" />
    </clipPath>
    <clipPath
       clipPathUnits="userSpaceOnUse"
       id="clipPath98252">
      <path
         d="M 0.309,0 H 446.707 V 274 H 0.309 Z"
         id="path98250" />
    </clipPath>
    <clipPath
       clipPathUnits="userSpaceOnUse"
       id="clipPath98260">
      <path
         d="M 0,0 H 481 V 274 H 0 Z"
         id="path98258" />
    </clipPath>
    <clipPath
       clipPathUnits="userSpaceOnUse"
       id="clipPath98278">
      <path
         d="M 0,0 H 481 V 274 H 0 Z"
         id="path98276" />
    </clipPath>
    <clipPath
       clipPathUnits="userSpaceOnUse"
       id="clipPath98294">
      <path
         d="M 0,0 H 481 V 274 H 0 Z"
         id="path98292" />
    </clipPath>
    <clipPath
       clipPathUnits="userSpaceOnUse"
       id="clipPath98310">
      <path
         d="M 0,0 H 481 V 274 H 0 Z"
         id="path98308" />
    </clipPath>
    <clipPath
       clipPathUnits="userSpaceOnUse"
       id="clipPath98326">
      <path
         d="M 0,0 H 481 V 274 H 0 Z"
         id="path98324" />
    </clipPath>
    <clipPath
       clipPathUnits="userSpaceOnUse"
       id="clipPath98342">
      <path
         d="M 0,0 H 481 V 274 H 0 Z"
         id="path98340" />
    </clipPath>
    <clipPath
       clipPathUnits="userSpaceOnUse"
       id="clipPath98358">
      <path
         d="M 0,0 H 481 V 274 H 0 Z"
         id="path98356" />
    </clipPath>
    <clipPath
       clipPathUnits="userSpaceOnUse"
       id="clipPath98374">
      <path
         d="M 0,0 H 481 V 274 H 0 Z"
         id="path98372" />
    </clipPath>
    <clipPath
       clipPathUnits="userSpaceOnUse"
       id="clipPath98390">
      <path
         d="M 0,0 H 481 V 274 H 0 Z"
         id="path98388" />
    </clipPath>
    <clipPath
       clipPathUnits="userSpaceOnUse"
       id="clipPath98406">
      <path
         d="M 0,0 H 481 V 274 H 0 Z"
         id="path98404" />
    </clipPath>
  </defs>
  <sodipodi:namedview
     id="namedview98148"
     pagecolor="#ffffff"
     bordercolor="#000000"
     borderopacity="0.25"
     inkscape:showpageshadow="2"
     inkscape:pageopacity="0.0"
     inkscape:pagecheckerboard="0"
     inkscape:deskcolor="#d1d1d1"
     showgrid="false"
     inkscape:zoom="1.0968712"
     inkscape:cx="241.14043"
     inkscape:cy="201.02633"
     inkscape:window-width="1350"
     inkscape:window-height="704"
     inkscape:window-x="174"
     inkscape:window-y="46"
     inkscape:window-maximized="0"
     inkscape:current-layer="g98248">
    <inkscape:page
       x="0"
       y="0"
       id="page98152"
       width="640.5047"
       height="364.23175" />
  </sodipodi:namedview>
  <g
     id="g98154"
     inkscape:groupmode="layer"
     inkscape:label="Page 1"
     transform="matrix(1.3333333,0,0,1.3333333,0,9.1057935e-6)">
    <g
       id="g98156" />
    <g
       id="g98158">
      <g
         id="g98160"
         clip-path="url(#clipPath98164)">
        <g
           id="g98166">
          <g
             id="g98168" />
          <g
             id="g98182">
            <g
               clip-path="url(#clipPath98172)"
               id="g98180">
              <g
                 id="g98178">
                <path
                   d="m 121.754,121.406 -0.484,3.684 0.484,3.683 1.422,3.434 2.262,2.949 2.945,2.262 3.433,1.422 3.684,0.484 3.684,-0.484 84.671,-31.879 3.43,-1.422 2.949,-2.262 2.262,-2.945 1.422,-3.434 0.484,-3.683 -0.484,-3.684 -1.422,-3.433 -2.262,-2.946 -65.058,-52.691 -2.946,-2.262 -3.433,-1.422 -3.684,-0.484 -3.683,0.484 -3.434,1.422 -2.945,2.262 -2.262,2.945 -1.422,3.434 z"
                   style="fill:#8578fd;fill-opacity:0.54901963;fill-rule:nonzero;stroke:none"
                   id="path98174" />
                <path
                   d="m 121.754,121.406 -0.484,3.684 0.484,3.683 1.422,3.434 2.262,2.949 2.945,2.262 3.433,1.422 3.684,0.484 3.684,-0.484 84.671,-31.879 3.43,-1.422 2.949,-2.262 2.262,-2.945 1.422,-3.434 0.484,-3.683 -0.484,-3.684 -1.422,-3.433 -2.262,-2.946 -65.058,-52.691 -2.946,-2.262 -3.433,-1.422 -3.684,-0.484 -3.683,0.484 -3.434,1.422 -2.945,2.262 -2.262,2.945 -1.422,3.434 z"
                   style="fill:none;stroke:#000000;stroke-width:0.5;stroke-linecap:butt;stroke-linejoin:round;stroke-miterlimit:4;stroke-dasharray:none;stroke-opacity:1"
                   id="path98176" />
              </g>
            </g>
          </g>
        </g>
        <g
           id="g98184">
          <g
             id="g98186" />
          <g
             id="g98200">
            <g
               clip-path="url(#clipPath98190)"
               id="g98198">
              <g
                 id="g98196">
                <path
                   d="m 326.184,103.965 -101.102,-29.078 -4.91,-0.649 -4.914,0.649 -4.574,1.894 -3.93,3.016 -3.016,3.93 -1.898,4.578 -0.645,4.91 0.645,4.91 11.613,47.133 6.512,22.164 1.422,3.433 2.261,2.946 2.95,2.262 3.433,1.421 3.684,0.485 3.683,-0.485 3.43,-1.421 88.789,-46.024 2.946,-2.262 2.261,-2.949 1.422,-3.433 0.484,-3.684 -0.484,-3.684 -1.422,-3.429 -2.261,-2.95 -2.946,-2.261 z"
                   style="fill:#ffff00;fill-opacity:0.5;fill-rule:nonzero;stroke:none"
                   id="path98192" />
                <path
                   d="m 326.184,103.965 -101.102,-29.078 -4.91,-0.649 -4.914,0.649 -4.574,1.894 -3.93,3.016 -3.016,3.93 -1.898,4.578 -0.645,4.91 0.645,4.91 11.613,47.133 6.512,22.164 1.422,3.433 2.261,2.946 2.95,2.262 3.433,1.421 3.684,0.485 3.683,-0.485 3.43,-1.421 88.789,-46.024 2.946,-2.262 2.261,-2.949 1.422,-3.433 0.484,-3.684 -0.484,-3.684 -1.422,-3.429 -2.261,-2.95 -2.946,-2.261 z"
                   style="fill:none;stroke:#000000;stroke-width:0.5;stroke-linecap:butt;stroke-linejoin:round;stroke-miterlimit:4;stroke-dasharray:none;stroke-opacity:1"
                   id="path98194" />
              </g>
            </g>
          </g>
        </g>
        <g
           id="g98202">
          <g
             id="g98204" />
          <g
             id="g98218">
            <g
               clip-path="url(#clipPath98208)"
               id="g98216">
              <g
                 id="g98214">
                <path
                   d="m 408.5,81.824 -90.91,17.559 -4.578,1.894 -3.93,3.016 -3.016,3.93 -1.894,4.578 -0.649,4.91 0.649,4.914 1.894,4.574 3.016,3.93 3.93,3.016 4.578,1.898 4.91,0.645 4.91,-0.645 88.457,-26.727 3.434,-1.421 2.945,-2.262 2.262,-2.945 1.422,-3.434 0.484,-3.684 -0.484,-3.683 -1.422,-3.434 -2.262,-2.945 -2.945,-2.262 -3.434,-1.422 -3.683,-0.484 z"
                   style="fill:#fd5252;fill-opacity:0.52549022;fill-rule:nonzero;stroke:none"
                   id="path98210" />
                <path
                   d="m 408.5,81.824 -90.91,17.559 -4.578,1.894 -3.93,3.016 -3.016,3.93 -1.894,4.578 -0.649,4.91 0.649,4.914 1.894,4.574 3.016,3.93 3.93,3.016 4.578,1.898 4.91,0.645 4.91,-0.645 88.457,-26.727 3.434,-1.421 2.945,-2.262 2.262,-2.945 1.422,-3.434 0.484,-3.684 -0.484,-3.683 -1.422,-3.434 -2.262,-2.945 -2.945,-2.262 -3.434,-1.422 -3.683,-0.484 z"
                   style="fill:none;stroke:#000000;stroke-width:0.5;stroke-linecap:butt;stroke-linejoin:round;stroke-miterlimit:4;stroke-dasharray:none;stroke-opacity:1"
                   id="path98212" />
              </g>
            </g>
          </g>
        </g>
      </g>
    </g>
    <g
       id="g98220">
      <g
         id="g98222"
         clip-path="url(#clipPath98226)">
        <g
           id="g98228">
          <g
             id="g98230" />
          <g
             id="g98244">
            <g
               clip-path="url(#clipPath98234)"
               id="g98242">
              <g
                 id="g98240">
                <path
                   d="M 140,103.117 39.328,96.41 l -3.683,0.488 -3.43,1.422 -2.949,2.262 -2.262,2.945 -1.422,3.434 -0.484,3.684 2.867,43.558 0.488,3.684 1.422,3.433 2.262,2.95 2.945,2.261 3.434,1.422 3.683,0.485 3.684,-0.485 99.027,-27.531 4.578,-1.895 3.93,-3.015 3.016,-3.934 1.898,-4.574 0.645,-4.914 -0.645,-4.91 -1.898,-4.575 -3.016,-3.933 -3.93,-3.016 -4.578,-1.894 z"
                   style="fill:#13fd13;fill-opacity:0.53333336;fill-rule:nonzero;stroke:none"
                   id="path98236" />
                <path
                   d="M 140,103.117 39.328,96.41 l -3.683,0.488 -3.43,1.422 -2.949,2.262 -2.262,2.945 -1.422,3.434 -0.484,3.684 2.867,43.558 0.488,3.684 1.422,3.433 2.262,2.95 2.945,2.261 3.434,1.422 3.683,0.485 3.684,-0.485 99.027,-27.531 4.578,-1.895 3.93,-3.015 3.016,-3.934 1.898,-4.574 0.645,-4.914 -0.645,-4.91 -1.898,-4.575 -3.016,-3.933 -3.93,-3.016 -4.578,-1.894 z"
                   style="fill:none;stroke:#000000;stroke-width:0.5;stroke-linecap:butt;stroke-linejoin:round;stroke-miterlimit:4;stroke-dasharray:none;stroke-opacity:1"
                   id="path98238" />
              </g>
            </g>
          </g>
        </g>
      </g>
    </g>
    <g
       id="g98246">
      <g
         id="g98248"
         clip-path="url(#clipPath98252)">
        <g
           id="g98254">
          <g
             id="g98256" />
          <g
             id="g98270">
            <g
               clip-path="url(#clipPath98260)"
               id="g98268">
              <g
                 id="g98266">
                <path
                   d="m 236.688,125.141 -4.579,-1.899 -90.468,-21.062 -6.141,-0.809 -6.141,0.809 -5.718,2.371 -4.914,3.769 -3.77,4.91 -2.367,5.723 -0.809,6.137 0.809,6.14 2.367,5.723 3.77,4.91 4.914,3.77 5.718,2.371 99.442,34.062 4.914,0.649 4.91,-0.649 4.574,-1.894 3.934,-3.016 3.015,-3.929 1.895,-4.579 0.645,-4.91 -0.645,-4.91 -6.516,-22.164 -1.894,-4.578 -3.016,-3.93 z"
                   style="fill:#13fde2;fill-opacity:0.52156866;fill-rule:nonzero;stroke:none"
                   id="path98262" />
                <path
                   d="m 236.688,125.141 -4.579,-1.899 -90.468,-21.062 -6.141,-0.809 -6.141,0.809 -5.718,2.371 -4.914,3.769 -3.77,4.91 -2.367,5.723 -0.809,6.137 0.809,6.14 2.367,5.723 3.77,4.91 4.914,3.77 5.718,2.371 99.442,34.062 4.914,0.649 4.91,-0.649 4.574,-1.894 3.934,-3.016 3.015,-3.929 1.895,-4.579 0.645,-4.91 -0.645,-4.91 -6.516,-22.164 -1.894,-4.578 -3.016,-3.93 z"
                   style="fill:none;stroke:#000000;stroke-width:0.5;stroke-linecap:butt;stroke-linejoin:round;stroke-miterlimit:4;stroke-dasharray:none;stroke-opacity:1"
                   id="path98264" />
              </g>
            </g>
          </g>
        </g>
        <g
           id="g98272">
          <g
             id="g98274" />
          <g
             id="g98286">
            <g
               clip-path="url(#clipPath98278)"
               id="g98284">
              <g
                 id="g98282">
                <path
                   d="m 224.914,93.215 -0.16,-1.227 -0.477,-1.144 -0.754,-0.985 -0.98,-0.754 -1.145,-0.472 -1.226,-0.16 -1.231,0.16 -1.144,0.472 -0.981,0.754 -0.753,0.985 -0.473,1.144 -0.164,1.227 0.164,1.226 0.473,1.145 0.753,0.984 0.981,0.754 1.144,0.473 1.231,0.164 1.226,-0.164 1.145,-0.473 0.98,-0.754 0.754,-0.984 0.477,-1.145 z"
                   style="fill:#000000;fill-opacity:0.5;fill-rule:nonzero;stroke:none"
                   id="path98280" />
              </g>
            </g>
          </g>
        </g>
        <g
           id="g98288">
          <g
             id="g98290" />
          <g
             id="g98302">
            <g
               clip-path="url(#clipPath98294)"
               id="g98300">
              <g
                 id="g98298">
                <path
                   d="m 140.246,125.09 -0.164,-1.227 -0.473,-1.144 -0.754,-0.981 -0.984,-0.754 -1.144,-0.476 -1.227,-0.16 -1.227,0.16 -1.144,0.476 -0.984,0.754 -0.754,0.981 -0.473,1.144 -0.16,1.227 0.16,1.23 0.473,1.145 0.754,0.98 0.984,0.754 1.144,0.477 1.227,0.16 1.227,-0.16 1.144,-0.477 0.984,-0.754 0.754,-0.98 0.473,-1.145 z"
                   style="fill:#000000;fill-opacity:0.5;fill-rule:nonzero;stroke:none"
                   id="path98296" />
              </g>
            </g>
          </g>
        </g>
        <g
           id="g98304">
          <g
             id="g98306" />
          <g
             id="g98318">
            <g
               clip-path="url(#clipPath98310)"
               id="g98316">
              <g
                 id="g98314">
                <path
                   d="m 159.855,40.523 -0.16,-1.226 -0.472,-1.145 -0.754,-0.984 -0.985,-0.754 -1.144,-0.473 -1.227,-0.16 -1.226,0.16 -1.145,0.473 -0.984,0.754 -0.754,0.984 -0.473,1.145 -0.164,1.226 0.164,1.227 0.473,1.145 0.754,0.984 0.984,0.754 1.145,0.472 1.226,0.165 1.227,-0.165 1.144,-0.472 0.985,-0.754 0.754,-0.984 0.472,-1.145 z"
                   style="fill:#000000;fill-opacity:0.5;fill-rule:nonzero;stroke:none"
                   id="path98312" />
              </g>
            </g>
          </g>
        </g>
        <g
           id="g98320">
          <g
             id="g98322" />
          <g
             id="g98334">
            <g
               clip-path="url(#clipPath98326)"
               id="g98332">
              <g
                 id="g98330">
                <path
                   d="m 238.457,163.738 -0.16,-1.226 -0.477,-1.145 -0.754,-0.984 -0.98,-0.754 -1.145,-0.473 -1.226,-0.164 -1.231,0.164 -1.144,0.473 -0.981,0.754 -0.754,0.984 -0.476,1.145 -0.16,1.226 0.16,1.227 0.476,1.144 0.754,0.985 0.981,0.754 1.144,0.472 1.231,0.16 1.226,-0.16 1.145,-0.472 0.98,-0.754 0.754,-0.985 0.477,-1.144 z"
                   style="fill:#000000;fill-opacity:0.5;fill-rule:nonzero;stroke:none"
                   id="path98328" />
              </g>
            </g>
          </g>
        </g>
        <g
           id="g98336">
          <g
             id="g98338" />
          <g
             id="g98350">
            <g
               clip-path="url(#clipPath98342)"
               id="g98348">
              <g
                 id="g98346">
                <path
                   d="m 327.246,117.711 -0.164,-1.227 -0.473,-1.144 -0.754,-0.981 -0.984,-0.754 -1.144,-0.476 -1.227,-0.16 -1.227,0.16 -1.144,0.476 -0.984,0.754 -0.754,0.981 -0.473,1.144 -0.16,1.227 0.16,1.23 0.473,1.145 0.754,0.98 0.984,0.754 1.144,0.473 1.227,0.164 1.227,-0.164 1.144,-0.473 0.984,-0.754 0.754,-0.98 0.473,-1.145 z"
                   style="fill:#000000;fill-opacity:0.5;fill-rule:nonzero;stroke:none"
                   id="path98344" />
              </g>
            </g>
          </g>
        </g>
        <g
           id="g98352">
          <g
             id="g98354" />
          <g
             id="g98366">
            <g
               clip-path="url(#clipPath98358)"
               id="g98364">
              <g
                 id="g98362">
                <path
                   d="m 231.945,141.574 -0.164,-1.226 -0.472,-1.145 -0.754,-0.984 -0.985,-0.754 -1.144,-0.473 -1.227,-0.164 -1.226,0.164 -1.145,0.473 -0.984,0.754 -0.754,0.984 -0.473,1.145 -0.16,1.226 0.16,1.227 0.473,1.144 0.754,0.985 0.984,0.754 1.145,0.472 1.226,0.16 1.227,-0.16 1.144,-0.472 0.985,-0.754 0.754,-0.985 0.472,-1.144 z"
                   style="fill:#000000;fill-opacity:0.5;fill-rule:nonzero;stroke:none"
                   id="path98360" />
              </g>
            </g>
          </g>
        </g>
        <g
           id="g98368">
          <g
             id="g98370" />
          <g
             id="g98382">
            <g
               clip-path="url(#clipPath98374)"
               id="g98380">
              <g
                 id="g98378">
                <path
                   d="m 416.926,95.57 -0.16,-1.226 -0.473,-1.145 -0.754,-0.984 -0.984,-0.754 -1.145,-0.473 -1.226,-0.16 -1.227,0.16 -1.144,0.473 -0.985,0.754 -0.754,0.984 -0.472,1.145 -0.161,1.226 0.161,1.227 0.472,1.144 0.754,0.985 0.985,0.754 1.144,0.472 1.227,0.164 1.226,-0.164 1.145,-0.472 0.984,-0.754 0.754,-0.985 0.473,-1.144 z"
                   style="fill:#000000;fill-opacity:0.5;fill-rule:nonzero;stroke:none"
                   id="path98376" />
              </g>
            </g>
          </g>
        </g>
        <g
           id="g98384">
          <g
             id="g98386" />
          <g
             id="g98398">
            <g
               clip-path="url(#clipPath98390)"
               id="g98396">
              <g
                 id="g98394">
                <path
                   d="m 42.441,157.203 -0.16,-1.226 -0.472,-1.145 -0.754,-0.98 -0.985,-0.754 -1.144,-0.477 -1.227,-0.16 -1.226,0.16 -1.145,0.477 -0.984,0.754 -0.754,0.98 -0.473,1.145 -0.164,1.226 0.164,1.231 0.473,1.144 0.754,0.981 0.984,0.754 1.145,0.472 1.226,0.164 1.227,-0.164 1.144,-0.472 0.985,-0.754 0.754,-0.981 0.472,-1.144 z"
                   style="fill:#000000;fill-opacity:0.5;fill-rule:nonzero;stroke:none"
                   id="path98392" />
              </g>
            </g>
          </g>
        </g>
        <g
           id="g98400">
          <g
             id="g98402" />
          <g
             id="g98414">
            <g
               clip-path="url(#clipPath98406)"
               id="g98412">
              <g
                 id="g98410">
                <path
                   d="m 39.574,113.645 -0.164,-1.227 -0.472,-1.145 -0.754,-0.984 -0.981,-0.754 -1.144,-0.472 -1.231,-0.165 -1.226,0.165 -1.145,0.472 -0.98,0.754 -0.754,0.984 -0.477,1.145 -0.16,1.227 0.16,1.226 0.477,1.145 0.754,0.984 0.98,0.754 1.145,0.473 1.226,0.16 1.231,-0.16 1.144,-0.473 0.981,-0.754 0.754,-0.984 0.472,-1.145 z"
                   style="fill:#000000;fill-opacity:0.5;fill-rule:nonzero;stroke:none"
                   id="path98408" />
              </g>
            </g>
          </g>
        </g>
        <g
           id="g117397"
           transform="rotate(-29.376949,236.37382,90.492025)">
          <path
             d="m 248.414,76.254 0.379,5.625 h -0.379 c -0.508,-1.684 -1.226,-2.895 -2.16,-3.637 -0.938,-0.738 -2.059,-1.109 -3.367,-1.109 -1.102,0 -2.094,0.281 -2.981,0.836 -0.89,0.558 -1.586,1.449 -2.093,2.668 -0.508,1.218 -0.762,2.738 -0.762,4.551 0,1.5 0.238,2.796 0.719,3.894 0.48,1.102 1.203,1.941 2.168,2.527 0.96,0.586 2.062,0.879 3.3,0.879 1.075,0 2.024,-0.226 2.844,-0.687 0.82,-0.461 1.727,-1.375 2.711,-2.742 l 0.379,0.242 c -0.832,1.476 -1.801,2.554 -2.906,3.238 -1.11,0.684 -2.422,1.024 -3.942,1.024 -2.742,0 -4.867,-1.016 -6.371,-3.051 -1.125,-1.516 -1.687,-3.297 -1.687,-5.348 0,-1.652 0.367,-3.172 1.109,-4.555 0.742,-1.382 1.762,-2.453 3.059,-3.214 1.296,-0.758 2.718,-1.141 4.257,-1.141 1.196,0 2.375,0.293 3.539,0.879 0.34,0.18 0.583,0.265 0.731,0.265 0.219,0 0.41,-0.074 0.574,-0.23 0.211,-0.219 0.36,-0.523 0.453,-0.914 z"
             style="fill:#000000;fill-opacity:1;fill-rule:nonzero;stroke:none"
             id="path98416" />
          <path
             d="m 253.164,90.816 c 0.383,0 0.703,0.133 0.965,0.399 0.258,0.265 0.391,0.582 0.391,0.957 0,0.375 -0.133,0.691 -0.399,0.957 -0.266,0.266 -0.582,0.398 -0.957,0.398 -0.375,0 -0.695,-0.132 -0.961,-0.398 -0.265,-0.266 -0.394,-0.582 -0.394,-0.957 0,-0.383 0.129,-0.703 0.394,-0.965 0.266,-0.258 0.586,-0.391 0.961,-0.391 z"
             style="fill:#000000;fill-opacity:1;fill-rule:nonzero;stroke:none"
             id="path98418" />
          <path
             d="m 258.781,77.082 v -0.453 h 7.09 v 0.453 h -0.598 c -0.675,0 -1.168,0.199 -1.476,0.598 -0.195,0.261 -0.293,0.886 -0.293,1.879 v 8.093 c 0,1.246 -0.137,2.254 -0.41,3.028 -0.274,0.773 -0.742,1.449 -1.41,2.023 -0.668,0.574 -1.473,0.86 -2.414,0.86 -0.766,0 -1.372,-0.188 -1.809,-0.567 -0.441,-0.379 -0.66,-0.812 -0.66,-1.301 0,-0.398 0.101,-0.699 0.304,-0.906 0.27,-0.25 0.583,-0.375 0.942,-0.375 0.258,0 0.492,0.086 0.699,0.258 0.207,0.172 0.469,0.625 0.789,1.363 0.188,0.442 0.426,0.66 0.723,0.66 0.219,0 0.422,-0.132 0.613,-0.402 0.192,-0.266 0.289,-0.742 0.289,-1.43 V 79.559 c 0,-0.836 -0.055,-1.387 -0.16,-1.661 -0.082,-0.203 -0.254,-0.375 -0.512,-0.523 -0.351,-0.195 -0.718,-0.293 -1.109,-0.293 z"
             style="fill:#000000;fill-opacity:1;fill-rule:nonzero;stroke:none"
             id="path98420" />
        </g>
        <g
           id="g109129"
           transform="rotate(-21.974303,118.3293,219.37441)">
          <path
             d="m 136.57,96.16 -6.445,-13.906 0.039,11.062 c 0.004,1.016 0.117,1.649 0.336,1.903 0.301,0.34 0.777,0.508 1.43,0.504 h 0.586 v 0.453 l -5.762,0.019 v -0.453 l 0.586,-0.004 c 0.699,0 1.195,-0.215 1.488,-0.636 0.176,-0.262 0.266,-0.856 0.262,-1.782 l -0.039,-10.816 c 0,-0.731 -0.086,-1.262 -0.246,-1.586 -0.117,-0.234 -0.328,-0.434 -0.633,-0.59 -0.305,-0.16 -0.797,-0.238 -1.473,-0.234 v -0.453 l 4.688,-0.016 6.051,12.93 5.863,-12.973 4.687,-0.016 v 0.454 l -0.574,0.003 c -0.707,0 -1.203,0.215 -1.496,0.641 -0.18,0.262 -0.27,0.856 -0.266,1.781 l 0.039,10.817 c 0.004,1.015 0.122,1.648 0.348,1.902 0.301,0.34 0.777,0.508 1.43,0.508 l 0.574,-0.004 v 0.453 l -7.031,0.024 v -0.454 h 0.586 c 0.707,-0.003 1.203,-0.214 1.488,-0.64 0.176,-0.258 0.266,-0.852 0.262,-1.781 l -0.039,-11.063 -6.336,13.953 z"
             style="fill:#000000;fill-opacity:1;fill-rule:nonzero;stroke:none"
             id="path98422" />
          <path
             d="m 151.688,93.742 c 0.382,-0.004 0.703,0.129 0.964,0.395 0.262,0.261 0.395,0.582 0.395,0.957 0,0.371 -0.129,0.691 -0.395,0.957 -0.261,0.265 -0.582,0.402 -0.957,0.402 -0.375,0 -0.695,-0.133 -0.961,-0.394 -0.265,-0.266 -0.398,-0.586 -0.398,-0.957 0,-0.383 0.129,-0.704 0.391,-0.965 0.265,-0.262 0.586,-0.395 0.961,-0.395 z"
             style="fill:#000000;fill-opacity:1;fill-rule:nonzero;stroke:none"
             id="path98424" />
          <path
             d="m 166.336,87.609 c 1.152,0.239 2.012,0.629 2.582,1.164 0.793,0.747 1.191,1.661 1.195,2.743 0.004,0.82 -0.254,1.609 -0.773,2.363 -0.52,0.754 -1.231,1.309 -2.141,1.656 -0.902,0.352 -2.289,0.528 -4.152,0.535 l -7.813,0.028 v -0.453 l 0.625,-0.004 c 0.688,0 1.184,-0.223 1.485,-0.661 0.187,-0.289 0.277,-0.894 0.273,-1.82 l -0.035,-10.695 c -0.004,-1.024 -0.125,-1.672 -0.363,-1.938 -0.321,-0.359 -0.789,-0.535 -1.414,-0.535 l -0.625,0.004 -0.004,-0.453 7.156,-0.027 c 1.336,-0.004 2.402,0.089 3.207,0.285 1.223,0.289 2.16,0.804 2.805,1.547 0.644,0.742 0.969,1.597 0.972,2.566 0.004,0.828 -0.246,1.57 -0.75,2.231 -0.503,0.656 -1.246,1.144 -2.23,1.464 z m -6.395,-0.636 c 0.301,0.058 0.641,0.101 1.028,0.129 0.386,0.023 0.812,0.035 1.277,0.031 1.192,-0.004 2.082,-0.133 2.68,-0.391 0.597,-0.258 1.054,-0.652 1.371,-1.179 0.312,-0.532 0.473,-1.114 0.469,-1.739 -0.004,-0.969 -0.403,-1.793 -1.192,-2.472 -0.793,-0.68 -1.945,-1.02 -3.461,-1.012 -0.812,0 -1.543,0.094 -2.195,0.277 z m 0.028,7.91 c 0.941,0.219 1.875,0.324 2.793,0.32 1.472,-0.004 2.597,-0.34 3.367,-1.004 0.773,-0.668 1.156,-1.488 1.152,-2.465 -0.004,-0.644 -0.179,-1.261 -0.535,-1.855 -0.348,-0.59 -0.922,-1.055 -1.711,-1.395 -0.789,-0.339 -1.765,-0.507 -2.93,-0.504 -0.507,0 -0.937,0.012 -1.296,0.032 -0.36,0.015 -0.645,0.043 -0.864,0.082 z"
             style="fill:#000000;fill-opacity:1;fill-rule:nonzero;stroke:none"
             id="path98426" />
          <path
             d="m 174.613,93.66 c 0.383,0 0.703,0.133 0.965,0.399 0.262,0.261 0.391,0.578 0.395,0.953 0,0.375 -0.133,0.691 -0.395,0.961 -0.262,0.265 -0.582,0.398 -0.957,0.398 -0.375,0.004 -0.695,-0.129 -0.961,-0.394 -0.265,-0.262 -0.398,-0.582 -0.398,-0.954 -0.004,-0.382 0.129,-0.707 0.39,-0.968 0.266,-0.262 0.586,-0.391 0.961,-0.395 z"
             style="fill:#000000;fill-opacity:1;fill-rule:nonzero;stroke:none"
             id="path98428" />
          <path
             d="m 201.09,79.383 v 0.453 c -0.43,0 -0.781,0.082 -1.047,0.238 -0.27,0.153 -0.523,0.442 -0.77,0.867 -0.16,0.286 -0.414,0.965 -0.761,2.039 l -4.567,13.36 -0.488,0.004 -3.809,-10.574 -3.71,10.597 -0.442,0.004 -4.965,-13.73 c -0.371,-1.024 -0.605,-1.629 -0.703,-1.817 -0.164,-0.308 -0.387,-0.535 -0.668,-0.687 -0.281,-0.149 -0.66,-0.223 -1.144,-0.223 v -0.453 l 6.129,-0.02 v 0.454 h -0.293 c -0.43,0.003 -0.758,0.101 -0.985,0.296 -0.226,0.196 -0.34,0.434 -0.34,0.707 0,0.29 0.184,0.942 0.543,1.965 l 3.289,9.282 2.723,-7.907 -0.492,-1.394 -0.395,-1.11 c -0.172,-0.402 -0.367,-0.761 -0.578,-1.07 -0.105,-0.152 -0.238,-0.285 -0.39,-0.391 -0.204,-0.144 -0.411,-0.25 -0.618,-0.312 -0.152,-0.051 -0.394,-0.074 -0.73,-0.074 v -0.453 l 6.445,-0.02 v 0.453 h -0.441 c -0.453,0.004 -0.789,0.102 -0.996,0.297 -0.211,0.195 -0.317,0.461 -0.317,0.793 0.004,0.418 0.188,1.141 0.559,2.172 l 3.203,8.988 3.117,-9.133 c 0.356,-1.007 0.535,-1.707 0.531,-2.097 0,-0.188 -0.058,-0.364 -0.179,-0.524 -0.117,-0.164 -0.266,-0.277 -0.449,-0.343 -0.305,-0.114 -0.707,-0.168 -1.207,-0.168 v -0.454 z"
             style="fill:#000000;fill-opacity:1;fill-rule:nonzero;stroke:none"
             id="path98430" />
        </g>
        <g
           id="g117417"
           transform="rotate(-4.6486704,382.31861,281.23668)">
          <path
             d="m 349.586,139.934 7.238,4.648 c 1.188,0.766 2.168,1.254 2.938,1.461 0.769,0.207 1.504,0.258 2.207,0.152 l 0.094,0.446 -7.7,1.656 -0.093,-0.445 c 0.46,-0.098 0.777,-0.247 0.945,-0.446 0.172,-0.199 0.234,-0.394 0.195,-0.586 -0.043,-0.191 -0.117,-0.351 -0.226,-0.488 -0.106,-0.133 -0.414,-0.363 -0.926,-0.687 l -6.774,-4.325 1.125,5.219 c 0.176,0.82 0.344,1.348 0.5,1.59 0.121,0.18 0.325,0.316 0.61,0.402 0.386,0.117 0.769,0.137 1.152,0.055 l 0.547,-0.121 0.098,0.445 -6.903,1.485 -0.093,-0.446 0.574,-0.121 c 0.668,-0.144 1.113,-0.445 1.332,-0.898 0.137,-0.297 0.097,-0.93 -0.11,-1.899 l -2.25,-10.457 c -0.175,-0.816 -0.343,-1.351 -0.507,-1.601 -0.121,-0.172 -0.321,-0.305 -0.598,-0.395 -0.391,-0.113 -0.777,-0.129 -1.16,-0.047 l -0.574,0.121 -0.094,-0.441 6.898,-1.484 0.098,0.441 -0.551,0.117 c -0.375,0.082 -0.719,0.25 -1.027,0.512 -0.219,0.18 -0.348,0.406 -0.391,0.68 -0.039,0.277 0.028,0.812 0.199,1.605 l 1.063,4.953 c 0.129,-0.183 0.562,-0.808 1.308,-1.867 1.899,-2.672 3.016,-4.426 3.356,-5.254 0.144,-0.363 0.191,-0.664 0.141,-0.906 -0.039,-0.184 -0.161,-0.324 -0.356,-0.426 -0.195,-0.105 -0.496,-0.113 -0.894,-0.027 l -0.368,0.078 -0.093,-0.442 5.941,-1.277 0.094,0.441 c -0.348,0.083 -0.656,0.2 -0.926,0.352 -0.266,0.148 -0.578,0.391 -0.941,0.734 -0.36,0.336 -0.778,0.852 -1.262,1.539 -0.141,0.196 -0.777,1.184 -1.899,2.965 z"
             style="fill:#000000;fill-opacity:1;fill-rule:nonzero;stroke:none"
             id="path98432" />
          <path
             d="m 364.418,143.711 c 0.375,-0.078 0.715,-0.016 1.027,0.187 0.309,0.204 0.504,0.489 0.582,0.852 0.078,0.367 0.016,0.707 -0.187,1.02 -0.203,0.316 -0.485,0.511 -0.852,0.593 -0.367,0.078 -0.707,0.016 -1.023,-0.187 -0.313,-0.207 -0.508,-0.488 -0.586,-0.856 -0.082,-0.371 -0.02,-0.715 0.18,-1.023 0.207,-0.313 0.492,-0.508 0.859,-0.586 z"
             style="fill:#000000;fill-opacity:1;fill-rule:nonzero;stroke:none"
             id="path98434" />
          <path
             d="m 387.367,124.262 0.094,0.441 c -0.422,0.094 -0.746,0.242 -0.977,0.453 -0.23,0.203 -0.421,0.539 -0.57,1.004 -0.098,0.313 -0.207,1.031 -0.324,2.156 l -1.703,14.016 -0.477,0.102 -5.918,-9.555 -1.433,11.137 -0.434,0.093 -7.699,-12.406 c -0.574,-0.926 -0.93,-1.469 -1.063,-1.633 -0.222,-0.265 -0.488,-0.441 -0.797,-0.531 -0.304,-0.09 -0.691,-0.082 -1.164,0.02 l -0.093,-0.442 5.992,-1.293 0.094,0.446 -0.286,0.062 c -0.421,0.09 -0.722,0.254 -0.906,0.492 -0.18,0.239 -0.238,0.492 -0.183,0.762 0.062,0.281 0.375,0.883 0.937,1.809 l 5.141,8.402 1.027,-8.301 -0.77,-1.262 -0.617,-1 c -0.254,-0.363 -0.515,-0.671 -0.789,-0.929 -0.136,-0.129 -0.289,-0.231 -0.461,-0.301 -0.23,-0.102 -0.453,-0.16 -0.668,-0.18 -0.16,-0.015 -0.402,0.012 -0.73,0.078 l -0.094,-0.441 6.301,-1.356 0.094,0.442 -0.43,0.094 c -0.445,0.097 -0.75,0.261 -0.918,0.496 -0.164,0.238 -0.211,0.515 -0.141,0.843 0.086,0.407 0.418,1.075 0.996,2.008 l 4.993,8.129 1.16,-9.578 c 0.14,-1.062 0.168,-1.781 0.086,-2.164 -0.039,-0.184 -0.133,-0.34 -0.285,-0.473 -0.149,-0.136 -0.321,-0.218 -0.508,-0.242 -0.324,-0.047 -0.731,-0.019 -1.215,0.086 l -0.098,-0.445 z"
             style="fill:#000000;fill-opacity:1;fill-rule:nonzero;stroke:none"
             id="path98436" />
        </g>
        <g
           id="g117407"
           transform="rotate(-19.457036,252.4235,123.5975)">
          <path
             d="m 240.883,131.703 -6.399,-13.93 v 11.063 c 0,1.016 0.114,1.648 0.332,1.902 0.301,0.34 0.778,0.512 1.426,0.512 h 0.586 v 0.453 h -5.762 v -0.453 h 0.586 c 0.703,0 1.2,-0.211 1.493,-0.633 0.179,-0.262 0.265,-0.855 0.265,-1.781 V 118.02 c 0,-0.735 -0.078,-1.262 -0.242,-1.586 -0.113,-0.239 -0.324,-0.438 -0.629,-0.594 -0.305,-0.16 -0.793,-0.238 -1.473,-0.238 v -0.454 h 4.688 l 6.008,12.954 5.906,-12.954 h 4.687 v 0.454 h -0.574 c -0.703,0 -1.203,0.211 -1.5,0.636 -0.179,0.258 -0.269,0.852 -0.269,1.782 v 10.816 c 0,1.016 0.117,1.648 0.343,1.902 0.301,0.34 0.778,0.512 1.426,0.512 h 0.574 v 0.453 h -7.031 v -0.453 h 0.586 c 0.711,0 1.207,-0.211 1.492,-0.633 0.18,-0.262 0.266,-0.855 0.266,-1.781 v -11.063 l -6.383,13.93 z"
             style="fill:#000000;fill-opacity:1;fill-rule:nonzero;stroke:none"
             id="path98438" />
          <path
             d="m 256.008,129.336 c 0.383,0 0.703,0.133 0.965,0.398 0.261,0.262 0.39,0.582 0.39,0.957 0,0.372 -0.133,0.692 -0.398,0.957 -0.262,0.266 -0.582,0.399 -0.957,0.399 -0.375,0 -0.695,-0.133 -0.961,-0.399 -0.262,-0.265 -0.395,-0.585 -0.395,-0.957 0,-0.382 0.133,-0.707 0.395,-0.964 0.266,-0.262 0.586,-0.391 0.961,-0.391 z"
             style="fill:#000000;fill-opacity:1;fill-rule:nonzero;stroke:none"
             id="path98440" />
          <path
             d="m 273.598,115.148 0.183,3.883 h -0.465 c -0.089,-0.683 -0.211,-1.172 -0.363,-1.465 -0.254,-0.472 -0.59,-0.82 -1.008,-1.043 -0.418,-0.226 -0.972,-0.335 -1.656,-0.335 h -2.332 v 12.648 c 0,1.016 0.109,1.648 0.332,1.902 0.309,0.34 0.785,0.512 1.426,0.512 h 0.574 v 0.453 h -7.019 v -0.453 h 0.585 c 0.7,0 1.2,-0.211 1.493,-0.633 0.175,-0.262 0.265,-0.855 0.265,-1.781 v -12.648 h -1.988 c -0.773,0 -1.324,0.054 -1.648,0.171 -0.422,0.153 -0.786,0.45 -1.086,0.891 -0.301,0.438 -0.481,1.031 -0.536,1.781 h -0.464 l 0.195,-3.883 z"
             style="fill:#000000;fill-opacity:1;fill-rule:nonzero;stroke:none"
             id="path98442" />
        </g>
      </g>
    </g>
    <g
       id="g98444">
      <path
         d="m 448.133,112.324 c 0,55.492 -100.141,100.477 -223.668,100.477 -123.527,0 -223.668,-44.985 -223.668,-100.477 0,-55.492 100.141,-100.48 223.668,-100.48 123.527,0 223.668,44.988 223.668,100.48 z"
         style="fill:none;stroke:#000000;stroke-width:1.9125;stroke-linecap:butt;stroke-linejoin:round;stroke-miterlimit:4;stroke-dasharray:1.9125, 11.475;stroke-dashoffset:0;stroke-opacity:1"
         id="path98446" />
      <path
         d="m 342.141,107.867 c 0,48.656 -75.727,88.098 -169.145,88.098 -93.414,0 -169.144,-39.442 -169.144,-88.098 0,-48.656 75.73,-88.101 169.144,-88.101 93.418,0 169.145,39.445 169.145,88.101 z"
         style="fill:none;stroke:#000000;stroke-width:2;stroke-linecap:butt;stroke-linejoin:round;stroke-miterlimit:4;stroke-dasharray:2, 6;stroke-dashoffset:0;stroke-opacity:1"
         id="path98448" />
      <g
         id="g117402">
        <g
           id="g117412"
           transform="rotate(-20.469037,277.44146,162.59746)">
          <path
             d="m 256.582,149.68 v -0.453 h 7.09 v 0.453 h -0.598 c -0.672,0 -1.164,0.199 -1.476,0.597 -0.196,0.258 -0.293,0.887 -0.293,1.879 v 8.094 c 0,1.242 -0.137,2.254 -0.41,3.027 -0.27,0.774 -0.739,1.446 -1.411,2.024 -0.664,0.57 -1.468,0.859 -2.414,0.859 -0.765,0 -1.367,-0.191 -1.808,-0.566 -0.438,-0.383 -0.66,-0.817 -0.66,-1.301 0,-0.398 0.101,-0.703 0.304,-0.906 0.274,-0.25 0.586,-0.375 0.942,-0.375 0.261,0 0.496,0.086 0.699,0.258 0.211,0.168 0.473,0.621 0.789,1.363 0.187,0.437 0.43,0.66 0.723,0.66 0.218,0 0.425,-0.137 0.613,-0.402 0.195,-0.27 0.289,-0.746 0.289,-1.43 v -11.305 c 0,-0.836 -0.051,-1.39 -0.16,-1.66 -0.078,-0.203 -0.25,-0.379 -0.512,-0.523 -0.348,-0.196 -0.719,-0.293 -1.109,-0.293 z"
             style="fill:#000000;fill-opacity:1;fill-rule:nonzero;stroke:none"
             id="path98450" />
          <path
             d="m 266.945,163.414 c 0.383,0 0.703,0.133 0.965,0.399 0.262,0.261 0.391,0.582 0.391,0.957 0,0.371 -0.133,0.691 -0.399,0.957 -0.261,0.265 -0.582,0.398 -0.957,0.398 -0.375,0 -0.695,-0.133 -0.961,-0.398 -0.261,-0.266 -0.394,-0.586 -0.394,-0.957 0,-0.383 0.133,-0.707 0.394,-0.965 0.266,-0.262 0.586,-0.391 0.961,-0.391 z"
             style="fill:#000000;fill-opacity:1;fill-rule:nonzero;stroke:none"
             id="path98452" />
          <path
             d="m 293.473,149.227 v 0.453 c -0.434,0 -0.782,0.078 -1.051,0.234 -0.27,0.152 -0.524,0.441 -0.77,0.863 -0.16,0.286 -0.418,0.965 -0.769,2.039 l -4.613,13.344 h -0.489 l -3.773,-10.586 -3.746,10.586 h -0.442 l -4.918,-13.746 c -0.367,-1.027 -0.597,-1.633 -0.695,-1.82 -0.164,-0.309 -0.387,-0.539 -0.668,-0.688 -0.277,-0.152 -0.66,-0.226 -1.141,-0.226 v -0.453 h 6.129 v 0.453 h -0.293 c -0.429,0 -0.757,0.097 -0.988,0.293 -0.226,0.195 -0.34,0.429 -0.34,0.707 0,0.285 0.18,0.941 0.535,1.965 l 3.258,9.293 2.75,-7.899 -0.488,-1.394 -0.391,-1.11 c -0.172,-0.406 -0.363,-0.765 -0.574,-1.074 -0.105,-0.156 -0.238,-0.285 -0.391,-0.391 -0.203,-0.148 -0.406,-0.254 -0.613,-0.316 -0.152,-0.051 -0.398,-0.074 -0.73,-0.074 v -0.453 h 6.445 v 0.453 h -0.441 c -0.457,0 -0.789,0.097 -1,0.293 -0.211,0.195 -0.317,0.457 -0.317,0.793 0,0.414 0.184,1.14 0.551,2.172 l 3.172,9 3.148,-9.122 c 0.36,-1.007 0.539,-1.707 0.539,-2.097 0,-0.188 -0.058,-0.364 -0.179,-0.524 -0.117,-0.164 -0.266,-0.281 -0.446,-0.343 -0.308,-0.118 -0.711,-0.172 -1.207,-0.172 v -0.453 z"
             style="fill:#000000;fill-opacity:1;fill-rule:nonzero;stroke:none"
             id="path98454" />
        </g>
      </g>
      <text
         xml:space="preserve"
         transform="translate(278.04476,41.211441)"
         style="font-variant:normal;font-weight:bold;font-size:22px;font-family:Verdana;-inkscape-font-specification:Verdana-Bold;writing-mode:lr-tb;fill:#000000;fill-opacity:1;fill-rule:nonzero;stroke:none"
         id="text98458"><tspan
           x="0 15.640625 26.200195 39.144531 54.248047 65.183594"
           y="0"
           sodipodi:role="line"
           id="tspan98456">2-core</tspan></text>
      <path
         d="M 412.125,96.805 325.402,117.066 220.039,93.563"
         style="fill:none;stroke:#000000;stroke-width:2;stroke-linecap:butt;stroke-linejoin:round;stroke-miterlimit:4;stroke-dasharray:none;stroke-opacity:1"
         id="path98460" />
      <path
         d="m 224.445,145.906 98.86,-28.164 -87.336,42.59"
         style="fill:none;stroke:#000000;stroke-width:2.04206;stroke-linecap:butt;stroke-linejoin:round;stroke-miterlimit:4;stroke-dasharray:none;stroke-opacity:1"
         id="path98462" />
      <path
         d="m 220.852,93.563 3.902,52.449 9.973,13.863"
         style="fill:none;stroke:#000000;stroke-width:2;stroke-linecap:butt;stroke-linejoin:round;stroke-miterlimit:4;stroke-dasharray:none;stroke-opacity:1"
         id="path98464" />
      <path
         d="m 225.074,145.957 -88.355,-18.449 97.527,33.496"
         style="fill:none;stroke:#000000;stroke-width:2;stroke-linecap:butt;stroke-linejoin:round;stroke-miterlimit:4;stroke-dasharray:none;stroke-opacity:1"
         id="path98466" />
      <path
         d="m 222.344,94.465 -66.477,-52.723 -18.34,85.391 z"
         style="fill:none;stroke:#000000;stroke-width:2;stroke-linecap:butt;stroke-linejoin:round;stroke-miterlimit:4;stroke-dasharray:none;stroke-opacity:1"
         id="path98468" />
      <path
         d="M 135.809,126.91 34.371,115.449 38.383,160.152 Z"
         style="fill:none;stroke:#000000;stroke-width:2;stroke-linecap:butt;stroke-linejoin:round;stroke-miterlimit:4;stroke-dasharray:none;stroke-opacity:1"
         id="path98470" />
      <path
         d="M 224.063,96.758 V 95.609"
         style="fill:none;stroke:#000000;stroke-width:2;stroke-linecap:butt;stroke-linejoin:round;stroke-miterlimit:4;stroke-dasharray:none;stroke-opacity:1"
         id="path98472" />
      <path
         d="m 222.918,96.184 12.75,63.472"
         style="fill:none;stroke:#000000;stroke-width:2;stroke-linecap:butt;stroke-linejoin:round;stroke-miterlimit:4;stroke-dasharray:none;stroke-opacity:1"
         id="path98474" />
      <text
         xml:space="preserve"
         transform="translate(358.57177,16.038086)"
         style="font-variant:normal;font-weight:bold;font-size:22px;font-family:Verdana;-inkscape-font-specification:Verdana-Bold;writing-mode:lr-tb;fill:#000000;fill-opacity:1;fill-rule:nonzero;stroke:none"
         id="text98478"><tspan
           x="0 15.640625 26.200195 39.144531 54.248047 65.183594"
           y="0"
           sodipodi:role="line"
           id="tspan98476">1-core</tspan></text>
      <path
         d="m 342.484,116.781 c 0,30.942 -49.574,56.024 -110.726,56.024 -61.156,0 -110.731,-25.082 -110.731,-56.024 0,-30.941 49.575,-56.027 110.731,-56.027 61.152,0 110.726,25.086 110.726,56.027 z"
         style="fill:none;stroke:#000000;stroke-width:2;stroke-linecap:butt;stroke-linejoin:round;stroke-miterlimit:4;stroke-dasharray:2, 2;stroke-dashoffset:0;stroke-opacity:1"
         id="path98480" />
      <text
         xml:space="preserve"
         transform="translate(192.13409,55.195282)"
         style="font-variant:normal;font-weight:bold;font-size:22px;font-family:Verdana;-inkscape-font-specification:Verdana-Bold;writing-mode:lr-tb;fill:#000000;fill-opacity:1;fill-rule:nonzero;stroke:none"
         id="text98484"><tspan
           x="0 15.640625 26.200195 39.144531 54.248047 65.183594"
           y="0"
           sodipodi:role="line"
           id="tspan98482">3-core</tspan></text>
    </g>
  </g>
</svg>
