<?xml version="1.0" encoding="UTF-8" standalone="no"?>
<svg
   width="528.372582pt"
   height="457.92pt"
   viewBox="0 0 528.372582 457.92"
   version="1.1"
   id="svg39040"
   sodipodi:docname="clique_core.svg"
   inkscape:version="1.2.1 (9c6d41e410, 2022-07-14)"
   xmlns:inkscape="http://www.inkscape.org/namespaces/inkscape"
   xmlns:sodipodi="http://sodipodi.sourceforge.net/DTD/sodipodi-0.dtd"
   xmlns:xlink="http://www.w3.org/1999/xlink"
   xmlns="http://www.w3.org/2000/svg"
   xmlns:svg="http://www.w3.org/2000/svg"
   xmlns:rdf="http://www.w3.org/1999/02/22-rdf-syntax-ns#"
   xmlns:cc="http://creativecommons.org/ns#"
   xmlns:dc="http://purl.org/dc/elements/1.1/">
  <sodipodi:namedview
     id="namedview39042"
     pagecolor="#ffffff"
     bordercolor="#000000"
     borderopacity="0.25"
     inkscape:showpageshadow="2"
     inkscape:pageopacity="0.0"
     inkscape:pagecheckerboard="0"
     inkscape:deskcolor="#d1d1d1"
     inkscape:document-units="pt"
     showgrid="false"
     inkscape:zoom="0.92537995"
     inkscape:cx="413.34373"
     inkscape:cy="358.77155"
     inkscape:window-width="1366"
     inkscape:window-height="705"
     inkscape:window-x="-8"
     inkscape:window-y="-8"
     inkscape:window-maximized="1"
     inkscape:current-layer="axes_1" />
  <metadata
     id="metadata38730">
    <rdf:RDF>
      <cc:Work>
        <dc:type
           rdf:resource="http://purl.org/dc/dcmitype/StillImage" />
        <dc:date>2022-12-05T21:35:45.941533</dc:date>
        <dc:format>image/svg+xml</dc:format>
        <dc:creator>
          <cc:Agent>
            <dc:title>Matplotlib v3.5.2, https://matplotlib.org/</dc:title>
          </cc:Agent>
        </dc:creator>
      </cc:Work>
    </rdf:RDF>
  </metadata>
  <defs
     id="defs38734">
    <style
       type="text/css"
       id="style38732">*{stroke-linejoin: round; stroke-linecap: butt}</style>
  </defs>
  <g
     id="figure_1">
    <g
       id="axes_1">
      <g
         id="PolyCollection_1">
        <path
           d="M 128.64674 245.865282  L 128.161793 249.548822  L 128.64674 253.232363  L 130.068534 256.664876  L 132.330281 259.612442  L 135.277847 261.874189  L 138.71036 263.295983  L 142.393901 263.78093  L 146.077441 263.295983  L 230.747576 231.419388  L 234.180089 229.997594  L 237.127655 227.735847  L 239.389402 224.788281  L 240.811196 221.355768  L 241.296143 217.672227  L 240.811196 213.988687  L 239.389402 210.556173  L 237.127655 207.608607  L 172.069929 154.917136  L 169.122363 152.655389  L 165.689849 151.233595  L 162.006309 150.748648  L 158.322768 151.233595  L 154.890255 152.655389  L 151.942689 154.917136  L 149.680942 157.864702  L 148.259148 161.297215  z "
           clip-path="url(#pc39d38f1dc)"
           style="fill: #0000ff; fill-opacity: 0.5; stroke: #000000; stroke-width: 0.5"
           id="path38739" />
        <path
           d="M 333.077152 228.42205  L 231.975423 199.34268  L 227.064035 198.696083  L 222.152648 199.34268  L 217.575963 201.238405  L 213.645875 204.254067  L 210.630213 208.184155  L 208.734488 212.76084  L 208.087892 217.672227  L 208.734488 222.583615  L 220.34591 269.714344  L 226.85918 291.878749  L 228.280973 295.311262  L 230.54272 298.258828  L 233.490286 300.520575  L 236.9228 301.942369  L 240.60634 302.427316  L 244.289881 301.942369  L 247.722394 300.520575  L 336.509665 254.494578  L 339.457231 252.232831  L 341.718978 249.285265  L 343.140772 245.852751  L 343.625719 242.169211  L 343.140772 238.48567  L 341.718978 235.053157  L 339.457231 232.105591  L 336.509665 229.843844  z "
           clip-path="url(#pc39d38f1dc)"
           style="fill: #ffff00; fill-opacity: 0.5; stroke: #000000; stroke-width: 0.5"
           id="path38741" />
        <path
           d="M 415.393443 206.280529  L 324.482224 223.839663  L 319.90554 225.735388  L 315.975452 228.751051  L 312.959789 232.681139  L 311.064064 237.257823  L 310.417468 242.169211  L 311.064064 247.080598  L 312.959789 251.657283  L 315.975452 255.587371  L 319.90554 258.603033  L 324.482224 260.498758  L 329.393611 261.145354  L 334.304999 260.498758  L 422.760524 233.77485  L 426.193037 232.353056  L 429.140603 230.091309  L 431.40235 227.143743  L 432.824144 223.71123  L 433.309091 220.027689  L 432.824144 216.344148  L 431.40235 212.911635  L 429.140603 209.964069  L 426.193037 207.702322  L 422.760524 206.280529  L 419.076983 205.795581  z "
           clip-path="url(#pc39d38f1dc)"
           style="fill: #ff0000; fill-opacity: 0.5; stroke: #000000; stroke-width: 0.5"
           id="path38743" />
        <path
           d="m 142.3939,230.57268 -100.670883,-6.70346 -3.683541,0.48495 -3.432513,1.4218 -2.947566,2.26174 -2.261747,2.94757 -1.421794,3.43251 -0.484947,3.68354 2.869126,43.56009 0.484947,3.68354 1.421794,3.43252 2.261747,2.94756 2.947566,2.26175 3.432513,1.42179 3.683541,0.48495 3.68354,-0.48495 99.029607,-27.53021 4.57668,-1.89573 3.93009,-3.01566 3.01566,-3.93009 1.89573,-4.57668 0.64659,-4.91139 -0.64659,-4.91139 -1.89573,-4.57668 -3.01566,-3.93009 -3.93009,-3.01566 -4.57668,-1.89573 z"
           clip-path="url(#pc39d38f1dc)"
           style="fill:#008000;fill-opacity:0.501961;stroke:#000000;stroke-width:0.5"
           id="path38745"
           transform="translate(4.5,-3)" />
        <path
           d="M 243.581142 249.596981  L 239.004458 247.701257  L 148.533135 226.636888  L 142.393901 225.828643  L 136.254666 226.636888  L 130.533811 229.006544  L 125.621201 232.776122  L 121.851622 237.688732  L 119.481966 243.409588  L 118.673721 249.548822  L 119.481966 255.688057  L 121.851622 261.408912  L 125.621201 266.321522  L 130.533811 270.091101  L 136.254666 272.460757  L 235.694953 306.524756  L 240.60634 307.171352  L 245.517728 306.524756  L 250.094412 304.629031  L 254.0245 301.613368  L 257.040163 297.68328  L 258.935888 293.106596  L 259.582484 288.195208  L 258.935888 283.283821  L 252.422618 261.119416  L 250.526893 256.542732  L 247.511231 252.612644  z "
           clip-path="url(#pc39d38f1dc)"
           style="fill: #ffff00; fill-opacity: 0.5; stroke: #000000; stroke-width: 0.5"
           id="path38747" />
      </g>
      <g
         id="PolyCollection_2">
        <path
           d="M 231.808071 217.672227  L 231.646422 216.44438  L 231.172491 215.300209  L 230.418575 214.317687  L 229.436053 213.563772  L 228.291882 213.08984  L 227.064035 212.928191  L 225.836188 213.08984  L 224.692017 213.563772  L 223.709495 214.317687  L 222.95558 215.300209  L 222.481648 216.44438  L 222.319999 217.672227  L 222.481648 218.900074  L 222.95558 220.044245  L 223.709495 221.026767  L 224.692017 221.780683  L 225.836188 222.254614  L 227.064035 222.416263  L 228.291882 222.254614  L 229.436053 221.780683  L 230.418575 221.026767  L 231.172491 220.044245  L 231.646422 218.900074  z "
           clip-path="url(#pc39d38f1dc)"
           style="fill-opacity: 0.5"
           id="path38750" />
        <path
           d="M 147.137936 249.548822  L 146.976287 248.320975  L 146.502356 247.176804  L 145.748441 246.194282  L 144.765918 245.440367  L 143.621747 244.966436  L 142.393901 244.804786  L 141.166054 244.966436  L 140.021883 245.440367  L 139.039361 246.194282  L 138.285445 247.176804  L 137.811514 248.320975  L 137.649865 249.548822  L 137.811514 250.776669  L 138.285445 251.92084  L 139.039361 252.903362  L 140.021883 253.657278  L 141.166054 254.131209  L 142.393901 254.292858  L 143.621747 254.131209  L 144.765918 253.657278  L 145.748441 252.903362  L 146.502356 251.92084  L 146.976287 250.776669  z "
           clip-path="url(#pc39d38f1dc)"
           style="fill-opacity: 0.5"
           id="path38752" />
        <path
           d="M 166.750345 164.980756  L 166.588696 163.752909  L 166.114764 162.608738  L 165.360849 161.626216  L 164.378327 160.8723  L 163.234156 160.398369  L 162.006309 160.23672  L 160.778462 160.398369  L 159.634291 160.8723  L 158.651769 161.626216  L 157.897853 162.608738  L 157.423922 163.752909  L 157.262273 164.980756  L 157.423922 166.208603  L 157.897853 167.352774  L 158.651769 168.335296  L 159.634291 169.089211  L 160.778462 169.563143  L 162.006309 169.724792  L 163.234156 169.563143  L 164.378327 169.089211  L 165.360849 168.335296  L 166.114764 167.352774  L 166.588696 166.208603  z "
           clip-path="url(#pc39d38f1dc)"
           style="fill-opacity: 0.5"
           id="path38754" />
        <path
           d="M 245.350376 288.195208  L 245.188727 286.967361  L 244.714796 285.82319  L 243.96088 284.840668  L 242.978358 284.086753  L 241.834187 283.612821  L 240.60634 283.451172  L 239.378493 283.612821  L 238.234322 284.086753  L 237.2518 284.840668  L 236.497885 285.82319  L 236.023953 286.967361  L 235.862304 288.195208  L 236.023953 289.423055  L 236.497885 290.567226  L 237.2518 291.549748  L 238.234322 292.303664  L 239.378493 292.777595  L 240.60634 292.939244  L 241.834187 292.777595  L 242.978358 292.303664  L 243.96088 291.549748  L 244.714796 290.567226  L 245.188727 289.423055  z "
           clip-path="url(#pc39d38f1dc)"
           style="fill-opacity: 0.5"
           id="path38756" />
        <path
           d="M 334.137647 242.169211  L 333.975998 240.941364  L 333.502067 239.797193  L 332.748151 238.814671  L 331.765629 238.060755  L 330.621458 237.586824  L 329.393611 237.425175  L 328.165765 237.586824  L 327.021593 238.060755  L 326.039071 238.814671  L 325.285156 239.797193  L 324.811225 240.941364  L 324.649576 242.169211  L 324.811225 243.397057  L 325.285156 244.541229  L 326.039071 245.523751  L 327.021593 246.277666  L 328.165765 246.751597  L 329.393611 246.913247  L 330.621458 246.751597  L 331.765629 246.277666  L 332.748151 245.523751  L 333.502067 244.541229  L 333.975998 243.397057  z "
           clip-path="url(#pc39d38f1dc)"
           style="fill-opacity: 0.5"
           id="path38758" />
        <path
           d="M 238.837107 266.030804  L 238.675457 264.802957  L 238.201526 263.658786  L 237.447611 262.676264  L 236.465089 261.922348  L 235.320917 261.448417  L 234.093071 261.286768  L 232.865224 261.448417  L 231.721053 261.922348  L 230.738531 262.676264  L 229.984615 263.658786  L 229.510684 264.802957  L 229.349035 266.030804  L 229.510684 267.258651  L 229.984615 268.402822  L 230.738531 269.385344  L 231.721053 270.13926  L 232.865224 270.613191  L 234.093071 270.77484  L 235.320917 270.613191  L 236.465089 270.13926  L 237.447611 269.385344  L 238.201526 268.402822  L 238.675457 267.258651  z "
           clip-path="url(#pc39d38f1dc)"
           style="fill-opacity: 0.5"
           id="path38760" />
        <path
           d="M 423.821019 220.027689  L 423.65937 218.799842  L 423.185439 217.655671  L 422.431523 216.673149  L 421.449001 215.919233  L 420.30483 215.445302  L 419.076983 215.283653  L 417.849136 215.445302  L 416.704965 215.919233  L 415.722443 216.673149  L 414.968527 217.655671  L 414.494596 218.799842  L 414.332947 220.027689  L 414.494596 221.255536  L 414.968527 222.399707  L 415.722443 223.382229  L 416.704965 224.136145  L 417.849136 224.610076  L 419.076983 224.771725  L 420.30483 224.610076  L 421.449001 224.136145  L 422.431523 223.382229  L 423.185439 222.399707  L 423.65937 221.255536  z "
           clip-path="url(#pc39d38f1dc)"
           style="fill-opacity: 0.5"
           id="path38762" />
        <path
           d="M 49.336178 281.661423  L 49.174529 280.433576  L 48.700598 279.289405  L 47.946683 278.306883  L 46.964161 277.552967  L 45.819989 277.079036  L 44.592143 276.917387  L 43.364296 277.079036  L 42.220125 277.552967  L 41.237603 278.306883  L 40.483687 279.289405  L 40.009756 280.433576  L 39.848107 281.661423  L 40.009756 282.88927  L 40.483687 284.033441  L 41.237603 285.015963  L 42.220125 285.769879  L 43.364296 286.24381  L 44.592143 286.405459  L 45.819989 286.24381  L 46.964161 285.769879  L 47.946683 285.015963  L 48.700598 284.033441  L 49.174529 282.88927  z "
           clip-path="url(#pc39d38f1dc)"
           style="fill-opacity: 0.5"
           id="path38764" />
        <path
           d="M 46.467053 238.101333  L 46.305404 236.873486  L 45.831473 235.729315  L 45.077557 234.746793  L 44.095035 233.992877  L 42.950864 233.518946  L 41.723017 233.357297  L 40.49517 233.518946  L 39.350999 233.992877  L 38.368477 234.746793  L 37.614561 235.729315  L 37.14063 236.873486  L 36.978981 238.101333  L 37.14063 239.32918  L 37.614561 240.473351  L 38.368477 241.455873  L 39.350999 242.209789  L 40.49517 242.68372  L 41.723017 242.845369  L 42.950864 242.68372  L 44.095035 242.209789  L 45.077557 241.455873  L 45.831473 240.473351  L 46.305404 239.32918  z "
           clip-path="url(#pc39d38f1dc)"
           style="fill-opacity: 0.5"
           id="path38766" />
      </g>
      <g
         id="text_1">
        <g
           id="patch_2">
          <path
             d="M 232.808071 233.025743  L 336.870571 233.025743  L 336.870571 202.318712  L 232.808071 202.318712  L 232.808071 233.025743  z "
             style="fill: none"
             id="path38769" />
        </g>
        <!-- C.Jeffries -->
        <g
           transform="translate(236.808071 223.678087)scale(0.25 -0.25)"
           id="g38802">
          <defs
             id="defs38780">
            <path
               id="TimesNewRomanPSMT-43"
               d="M 3853 4334  L 3950 2894  L 3853 2894  Q 3659 3541 3300 3825  Q 2941 4109 2438 4109  Q 2016 4109 1675 3895  Q 1334 3681 1139 3212  Q 944 2744 944 2047  Q 944 1472 1128 1050  Q 1313 628 1683 403  Q 2053 178 2528 178  Q 2941 178 3256 354  Q 3572 531 3950 1056  L 4047 994  Q 3728 428 3303 165  Q 2878 -97 2294 -97  Q 1241 -97 663 684  Q 231 1266 231 2053  Q 231 2688 515 3219  Q 800 3750 1298 4042  Q 1797 4334 2388 4334  Q 2847 4334 3294 4109  Q 3425 4041 3481 4041  Q 3566 4041 3628 4100  Q 3709 4184 3744 4334  L 3853 4334  z "
               transform="scale(0.015625)" />
            <path
               id="TimesNewRomanPSMT-2e"
               d="M 800 606  Q 947 606 1047 504  Q 1147 403 1147 259  Q 1147 116 1045 14  Q 944 -88 800 -88  Q 656 -88 554 14  Q 453 116 453 259  Q 453 406 554 506  Q 656 606 800 606  z "
               transform="scale(0.015625)" />
            <path
               id="TimesNewRomanPSMT-4a"
               d="M 638 4122  L 638 4238  L 2453 4238  L 2453 4122  L 2300 4122  Q 2041 4122 1922 3969  Q 1847 3869 1847 3488  L 1847 1416  Q 1847 938 1742 641  Q 1638 344 1381 123  Q 1125 -97 763 -97  Q 469 -97 300 48  Q 131 194 131 381  Q 131 534 209 613  Q 313 709 450 709  Q 550 709 629 643  Q 709 578 831 294  Q 903 125 1016 125  Q 1100 125 1173 228  Q 1247 331 1247 594  L 1247 3488  Q 1247 3809 1206 3913  Q 1175 3991 1075 4047  Q 941 4122 791 4122  L 638 4122  z "
               transform="scale(0.015625)" />
            <path
               id="TimesNewRomanPSMT-65"
               d="M 681 1784  Q 678 1147 991 784  Q 1303 422 1725 422  Q 2006 422 2214 576  Q 2422 731 2563 1106  L 2659 1044  Q 2594 616 2278 264  Q 1963 -88 1488 -88  Q 972 -88 605 314  Q 238 716 238 1394  Q 238 2128 614 2539  Q 991 2950 1559 2950  Q 2041 2950 2350 2633  Q 2659 2316 2659 1784  L 681 1784  z M 681 1966  L 2006 1966  Q 1991 2241 1941 2353  Q 1863 2528 1708 2628  Q 1553 2728 1384 2728  Q 1125 2728 920 2526  Q 716 2325 681 1966  z "
               transform="scale(0.015625)" />
            <path
               id="TimesNewRomanPSMT-66"
               d="M 1319 2638  L 1319 756  Q 1319 356 1406 250  Q 1522 113 1716 113  L 1975 113  L 1975 0  L 266 0  L 266 113  L 394 113  Q 519 113 622 175  Q 725 238 764 344  Q 803 450 803 756  L 803 2638  L 247 2638  L 247 2863  L 803 2863  L 803 3050  Q 803 3478 940 3775  Q 1078 4072 1361 4255  Q 1644 4438 1997 4438  Q 2325 4438 2600 4225  Q 2781 4084 2781 3909  Q 2781 3816 2700 3733  Q 2619 3650 2525 3650  Q 2453 3650 2373 3701  Q 2294 3753 2178 3923  Q 2063 4094 1966 4153  Q 1869 4213 1750 4213  Q 1606 4213 1506 4136  Q 1406 4059 1362 3898  Q 1319 3738 1319 3069  L 1319 2863  L 2056 2863  L 2056 2638  L 1319 2638  z "
               transform="scale(0.015625)" />
            <path
               id="TimesNewRomanPSMT-72"
               d="M 1038 2947  L 1038 2303  Q 1397 2947 1775 2947  Q 1947 2947 2059 2842  Q 2172 2738 2172 2600  Q 2172 2478 2090 2393  Q 2009 2309 1897 2309  Q 1788 2309 1652 2417  Q 1516 2525 1450 2525  Q 1394 2525 1328 2463  Q 1188 2334 1038 2041  L 1038 669  Q 1038 431 1097 309  Q 1138 225 1241 169  Q 1344 113 1538 113  L 1538 0  L 72 0  L 72 113  Q 291 113 397 181  Q 475 231 506 341  Q 522 394 522 644  L 522 1753  Q 522 2253 501 2348  Q 481 2444 426 2487  Q 372 2531 291 2531  Q 194 2531 72 2484  L 41 2597  L 906 2947  L 1038 2947  z "
               transform="scale(0.015625)" />
            <path
               id="TimesNewRomanPSMT-69"
               d="M 928 4444  Q 1059 4444 1151 4351  Q 1244 4259 1244 4128  Q 1244 3997 1151 3903  Q 1059 3809 928 3809  Q 797 3809 703 3903  Q 609 3997 609 4128  Q 609 4259 701 4351  Q 794 4444 928 4444  z M 1188 2947  L 1188 647  Q 1188 378 1227 289  Q 1266 200 1342 156  Q 1419 113 1622 113  L 1622 0  L 231 0  L 231 113  Q 441 113 512 153  Q 584 194 626 287  Q 669 381 669 647  L 669 1750  Q 669 2216 641 2353  Q 619 2453 572 2492  Q 525 2531 444 2531  Q 356 2531 231 2484  L 188 2597  L 1050 2947  L 1188 2947  z "
               transform="scale(0.015625)" />
            <path
               id="TimesNewRomanPSMT-73"
               d="M 2050 2947  L 2050 1972  L 1947 1972  Q 1828 2431 1642 2597  Q 1456 2763 1169 2763  Q 950 2763 815 2647  Q 681 2531 681 2391  Q 681 2216 781 2091  Q 878 1963 1175 1819  L 1631 1597  Q 2266 1288 2266 781  Q 2266 391 1970 151  Q 1675 -88 1309 -88  Q 1047 -88 709 6  Q 606 38 541 38  Q 469 38 428 -44  L 325 -44  L 325 978  L 428 978  Q 516 541 762 319  Q 1009 97 1316 97  Q 1531 97 1667 223  Q 1803 350 1803 528  Q 1803 744 1651 891  Q 1500 1038 1047 1263  Q 594 1488 453 1669  Q 313 1847 313 2119  Q 313 2472 555 2709  Q 797 2947 1181 2947  Q 1350 2947 1591 2875  Q 1750 2828 1803 2828  Q 1853 2828 1881 2850  Q 1909 2872 1947 2947  L 2050 2947  z "
               transform="scale(0.015625)" />
          </defs>
          <use
             xlink:href="#TimesNewRomanPSMT-43"
             id="use38782" />
          <use
             xlink:href="#TimesNewRomanPSMT-2e"
             x="66.699219"
             id="use38784" />
          <use
             xlink:href="#TimesNewRomanPSMT-4a"
             x="91.699219"
             id="use38786" />
          <use
             xlink:href="#TimesNewRomanPSMT-65"
             x="130.615234"
             id="use38788" />
          <use
             xlink:href="#TimesNewRomanPSMT-66"
             x="175"
             id="use38790" />
          <use
             xlink:href="#TimesNewRomanPSMT-66"
             x="206.550781"
             id="use38792" />
          <use
             xlink:href="#TimesNewRomanPSMT-72"
             x="239.851562"
             id="use38794" />
          <use
             xlink:href="#TimesNewRomanPSMT-69"
             x="273.152344"
             id="use38796" />
          <use
             xlink:href="#TimesNewRomanPSMT-65"
             x="300.935547"
             id="use38798" />
          <use
             xlink:href="#TimesNewRomanPSMT-73"
             x="345.320312"
             id="use38800" />
        </g>
      </g>
      <g
         id="text_2"
         transform="translate(-4.5,-3)">
        <g
           id="patch_3">
          <path
             d="M 148.13794,264.90234 H 267.13012 V 234.19531 H 148.13794 Z"
             style="fill:none"
             id="path38805" />
        </g>
        <!-- M.B.Wyatt -->
        <g
           transform="matrix(0.25,0,0,-0.25,152.13794,255.50781)"
           id="g38834">
          <defs
             id="defs38814">
            <path
               id="TimesNewRomanPSMT-4d"
               d="M 2619,0 981,3566 V 734 q 0,-390 85,-487 115,-131 365,-131 h 150 V 0 H 106 v 116 h 150 q 269,0 382,162 68,100 68,456 v 2769 q 0,281 -62,406 -44,91 -161,152 -117,61 -377,61 v 116 H 1306 L 2844,922 4356,4238 h 1200 v -116 h -147 q -271,0 -384,-163 -69,-100 -69,-456 V 734 q 0,-390 88,-487 115,-131 365,-131 h 147 V 0 H 3756 v 116 h 150 q 272,0 382,162 68,100 68,456 V 3566 L 2722,0 Z"
               transform="scale(0.015625)" />
            <path
               id="TimesNewRomanPSMT-42"
               d="m 2956,2163 q 441,-94 660,-300 303,-288 303,-704 0,-315 -200,-604 Q 3519,266 3170,133 2822,0 2106,0 H 106 v 116 h 160 q 265,0 381,168 72,110 72,466 v 2738 q 0,393 -91,496 -122,138 -362,138 H 106 v 116 h 1832 q 512,0 821,-75 469,-113 716,-399 247,-286 247,-658 0,-318 -194,-570 -194,-252 -572,-373 z m -1637,168 q 115,-22 263,-33 149,-10 327,-10 457,0 686,98 230,98 352,301 122,204 122,444 0,372 -303,634 -303,263 -885,263 -312,0 -562,-69 z m 0,-2025 q 362,-84 715,-84 566,0 863,254 297,255 297,630 0,247 -135,475 -134,228 -437,359 -303,132 -750,132 -194,0 -332,-7 -137,-6 -221,-21 z"
               transform="scale(0.015625)" />
            <path
               id="TimesNewRomanPSMT-57"
               d="m 5991,4238 v -116 q -166,0 -269,-60 -103,-59 -197,-221 -62,-110 -197,-522 L 4147,-97 H 4022 L 3056,2613 2097,-97 H 1984 L 725,3422 q -141,394 -178,466 -63,118 -171,176 -107,58 -292,58 v 116 h 1569 v -116 h -75 q -165,0 -253,-75 -87,-75 -87,-181 0,-110 137,-503 l 834,-2379 704,2022 -125,357 -100,284 q -66,156 -147,275 -41,59 -100,100 -78,56 -157,81 -59,19 -187,19 v 116 h 1650 v -116 h -113 q -175,0 -256,-75 -81,-75 -81,-203 0,-160 141,-556 l 812,-2304 806,2335 q 138,387 138,537 0,72 -46,134 -45,63 -114,88 -118,44 -309,44 v 116 z"
               transform="scale(0.015625)" />
            <path
               id="TimesNewRomanPSMT-79"
               d="m 38,2863 h 1334 v -116 h -66 q -140,0 -211,-61 -70,-61 -70,-152 0,-121 103,-337 l 697,-1444 641,1581 q 53,129 53,254 0,56 -22,84 -25,34 -78,54 -53,21 -188,21 v 116 h 932 v -116 q -116,-13 -179,-51 -62,-37 -137,-140 -28,-43 -106,-240 L 1575,-541 q -169,-415 -443,-627 -273,-213 -526,-213 -184,0 -303,106 -119,106 -119,244 0,131 86,211 86,79 236,79 103,0 282,-68 125,-47 156,-47 94,0 204,97 111,96 224,375 L 1575,113 547,2272 q -47,97 -150,241 -78,109 -128,146 -72,50 -231,88 z"
               transform="scale(0.015625)" />
            <path
               id="TimesNewRomanPSMT-61"
               d="M 1822,413 Q 1381,72 1269,19 1100,-59 909,-59 613,-59 420,144 228,347 228,678 q 0,210 94,363 128,212 445,399 317,188 1055,457 v 112 q 0,429 -136,588 -136,159 -395,159 -197,0 -313,-106 -119,-106 -119,-244 l 7,-181 q 0,-144 -74,-222 -73,-78 -192,-78 -116,0 -189,81 -73,82 -73,222 0,269 275,494 275,225 771,225 382,0 625,-128 185,-97 272,-303 57,-135 57,-550 V 994 q 0,-410 15,-502 16,-92 52,-123 36,-31 83,-31 50,0 87,21 66,41 253,229 V 413 q -350,-469 -669,-469 -153,0 -244,106 -90,106 -93,363 z m 0,203 V 1706 Q 1350,1519 1213,1441 966,1303 859,1153 753,1003 753,825 q 0,-225 134,-374 135,-148 310,-148 237,0 625,313 z"
               transform="scale(0.015625)" />
            <path
               id="TimesNewRomanPSMT-74"
               d="m 1031,3803 v -940 h 669 V 2644 H 1031 V 788 q 0,-279 80,-376 80,-96 205,-96 103,0 200,64 97,64 150,189 h 122 Q 1678,263 1478,108 1278,-47 1066,-47 922,-47 784,33 647,113 581,261 516,409 516,719 V 2644 H 63 v 103 q 171,69 351,233 180,164 320,389 72,119 200,434 z"
               transform="scale(0.015625)" />
          </defs>
          <use
             xlink:href="#TimesNewRomanPSMT-4d"
             id="use38816" />
          <use
             xlink:href="#TimesNewRomanPSMT-2e"
             x="88.916016"
             id="use38818" />
          <use
             xlink:href="#TimesNewRomanPSMT-42"
             x="113.91602"
             id="use38820" />
          <use
             xlink:href="#TimesNewRomanPSMT-2e"
             x="180.61523"
             id="use38822" />
          <use
             xlink:href="#TimesNewRomanPSMT-57"
             x="205.61523"
             id="use38824" />
          <use
             xlink:href="#TimesNewRomanPSMT-79"
             x="294"
             id="use38826" />
          <use
             xlink:href="#TimesNewRomanPSMT-61"
             x="344"
             id="use38828" />
          <use
             xlink:href="#TimesNewRomanPSMT-74"
             x="388.38477"
             id="use38830" />
          <use
             xlink:href="#TimesNewRomanPSMT-74"
             x="416.16797"
             id="use38832" />
        </g>
      </g>
      <g
         id="text_3">
        <g
           id="patch_4">
          <path
             d="M 167.750345 180.357709  L 330.586282 180.357709  L 330.586282 149.603803  L 167.750345 149.603803  L 167.750345 180.357709  z "
             style="fill: none"
             id="path38837" />
        </g>
        <!-- P.Bailey-brown -->
        <g
           transform="translate(171.750345 170.963178)scale(0.25 -0.25)"
           id="g38877">
          <defs
             id="defs38847">
            <path
               id="TimesNewRomanPSMT-50"
               d="M 1313 1984  L 1313 750  Q 1313 350 1400 253  Q 1519 116 1759 116  L 1922 116  L 1922 0  L 106 0  L 106 116  L 266 116  Q 534 116 650 291  Q 713 388 713 750  L 713 3488  Q 713 3888 628 3984  Q 506 4122 266 4122  L 106 4122  L 106 4238  L 1659 4238  Q 2228 4238 2556 4120  Q 2884 4003 3109 3725  Q 3334 3447 3334 3066  Q 3334 2547 2992 2222  Q 2650 1897 2025 1897  Q 1872 1897 1694 1919  Q 1516 1941 1313 1984  z M 1313 2163  Q 1478 2131 1606 2115  Q 1734 2100 1825 2100  Q 2150 2100 2386 2351  Q 2622 2603 2622 3003  Q 2622 3278 2509 3514  Q 2397 3750 2190 3867  Q 1984 3984 1722 3984  Q 1563 3984 1313 3925  L 1313 2163  z "
               transform="scale(0.015625)" />
            <path
               id="TimesNewRomanPSMT-6c"
               d="M 1184 4444  L 1184 647  Q 1184 378 1223 290  Q 1263 203 1344 158  Q 1425 113 1647 113  L 1647 0  L 244 0  L 244 113  Q 441 113 512 153  Q 584 194 625 287  Q 666 381 666 647  L 666 3247  Q 666 3731 644 3842  Q 622 3953 573 3993  Q 525 4034 450 4034  Q 369 4034 244 3984  L 191 4094  L 1044 4444  L 1184 4444  z "
               transform="scale(0.015625)" />
            <path
               id="TimesNewRomanPSMT-2d"
               d="M 259 1672  L 1875 1672  L 1875 1200  L 259 1200  L 259 1672  z "
               transform="scale(0.015625)" />
            <path
               id="TimesNewRomanPSMT-62"
               d="M 984 2369  Q 1400 2947 1881 2947  Q 2322 2947 2650 2570  Q 2978 2194 2978 1541  Q 2978 778 2472 313  Q 2038 -88 1503 -88  Q 1253 -88 995 3  Q 738 94 469 275  L 469 3241  Q 469 3728 445 3840  Q 422 3953 372 3993  Q 322 4034 247 4034  Q 159 4034 28 3984  L -16 4094  L 844 4444  L 984 4444  L 984 2369  z M 984 2169  L 984 456  Q 1144 300 1314 220  Q 1484 141 1663 141  Q 1947 141 2192 453  Q 2438 766 2438 1363  Q 2438 1913 2192 2208  Q 1947 2503 1634 2503  Q 1469 2503 1303 2419  Q 1178 2356 984 2169  z "
               transform="scale(0.015625)" />
            <path
               id="TimesNewRomanPSMT-6f"
               d="M 1600 2947  Q 2250 2947 2644 2453  Q 2978 2031 2978 1484  Q 2978 1100 2793 706  Q 2609 313 2286 112  Q 1963 -88 1566 -88  Q 919 -88 538 428  Q 216 863 216 1403  Q 216 1797 411 2186  Q 606 2575 925 2761  Q 1244 2947 1600 2947  z M 1503 2744  Q 1338 2744 1170 2645  Q 1003 2547 900 2300  Q 797 2053 797 1666  Q 797 1041 1045 587  Q 1294 134 1700 134  Q 2003 134 2200 384  Q 2397 634 2397 1244  Q 2397 2006 2069 2444  Q 1847 2744 1503 2744  z "
               transform="scale(0.015625)" />
            <path
               id="TimesNewRomanPSMT-77"
               d="M 41 2863  L 1241 2863  L 1241 2747  Q 1075 2734 1023 2687  Q 972 2641 972 2553  Q 972 2456 1025 2319  L 1638 672  L 2253 2013  L 2091 2434  Q 2016 2622 1894 2694  Q 1825 2738 1638 2747  L 1638 2863  L 3000 2863  L 3000 2747  Q 2775 2738 2681 2666  Q 2619 2616 2619 2506  Q 2619 2444 2644 2378  L 3294 734  L 3897 2319  Q 3959 2488 3959 2588  Q 3959 2647 3898 2694  Q 3838 2741 3659 2747  L 3659 2863  L 4563 2863  L 4563 2747  Q 4291 2706 4163 2378  L 3206 -88  L 3078 -88  L 2363 1741  L 1528 -88  L 1413 -88  L 494 2319  Q 403 2547 315 2626  Q 228 2706 41 2747  L 41 2863  z "
               transform="scale(0.015625)" />
            <path
               id="TimesNewRomanPSMT-6e"
               d="M 1034 2341  Q 1538 2947 1994 2947  Q 2228 2947 2397 2830  Q 2566 2713 2666 2444  Q 2734 2256 2734 1869  L 2734 647  Q 2734 375 2778 278  Q 2813 200 2889 156  Q 2966 113 3172 113  L 3172 0  L 1756 0  L 1756 113  L 1816 113  Q 2016 113 2095 173  Q 2175 234 2206 353  Q 2219 400 2219 647  L 2219 1819  Q 2219 2209 2117 2386  Q 2016 2563 1775 2563  Q 1403 2563 1034 2156  L 1034 647  Q 1034 356 1069 288  Q 1113 197 1189 155  Q 1266 113 1500 113  L 1500 0  L 84 0  L 84 113  L 147 113  Q 366 113 442 223  Q 519 334 519 647  L 519 1709  Q 519 2225 495 2337  Q 472 2450 423 2490  Q 375 2531 294 2531  Q 206 2531 84 2484  L 38 2597  L 900 2947  L 1034 2947  L 1034 2341  z "
               transform="scale(0.015625)" />
          </defs>
          <use
             xlink:href="#TimesNewRomanPSMT-50"
             id="use38849" />
          <use
             xlink:href="#TimesNewRomanPSMT-2e"
             x="44.490234"
             id="use38851" />
          <use
             xlink:href="#TimesNewRomanPSMT-42"
             x="69.490234"
             id="use38853" />
          <use
             xlink:href="#TimesNewRomanPSMT-61"
             x="136.189453"
             id="use38855" />
          <use
             xlink:href="#TimesNewRomanPSMT-69"
             x="180.574219"
             id="use38857" />
          <use
             xlink:href="#TimesNewRomanPSMT-6c"
             x="208.357422"
             id="use38859" />
          <use
             xlink:href="#TimesNewRomanPSMT-65"
             x="236.140625"
             id="use38861" />
          <use
             xlink:href="#TimesNewRomanPSMT-79"
             x="280.525391"
             id="use38863" />
          <use
             xlink:href="#TimesNewRomanPSMT-2d"
             x="330.525391"
             id="use38865" />
          <use
             xlink:href="#TimesNewRomanPSMT-62"
             x="363.826172"
             id="use38867" />
          <use
             xlink:href="#TimesNewRomanPSMT-72"
             x="413.826172"
             id="use38869" />
          <use
             xlink:href="#TimesNewRomanPSMT-6f"
             x="447.126953"
             id="use38871" />
          <use
             xlink:href="#TimesNewRomanPSMT-77"
             x="497.126953"
             id="use38873" />
          <use
             xlink:href="#TimesNewRomanPSMT-6e"
             x="569.34375"
             id="use38875" />
        </g>
      </g>
      <g
         id="text_4"
         transform="translate(0,3)">
        <g
           id="patch_5">
          <path
             d="m 246.35038,303.57216 h 142.79687 v -30.7539 H 246.35038 Z"
             style="fill:none"
             id="path38880" />
        </g>
        <!-- J.Washington -->
        <g
           transform="matrix(0.25,0,0,-0.25,250.35038,294.17763)"
           id="g38911">
          <defs
             id="defs38885">
            <path
               id="TimesNewRomanPSMT-68"
               d="M 1041,4444 V 2350 q 347,381 550,489 203,108 406,108 244,0 419,-135 175,-134 259,-421 59,-200 59,-732 V 647 q 0,-272 44,-372 31,-75 106,-119 75,-43 275,-43 V 0 H 1753 v 113 h 66 q 200,0 278,60 78,61 109,180 10,50 10,294 v 1012 q 0,469 -49,616 -48,147 -155,220 -106,74 -256,74 -153,0 -319,-82 -165,-81 -396,-328 V 647 q 0,-294 32,-366 33,-72 122,-120 89,-48 308,-48 V 0 H 84 v 113 q 191,0 300,59 63,31 100,118 38,88 38,357 v 2591 q 0,490 -24,602 -23,113 -72,153 -48,41 -129,41 -66,0 -213,-50 l -43,110 856,350 z"
               transform="scale(0.015625)" />
            <path
               id="TimesNewRomanPSMT-67"
               d="m 966,1044 q -263,128 -404,357 -140,230 -140,508 0,425 320,731 321,307 821,307 409,0 709,-200 h 606 q 135,0 156,-8 22,-8 32,-26 18,-29 18,-100 0,-82 -15,-113 -10,-16 -33,-25 -23,-9 -158,-9 h -372 q 175,-225 175,-575 0,-400 -306,-685 -306,-284 -822,-284 -212,0 -434,62 Q 981,866 932,777 884,688 884,625 q 0,-53 52,-103 52,-50 202,-72 87,-12 437,-22 644,-15 834,-44 291,-40 464,-215 174,-175 174,-432 0,-353 -331,-662 -488,-456 -1272,-456 -603,0 -1019,272 -234,156 -234,325 0,75 34,150 53,115 219,321 22,29 319,338 -163,97 -230,173 -67,77 -67,174 0,109 89,256 89,147 411,416 z m 543,1753 q -231,0 -387,-185 -156,-184 -156,-565 0,-494 212,-766 163,-206 413,-206 237,0 390,178 153,178 153,560 0,496 -215,778 -160,206 -410,206 z M 934,0 q -146,-159 -221,-296 -75,-138 -75,-254 0,-150 181,-263 312,-193 903,-193 562,0 829,199 268,198 268,423 0,162 -160,231 -162,69 -643,81 -703,19 -1082,72 z"
               transform="scale(0.015625)" />
          </defs>
          <use
             xlink:href="#TimesNewRomanPSMT-4a"
             id="use38887" />
          <use
             xlink:href="#TimesNewRomanPSMT-2e"
             x="38.916016"
             id="use38889" />
          <use
             xlink:href="#TimesNewRomanPSMT-57"
             x="63.916016"
             id="use38891" />
          <use
             xlink:href="#TimesNewRomanPSMT-61"
             x="150.30078"
             id="use38893" />
          <use
             xlink:href="#TimesNewRomanPSMT-73"
             x="194.68555"
             id="use38895" />
          <use
             xlink:href="#TimesNewRomanPSMT-68"
             x="233.60156"
             id="use38897" />
          <use
             xlink:href="#TimesNewRomanPSMT-69"
             x="283.60156"
             id="use38899" />
          <use
             xlink:href="#TimesNewRomanPSMT-6e"
             x="311.38477"
             id="use38901" />
          <use
             xlink:href="#TimesNewRomanPSMT-67"
             x="361.38477"
             id="use38903" />
          <use
             xlink:href="#TimesNewRomanPSMT-74"
             x="411.38477"
             id="use38905" />
          <use
             xlink:href="#TimesNewRomanPSMT-6f"
             x="439.16797"
             id="use38907" />
          <use
             xlink:href="#TimesNewRomanPSMT-6e"
             x="489.16797"
             id="use38909" />
        </g>
      </g>
      <g
         id="text_5">
        <g
           id="patch_6">
          <path
             d="M 335.137647 257.522726  L 458.094679 257.522726  L 458.094679 226.815695  L 335.137647 226.815695  L 335.137647 257.522726  z "
             style="fill: none"
             id="path38914" />
        </g>
        <!-- K.Williams -->
        <g
           transform="translate(339.137647 248.17507)scale(0.25 -0.25)"
           id="g38941">
          <defs
             id="defs38919">
            <path
               id="TimesNewRomanPSMT-4b"
               d="M 1913 2350  L 3475 797  Q 3859 413 4131 273  Q 4403 134 4675 116  L 4675 0  L 2659 0  L 2659 116  Q 2841 116 2920 177  Q 3000 238 3000 313  Q 3000 388 2970 447  Q 2941 506 2775 669  L 1313 2116  L 1313 750  Q 1313 428 1353 325  Q 1384 247 1484 191  Q 1619 116 1769 116  L 1913 116  L 1913 0  L 106 0  L 106 116  L 256 116  Q 519 116 638 269  Q 713 369 713 750  L 713 3488  Q 713 3809 672 3916  Q 641 3991 544 4047  Q 406 4122 256 4122  L 106 4122  L 106 4238  L 1913 4238  L 1913 4122  L 1769 4122  Q 1622 4122 1484 4050  Q 1388 4000 1350 3900  Q 1313 3800 1313 3488  L 1313 2191  Q 1375 2250 1741 2588  Q 2669 3438 2863 3722  Q 2947 3847 2947 3941  Q 2947 4013 2881 4067  Q 2816 4122 2659 4122  L 2563 4122  L 2563 4238  L 4119 4238  L 4119 4122  Q 3981 4119 3868 4084  Q 3756 4050 3593 3951  Q 3431 3853 3194 3634  Q 3125 3572 2559 2994  L 1913 2350  z "
               transform="scale(0.015625)" />
            <path
               id="TimesNewRomanPSMT-6d"
               d="M 1050 2338  Q 1363 2650 1419 2697  Q 1559 2816 1721 2881  Q 1884 2947 2044 2947  Q 2313 2947 2506 2790  Q 2700 2634 2766 2338  Q 3088 2713 3309 2830  Q 3531 2947 3766 2947  Q 3994 2947 4170 2830  Q 4347 2713 4450 2447  Q 4519 2266 4519 1878  L 4519 647  Q 4519 378 4559 278  Q 4591 209 4675 161  Q 4759 113 4950 113  L 4950 0  L 3538 0  L 3538 113  L 3597 113  Q 3781 113 3884 184  Q 3956 234 3988 344  Q 4000 397 4000 647  L 4000 1878  Q 4000 2228 3916 2372  Q 3794 2572 3525 2572  Q 3359 2572 3192 2489  Q 3025 2406 2788 2181  L 2781 2147  L 2788 2013  L 2788 647  Q 2788 353 2820 281  Q 2853 209 2943 161  Q 3034 113 3253 113  L 3253 0  L 1806 0  L 1806 113  Q 2044 113 2133 169  Q 2222 225 2256 338  Q 2272 391 2272 647  L 2272 1878  Q 2272 2228 2169 2381  Q 2031 2581 1784 2581  Q 1616 2581 1450 2491  Q 1191 2353 1050 2181  L 1050 647  Q 1050 366 1089 281  Q 1128 197 1204 155  Q 1281 113 1516 113  L 1516 0  L 100 0  L 100 113  Q 297 113 375 155  Q 453 197 493 289  Q 534 381 534 647  L 534 1741  Q 534 2213 506 2350  Q 484 2453 437 2492  Q 391 2531 309 2531  Q 222 2531 100 2484  L 53 2597  L 916 2947  L 1050 2947  L 1050 2338  z "
               transform="scale(0.015625)" />
          </defs>
          <use
             xlink:href="#TimesNewRomanPSMT-4b"
             id="use38921" />
          <use
             xlink:href="#TimesNewRomanPSMT-2e"
             x="72.216797"
             id="use38923" />
          <use
             xlink:href="#TimesNewRomanPSMT-57"
             x="97.216797"
             id="use38925" />
          <use
             xlink:href="#TimesNewRomanPSMT-69"
             x="187.601562"
             id="use38927" />
          <use
             xlink:href="#TimesNewRomanPSMT-6c"
             x="215.384766"
             id="use38929" />
          <use
             xlink:href="#TimesNewRomanPSMT-6c"
             x="243.167969"
             id="use38931" />
          <use
             xlink:href="#TimesNewRomanPSMT-69"
             x="270.951172"
             id="use38933" />
          <use
             xlink:href="#TimesNewRomanPSMT-61"
             x="298.734375"
             id="use38935" />
          <use
             xlink:href="#TimesNewRomanPSMT-6d"
             x="343.119141"
             id="use38937" />
          <use
             xlink:href="#TimesNewRomanPSMT-73"
             x="420.902344"
             id="use38939" />
        </g>
      </g>
      <g
         id="text_6">
        <g
           id="patch_7">
          <path
             d="M 239.837107 281.38432  L 326.809763 281.38432  L 326.809763 250.677288  L 239.837107 250.677288  L 239.837107 281.38432  z "
             style="fill: none"
             id="path38944" />
        </g>
        <!-- M.Tune -->
        <g
           transform="translate(243.837107 272.036663)scale(0.25 -0.25)"
           id="g38963">
          <defs
             id="defs38949">
            <path
               id="TimesNewRomanPSMT-54"
               d="M 3703 4238  L 3750 3244  L 3631 3244  Q 3597 3506 3538 3619  Q 3441 3800 3280 3886  Q 3119 3972 2856 3972  L 2259 3972  L 2259 734  Q 2259 344 2344 247  Q 2463 116 2709 116  L 2856 116  L 2856 0  L 1059 0  L 1059 116  L 1209 116  Q 1478 116 1591 278  Q 1659 378 1659 734  L 1659 3972  L 1150 3972  Q 853 3972 728 3928  Q 566 3869 450 3700  Q 334 3531 313 3244  L 194 3244  L 244 4238  L 3703 4238  z "
               transform="scale(0.015625)" />
            <path
               id="TimesNewRomanPSMT-75"
               d="M 2709 2863  L 2709 1128  Q 2709 631 2732 520  Q 2756 409 2807 365  Q 2859 322 2928 322  Q 3025 322 3147 375  L 3191 266  L 2334 -88  L 2194 -88  L 2194 519  Q 1825 119 1631 15  Q 1438 -88 1222 -88  Q 981 -88 804 51  Q 628 191 559 409  Q 491 628 491 1028  L 491 2306  Q 491 2509 447 2587  Q 403 2666 317 2708  Q 231 2750 6 2747  L 6 2863  L 1009 2863  L 1009 947  Q 1009 547 1148 422  Q 1288 297 1484 297  Q 1619 297 1789 381  Q 1959 466 2194 703  L 2194 2325  Q 2194 2569 2105 2655  Q 2016 2741 1734 2747  L 1734 2863  L 2709 2863  z "
               transform="scale(0.015625)" />
          </defs>
          <use
             xlink:href="#TimesNewRomanPSMT-4d"
             id="use38951" />
          <use
             xlink:href="#TimesNewRomanPSMT-2e"
             x="88.916016"
             id="use38953" />
          <use
             xlink:href="#TimesNewRomanPSMT-54"
             x="113.916016"
             id="use38955" />
          <use
             xlink:href="#TimesNewRomanPSMT-75"
             x="171.5"
             id="use38957" />
          <use
             xlink:href="#TimesNewRomanPSMT-6e"
             x="221.5"
             id="use38959" />
          <use
             xlink:href="#TimesNewRomanPSMT-65"
             x="271.5"
             id="use38961" />
        </g>
      </g>
      <g
         id="text_7"
         transform="translate(-51,-13.5)">
        <g
           id="patch_8">
          <path
             d="M 424.82102,235.3812 H 525.17258 V 204.67417 H 424.82102 Z"
             style="fill:none"
             id="path38966" />
        </g>
        <!-- R.Barnes -->
        <g
           transform="matrix(0.25,0,0,-0.25,428.82102,226.03355)"
           id="g38988">
          <defs
             id="defs38970">
            <path
               id="TimesNewRomanPSMT-52"
               d="M 4325,0 H 3194 L 1759,1981 q -159,-6 -259,-6 -41,0 -88,1 -46,2 -96,5 V 750 q 0,-400 87,-497 119,-137 356,-137 h 166 V 0 H 109 v 116 h 160 q 269,0 384,175 66,97 66,459 v 2738 q 0,400 -88,496 -122,138 -362,138 H 109 v 116 h 1544 q 675,0 995,-99 321,-98 544,-362 224,-264 224,-630 0,-391 -255,-679 -255,-287 -789,-405 L 3247,847 Q 3547,428 3762,290 3978,153 4325,116 Z M 1316,2178 q 59,0 103,-2 44,-1 72,-1 606,0 914,262 308,263 308,669 0,397 -249,645 -248,249 -658,249 -181,0 -490,-59 z"
               transform="scale(0.015625)" />
          </defs>
          <use
             xlink:href="#TimesNewRomanPSMT-52"
             id="use38972" />
          <use
             xlink:href="#TimesNewRomanPSMT-2e"
             x="66.699219"
             id="use38974" />
          <use
             xlink:href="#TimesNewRomanPSMT-42"
             x="91.699219"
             id="use38976" />
          <use
             xlink:href="#TimesNewRomanPSMT-61"
             x="158.39844"
             id="use38978" />
          <use
             xlink:href="#TimesNewRomanPSMT-72"
             x="202.7832"
             id="use38980" />
          <use
             xlink:href="#TimesNewRomanPSMT-6e"
             x="236.08398"
             id="use38982" />
          <use
             xlink:href="#TimesNewRomanPSMT-65"
             x="286.08398"
             id="use38984" />
          <use
             xlink:href="#TimesNewRomanPSMT-73"
             x="330.46875"
             id="use38986" />
        </g>
      </g>
      <g
         id="text_8">
        <g
           id="patch_9">
          <path
             d="M 50.336178 297.014939  L 115.281491 297.014939  L 115.281491 266.307907  L 50.336178 266.307907  L 50.336178 297.014939  z "
             style="fill: none"
             id="path38991" />
        </g>
        <!-- Kristi -->
        <g
           transform="translate(54.336178 287.667282)scale(0.25 -0.25)"
           id="g39006">
          <use
             xlink:href="#TimesNewRomanPSMT-4b"
             id="use38994" />
          <use
             xlink:href="#TimesNewRomanPSMT-72"
             x="72.216797"
             id="use38996" />
          <use
             xlink:href="#TimesNewRomanPSMT-69"
             x="105.517578"
             id="use38998" />
          <use
             xlink:href="#TimesNewRomanPSMT-73"
             x="133.300781"
             id="use39000" />
          <use
             xlink:href="#TimesNewRomanPSMT-74"
             x="172.216797"
             id="use39002" />
          <use
             xlink:href="#TimesNewRomanPSMT-69"
             x="200"
             id="use39004" />
        </g>
      </g>
      <g
         id="text_9">
        <g
           id="patch_10">
          <path
             d="M 47.467053 253.454849  L 129.756115 253.454849  L 129.756115 222.747817  L 47.467053 222.747817  L 47.467053 253.454849  z "
             style="fill: none"
             id="path39009" />
        </g>
        <!-- L.Ernst -->
        <g
           transform="translate(51.467053 244.107192)scale(0.25 -0.25)"
           id="g39030">
          <defs
             id="defs39014">
            <path
               id="TimesNewRomanPSMT-4c"
               d="M 3669 1172  L 3772 1150  L 3409 0  L 128 0  L 128 116  L 288 116  Q 556 116 672 291  Q 738 391 738 753  L 738 3488  Q 738 3884 650 3984  Q 528 4122 288 4122  L 128 4122  L 128 4238  L 2047 4238  L 2047 4122  Q 1709 4125 1573 4059  Q 1438 3994 1388 3894  Q 1338 3794 1338 3416  L 1338 753  Q 1338 494 1388 397  Q 1425 331 1503 300  Q 1581 269 1991 269  L 2300 269  Q 2788 269 2984 341  Q 3181 413 3343 595  Q 3506 778 3669 1172  z "
               transform="scale(0.015625)" />
            <path
               id="TimesNewRomanPSMT-45"
               d="M 1338 4006  L 1338 2331  L 2269 2331  Q 2631 2331 2753 2441  Q 2916 2584 2934 2947  L 3050 2947  L 3050 1472  L 2934 1472  Q 2891 1781 2847 1869  Q 2791 1978 2662 2040  Q 2534 2103 2269 2103  L 1338 2103  L 1338 706  Q 1338 425 1363 364  Q 1388 303 1450 267  Q 1513 231 1688 231  L 2406 231  Q 2766 231 2928 281  Q 3091 331 3241 478  Q 3434 672 3638 1063  L 3763 1063  L 3397 0  L 131 0  L 131 116  L 281 116  Q 431 116 566 188  Q 666 238 702 338  Q 738 438 738 747  L 738 3500  Q 738 3903 656 3997  Q 544 4122 281 4122  L 131 4122  L 131 4238  L 3397 4238  L 3444 3309  L 3322 3309  Q 3256 3644 3176 3769  Q 3097 3894 2941 3959  Q 2816 4006 2500 4006  L 1338 4006  z "
               transform="scale(0.015625)" />
          </defs>
          <use
             xlink:href="#TimesNewRomanPSMT-4c"
             id="use39016" />
          <use
             xlink:href="#TimesNewRomanPSMT-2e"
             x="61.083984"
             id="use39018" />
          <use
             xlink:href="#TimesNewRomanPSMT-45"
             x="86.083984"
             id="use39020" />
          <use
             xlink:href="#TimesNewRomanPSMT-72"
             x="147.167969"
             id="use39022" />
          <use
             xlink:href="#TimesNewRomanPSMT-6e"
             x="180.46875"
             id="use39024" />
          <use
             xlink:href="#TimesNewRomanPSMT-73"
             x="230.46875"
             id="use39026" />
          <use
             xlink:href="#TimesNewRomanPSMT-74"
             x="269.384766"
             id="use39028" />
        </g>
      </g>
      <ellipse
         style="fill:none;fill-opacity:0.501961;stroke:#000000;stroke-width:2;stroke-dasharray:2,12;stroke-dashoffset:0"
         id="path47287"
         cx="252.42151"
         cy="236.7805"
         rx="244.70193"
         ry="100.4369" />
      <ellipse
         style="fill:none;fill-opacity:0.501961;stroke:#000000;stroke-width:2;stroke-dasharray:2,6;stroke-dashoffset:0"
         id="ellipse47289"
         cx="179.89011"
         cy="232.32277"
         rx="169.14349"
         ry="88.099945" />
      <text
         xml:space="preserve"
         style="font-style:normal;font-weight:normal;font-size:30px;line-height:1.25;font-family:sans-serif;fill:#000000;fill-opacity:1;stroke:none;stroke-width:0.75;stroke-linecap:butt;stroke-linejoin:round"
         x="210.37413"
         y="327.96985"
         id="text5566-7"><tspan
           sodipodi:role="line"
           id="tspan5564-7"
           style="font-style:normal;font-variant:normal;font-weight:bold;font-stretch:normal;font-size:22px;font-family:sans-serif;-inkscape-font-specification:'sans-serif, Bold';font-variant-ligatures:normal;font-variant-caps:normal;font-variant-numeric:normal;font-variant-east-asian:normal;stroke-width:0.75"
           x="210.37413"
           y="327.96985">2-core</tspan></text>
      <path
         style="fill:none;fill-opacity:0.501961;stroke:#000000;stroke-width:2;stroke-dasharray:none"
         d="M 419.01707,221.26047 332.29594,241.52242 226.93381,218.01856"
         id="path55011" />
      <path
         style="fill:none;fill-opacity:0.501961;stroke:#000000;stroke-width:2.04206;stroke-dasharray:none"
         d="m 231.33772,270.36297 98.85878,-28.16196 -87.33553,42.5877"
         id="path55013"
         sodipodi:nodetypes="ccc" />
      <path
         style="fill:none;fill-opacity:0.501961;stroke:#000000;stroke-width:2;stroke-dasharray:none"
         d="m 227.74429,218.01856 3.9049,52.45212 9.97155,13.85958"
         id="path55015"
         sodipodi:nodetypes="ccc" />
      <path
         style="fill:none;fill-opacity:0.501961;stroke:#000000;stroke-width:2;stroke-dasharray:none"
         d="m 231.96871,270.41581 -88.35486,-18.44928 97.52438,33.49301"
         id="path55113"
         sodipodi:nodetypes="ccc" />
      <path
         style="fill:none;fill-opacity:0.501961;stroke:#000000;stroke-width:2;stroke-dasharray:none"
         d="M 229.23777,218.92207 162.75881,166.19738 144.4198,251.58845 Z"
         id="path55115" />
      <path
         style="fill:none;fill-opacity:0.501961;stroke:#000000;stroke-width:2;stroke-dasharray:none"
         d="M 142.70051,251.36917 41.262798,239.90728 45.274459,284.60864 Z"
         id="path55117" />
      <path
         style="fill:none;fill-opacity:0.501961;stroke:#000000;stroke-width:2;stroke-dasharray:none"
         d="m 230.95706,221.21444 v -1.14619"
         id="path55119" />
      <path
         style="fill:none;fill-opacity:0.501961;stroke:#000000;stroke-width:2;stroke-dasharray:none"
         d="m 229.81086,220.64135 12.75135,63.47021"
         id="path55121"
         sodipodi:nodetypes="cc" />
      <text
         xml:space="preserve"
         style="font-style:normal;font-weight:normal;font-size:30px;line-height:1.25;font-family:sans-serif;fill:#000000;fill-opacity:1;stroke:none;stroke-width:0.75;stroke-linecap:butt;stroke-linejoin:round"
         x="30.448032"
         y="338.50604"
         id="text5566"><tspan
           sodipodi:role="line"
           id="tspan5564"
           style="font-style:normal;font-variant:normal;font-weight:bold;font-stretch:normal;font-size:22px;font-family:sans-serif;-inkscape-font-specification:'sans-serif, Bold';font-variant-ligatures:normal;font-variant-caps:normal;font-variant-numeric:normal;font-variant-east-asian:normal;stroke-width:0.75"
           x="30.448032"
           y="338.50604">1-core</tspan></text>
      <ellipse
         style="fill:none;fill-opacity:0.501961;stroke:#000000;stroke-width:2;stroke-dasharray:2,2;stroke-dashoffset:0"
         id="ellipse58273"
         cx="238.64977"
         cy="241.23669"
         rx="110.72878"
         ry="56.02417" />
      <text
         xml:space="preserve"
         style="font-style:normal;font-weight:normal;font-size:30px;line-height:1.25;font-family:sans-serif;fill:#000000;fill-opacity:1;stroke:none;stroke-width:0.75;stroke-linecap:butt;stroke-linejoin:round"
         x="122.84251"
         y="307.70792"
         id="text58277"><tspan
           sodipodi:role="line"
           id="tspan58275"
           style="font-style:normal;font-variant:normal;font-weight:bold;font-stretch:normal;font-size:22px;font-family:sans-serif;-inkscape-font-specification:'sans-serif, Bold';font-variant-ligatures:normal;font-variant-caps:normal;font-variant-numeric:normal;font-variant-east-asian:normal;stroke-width:0.75"
           x="122.84251"
           y="307.70792">3-core</tspan></text>
    </g>
  </g>
  <defs
     id="defs39038">
    <clipPath
       id="pc39d38f1dc">
      <rect
         x="7.2"
         y="7.2"
         width="446.4"
         height="443.52"
         id="rect39035" />
    </clipPath>
  </defs>
</svg>
