<?xml version="1.0" encoding="utf-8" standalone="no"?>
<!DOCTYPE svg PUBLIC "-//W3C//DTD SVG 1.1//EN"
  "http://www.w3.org/Graphics/SVG/1.1/DTD/svg11.dtd">
<svg xmlns:xlink="http://www.w3.org/1999/xlink" width="528.372582pt" height="457.92pt" viewBox="0 0 528.372582 457.92" xmlns="http://www.w3.org/2000/svg" version="1.1">
 <metadata>
  <rdf:RDF xmlns:dc="http://purl.org/dc/elements/1.1/" xmlns:cc="http://creativecommons.org/ns#" xmlns:rdf="http://www.w3.org/1999/02/22-rdf-syntax-ns#">
   <cc:Work>
    <dc:type rdf:resource="http://purl.org/dc/dcmitype/StillImage"/>
    <dc:date>2022-12-05T21:35:45.941533</dc:date>
    <dc:format>image/svg+xml</dc:format>
    <dc:creator>
     <cc:Agent>
      <dc:title>Matplotlib v3.5.2, https://matplotlib.org/</dc:title>
     </cc:Agent>
    </dc:creator>
   </cc:Work>
  </rdf:RDF>
 </metadata>
 <defs>
  <style type="text/css">*{stroke-linejoin: round; stroke-linecap: butt}</style>
 </defs>
 <g id="figure_1">
  <g id="patch_1">
   <path d="M 0 457.92 
L 528.372582 457.92 
L 528.372582 0 
L 0 0 
z
" style="fill: #ffffff"/>
  </g>
  <g id="axes_1">
   <g id="PolyCollection_1">
    <path d="M 128.64674 245.865282 
L 128.161793 249.548822 
L 128.64674 253.232363 
L 130.068534 256.664876 
L 132.330281 259.612442 
L 135.277847 261.874189 
L 138.71036 263.295983 
L 142.393901 263.78093 
L 146.077441 263.295983 
L 230.747576 231.419388 
L 234.180089 229.997594 
L 237.127655 227.735847 
L 239.389402 224.788281 
L 240.811196 221.355768 
L 241.296143 217.672227 
L 240.811196 213.988687 
L 239.389402 210.556173 
L 237.127655 207.608607 
L 172.069929 154.917136 
L 169.122363 152.655389 
L 165.689849 151.233595 
L 162.006309 150.748648 
L 158.322768 151.233595 
L 154.890255 152.655389 
L 151.942689 154.917136 
L 149.680942 157.864702 
L 148.259148 161.297215 
z
" clip-path="url(#pc39d38f1dc)" style="fill: #0000ff; fill-opacity: 0.5; stroke: #000000; stroke-width: 0.5"/>
    <path d="M 333.077152 228.42205 
L 231.975423 199.34268 
L 227.064035 198.696083 
L 222.152648 199.34268 
L 217.575963 201.238405 
L 213.645875 204.254067 
L 210.630213 208.184155 
L 208.734488 212.76084 
L 208.087892 217.672227 
L 208.734488 222.583615 
L 220.34591 269.714344 
L 226.85918 291.878749 
L 228.280973 295.311262 
L 230.54272 298.258828 
L 233.490286 300.520575 
L 236.9228 301.942369 
L 240.60634 302.427316 
L 244.289881 301.942369 
L 247.722394 300.520575 
L 336.509665 254.494578 
L 339.457231 252.232831 
L 341.718978 249.285265 
L 343.140772 245.852751 
L 343.625719 242.169211 
L 343.140772 238.48567 
L 341.718978 235.053157 
L 339.457231 232.105591 
L 336.509665 229.843844 
z
" clip-path="url(#pc39d38f1dc)" style="fill: #ffff00; fill-opacity: 0.5; stroke: #000000; stroke-width: 0.5"/>
    <path d="M 415.393443 206.280529 
L 324.482224 223.839663 
L 319.90554 225.735388 
L 315.975452 228.751051 
L 312.959789 232.681139 
L 311.064064 237.257823 
L 310.417468 242.169211 
L 311.064064 247.080598 
L 312.959789 251.657283 
L 315.975452 255.587371 
L 319.90554 258.603033 
L 324.482224 260.498758 
L 329.393611 261.145354 
L 334.304999 260.498758 
L 422.760524 233.77485 
L 426.193037 232.353056 
L 429.140603 230.091309 
L 431.40235 227.143743 
L 432.824144 223.71123 
L 433.309091 220.027689 
L 432.824144 216.344148 
L 431.40235 212.911635 
L 429.140603 209.964069 
L 426.193037 207.702322 
L 422.760524 206.280529 
L 419.076983 205.795581 
z
" clip-path="url(#pc39d38f1dc)" style="fill: #ff0000; fill-opacity: 0.5; stroke: #000000; stroke-width: 0.5"/>
    <path d="M 142.393901 230.572679 
L 41.723017 223.869225 
L 38.039476 224.354173 
L 34.606963 225.775966 
L 31.659397 228.037713 
L 29.39765 230.985279 
L 27.975856 234.417793 
L 27.490909 238.101333 
L 30.360035 281.661423 
L 30.844982 285.344964 
L 32.266776 288.777477 
L 34.528523 291.725043 
L 37.476089 293.98679 
L 40.908602 295.408584 
L 44.592143 295.893531 
L 48.275683 295.408584 
L 147.305288 267.87837 
L 151.881972 265.982645 
L 155.81206 262.966982 
L 158.827723 259.036894 
L 160.723448 254.46021 
L 161.370044 249.548822 
L 160.723448 244.637435 
L 158.827723 240.06075 
L 155.81206 236.130662 
L 151.881972 233.115 
L 147.305288 231.219275 
z
" clip-path="url(#pc39d38f1dc)" style="fill: #0000ff; fill-opacity: 0.5; stroke: #000000; stroke-width: 0.5"/>
    <path d="M 243.581142 249.596981 
L 239.004458 247.701257 
L 148.533135 226.636888 
L 142.393901 225.828643 
L 136.254666 226.636888 
L 130.533811 229.006544 
L 125.621201 232.776122 
L 121.851622 237.688732 
L 119.481966 243.409588 
L 118.673721 249.548822 
L 119.481966 255.688057 
L 121.851622 261.408912 
L 125.621201 266.321522 
L 130.533811 270.091101 
L 136.254666 272.460757 
L 235.694953 306.524756 
L 240.60634 307.171352 
L 245.517728 306.524756 
L 250.094412 304.629031 
L 254.0245 301.613368 
L 257.040163 297.68328 
L 258.935888 293.106596 
L 259.582484 288.195208 
L 258.935888 283.283821 
L 252.422618 261.119416 
L 250.526893 256.542732 
L 247.511231 252.612644 
z
" clip-path="url(#pc39d38f1dc)" style="fill: #ffff00; fill-opacity: 0.5; stroke: #000000; stroke-width: 0.5"/>
   </g>
   <g id="PolyCollection_2">
    <path d="M 231.808071 217.672227 
L 231.646422 216.44438 
L 231.172491 215.300209 
L 230.418575 214.317687 
L 229.436053 213.563772 
L 228.291882 213.08984 
L 227.064035 212.928191 
L 225.836188 213.08984 
L 224.692017 213.563772 
L 223.709495 214.317687 
L 222.95558 215.300209 
L 222.481648 216.44438 
L 222.319999 217.672227 
L 222.481648 218.900074 
L 222.95558 220.044245 
L 223.709495 221.026767 
L 224.692017 221.780683 
L 225.836188 222.254614 
L 227.064035 222.416263 
L 228.291882 222.254614 
L 229.436053 221.780683 
L 230.418575 221.026767 
L 231.172491 220.044245 
L 231.646422 218.900074 
z
" clip-path="url(#pc39d38f1dc)" style="fill-opacity: 0.5"/>
    <path d="M 147.137936 249.548822 
L 146.976287 248.320975 
L 146.502356 247.176804 
L 145.748441 246.194282 
L 144.765918 245.440367 
L 143.621747 244.966436 
L 142.393901 244.804786 
L 141.166054 244.966436 
L 140.021883 245.440367 
L 139.039361 246.194282 
L 138.285445 247.176804 
L 137.811514 248.320975 
L 137.649865 249.548822 
L 137.811514 250.776669 
L 138.285445 251.92084 
L 139.039361 252.903362 
L 140.021883 253.657278 
L 141.166054 254.131209 
L 142.393901 254.292858 
L 143.621747 254.131209 
L 144.765918 253.657278 
L 145.748441 252.903362 
L 146.502356 251.92084 
L 146.976287 250.776669 
z
" clip-path="url(#pc39d38f1dc)" style="fill-opacity: 0.5"/>
    <path d="M 166.750345 164.980756 
L 166.588696 163.752909 
L 166.114764 162.608738 
L 165.360849 161.626216 
L 164.378327 160.8723 
L 163.234156 160.398369 
L 162.006309 160.23672 
L 160.778462 160.398369 
L 159.634291 160.8723 
L 158.651769 161.626216 
L 157.897853 162.608738 
L 157.423922 163.752909 
L 157.262273 164.980756 
L 157.423922 166.208603 
L 157.897853 167.352774 
L 158.651769 168.335296 
L 159.634291 169.089211 
L 160.778462 169.563143 
L 162.006309 169.724792 
L 163.234156 169.563143 
L 164.378327 169.089211 
L 165.360849 168.335296 
L 166.114764 167.352774 
L 166.588696 166.208603 
z
" clip-path="url(#pc39d38f1dc)" style="fill-opacity: 0.5"/>
    <path d="M 245.350376 288.195208 
L 245.188727 286.967361 
L 244.714796 285.82319 
L 243.96088 284.840668 
L 242.978358 284.086753 
L 241.834187 283.612821 
L 240.60634 283.451172 
L 239.378493 283.612821 
L 238.234322 284.086753 
L 237.2518 284.840668 
L 236.497885 285.82319 
L 236.023953 286.967361 
L 235.862304 288.195208 
L 236.023953 289.423055 
L 236.497885 290.567226 
L 237.2518 291.549748 
L 238.234322 292.303664 
L 239.378493 292.777595 
L 240.60634 292.939244 
L 241.834187 292.777595 
L 242.978358 292.303664 
L 243.96088 291.549748 
L 244.714796 290.567226 
L 245.188727 289.423055 
z
" clip-path="url(#pc39d38f1dc)" style="fill-opacity: 0.5"/>
    <path d="M 334.137647 242.169211 
L 333.975998 240.941364 
L 333.502067 239.797193 
L 332.748151 238.814671 
L 331.765629 238.060755 
L 330.621458 237.586824 
L 329.393611 237.425175 
L 328.165765 237.586824 
L 327.021593 238.060755 
L 326.039071 238.814671 
L 325.285156 239.797193 
L 324.811225 240.941364 
L 324.649576 242.169211 
L 324.811225 243.397057 
L 325.285156 244.541229 
L 326.039071 245.523751 
L 327.021593 246.277666 
L 328.165765 246.751597 
L 329.393611 246.913247 
L 330.621458 246.751597 
L 331.765629 246.277666 
L 332.748151 245.523751 
L 333.502067 244.541229 
L 333.975998 243.397057 
z
" clip-path="url(#pc39d38f1dc)" style="fill-opacity: 0.5"/>
    <path d="M 238.837107 266.030804 
L 238.675457 264.802957 
L 238.201526 263.658786 
L 237.447611 262.676264 
L 236.465089 261.922348 
L 235.320917 261.448417 
L 234.093071 261.286768 
L 232.865224 261.448417 
L 231.721053 261.922348 
L 230.738531 262.676264 
L 229.984615 263.658786 
L 229.510684 264.802957 
L 229.349035 266.030804 
L 229.510684 267.258651 
L 229.984615 268.402822 
L 230.738531 269.385344 
L 231.721053 270.13926 
L 232.865224 270.613191 
L 234.093071 270.77484 
L 235.320917 270.613191 
L 236.465089 270.13926 
L 237.447611 269.385344 
L 238.201526 268.402822 
L 238.675457 267.258651 
z
" clip-path="url(#pc39d38f1dc)" style="fill-opacity: 0.5"/>
    <path d="M 423.821019 220.027689 
L 423.65937 218.799842 
L 423.185439 217.655671 
L 422.431523 216.673149 
L 421.449001 215.919233 
L 420.30483 215.445302 
L 419.076983 215.283653 
L 417.849136 215.445302 
L 416.704965 215.919233 
L 415.722443 216.673149 
L 414.968527 217.655671 
L 414.494596 218.799842 
L 414.332947 220.027689 
L 414.494596 221.255536 
L 414.968527 222.399707 
L 415.722443 223.382229 
L 416.704965 224.136145 
L 417.849136 224.610076 
L 419.076983 224.771725 
L 420.30483 224.610076 
L 421.449001 224.136145 
L 422.431523 223.382229 
L 423.185439 222.399707 
L 423.65937 221.255536 
z
" clip-path="url(#pc39d38f1dc)" style="fill-opacity: 0.5"/>
    <path d="M 49.336178 281.661423 
L 49.174529 280.433576 
L 48.700598 279.289405 
L 47.946683 278.306883 
L 46.964161 277.552967 
L 45.819989 277.079036 
L 44.592143 276.917387 
L 43.364296 277.079036 
L 42.220125 277.552967 
L 41.237603 278.306883 
L 40.483687 279.289405 
L 40.009756 280.433576 
L 39.848107 281.661423 
L 40.009756 282.88927 
L 40.483687 284.033441 
L 41.237603 285.015963 
L 42.220125 285.769879 
L 43.364296 286.24381 
L 44.592143 286.405459 
L 45.819989 286.24381 
L 46.964161 285.769879 
L 47.946683 285.015963 
L 48.700598 284.033441 
L 49.174529 282.88927 
z
" clip-path="url(#pc39d38f1dc)" style="fill-opacity: 0.5"/>
    <path d="M 46.467053 238.101333 
L 46.305404 236.873486 
L 45.831473 235.729315 
L 45.077557 234.746793 
L 44.095035 233.992877 
L 42.950864 233.518946 
L 41.723017 233.357297 
L 40.49517 233.518946 
L 39.350999 233.992877 
L 38.368477 234.746793 
L 37.614561 235.729315 
L 37.14063 236.873486 
L 36.978981 238.101333 
L 37.14063 239.32918 
L 37.614561 240.473351 
L 38.368477 241.455873 
L 39.350999 242.209789 
L 40.49517 242.68372 
L 41.723017 242.845369 
L 42.950864 242.68372 
L 44.095035 242.209789 
L 45.077557 241.455873 
L 45.831473 240.473351 
L 46.305404 239.32918 
z
" clip-path="url(#pc39d38f1dc)" style="fill-opacity: 0.5"/>
   </g>
   <g id="text_1">
    <g id="patch_2">
     <path d="M 232.808071 233.025743 
L 336.870571 233.025743 
L 336.870571 202.318712 
L 232.808071 202.318712 
L 232.808071 233.025743 
z
" style="fill: none"/>
    </g>
    <!-- C.Jeffries -->
    <g transform="translate(236.808071 223.678087)scale(0.25 -0.25)">
     <defs>
      <path id="TimesNewRomanPSMT-43" d="M 3853 4334 
L 3950 2894 
L 3853 2894 
Q 3659 3541 3300 3825 
Q 2941 4109 2438 4109 
Q 2016 4109 1675 3895 
Q 1334 3681 1139 3212 
Q 944 2744 944 2047 
Q 944 1472 1128 1050 
Q 1313 628 1683 403 
Q 2053 178 2528 178 
Q 2941 178 3256 354 
Q 3572 531 3950 1056 
L 4047 994 
Q 3728 428 3303 165 
Q 2878 -97 2294 -97 
Q 1241 -97 663 684 
Q 231 1266 231 2053 
Q 231 2688 515 3219 
Q 800 3750 1298 4042 
Q 1797 4334 2388 4334 
Q 2847 4334 3294 4109 
Q 3425 4041 3481 4041 
Q 3566 4041 3628 4100 
Q 3709 4184 3744 4334 
L 3853 4334 
z
" transform="scale(0.015625)"/>
      <path id="TimesNewRomanPSMT-2e" d="M 800 606 
Q 947 606 1047 504 
Q 1147 403 1147 259 
Q 1147 116 1045 14 
Q 944 -88 800 -88 
Q 656 -88 554 14 
Q 453 116 453 259 
Q 453 406 554 506 
Q 656 606 800 606 
z
" transform="scale(0.015625)"/>
      <path id="TimesNewRomanPSMT-4a" d="M 638 4122 
L 638 4238 
L 2453 4238 
L 2453 4122 
L 2300 4122 
Q 2041 4122 1922 3969 
Q 1847 3869 1847 3488 
L 1847 1416 
Q 1847 938 1742 641 
Q 1638 344 1381 123 
Q 1125 -97 763 -97 
Q 469 -97 300 48 
Q 131 194 131 381 
Q 131 534 209 613 
Q 313 709 450 709 
Q 550 709 629 643 
Q 709 578 831 294 
Q 903 125 1016 125 
Q 1100 125 1173 228 
Q 1247 331 1247 594 
L 1247 3488 
Q 1247 3809 1206 3913 
Q 1175 3991 1075 4047 
Q 941 4122 791 4122 
L 638 4122 
z
" transform="scale(0.015625)"/>
      <path id="TimesNewRomanPSMT-65" d="M 681 1784 
Q 678 1147 991 784 
Q 1303 422 1725 422 
Q 2006 422 2214 576 
Q 2422 731 2563 1106 
L 2659 1044 
Q 2594 616 2278 264 
Q 1963 -88 1488 -88 
Q 972 -88 605 314 
Q 238 716 238 1394 
Q 238 2128 614 2539 
Q 991 2950 1559 2950 
Q 2041 2950 2350 2633 
Q 2659 2316 2659 1784 
L 681 1784 
z
M 681 1966 
L 2006 1966 
Q 1991 2241 1941 2353 
Q 1863 2528 1708 2628 
Q 1553 2728 1384 2728 
Q 1125 2728 920 2526 
Q 716 2325 681 1966 
z
" transform="scale(0.015625)"/>
      <path id="TimesNewRomanPSMT-66" d="M 1319 2638 
L 1319 756 
Q 1319 356 1406 250 
Q 1522 113 1716 113 
L 1975 113 
L 1975 0 
L 266 0 
L 266 113 
L 394 113 
Q 519 113 622 175 
Q 725 238 764 344 
Q 803 450 803 756 
L 803 2638 
L 247 2638 
L 247 2863 
L 803 2863 
L 803 3050 
Q 803 3478 940 3775 
Q 1078 4072 1361 4255 
Q 1644 4438 1997 4438 
Q 2325 4438 2600 4225 
Q 2781 4084 2781 3909 
Q 2781 3816 2700 3733 
Q 2619 3650 2525 3650 
Q 2453 3650 2373 3701 
Q 2294 3753 2178 3923 
Q 2063 4094 1966 4153 
Q 1869 4213 1750 4213 
Q 1606 4213 1506 4136 
Q 1406 4059 1362 3898 
Q 1319 3738 1319 3069 
L 1319 2863 
L 2056 2863 
L 2056 2638 
L 1319 2638 
z
" transform="scale(0.015625)"/>
      <path id="TimesNewRomanPSMT-72" d="M 1038 2947 
L 1038 2303 
Q 1397 2947 1775 2947 
Q 1947 2947 2059 2842 
Q 2172 2738 2172 2600 
Q 2172 2478 2090 2393 
Q 2009 2309 1897 2309 
Q 1788 2309 1652 2417 
Q 1516 2525 1450 2525 
Q 1394 2525 1328 2463 
Q 1188 2334 1038 2041 
L 1038 669 
Q 1038 431 1097 309 
Q 1138 225 1241 169 
Q 1344 113 1538 113 
L 1538 0 
L 72 0 
L 72 113 
Q 291 113 397 181 
Q 475 231 506 341 
Q 522 394 522 644 
L 522 1753 
Q 522 2253 501 2348 
Q 481 2444 426 2487 
Q 372 2531 291 2531 
Q 194 2531 72 2484 
L 41 2597 
L 906 2947 
L 1038 2947 
z
" transform="scale(0.015625)"/>
      <path id="TimesNewRomanPSMT-69" d="M 928 4444 
Q 1059 4444 1151 4351 
Q 1244 4259 1244 4128 
Q 1244 3997 1151 3903 
Q 1059 3809 928 3809 
Q 797 3809 703 3903 
Q 609 3997 609 4128 
Q 609 4259 701 4351 
Q 794 4444 928 4444 
z
M 1188 2947 
L 1188 647 
Q 1188 378 1227 289 
Q 1266 200 1342 156 
Q 1419 113 1622 113 
L 1622 0 
L 231 0 
L 231 113 
Q 441 113 512 153 
Q 584 194 626 287 
Q 669 381 669 647 
L 669 1750 
Q 669 2216 641 2353 
Q 619 2453 572 2492 
Q 525 2531 444 2531 
Q 356 2531 231 2484 
L 188 2597 
L 1050 2947 
L 1188 2947 
z
" transform="scale(0.015625)"/>
      <path id="TimesNewRomanPSMT-73" d="M 2050 2947 
L 2050 1972 
L 1947 1972 
Q 1828 2431 1642 2597 
Q 1456 2763 1169 2763 
Q 950 2763 815 2647 
Q 681 2531 681 2391 
Q 681 2216 781 2091 
Q 878 1963 1175 1819 
L 1631 1597 
Q 2266 1288 2266 781 
Q 2266 391 1970 151 
Q 1675 -88 1309 -88 
Q 1047 -88 709 6 
Q 606 38 541 38 
Q 469 38 428 -44 
L 325 -44 
L 325 978 
L 428 978 
Q 516 541 762 319 
Q 1009 97 1316 97 
Q 1531 97 1667 223 
Q 1803 350 1803 528 
Q 1803 744 1651 891 
Q 1500 1038 1047 1263 
Q 594 1488 453 1669 
Q 313 1847 313 2119 
Q 313 2472 555 2709 
Q 797 2947 1181 2947 
Q 1350 2947 1591 2875 
Q 1750 2828 1803 2828 
Q 1853 2828 1881 2850 
Q 1909 2872 1947 2947 
L 2050 2947 
z
" transform="scale(0.015625)"/>
     </defs>
     <use xlink:href="#TimesNewRomanPSMT-43"/>
     <use xlink:href="#TimesNewRomanPSMT-2e" x="66.699219"/>
     <use xlink:href="#TimesNewRomanPSMT-4a" x="91.699219"/>
     <use xlink:href="#TimesNewRomanPSMT-65" x="130.615234"/>
     <use xlink:href="#TimesNewRomanPSMT-66" x="175"/>
     <use xlink:href="#TimesNewRomanPSMT-66" x="206.550781"/>
     <use xlink:href="#TimesNewRomanPSMT-72" x="239.851562"/>
     <use xlink:href="#TimesNewRomanPSMT-69" x="273.152344"/>
     <use xlink:href="#TimesNewRomanPSMT-65" x="300.935547"/>
     <use xlink:href="#TimesNewRomanPSMT-73" x="345.320312"/>
    </g>
   </g>
   <g id="text_2">
    <g id="patch_3">
     <path d="M 148.137936 264.902338 
L 267.130124 264.902338 
L 267.130124 234.195307 
L 148.137936 234.195307 
L 148.137936 264.902338 
z
" style="fill: none"/>
    </g>
    <!-- M.B.Wyatt -->
    <g transform="translate(152.137936 255.507807)scale(0.25 -0.25)">
     <defs>
      <path id="TimesNewRomanPSMT-4d" d="M 2619 0 
L 981 3566 
L 981 734 
Q 981 344 1066 247 
Q 1181 116 1431 116 
L 1581 116 
L 1581 0 
L 106 0 
L 106 116 
L 256 116 
Q 525 116 638 278 
Q 706 378 706 734 
L 706 3503 
Q 706 3784 644 3909 
Q 600 4000 483 4061 
Q 366 4122 106 4122 
L 106 4238 
L 1306 4238 
L 2844 922 
L 4356 4238 
L 5556 4238 
L 5556 4122 
L 5409 4122 
Q 5138 4122 5025 3959 
Q 4956 3859 4956 3503 
L 4956 734 
Q 4956 344 5044 247 
Q 5159 116 5409 116 
L 5556 116 
L 5556 0 
L 3756 0 
L 3756 116 
L 3906 116 
Q 4178 116 4288 278 
Q 4356 378 4356 734 
L 4356 3566 
L 2722 0 
L 2619 0 
z
" transform="scale(0.015625)"/>
      <path id="TimesNewRomanPSMT-42" d="M 2956 2163 
Q 3397 2069 3616 1863 
Q 3919 1575 3919 1159 
Q 3919 844 3719 555 
Q 3519 266 3170 133 
Q 2822 0 2106 0 
L 106 0 
L 106 116 
L 266 116 
Q 531 116 647 284 
Q 719 394 719 750 
L 719 3488 
Q 719 3881 628 3984 
Q 506 4122 266 4122 
L 106 4122 
L 106 4238 
L 1938 4238 
Q 2450 4238 2759 4163 
Q 3228 4050 3475 3764 
Q 3722 3478 3722 3106 
Q 3722 2788 3528 2536 
Q 3334 2284 2956 2163 
z
M 1319 2331 
Q 1434 2309 1582 2298 
Q 1731 2288 1909 2288 
Q 2366 2288 2595 2386 
Q 2825 2484 2947 2687 
Q 3069 2891 3069 3131 
Q 3069 3503 2766 3765 
Q 2463 4028 1881 4028 
Q 1569 4028 1319 3959 
L 1319 2331 
z
M 1319 306 
Q 1681 222 2034 222 
Q 2600 222 2897 476 
Q 3194 731 3194 1106 
Q 3194 1353 3059 1581 
Q 2925 1809 2622 1940 
Q 2319 2072 1872 2072 
Q 1678 2072 1540 2065 
Q 1403 2059 1319 2044 
L 1319 306 
z
" transform="scale(0.015625)"/>
      <path id="TimesNewRomanPSMT-57" d="M 5991 4238 
L 5991 4122 
Q 5825 4122 5722 4062 
Q 5619 4003 5525 3841 
Q 5463 3731 5328 3319 
L 4147 -97 
L 4022 -97 
L 3056 2613 
L 2097 -97 
L 1984 -97 
L 725 3422 
Q 584 3816 547 3888 
Q 484 4006 376 4064 
Q 269 4122 84 4122 
L 84 4238 
L 1653 4238 
L 1653 4122 
L 1578 4122 
Q 1413 4122 1325 4047 
Q 1238 3972 1238 3866 
Q 1238 3756 1375 3363 
L 2209 984 
L 2913 3006 
L 2788 3363 
L 2688 3647 
Q 2622 3803 2541 3922 
Q 2500 3981 2441 4022 
Q 2363 4078 2284 4103 
Q 2225 4122 2097 4122 
L 2097 4238 
L 3747 4238 
L 3747 4122 
L 3634 4122 
Q 3459 4122 3378 4047 
Q 3297 3972 3297 3844 
Q 3297 3684 3438 3288 
L 4250 984 
L 5056 3319 
Q 5194 3706 5194 3856 
Q 5194 3928 5148 3990 
Q 5103 4053 5034 4078 
Q 4916 4122 4725 4122 
L 4725 4238 
L 5991 4238 
z
" transform="scale(0.015625)"/>
      <path id="TimesNewRomanPSMT-79" d="M 38 2863 
L 1372 2863 
L 1372 2747 
L 1306 2747 
Q 1166 2747 1095 2686 
Q 1025 2625 1025 2534 
Q 1025 2413 1128 2197 
L 1825 753 
L 2466 2334 
Q 2519 2463 2519 2588 
Q 2519 2644 2497 2672 
Q 2472 2706 2419 2726 
Q 2366 2747 2231 2747 
L 2231 2863 
L 3163 2863 
L 3163 2747 
Q 3047 2734 2984 2696 
Q 2922 2659 2847 2556 
Q 2819 2513 2741 2316 
L 1575 -541 
Q 1406 -956 1132 -1168 
Q 859 -1381 606 -1381 
Q 422 -1381 303 -1275 
Q 184 -1169 184 -1031 
Q 184 -900 270 -820 
Q 356 -741 506 -741 
Q 609 -741 788 -809 
Q 913 -856 944 -856 
Q 1038 -856 1148 -759 
Q 1259 -663 1372 -384 
L 1575 113 
L 547 2272 
Q 500 2369 397 2513 
Q 319 2622 269 2659 
Q 197 2709 38 2747 
L 38 2863 
z
" transform="scale(0.015625)"/>
      <path id="TimesNewRomanPSMT-61" d="M 1822 413 
Q 1381 72 1269 19 
Q 1100 -59 909 -59 
Q 613 -59 420 144 
Q 228 347 228 678 
Q 228 888 322 1041 
Q 450 1253 767 1440 
Q 1084 1628 1822 1897 
L 1822 2009 
Q 1822 2438 1686 2597 
Q 1550 2756 1291 2756 
Q 1094 2756 978 2650 
Q 859 2544 859 2406 
L 866 2225 
Q 866 2081 792 2003 
Q 719 1925 600 1925 
Q 484 1925 411 2006 
Q 338 2088 338 2228 
Q 338 2497 613 2722 
Q 888 2947 1384 2947 
Q 1766 2947 2009 2819 
Q 2194 2722 2281 2516 
Q 2338 2381 2338 1966 
L 2338 994 
Q 2338 584 2353 492 
Q 2369 400 2405 369 
Q 2441 338 2488 338 
Q 2538 338 2575 359 
Q 2641 400 2828 588 
L 2828 413 
Q 2478 -56 2159 -56 
Q 2006 -56 1915 50 
Q 1825 156 1822 413 
z
M 1822 616 
L 1822 1706 
Q 1350 1519 1213 1441 
Q 966 1303 859 1153 
Q 753 1003 753 825 
Q 753 600 887 451 
Q 1022 303 1197 303 
Q 1434 303 1822 616 
z
" transform="scale(0.015625)"/>
      <path id="TimesNewRomanPSMT-74" d="M 1031 3803 
L 1031 2863 
L 1700 2863 
L 1700 2644 
L 1031 2644 
L 1031 788 
Q 1031 509 1111 412 
Q 1191 316 1316 316 
Q 1419 316 1516 380 
Q 1613 444 1666 569 
L 1788 569 
Q 1678 263 1478 108 
Q 1278 -47 1066 -47 
Q 922 -47 784 33 
Q 647 113 581 261 
Q 516 409 516 719 
L 516 2644 
L 63 2644 
L 63 2747 
Q 234 2816 414 2980 
Q 594 3144 734 3369 
Q 806 3488 934 3803 
L 1031 3803 
z
" transform="scale(0.015625)"/>
     </defs>
     <use xlink:href="#TimesNewRomanPSMT-4d"/>
     <use xlink:href="#TimesNewRomanPSMT-2e" x="88.916016"/>
     <use xlink:href="#TimesNewRomanPSMT-42" x="113.916016"/>
     <use xlink:href="#TimesNewRomanPSMT-2e" x="180.615234"/>
     <use xlink:href="#TimesNewRomanPSMT-57" x="205.615234"/>
     <use xlink:href="#TimesNewRomanPSMT-79" x="294"/>
     <use xlink:href="#TimesNewRomanPSMT-61" x="344"/>
     <use xlink:href="#TimesNewRomanPSMT-74" x="388.384766"/>
     <use xlink:href="#TimesNewRomanPSMT-74" x="416.167969"/>
    </g>
   </g>
   <g id="text_3">
    <g id="patch_4">
     <path d="M 167.750345 180.357709 
L 330.586282 180.357709 
L 330.586282 149.603803 
L 167.750345 149.603803 
L 167.750345 180.357709 
z
" style="fill: none"/>
    </g>
    <!-- P.Bailey-brown -->
    <g transform="translate(171.750345 170.963178)scale(0.25 -0.25)">
     <defs>
      <path id="TimesNewRomanPSMT-50" d="M 1313 1984 
L 1313 750 
Q 1313 350 1400 253 
Q 1519 116 1759 116 
L 1922 116 
L 1922 0 
L 106 0 
L 106 116 
L 266 116 
Q 534 116 650 291 
Q 713 388 713 750 
L 713 3488 
Q 713 3888 628 3984 
Q 506 4122 266 4122 
L 106 4122 
L 106 4238 
L 1659 4238 
Q 2228 4238 2556 4120 
Q 2884 4003 3109 3725 
Q 3334 3447 3334 3066 
Q 3334 2547 2992 2222 
Q 2650 1897 2025 1897 
Q 1872 1897 1694 1919 
Q 1516 1941 1313 1984 
z
M 1313 2163 
Q 1478 2131 1606 2115 
Q 1734 2100 1825 2100 
Q 2150 2100 2386 2351 
Q 2622 2603 2622 3003 
Q 2622 3278 2509 3514 
Q 2397 3750 2190 3867 
Q 1984 3984 1722 3984 
Q 1563 3984 1313 3925 
L 1313 2163 
z
" transform="scale(0.015625)"/>
      <path id="TimesNewRomanPSMT-6c" d="M 1184 4444 
L 1184 647 
Q 1184 378 1223 290 
Q 1263 203 1344 158 
Q 1425 113 1647 113 
L 1647 0 
L 244 0 
L 244 113 
Q 441 113 512 153 
Q 584 194 625 287 
Q 666 381 666 647 
L 666 3247 
Q 666 3731 644 3842 
Q 622 3953 573 3993 
Q 525 4034 450 4034 
Q 369 4034 244 3984 
L 191 4094 
L 1044 4444 
L 1184 4444 
z
" transform="scale(0.015625)"/>
      <path id="TimesNewRomanPSMT-2d" d="M 259 1672 
L 1875 1672 
L 1875 1200 
L 259 1200 
L 259 1672 
z
" transform="scale(0.015625)"/>
      <path id="TimesNewRomanPSMT-62" d="M 984 2369 
Q 1400 2947 1881 2947 
Q 2322 2947 2650 2570 
Q 2978 2194 2978 1541 
Q 2978 778 2472 313 
Q 2038 -88 1503 -88 
Q 1253 -88 995 3 
Q 738 94 469 275 
L 469 3241 
Q 469 3728 445 3840 
Q 422 3953 372 3993 
Q 322 4034 247 4034 
Q 159 4034 28 3984 
L -16 4094 
L 844 4444 
L 984 4444 
L 984 2369 
z
M 984 2169 
L 984 456 
Q 1144 300 1314 220 
Q 1484 141 1663 141 
Q 1947 141 2192 453 
Q 2438 766 2438 1363 
Q 2438 1913 2192 2208 
Q 1947 2503 1634 2503 
Q 1469 2503 1303 2419 
Q 1178 2356 984 2169 
z
" transform="scale(0.015625)"/>
      <path id="TimesNewRomanPSMT-6f" d="M 1600 2947 
Q 2250 2947 2644 2453 
Q 2978 2031 2978 1484 
Q 2978 1100 2793 706 
Q 2609 313 2286 112 
Q 1963 -88 1566 -88 
Q 919 -88 538 428 
Q 216 863 216 1403 
Q 216 1797 411 2186 
Q 606 2575 925 2761 
Q 1244 2947 1600 2947 
z
M 1503 2744 
Q 1338 2744 1170 2645 
Q 1003 2547 900 2300 
Q 797 2053 797 1666 
Q 797 1041 1045 587 
Q 1294 134 1700 134 
Q 2003 134 2200 384 
Q 2397 634 2397 1244 
Q 2397 2006 2069 2444 
Q 1847 2744 1503 2744 
z
" transform="scale(0.015625)"/>
      <path id="TimesNewRomanPSMT-77" d="M 41 2863 
L 1241 2863 
L 1241 2747 
Q 1075 2734 1023 2687 
Q 972 2641 972 2553 
Q 972 2456 1025 2319 
L 1638 672 
L 2253 2013 
L 2091 2434 
Q 2016 2622 1894 2694 
Q 1825 2738 1638 2747 
L 1638 2863 
L 3000 2863 
L 3000 2747 
Q 2775 2738 2681 2666 
Q 2619 2616 2619 2506 
Q 2619 2444 2644 2378 
L 3294 734 
L 3897 2319 
Q 3959 2488 3959 2588 
Q 3959 2647 3898 2694 
Q 3838 2741 3659 2747 
L 3659 2863 
L 4563 2863 
L 4563 2747 
Q 4291 2706 4163 2378 
L 3206 -88 
L 3078 -88 
L 2363 1741 
L 1528 -88 
L 1413 -88 
L 494 2319 
Q 403 2547 315 2626 
Q 228 2706 41 2747 
L 41 2863 
z
" transform="scale(0.015625)"/>
      <path id="TimesNewRomanPSMT-6e" d="M 1034 2341 
Q 1538 2947 1994 2947 
Q 2228 2947 2397 2830 
Q 2566 2713 2666 2444 
Q 2734 2256 2734 1869 
L 2734 647 
Q 2734 375 2778 278 
Q 2813 200 2889 156 
Q 2966 113 3172 113 
L 3172 0 
L 1756 0 
L 1756 113 
L 1816 113 
Q 2016 113 2095 173 
Q 2175 234 2206 353 
Q 2219 400 2219 647 
L 2219 1819 
Q 2219 2209 2117 2386 
Q 2016 2563 1775 2563 
Q 1403 2563 1034 2156 
L 1034 647 
Q 1034 356 1069 288 
Q 1113 197 1189 155 
Q 1266 113 1500 113 
L 1500 0 
L 84 0 
L 84 113 
L 147 113 
Q 366 113 442 223 
Q 519 334 519 647 
L 519 1709 
Q 519 2225 495 2337 
Q 472 2450 423 2490 
Q 375 2531 294 2531 
Q 206 2531 84 2484 
L 38 2597 
L 900 2947 
L 1034 2947 
L 1034 2341 
z
" transform="scale(0.015625)"/>
     </defs>
     <use xlink:href="#TimesNewRomanPSMT-50"/>
     <use xlink:href="#TimesNewRomanPSMT-2e" x="44.490234"/>
     <use xlink:href="#TimesNewRomanPSMT-42" x="69.490234"/>
     <use xlink:href="#TimesNewRomanPSMT-61" x="136.189453"/>
     <use xlink:href="#TimesNewRomanPSMT-69" x="180.574219"/>
     <use xlink:href="#TimesNewRomanPSMT-6c" x="208.357422"/>
     <use xlink:href="#TimesNewRomanPSMT-65" x="236.140625"/>
     <use xlink:href="#TimesNewRomanPSMT-79" x="280.525391"/>
     <use xlink:href="#TimesNewRomanPSMT-2d" x="330.525391"/>
     <use xlink:href="#TimesNewRomanPSMT-62" x="363.826172"/>
     <use xlink:href="#TimesNewRomanPSMT-72" x="413.826172"/>
     <use xlink:href="#TimesNewRomanPSMT-6f" x="447.126953"/>
     <use xlink:href="#TimesNewRomanPSMT-77" x="497.126953"/>
     <use xlink:href="#TimesNewRomanPSMT-6e" x="569.34375"/>
    </g>
   </g>
   <g id="text_4">
    <g id="patch_5">
     <path d="M 246.350376 303.572161 
L 389.147251 303.572161 
L 389.147251 272.818255 
L 246.350376 272.818255 
L 246.350376 303.572161 
z
" style="fill: none"/>
    </g>
    <!-- J.Washington -->
    <g transform="translate(250.350376 294.17763)scale(0.25 -0.25)">
     <defs>
      <path id="TimesNewRomanPSMT-68" d="M 1041 4444 
L 1041 2350 
Q 1388 2731 1591 2839 
Q 1794 2947 1997 2947 
Q 2241 2947 2416 2812 
Q 2591 2678 2675 2391 
Q 2734 2191 2734 1659 
L 2734 647 
Q 2734 375 2778 275 
Q 2809 200 2884 156 
Q 2959 113 3159 113 
L 3159 0 
L 1753 0 
L 1753 113 
L 1819 113 
Q 2019 113 2097 173 
Q 2175 234 2206 353 
Q 2216 403 2216 647 
L 2216 1659 
Q 2216 2128 2167 2275 
Q 2119 2422 2012 2495 
Q 1906 2569 1756 2569 
Q 1603 2569 1437 2487 
Q 1272 2406 1041 2159 
L 1041 647 
Q 1041 353 1073 281 
Q 1106 209 1195 161 
Q 1284 113 1503 113 
L 1503 0 
L 84 0 
L 84 113 
Q 275 113 384 172 
Q 447 203 484 290 
Q 522 378 522 647 
L 522 3238 
Q 522 3728 498 3840 
Q 475 3953 426 3993 
Q 378 4034 297 4034 
Q 231 4034 84 3984 
L 41 4094 
L 897 4444 
L 1041 4444 
z
" transform="scale(0.015625)"/>
      <path id="TimesNewRomanPSMT-67" d="M 966 1044 
Q 703 1172 562 1401 
Q 422 1631 422 1909 
Q 422 2334 742 2640 
Q 1063 2947 1563 2947 
Q 1972 2947 2272 2747 
L 2878 2747 
Q 3013 2747 3034 2739 
Q 3056 2731 3066 2713 
Q 3084 2684 3084 2613 
Q 3084 2531 3069 2500 
Q 3059 2484 3036 2475 
Q 3013 2466 2878 2466 
L 2506 2466 
Q 2681 2241 2681 1891 
Q 2681 1491 2375 1206 
Q 2069 922 1553 922 
Q 1341 922 1119 984 
Q 981 866 932 777 
Q 884 688 884 625 
Q 884 572 936 522 
Q 988 472 1138 450 
Q 1225 438 1575 428 
Q 2219 413 2409 384 
Q 2700 344 2873 169 
Q 3047 -6 3047 -263 
Q 3047 -616 2716 -925 
Q 2228 -1381 1444 -1381 
Q 841 -1381 425 -1109 
Q 191 -953 191 -784 
Q 191 -709 225 -634 
Q 278 -519 444 -313 
Q 466 -284 763 25 
Q 600 122 533 198 
Q 466 275 466 372 
Q 466 481 555 628 
Q 644 775 966 1044 
z
M 1509 2797 
Q 1278 2797 1122 2612 
Q 966 2428 966 2047 
Q 966 1553 1178 1281 
Q 1341 1075 1591 1075 
Q 1828 1075 1981 1253 
Q 2134 1431 2134 1813 
Q 2134 2309 1919 2591 
Q 1759 2797 1509 2797 
z
M 934 0 
Q 788 -159 713 -296 
Q 638 -434 638 -550 
Q 638 -700 819 -813 
Q 1131 -1006 1722 -1006 
Q 2284 -1006 2551 -807 
Q 2819 -609 2819 -384 
Q 2819 -222 2659 -153 
Q 2497 -84 2016 -72 
Q 1313 -53 934 0 
z
" transform="scale(0.015625)"/>
     </defs>
     <use xlink:href="#TimesNewRomanPSMT-4a"/>
     <use xlink:href="#TimesNewRomanPSMT-2e" x="38.916016"/>
     <use xlink:href="#TimesNewRomanPSMT-57" x="63.916016"/>
     <use xlink:href="#TimesNewRomanPSMT-61" x="150.300781"/>
     <use xlink:href="#TimesNewRomanPSMT-73" x="194.685547"/>
     <use xlink:href="#TimesNewRomanPSMT-68" x="233.601562"/>
     <use xlink:href="#TimesNewRomanPSMT-69" x="283.601562"/>
     <use xlink:href="#TimesNewRomanPSMT-6e" x="311.384766"/>
     <use xlink:href="#TimesNewRomanPSMT-67" x="361.384766"/>
     <use xlink:href="#TimesNewRomanPSMT-74" x="411.384766"/>
     <use xlink:href="#TimesNewRomanPSMT-6f" x="439.167969"/>
     <use xlink:href="#TimesNewRomanPSMT-6e" x="489.167969"/>
    </g>
   </g>
   <g id="text_5">
    <g id="patch_6">
     <path d="M 335.137647 257.522726 
L 458.094679 257.522726 
L 458.094679 226.815695 
L 335.137647 226.815695 
L 335.137647 257.522726 
z
" style="fill: none"/>
    </g>
    <!-- K.Williams -->
    <g transform="translate(339.137647 248.17507)scale(0.25 -0.25)">
     <defs>
      <path id="TimesNewRomanPSMT-4b" d="M 1913 2350 
L 3475 797 
Q 3859 413 4131 273 
Q 4403 134 4675 116 
L 4675 0 
L 2659 0 
L 2659 116 
Q 2841 116 2920 177 
Q 3000 238 3000 313 
Q 3000 388 2970 447 
Q 2941 506 2775 669 
L 1313 2116 
L 1313 750 
Q 1313 428 1353 325 
Q 1384 247 1484 191 
Q 1619 116 1769 116 
L 1913 116 
L 1913 0 
L 106 0 
L 106 116 
L 256 116 
Q 519 116 638 269 
Q 713 369 713 750 
L 713 3488 
Q 713 3809 672 3916 
Q 641 3991 544 4047 
Q 406 4122 256 4122 
L 106 4122 
L 106 4238 
L 1913 4238 
L 1913 4122 
L 1769 4122 
Q 1622 4122 1484 4050 
Q 1388 4000 1350 3900 
Q 1313 3800 1313 3488 
L 1313 2191 
Q 1375 2250 1741 2588 
Q 2669 3438 2863 3722 
Q 2947 3847 2947 3941 
Q 2947 4013 2881 4067 
Q 2816 4122 2659 4122 
L 2563 4122 
L 2563 4238 
L 4119 4238 
L 4119 4122 
Q 3981 4119 3868 4084 
Q 3756 4050 3593 3951 
Q 3431 3853 3194 3634 
Q 3125 3572 2559 2994 
L 1913 2350 
z
" transform="scale(0.015625)"/>
      <path id="TimesNewRomanPSMT-6d" d="M 1050 2338 
Q 1363 2650 1419 2697 
Q 1559 2816 1721 2881 
Q 1884 2947 2044 2947 
Q 2313 2947 2506 2790 
Q 2700 2634 2766 2338 
Q 3088 2713 3309 2830 
Q 3531 2947 3766 2947 
Q 3994 2947 4170 2830 
Q 4347 2713 4450 2447 
Q 4519 2266 4519 1878 
L 4519 647 
Q 4519 378 4559 278 
Q 4591 209 4675 161 
Q 4759 113 4950 113 
L 4950 0 
L 3538 0 
L 3538 113 
L 3597 113 
Q 3781 113 3884 184 
Q 3956 234 3988 344 
Q 4000 397 4000 647 
L 4000 1878 
Q 4000 2228 3916 2372 
Q 3794 2572 3525 2572 
Q 3359 2572 3192 2489 
Q 3025 2406 2788 2181 
L 2781 2147 
L 2788 2013 
L 2788 647 
Q 2788 353 2820 281 
Q 2853 209 2943 161 
Q 3034 113 3253 113 
L 3253 0 
L 1806 0 
L 1806 113 
Q 2044 113 2133 169 
Q 2222 225 2256 338 
Q 2272 391 2272 647 
L 2272 1878 
Q 2272 2228 2169 2381 
Q 2031 2581 1784 2581 
Q 1616 2581 1450 2491 
Q 1191 2353 1050 2181 
L 1050 647 
Q 1050 366 1089 281 
Q 1128 197 1204 155 
Q 1281 113 1516 113 
L 1516 0 
L 100 0 
L 100 113 
Q 297 113 375 155 
Q 453 197 493 289 
Q 534 381 534 647 
L 534 1741 
Q 534 2213 506 2350 
Q 484 2453 437 2492 
Q 391 2531 309 2531 
Q 222 2531 100 2484 
L 53 2597 
L 916 2947 
L 1050 2947 
L 1050 2338 
z
" transform="scale(0.015625)"/>
     </defs>
     <use xlink:href="#TimesNewRomanPSMT-4b"/>
     <use xlink:href="#TimesNewRomanPSMT-2e" x="72.216797"/>
     <use xlink:href="#TimesNewRomanPSMT-57" x="97.216797"/>
     <use xlink:href="#TimesNewRomanPSMT-69" x="187.601562"/>
     <use xlink:href="#TimesNewRomanPSMT-6c" x="215.384766"/>
     <use xlink:href="#TimesNewRomanPSMT-6c" x="243.167969"/>
     <use xlink:href="#TimesNewRomanPSMT-69" x="270.951172"/>
     <use xlink:href="#TimesNewRomanPSMT-61" x="298.734375"/>
     <use xlink:href="#TimesNewRomanPSMT-6d" x="343.119141"/>
     <use xlink:href="#TimesNewRomanPSMT-73" x="420.902344"/>
    </g>
   </g>
   <g id="text_6">
    <g id="patch_7">
     <path d="M 239.837107 281.38432 
L 326.809763 281.38432 
L 326.809763 250.677288 
L 239.837107 250.677288 
L 239.837107 281.38432 
z
" style="fill: none"/>
    </g>
    <!-- M.Tune -->
    <g transform="translate(243.837107 272.036663)scale(0.25 -0.25)">
     <defs>
      <path id="TimesNewRomanPSMT-54" d="M 3703 4238 
L 3750 3244 
L 3631 3244 
Q 3597 3506 3538 3619 
Q 3441 3800 3280 3886 
Q 3119 3972 2856 3972 
L 2259 3972 
L 2259 734 
Q 2259 344 2344 247 
Q 2463 116 2709 116 
L 2856 116 
L 2856 0 
L 1059 0 
L 1059 116 
L 1209 116 
Q 1478 116 1591 278 
Q 1659 378 1659 734 
L 1659 3972 
L 1150 3972 
Q 853 3972 728 3928 
Q 566 3869 450 3700 
Q 334 3531 313 3244 
L 194 3244 
L 244 4238 
L 3703 4238 
z
" transform="scale(0.015625)"/>
      <path id="TimesNewRomanPSMT-75" d="M 2709 2863 
L 2709 1128 
Q 2709 631 2732 520 
Q 2756 409 2807 365 
Q 2859 322 2928 322 
Q 3025 322 3147 375 
L 3191 266 
L 2334 -88 
L 2194 -88 
L 2194 519 
Q 1825 119 1631 15 
Q 1438 -88 1222 -88 
Q 981 -88 804 51 
Q 628 191 559 409 
Q 491 628 491 1028 
L 491 2306 
Q 491 2509 447 2587 
Q 403 2666 317 2708 
Q 231 2750 6 2747 
L 6 2863 
L 1009 2863 
L 1009 947 
Q 1009 547 1148 422 
Q 1288 297 1484 297 
Q 1619 297 1789 381 
Q 1959 466 2194 703 
L 2194 2325 
Q 2194 2569 2105 2655 
Q 2016 2741 1734 2747 
L 1734 2863 
L 2709 2863 
z
" transform="scale(0.015625)"/>
     </defs>
     <use xlink:href="#TimesNewRomanPSMT-4d"/>
     <use xlink:href="#TimesNewRomanPSMT-2e" x="88.916016"/>
     <use xlink:href="#TimesNewRomanPSMT-54" x="113.916016"/>
     <use xlink:href="#TimesNewRomanPSMT-75" x="171.5"/>
     <use xlink:href="#TimesNewRomanPSMT-6e" x="221.5"/>
     <use xlink:href="#TimesNewRomanPSMT-65" x="271.5"/>
    </g>
   </g>
   <g id="text_7">
    <g id="patch_8">
     <path d="M 424.821019 235.381205 
L 525.172582 235.381205 
L 525.172582 204.674173 
L 424.821019 204.674173 
L 424.821019 235.381205 
z
" style="fill: none"/>
    </g>
    <!-- R.Barnes -->
    <g transform="translate(428.821019 226.033548)scale(0.25 -0.25)">
     <defs>
      <path id="TimesNewRomanPSMT-52" d="M 4325 0 
L 3194 0 
L 1759 1981 
Q 1600 1975 1500 1975 
Q 1459 1975 1412 1976 
Q 1366 1978 1316 1981 
L 1316 750 
Q 1316 350 1403 253 
Q 1522 116 1759 116 
L 1925 116 
L 1925 0 
L 109 0 
L 109 116 
L 269 116 
Q 538 116 653 291 
Q 719 388 719 750 
L 719 3488 
Q 719 3888 631 3984 
Q 509 4122 269 4122 
L 109 4122 
L 109 4238 
L 1653 4238 
Q 2328 4238 2648 4139 
Q 2969 4041 3192 3777 
Q 3416 3513 3416 3147 
Q 3416 2756 3161 2468 
Q 2906 2181 2372 2063 
L 3247 847 
Q 3547 428 3762 290 
Q 3978 153 4325 116 
L 4325 0 
z
M 1316 2178 
Q 1375 2178 1419 2176 
Q 1463 2175 1491 2175 
Q 2097 2175 2405 2437 
Q 2713 2700 2713 3106 
Q 2713 3503 2464 3751 
Q 2216 4000 1806 4000 
Q 1625 4000 1316 3941 
L 1316 2178 
z
" transform="scale(0.015625)"/>
     </defs>
     <use xlink:href="#TimesNewRomanPSMT-52"/>
     <use xlink:href="#TimesNewRomanPSMT-2e" x="66.699219"/>
     <use xlink:href="#TimesNewRomanPSMT-42" x="91.699219"/>
     <use xlink:href="#TimesNewRomanPSMT-61" x="158.398438"/>
     <use xlink:href="#TimesNewRomanPSMT-72" x="202.783203"/>
     <use xlink:href="#TimesNewRomanPSMT-6e" x="236.083984"/>
     <use xlink:href="#TimesNewRomanPSMT-65" x="286.083984"/>
     <use xlink:href="#TimesNewRomanPSMT-73" x="330.46875"/>
    </g>
   </g>
   <g id="text_8">
    <g id="patch_9">
     <path d="M 50.336178 297.014939 
L 115.281491 297.014939 
L 115.281491 266.307907 
L 50.336178 266.307907 
L 50.336178 297.014939 
z
" style="fill: none"/>
    </g>
    <!-- Kristi -->
    <g transform="translate(54.336178 287.667282)scale(0.25 -0.25)">
     <use xlink:href="#TimesNewRomanPSMT-4b"/>
     <use xlink:href="#TimesNewRomanPSMT-72" x="72.216797"/>
     <use xlink:href="#TimesNewRomanPSMT-69" x="105.517578"/>
     <use xlink:href="#TimesNewRomanPSMT-73" x="133.300781"/>
     <use xlink:href="#TimesNewRomanPSMT-74" x="172.216797"/>
     <use xlink:href="#TimesNewRomanPSMT-69" x="200"/>
    </g>
   </g>
   <g id="text_9">
    <g id="patch_10">
     <path d="M 47.467053 253.454849 
L 129.756115 253.454849 
L 129.756115 222.747817 
L 47.467053 222.747817 
L 47.467053 253.454849 
z
" style="fill: none"/>
    </g>
    <!-- L.Ernst -->
    <g transform="translate(51.467053 244.107192)scale(0.25 -0.25)">
     <defs>
      <path id="TimesNewRomanPSMT-4c" d="M 3669 1172 
L 3772 1150 
L 3409 0 
L 128 0 
L 128 116 
L 288 116 
Q 556 116 672 291 
Q 738 391 738 753 
L 738 3488 
Q 738 3884 650 3984 
Q 528 4122 288 4122 
L 128 4122 
L 128 4238 
L 2047 4238 
L 2047 4122 
Q 1709 4125 1573 4059 
Q 1438 3994 1388 3894 
Q 1338 3794 1338 3416 
L 1338 753 
Q 1338 494 1388 397 
Q 1425 331 1503 300 
Q 1581 269 1991 269 
L 2300 269 
Q 2788 269 2984 341 
Q 3181 413 3343 595 
Q 3506 778 3669 1172 
z
" transform="scale(0.015625)"/>
      <path id="TimesNewRomanPSMT-45" d="M 1338 4006 
L 1338 2331 
L 2269 2331 
Q 2631 2331 2753 2441 
Q 2916 2584 2934 2947 
L 3050 2947 
L 3050 1472 
L 2934 1472 
Q 2891 1781 2847 1869 
Q 2791 1978 2662 2040 
Q 2534 2103 2269 2103 
L 1338 2103 
L 1338 706 
Q 1338 425 1363 364 
Q 1388 303 1450 267 
Q 1513 231 1688 231 
L 2406 231 
Q 2766 231 2928 281 
Q 3091 331 3241 478 
Q 3434 672 3638 1063 
L 3763 1063 
L 3397 0 
L 131 0 
L 131 116 
L 281 116 
Q 431 116 566 188 
Q 666 238 702 338 
Q 738 438 738 747 
L 738 3500 
Q 738 3903 656 3997 
Q 544 4122 281 4122 
L 131 4122 
L 131 4238 
L 3397 4238 
L 3444 3309 
L 3322 3309 
Q 3256 3644 3176 3769 
Q 3097 3894 2941 3959 
Q 2816 4006 2500 4006 
L 1338 4006 
z
" transform="scale(0.015625)"/>
     </defs>
     <use xlink:href="#TimesNewRomanPSMT-4c"/>
     <use xlink:href="#TimesNewRomanPSMT-2e" x="61.083984"/>
     <use xlink:href="#TimesNewRomanPSMT-45" x="86.083984"/>
     <use xlink:href="#TimesNewRomanPSMT-72" x="147.167969"/>
     <use xlink:href="#TimesNewRomanPSMT-6e" x="180.46875"/>
     <use xlink:href="#TimesNewRomanPSMT-73" x="230.46875"/>
     <use xlink:href="#TimesNewRomanPSMT-74" x="269.384766"/>
    </g>
   </g>
  </g>
 </g>
 <defs>
  <clipPath id="pc39d38f1dc">
   <rect x="7.2" y="7.2" width="446.4" height="443.52"/>
  </clipPath>
 </defs>
</svg>
