<?xml version="1.0" encoding="utf-8" standalone="no"?>
<!DOCTYPE svg PUBLIC "-//W3C//DTD SVG 1.1//EN"
  "http://www.w3.org/Graphics/SVG/1.1/DTD/svg11.dtd">
<svg xmlns:xlink="http://www.w3.org/1999/xlink" width="510.102042pt" height="457.92pt" viewBox="0 0 510.102042 457.92" xmlns="http://www.w3.org/2000/svg" version="1.1">
 <metadata>
  <rdf:RDF xmlns:dc="http://purl.org/dc/elements/1.1/" xmlns:cc="http://creativecommons.org/ns#" xmlns:rdf="http://www.w3.org/1999/02/22-rdf-syntax-ns#">
   <cc:Work>
    <dc:type rdf:resource="http://purl.org/dc/dcmitype/StillImage"/>
    <dc:date>2022-12-05T14:38:20.399880</dc:date>
    <dc:format>image/svg+xml</dc:format>
    <dc:creator>
     <cc:Agent>
      <dc:title>Matplotlib v3.5.2, https://matplotlib.org/</dc:title>
     </cc:Agent>
    </dc:creator>
   </cc:Work>
  </rdf:RDF>
 </metadata>
 <defs>
  <style type="text/css">*{stroke-linejoin: round; stroke-linecap: butt}</style>
 </defs>
 <g id="figure_1">
  <g id="patch_1">
   <path d="M 0 457.92 
L 510.102042 457.92 
L 510.102042 0 
L 0 0 
z
" style="fill: #ffffff"/>
  </g>
  <g id="axes_1">
   <g id="PolyCollection_1">
    <path d="M 225.573134 227.871063 
L 331.414906 260.588854 
L 335.179214 261.084435 
L 338.943521 260.588854 
L 342.451297 259.135886 
L 345.463492 256.824547 
L 347.774831 253.812352 
L 349.2278 250.304576 
L 349.72338 246.540268 
L 349.2278 242.775961 
L 347.774831 239.268185 
L 315.058621 189.736376 
L 312.747282 186.724181 
L 309.735087 184.412842 
L 306.227311 182.959874 
L 302.463004 182.464293 
L 298.698696 182.959874 
L 225.573134 199.77389 
L 222.065358 201.226859 
L 219.053163 203.538198 
L 216.741824 206.550393 
L 215.288856 210.058169 
L 214.793275 213.822477 
L 215.288856 217.586784 
L 216.741824 221.09456 
L 219.053163 224.106755 
L 222.065358 226.418094 
z
" clip-path="url(#pf80e96aa1f)" style="fill: #0000ff; fill-opacity: 0.5; stroke: #000000; stroke-width: 0.5"/>
    <path d="M 146.360331 242.67314 
L 149.372527 244.984479 
L 152.880303 246.437447 
L 156.64461 246.933028 
L 160.408917 246.437447 
L 234.356518 232.553925 
L 239.033553 230.616634 
L 243.049813 227.534848 
L 246.131599 223.518588 
L 248.06889 218.841553 
L 248.729664 213.822477 
L 248.06889 208.8034 
L 246.131599 204.126366 
L 243.049813 200.110105 
L 239.033553 197.02832 
L 179.552287 154.574527 
L 176.044511 153.121559 
L 172.280204 152.625978 
L 168.515896 153.121559 
L 117.363781 173.102774 
L 113.856005 174.555742 
L 110.843809 176.867081 
L 108.53247 179.879277 
L 107.079502 183.387053 
L 106.583922 187.15136 
L 107.079502 190.915667 
L 108.53247 194.423443 
L 110.843809 197.435639 
z
" clip-path="url(#pf80e96aa1f)" style="fill: #ffff00; fill-opacity: 0.5; stroke: #000000; stroke-width: 0.5"/>
    <path d="M 126.147165 168.419912 
L 45.799383 149.738027 
L 42.035076 149.242447 
L 38.270768 149.738027 
L 34.762992 151.190996 
L 31.750797 153.502334 
L 29.439458 156.51453 
L 27.98649 160.022306 
L 27.490909 163.786613 
L 27.98649 167.550921 
L 29.439458 171.058696 
L 31.750797 174.070892 
L 34.762992 176.382231 
L 38.270768 177.835199 
L 116.109012 205.882808 
L 121.128088 206.543582 
L 126.147165 205.882808 
L 130.824199 203.945517 
L 134.84046 200.863732 
L 137.922245 196.847471 
L 139.859536 192.170436 
L 140.52031 187.15136 
L 139.859536 182.132284 
L 137.922245 177.455249 
L 134.84046 173.438988 
L 130.824199 170.357203 
z
" clip-path="url(#pf80e96aa1f)" style="fill: #ff0000; fill-opacity: 0.5; stroke: #000000; stroke-width: 0.5"/>
    <path d="M 325.483103 263.334425 
L 397.874731 306.729004 
L 401.382507 308.181973 
L 405.146815 308.677553 
L 408.911122 308.181973 
L 412.418898 306.729004 
L 415.431093 304.417666 
L 417.742432 301.40547 
L 419.195401 297.897694 
L 432.81351 259.735148 
L 433.309091 255.970841 
L 432.81351 252.206533 
L 431.360542 248.698757 
L 429.049203 245.686562 
L 426.037008 243.375223 
L 422.529232 241.922255 
L 340.19829 227.80882 
L 335.179214 227.148046 
L 330.160137 227.80882 
L 325.483103 229.746111 
L 321.466842 232.827897 
L 318.385057 236.844157 
L 316.447766 241.521192 
L 315.786992 246.540268 
L 316.447766 251.559345 
L 318.385057 256.236379 
L 321.466842 260.25264 
z
" clip-path="url(#pf80e96aa1f)" style="fill: #0000ff; fill-opacity: 0.5; stroke: #000000; stroke-width: 0.5"/>
   </g>
   <g id="PolyCollection_2">
    <path d="M 234.185497 213.822477 
L 234.020304 212.567707 
L 233.535981 211.398449 
L 232.765535 210.394384 
L 231.76147 209.623937 
L 230.592211 209.139615 
L 229.337442 208.974421 
L 228.082673 209.139615 
L 226.913414 209.623937 
L 225.909349 210.394384 
L 225.138903 211.398449 
L 224.65458 212.567707 
L 224.489386 213.822477 
L 224.65458 215.077246 
L 225.138903 216.246504 
L 225.909349 217.25057 
L 226.913414 218.021016 
L 228.082673 218.505339 
L 229.337442 218.670532 
L 230.592211 218.505339 
L 231.76147 218.021016 
L 232.765535 217.25057 
L 233.535981 216.246504 
L 234.020304 215.077246 
z
" clip-path="url(#pf80e96aa1f)" style="fill-opacity: 0.5"/>
    <path d="M 340.027269 246.540268 
L 339.862076 245.285499 
L 339.377753 244.116241 
L 338.607307 243.112175 
L 337.603241 242.341729 
L 336.433983 241.857406 
L 335.179214 241.692213 
L 333.924445 241.857406 
L 332.755186 242.341729 
L 331.751121 243.112175 
L 330.980674 244.116241 
L 330.496352 245.285499 
L 330.331158 246.540268 
L 330.496352 247.795037 
L 330.980674 248.964296 
L 331.751121 249.968361 
L 332.755186 250.738808 
L 333.924445 251.22313 
L 335.179214 251.388324 
L 336.433983 251.22313 
L 337.603241 250.738808 
L 338.607307 249.968361 
L 339.377753 248.964296 
L 339.862076 247.795037 
z
" clip-path="url(#pf80e96aa1f)" style="fill-opacity: 0.5"/>
    <path d="M 307.311059 197.00846 
L 307.145866 195.753691 
L 306.661543 194.584432 
L 305.891096 193.580367 
L 304.887031 192.80992 
L 303.717773 192.325598 
L 302.463004 192.160404 
L 301.208234 192.325598 
L 300.038976 192.80992 
L 299.034911 193.580367 
L 298.264464 194.584432 
L 297.780141 195.753691 
L 297.614948 197.00846 
L 297.780141 198.263229 
L 298.264464 199.432487 
L 299.034911 200.436553 
L 300.038976 201.206999 
L 301.208234 201.691322 
L 302.463004 201.856515 
L 303.717773 201.691322 
L 304.887031 201.206999 
L 305.891096 200.436553 
L 306.661543 199.432487 
L 307.145866 198.263229 
z
" clip-path="url(#pf80e96aa1f)" style="fill-opacity: 0.5"/>
    <path d="M 161.492665 232.388861 
L 161.327472 231.134092 
L 160.843149 229.964834 
L 160.072703 228.960768 
L 159.068638 228.190322 
L 157.899379 227.705999 
L 156.64461 227.540806 
L 155.389841 227.705999 
L 154.220582 228.190322 
L 153.216517 228.960768 
L 152.446071 229.964834 
L 151.961748 231.134092 
L 151.796554 232.388861 
L 151.961748 233.64363 
L 152.446071 234.812889 
L 153.216517 235.816954 
L 154.220582 236.587401 
L 155.389841 237.071723 
L 156.64461 237.236917 
L 157.899379 237.071723 
L 159.068638 236.587401 
L 160.072703 235.816954 
L 160.843149 234.812889 
L 161.327472 233.64363 
z
" clip-path="url(#pf80e96aa1f)" style="fill-opacity: 0.5"/>
    <path d="M 125.976144 187.15136 
L 125.81095 185.896591 
L 125.326627 184.727332 
L 124.556181 183.723267 
L 123.552116 182.952821 
L 122.382857 182.468498 
L 121.128088 182.303305 
L 119.873319 182.468498 
L 118.70406 182.952821 
L 117.699995 183.723267 
L 116.929549 184.727332 
L 116.445226 185.896591 
L 116.280033 187.15136 
L 116.445226 188.406129 
L 116.929549 189.575388 
L 117.699995 190.579453 
L 118.70406 191.349899 
L 119.873319 191.834222 
L 121.128088 191.999416 
L 122.382857 191.834222 
L 123.552116 191.349899 
L 124.556181 190.579453 
L 125.326627 189.575388 
L 125.81095 188.406129 
z
" clip-path="url(#pf80e96aa1f)" style="fill-opacity: 0.5"/>
    <path d="M 177.128259 167.170145 
L 176.963066 165.915376 
L 176.478743 164.746117 
L 175.708297 163.742052 
L 174.704231 162.971605 
L 173.534973 162.487283 
L 172.280204 162.322089 
L 171.025435 162.487283 
L 169.856176 162.971605 
L 168.852111 163.742052 
L 168.081664 164.746117 
L 167.597342 165.915376 
L 167.432148 167.170145 
L 167.597342 168.424914 
L 168.081664 169.594172 
L 168.852111 170.598238 
L 169.856176 171.368684 
L 171.025435 171.853007 
L 172.280204 172.0182 
L 173.534973 171.853007 
L 174.704231 171.368684 
L 175.708297 170.598238 
L 176.478743 169.594172 
L 176.963066 168.424914 
z
" clip-path="url(#pf80e96aa1f)" style="fill-opacity: 0.5"/>
    <path d="M 46.883131 163.786613 
L 46.717938 162.531844 
L 46.233615 161.362585 
L 45.463169 160.35852 
L 44.459103 159.588074 
L 43.289845 159.103751 
L 42.035076 158.938558 
L 40.780307 159.103751 
L 39.611048 159.588074 
L 38.606983 160.35852 
L 37.836536 161.362585 
L 37.352214 162.531844 
L 37.18702 163.786613 
L 37.352214 165.041382 
L 37.836536 166.210641 
L 38.606983 167.214706 
L 39.611048 167.985152 
L 40.780307 168.469475 
L 42.035076 168.634669 
L 43.289845 168.469475 
L 44.459103 167.985152 
L 45.463169 167.214706 
L 46.233615 166.210641 
L 46.717938 165.041382 
z
" clip-path="url(#pf80e96aa1f)" style="fill-opacity: 0.5"/>
    <path d="M 409.99487 294.133387 
L 409.829677 292.878618 
L 409.345354 291.709359 
L 408.574907 290.705294 
L 407.570842 289.934848 
L 406.401584 289.450525 
L 405.146815 289.285331 
L 403.892045 289.450525 
L 402.722787 289.934848 
L 401.718722 290.705294 
L 400.948275 291.709359 
L 400.463953 292.878618 
L 400.298759 294.133387 
L 400.463953 295.388156 
L 400.948275 296.557415 
L 401.718722 297.56148 
L 402.722787 298.331926 
L 403.892045 298.816249 
L 405.146815 298.981442 
L 406.401584 298.816249 
L 407.570842 298.331926 
L 408.574907 297.56148 
L 409.345354 296.557415 
L 409.829677 295.388156 
z
" clip-path="url(#pf80e96aa1f)" style="fill-opacity: 0.5"/>
    <path d="M 423.61298 255.970841 
L 423.447786 254.716072 
L 422.963464 253.546813 
L 422.193017 252.542748 
L 421.188952 251.772302 
L 420.019693 251.287979 
L 418.764924 251.122785 
L 417.510155 251.287979 
L 416.340897 251.772302 
L 415.336831 252.542748 
L 414.566385 253.546813 
L 414.082062 254.716072 
L 413.916869 255.970841 
L 414.082062 257.22561 
L 414.566385 258.394869 
L 415.336831 259.398934 
L 416.340897 260.16938 
L 417.510155 260.653703 
L 418.764924 260.818896 
L 420.019693 260.653703 
L 421.188952 260.16938 
L 422.193017 259.398934 
L 422.963464 258.394869 
L 423.447786 257.22561 
z
" clip-path="url(#pf80e96aa1f)" style="fill-opacity: 0.5"/>
   </g>
   <g id="text_1">
    <g id="patch_2">
     <path d="M 235.185497 229.175992 
L 339.247997 229.175992 
L 339.247997 198.468961 
L 235.185497 198.468961 
L 235.185497 229.175992 
z
" style="fill: none"/>
    </g>
    <!-- C.Jeffries -->
    <g transform="translate(239.185497 219.828336)scale(0.25 -0.25)">
     <defs>
      <path id="TimesNewRomanPSMT-43" d="M 3853 4334 
L 3950 2894 
L 3853 2894 
Q 3659 3541 3300 3825 
Q 2941 4109 2438 4109 
Q 2016 4109 1675 3895 
Q 1334 3681 1139 3212 
Q 944 2744 944 2047 
Q 944 1472 1128 1050 
Q 1313 628 1683 403 
Q 2053 178 2528 178 
Q 2941 178 3256 354 
Q 3572 531 3950 1056 
L 4047 994 
Q 3728 428 3303 165 
Q 2878 -97 2294 -97 
Q 1241 -97 663 684 
Q 231 1266 231 2053 
Q 231 2688 515 3219 
Q 800 3750 1298 4042 
Q 1797 4334 2388 4334 
Q 2847 4334 3294 4109 
Q 3425 4041 3481 4041 
Q 3566 4041 3628 4100 
Q 3709 4184 3744 4334 
L 3853 4334 
z
" transform="scale(0.015625)"/>
      <path id="TimesNewRomanPSMT-2e" d="M 800 606 
Q 947 606 1047 504 
Q 1147 403 1147 259 
Q 1147 116 1045 14 
Q 944 -88 800 -88 
Q 656 -88 554 14 
Q 453 116 453 259 
Q 453 406 554 506 
Q 656 606 800 606 
z
" transform="scale(0.015625)"/>
      <path id="TimesNewRomanPSMT-4a" d="M 638 4122 
L 638 4238 
L 2453 4238 
L 2453 4122 
L 2300 4122 
Q 2041 4122 1922 3969 
Q 1847 3869 1847 3488 
L 1847 1416 
Q 1847 938 1742 641 
Q 1638 344 1381 123 
Q 1125 -97 763 -97 
Q 469 -97 300 48 
Q 131 194 131 381 
Q 131 534 209 613 
Q 313 709 450 709 
Q 550 709 629 643 
Q 709 578 831 294 
Q 903 125 1016 125 
Q 1100 125 1173 228 
Q 1247 331 1247 594 
L 1247 3488 
Q 1247 3809 1206 3913 
Q 1175 3991 1075 4047 
Q 941 4122 791 4122 
L 638 4122 
z
" transform="scale(0.015625)"/>
      <path id="TimesNewRomanPSMT-65" d="M 681 1784 
Q 678 1147 991 784 
Q 1303 422 1725 422 
Q 2006 422 2214 576 
Q 2422 731 2563 1106 
L 2659 1044 
Q 2594 616 2278 264 
Q 1963 -88 1488 -88 
Q 972 -88 605 314 
Q 238 716 238 1394 
Q 238 2128 614 2539 
Q 991 2950 1559 2950 
Q 2041 2950 2350 2633 
Q 2659 2316 2659 1784 
L 681 1784 
z
M 681 1966 
L 2006 1966 
Q 1991 2241 1941 2353 
Q 1863 2528 1708 2628 
Q 1553 2728 1384 2728 
Q 1125 2728 920 2526 
Q 716 2325 681 1966 
z
" transform="scale(0.015625)"/>
      <path id="TimesNewRomanPSMT-66" d="M 1319 2638 
L 1319 756 
Q 1319 356 1406 250 
Q 1522 113 1716 113 
L 1975 113 
L 1975 0 
L 266 0 
L 266 113 
L 394 113 
Q 519 113 622 175 
Q 725 238 764 344 
Q 803 450 803 756 
L 803 2638 
L 247 2638 
L 247 2863 
L 803 2863 
L 803 3050 
Q 803 3478 940 3775 
Q 1078 4072 1361 4255 
Q 1644 4438 1997 4438 
Q 2325 4438 2600 4225 
Q 2781 4084 2781 3909 
Q 2781 3816 2700 3733 
Q 2619 3650 2525 3650 
Q 2453 3650 2373 3701 
Q 2294 3753 2178 3923 
Q 2063 4094 1966 4153 
Q 1869 4213 1750 4213 
Q 1606 4213 1506 4136 
Q 1406 4059 1362 3898 
Q 1319 3738 1319 3069 
L 1319 2863 
L 2056 2863 
L 2056 2638 
L 1319 2638 
z
" transform="scale(0.015625)"/>
      <path id="TimesNewRomanPSMT-72" d="M 1038 2947 
L 1038 2303 
Q 1397 2947 1775 2947 
Q 1947 2947 2059 2842 
Q 2172 2738 2172 2600 
Q 2172 2478 2090 2393 
Q 2009 2309 1897 2309 
Q 1788 2309 1652 2417 
Q 1516 2525 1450 2525 
Q 1394 2525 1328 2463 
Q 1188 2334 1038 2041 
L 1038 669 
Q 1038 431 1097 309 
Q 1138 225 1241 169 
Q 1344 113 1538 113 
L 1538 0 
L 72 0 
L 72 113 
Q 291 113 397 181 
Q 475 231 506 341 
Q 522 394 522 644 
L 522 1753 
Q 522 2253 501 2348 
Q 481 2444 426 2487 
Q 372 2531 291 2531 
Q 194 2531 72 2484 
L 41 2597 
L 906 2947 
L 1038 2947 
z
" transform="scale(0.015625)"/>
      <path id="TimesNewRomanPSMT-69" d="M 928 4444 
Q 1059 4444 1151 4351 
Q 1244 4259 1244 4128 
Q 1244 3997 1151 3903 
Q 1059 3809 928 3809 
Q 797 3809 703 3903 
Q 609 3997 609 4128 
Q 609 4259 701 4351 
Q 794 4444 928 4444 
z
M 1188 2947 
L 1188 647 
Q 1188 378 1227 289 
Q 1266 200 1342 156 
Q 1419 113 1622 113 
L 1622 0 
L 231 0 
L 231 113 
Q 441 113 512 153 
Q 584 194 626 287 
Q 669 381 669 647 
L 669 1750 
Q 669 2216 641 2353 
Q 619 2453 572 2492 
Q 525 2531 444 2531 
Q 356 2531 231 2484 
L 188 2597 
L 1050 2947 
L 1188 2947 
z
" transform="scale(0.015625)"/>
      <path id="TimesNewRomanPSMT-73" d="M 2050 2947 
L 2050 1972 
L 1947 1972 
Q 1828 2431 1642 2597 
Q 1456 2763 1169 2763 
Q 950 2763 815 2647 
Q 681 2531 681 2391 
Q 681 2216 781 2091 
Q 878 1963 1175 1819 
L 1631 1597 
Q 2266 1288 2266 781 
Q 2266 391 1970 151 
Q 1675 -88 1309 -88 
Q 1047 -88 709 6 
Q 606 38 541 38 
Q 469 38 428 -44 
L 325 -44 
L 325 978 
L 428 978 
Q 516 541 762 319 
Q 1009 97 1316 97 
Q 1531 97 1667 223 
Q 1803 350 1803 528 
Q 1803 744 1651 891 
Q 1500 1038 1047 1263 
Q 594 1488 453 1669 
Q 313 1847 313 2119 
Q 313 2472 555 2709 
Q 797 2947 1181 2947 
Q 1350 2947 1591 2875 
Q 1750 2828 1803 2828 
Q 1853 2828 1881 2850 
Q 1909 2872 1947 2947 
L 2050 2947 
z
" transform="scale(0.015625)"/>
     </defs>
     <use xlink:href="#TimesNewRomanPSMT-43"/>
     <use xlink:href="#TimesNewRomanPSMT-2e" x="66.699219"/>
     <use xlink:href="#TimesNewRomanPSMT-4a" x="91.699219"/>
     <use xlink:href="#TimesNewRomanPSMT-65" x="130.615234"/>
     <use xlink:href="#TimesNewRomanPSMT-66" x="175"/>
     <use xlink:href="#TimesNewRomanPSMT-66" x="206.550781"/>
     <use xlink:href="#TimesNewRomanPSMT-72" x="239.851562"/>
     <use xlink:href="#TimesNewRomanPSMT-69" x="273.152344"/>
     <use xlink:href="#TimesNewRomanPSMT-65" x="300.935547"/>
     <use xlink:href="#TimesNewRomanPSMT-73" x="345.320312"/>
    </g>
   </g>
   <g id="text_2">
    <g id="patch_3">
     <path d="M 341.027269 261.893784 
L 460.019457 261.893784 
L 460.019457 231.186753 
L 341.027269 231.186753 
L 341.027269 261.893784 
z
" style="fill: none"/>
    </g>
    <!-- M.B.Wyatt -->
    <g transform="translate(345.027269 252.499253)scale(0.25 -0.25)">
     <defs>
      <path id="TimesNewRomanPSMT-4d" d="M 2619 0 
L 981 3566 
L 981 734 
Q 981 344 1066 247 
Q 1181 116 1431 116 
L 1581 116 
L 1581 0 
L 106 0 
L 106 116 
L 256 116 
Q 525 116 638 278 
Q 706 378 706 734 
L 706 3503 
Q 706 3784 644 3909 
Q 600 4000 483 4061 
Q 366 4122 106 4122 
L 106 4238 
L 1306 4238 
L 2844 922 
L 4356 4238 
L 5556 4238 
L 5556 4122 
L 5409 4122 
Q 5138 4122 5025 3959 
Q 4956 3859 4956 3503 
L 4956 734 
Q 4956 344 5044 247 
Q 5159 116 5409 116 
L 5556 116 
L 5556 0 
L 3756 0 
L 3756 116 
L 3906 116 
Q 4178 116 4288 278 
Q 4356 378 4356 734 
L 4356 3566 
L 2722 0 
L 2619 0 
z
" transform="scale(0.015625)"/>
      <path id="TimesNewRomanPSMT-42" d="M 2956 2163 
Q 3397 2069 3616 1863 
Q 3919 1575 3919 1159 
Q 3919 844 3719 555 
Q 3519 266 3170 133 
Q 2822 0 2106 0 
L 106 0 
L 106 116 
L 266 116 
Q 531 116 647 284 
Q 719 394 719 750 
L 719 3488 
Q 719 3881 628 3984 
Q 506 4122 266 4122 
L 106 4122 
L 106 4238 
L 1938 4238 
Q 2450 4238 2759 4163 
Q 3228 4050 3475 3764 
Q 3722 3478 3722 3106 
Q 3722 2788 3528 2536 
Q 3334 2284 2956 2163 
z
M 1319 2331 
Q 1434 2309 1582 2298 
Q 1731 2288 1909 2288 
Q 2366 2288 2595 2386 
Q 2825 2484 2947 2687 
Q 3069 2891 3069 3131 
Q 3069 3503 2766 3765 
Q 2463 4028 1881 4028 
Q 1569 4028 1319 3959 
L 1319 2331 
z
M 1319 306 
Q 1681 222 2034 222 
Q 2600 222 2897 476 
Q 3194 731 3194 1106 
Q 3194 1353 3059 1581 
Q 2925 1809 2622 1940 
Q 2319 2072 1872 2072 
Q 1678 2072 1540 2065 
Q 1403 2059 1319 2044 
L 1319 306 
z
" transform="scale(0.015625)"/>
      <path id="TimesNewRomanPSMT-57" d="M 5991 4238 
L 5991 4122 
Q 5825 4122 5722 4062 
Q 5619 4003 5525 3841 
Q 5463 3731 5328 3319 
L 4147 -97 
L 4022 -97 
L 3056 2613 
L 2097 -97 
L 1984 -97 
L 725 3422 
Q 584 3816 547 3888 
Q 484 4006 376 4064 
Q 269 4122 84 4122 
L 84 4238 
L 1653 4238 
L 1653 4122 
L 1578 4122 
Q 1413 4122 1325 4047 
Q 1238 3972 1238 3866 
Q 1238 3756 1375 3363 
L 2209 984 
L 2913 3006 
L 2788 3363 
L 2688 3647 
Q 2622 3803 2541 3922 
Q 2500 3981 2441 4022 
Q 2363 4078 2284 4103 
Q 2225 4122 2097 4122 
L 2097 4238 
L 3747 4238 
L 3747 4122 
L 3634 4122 
Q 3459 4122 3378 4047 
Q 3297 3972 3297 3844 
Q 3297 3684 3438 3288 
L 4250 984 
L 5056 3319 
Q 5194 3706 5194 3856 
Q 5194 3928 5148 3990 
Q 5103 4053 5034 4078 
Q 4916 4122 4725 4122 
L 4725 4238 
L 5991 4238 
z
" transform="scale(0.015625)"/>
      <path id="TimesNewRomanPSMT-79" d="M 38 2863 
L 1372 2863 
L 1372 2747 
L 1306 2747 
Q 1166 2747 1095 2686 
Q 1025 2625 1025 2534 
Q 1025 2413 1128 2197 
L 1825 753 
L 2466 2334 
Q 2519 2463 2519 2588 
Q 2519 2644 2497 2672 
Q 2472 2706 2419 2726 
Q 2366 2747 2231 2747 
L 2231 2863 
L 3163 2863 
L 3163 2747 
Q 3047 2734 2984 2696 
Q 2922 2659 2847 2556 
Q 2819 2513 2741 2316 
L 1575 -541 
Q 1406 -956 1132 -1168 
Q 859 -1381 606 -1381 
Q 422 -1381 303 -1275 
Q 184 -1169 184 -1031 
Q 184 -900 270 -820 
Q 356 -741 506 -741 
Q 609 -741 788 -809 
Q 913 -856 944 -856 
Q 1038 -856 1148 -759 
Q 1259 -663 1372 -384 
L 1575 113 
L 547 2272 
Q 500 2369 397 2513 
Q 319 2622 269 2659 
Q 197 2709 38 2747 
L 38 2863 
z
" transform="scale(0.015625)"/>
      <path id="TimesNewRomanPSMT-61" d="M 1822 413 
Q 1381 72 1269 19 
Q 1100 -59 909 -59 
Q 613 -59 420 144 
Q 228 347 228 678 
Q 228 888 322 1041 
Q 450 1253 767 1440 
Q 1084 1628 1822 1897 
L 1822 2009 
Q 1822 2438 1686 2597 
Q 1550 2756 1291 2756 
Q 1094 2756 978 2650 
Q 859 2544 859 2406 
L 866 2225 
Q 866 2081 792 2003 
Q 719 1925 600 1925 
Q 484 1925 411 2006 
Q 338 2088 338 2228 
Q 338 2497 613 2722 
Q 888 2947 1384 2947 
Q 1766 2947 2009 2819 
Q 2194 2722 2281 2516 
Q 2338 2381 2338 1966 
L 2338 994 
Q 2338 584 2353 492 
Q 2369 400 2405 369 
Q 2441 338 2488 338 
Q 2538 338 2575 359 
Q 2641 400 2828 588 
L 2828 413 
Q 2478 -56 2159 -56 
Q 2006 -56 1915 50 
Q 1825 156 1822 413 
z
M 1822 616 
L 1822 1706 
Q 1350 1519 1213 1441 
Q 966 1303 859 1153 
Q 753 1003 753 825 
Q 753 600 887 451 
Q 1022 303 1197 303 
Q 1434 303 1822 616 
z
" transform="scale(0.015625)"/>
      <path id="TimesNewRomanPSMT-74" d="M 1031 3803 
L 1031 2863 
L 1700 2863 
L 1700 2644 
L 1031 2644 
L 1031 788 
Q 1031 509 1111 412 
Q 1191 316 1316 316 
Q 1419 316 1516 380 
Q 1613 444 1666 569 
L 1788 569 
Q 1678 263 1478 108 
Q 1278 -47 1066 -47 
Q 922 -47 784 33 
Q 647 113 581 261 
Q 516 409 516 719 
L 516 2644 
L 63 2644 
L 63 2747 
Q 234 2816 414 2980 
Q 594 3144 734 3369 
Q 806 3488 934 3803 
L 1031 3803 
z
" transform="scale(0.015625)"/>
     </defs>
     <use xlink:href="#TimesNewRomanPSMT-4d"/>
     <use xlink:href="#TimesNewRomanPSMT-2e" x="88.916016"/>
     <use xlink:href="#TimesNewRomanPSMT-42" x="113.916016"/>
     <use xlink:href="#TimesNewRomanPSMT-2e" x="180.615234"/>
     <use xlink:href="#TimesNewRomanPSMT-57" x="205.615234"/>
     <use xlink:href="#TimesNewRomanPSMT-79" x="294"/>
     <use xlink:href="#TimesNewRomanPSMT-61" x="344"/>
     <use xlink:href="#TimesNewRomanPSMT-74" x="388.384766"/>
     <use xlink:href="#TimesNewRomanPSMT-74" x="416.167969"/>
    </g>
   </g>
   <g id="text_3">
    <g id="patch_4">
     <path d="M 308.311059 212.385413 
L 471.146997 212.385413 
L 471.146997 181.631507 
L 308.311059 181.631507 
L 308.311059 212.385413 
z
" style="fill: none"/>
    </g>
    <!-- P.Bailey-brown -->
    <g transform="translate(312.311059 202.990882)scale(0.25 -0.25)">
     <defs>
      <path id="TimesNewRomanPSMT-50" d="M 1313 1984 
L 1313 750 
Q 1313 350 1400 253 
Q 1519 116 1759 116 
L 1922 116 
L 1922 0 
L 106 0 
L 106 116 
L 266 116 
Q 534 116 650 291 
Q 713 388 713 750 
L 713 3488 
Q 713 3888 628 3984 
Q 506 4122 266 4122 
L 106 4122 
L 106 4238 
L 1659 4238 
Q 2228 4238 2556 4120 
Q 2884 4003 3109 3725 
Q 3334 3447 3334 3066 
Q 3334 2547 2992 2222 
Q 2650 1897 2025 1897 
Q 1872 1897 1694 1919 
Q 1516 1941 1313 1984 
z
M 1313 2163 
Q 1478 2131 1606 2115 
Q 1734 2100 1825 2100 
Q 2150 2100 2386 2351 
Q 2622 2603 2622 3003 
Q 2622 3278 2509 3514 
Q 2397 3750 2190 3867 
Q 1984 3984 1722 3984 
Q 1563 3984 1313 3925 
L 1313 2163 
z
" transform="scale(0.015625)"/>
      <path id="TimesNewRomanPSMT-6c" d="M 1184 4444 
L 1184 647 
Q 1184 378 1223 290 
Q 1263 203 1344 158 
Q 1425 113 1647 113 
L 1647 0 
L 244 0 
L 244 113 
Q 441 113 512 153 
Q 584 194 625 287 
Q 666 381 666 647 
L 666 3247 
Q 666 3731 644 3842 
Q 622 3953 573 3993 
Q 525 4034 450 4034 
Q 369 4034 244 3984 
L 191 4094 
L 1044 4444 
L 1184 4444 
z
" transform="scale(0.015625)"/>
      <path id="TimesNewRomanPSMT-2d" d="M 259 1672 
L 1875 1672 
L 1875 1200 
L 259 1200 
L 259 1672 
z
" transform="scale(0.015625)"/>
      <path id="TimesNewRomanPSMT-62" d="M 984 2369 
Q 1400 2947 1881 2947 
Q 2322 2947 2650 2570 
Q 2978 2194 2978 1541 
Q 2978 778 2472 313 
Q 2038 -88 1503 -88 
Q 1253 -88 995 3 
Q 738 94 469 275 
L 469 3241 
Q 469 3728 445 3840 
Q 422 3953 372 3993 
Q 322 4034 247 4034 
Q 159 4034 28 3984 
L -16 4094 
L 844 4444 
L 984 4444 
L 984 2369 
z
M 984 2169 
L 984 456 
Q 1144 300 1314 220 
Q 1484 141 1663 141 
Q 1947 141 2192 453 
Q 2438 766 2438 1363 
Q 2438 1913 2192 2208 
Q 1947 2503 1634 2503 
Q 1469 2503 1303 2419 
Q 1178 2356 984 2169 
z
" transform="scale(0.015625)"/>
      <path id="TimesNewRomanPSMT-6f" d="M 1600 2947 
Q 2250 2947 2644 2453 
Q 2978 2031 2978 1484 
Q 2978 1100 2793 706 
Q 2609 313 2286 112 
Q 1963 -88 1566 -88 
Q 919 -88 538 428 
Q 216 863 216 1403 
Q 216 1797 411 2186 
Q 606 2575 925 2761 
Q 1244 2947 1600 2947 
z
M 1503 2744 
Q 1338 2744 1170 2645 
Q 1003 2547 900 2300 
Q 797 2053 797 1666 
Q 797 1041 1045 587 
Q 1294 134 1700 134 
Q 2003 134 2200 384 
Q 2397 634 2397 1244 
Q 2397 2006 2069 2444 
Q 1847 2744 1503 2744 
z
" transform="scale(0.015625)"/>
      <path id="TimesNewRomanPSMT-77" d="M 41 2863 
L 1241 2863 
L 1241 2747 
Q 1075 2734 1023 2687 
Q 972 2641 972 2553 
Q 972 2456 1025 2319 
L 1638 672 
L 2253 2013 
L 2091 2434 
Q 2016 2622 1894 2694 
Q 1825 2738 1638 2747 
L 1638 2863 
L 3000 2863 
L 3000 2747 
Q 2775 2738 2681 2666 
Q 2619 2616 2619 2506 
Q 2619 2444 2644 2378 
L 3294 734 
L 3897 2319 
Q 3959 2488 3959 2588 
Q 3959 2647 3898 2694 
Q 3838 2741 3659 2747 
L 3659 2863 
L 4563 2863 
L 4563 2747 
Q 4291 2706 4163 2378 
L 3206 -88 
L 3078 -88 
L 2363 1741 
L 1528 -88 
L 1413 -88 
L 494 2319 
Q 403 2547 315 2626 
Q 228 2706 41 2747 
L 41 2863 
z
" transform="scale(0.015625)"/>
      <path id="TimesNewRomanPSMT-6e" d="M 1034 2341 
Q 1538 2947 1994 2947 
Q 2228 2947 2397 2830 
Q 2566 2713 2666 2444 
Q 2734 2256 2734 1869 
L 2734 647 
Q 2734 375 2778 278 
Q 2813 200 2889 156 
Q 2966 113 3172 113 
L 3172 0 
L 1756 0 
L 1756 113 
L 1816 113 
Q 2016 113 2095 173 
Q 2175 234 2206 353 
Q 2219 400 2219 647 
L 2219 1819 
Q 2219 2209 2117 2386 
Q 2016 2563 1775 2563 
Q 1403 2563 1034 2156 
L 1034 647 
Q 1034 356 1069 288 
Q 1113 197 1189 155 
Q 1266 113 1500 113 
L 1500 0 
L 84 0 
L 84 113 
L 147 113 
Q 366 113 442 223 
Q 519 334 519 647 
L 519 1709 
Q 519 2225 495 2337 
Q 472 2450 423 2490 
Q 375 2531 294 2531 
Q 206 2531 84 2484 
L 38 2597 
L 900 2947 
L 1034 2947 
L 1034 2341 
z
" transform="scale(0.015625)"/>
     </defs>
     <use xlink:href="#TimesNewRomanPSMT-50"/>
     <use xlink:href="#TimesNewRomanPSMT-2e" x="44.490234"/>
     <use xlink:href="#TimesNewRomanPSMT-42" x="69.490234"/>
     <use xlink:href="#TimesNewRomanPSMT-61" x="136.189453"/>
     <use xlink:href="#TimesNewRomanPSMT-69" x="180.574219"/>
     <use xlink:href="#TimesNewRomanPSMT-6c" x="208.357422"/>
     <use xlink:href="#TimesNewRomanPSMT-65" x="236.140625"/>
     <use xlink:href="#TimesNewRomanPSMT-79" x="280.525391"/>
     <use xlink:href="#TimesNewRomanPSMT-2d" x="330.525391"/>
     <use xlink:href="#TimesNewRomanPSMT-62" x="363.826172"/>
     <use xlink:href="#TimesNewRomanPSMT-72" x="413.826172"/>
     <use xlink:href="#TimesNewRomanPSMT-6f" x="447.126953"/>
     <use xlink:href="#TimesNewRomanPSMT-77" x="497.126953"/>
     <use xlink:href="#TimesNewRomanPSMT-6e" x="569.34375"/>
    </g>
   </g>
   <g id="text_4">
    <g id="patch_5">
     <path d="M 162.492665 247.765814 
L 305.28954 247.765814 
L 305.28954 217.011908 
L 162.492665 217.011908 
L 162.492665 247.765814 
z
" style="fill: none"/>
    </g>
    <!-- J.Washington -->
    <g transform="translate(166.492665 238.371283)scale(0.25 -0.25)">
     <defs>
      <path id="TimesNewRomanPSMT-68" d="M 1041 4444 
L 1041 2350 
Q 1388 2731 1591 2839 
Q 1794 2947 1997 2947 
Q 2241 2947 2416 2812 
Q 2591 2678 2675 2391 
Q 2734 2191 2734 1659 
L 2734 647 
Q 2734 375 2778 275 
Q 2809 200 2884 156 
Q 2959 113 3159 113 
L 3159 0 
L 1753 0 
L 1753 113 
L 1819 113 
Q 2019 113 2097 173 
Q 2175 234 2206 353 
Q 2216 403 2216 647 
L 2216 1659 
Q 2216 2128 2167 2275 
Q 2119 2422 2012 2495 
Q 1906 2569 1756 2569 
Q 1603 2569 1437 2487 
Q 1272 2406 1041 2159 
L 1041 647 
Q 1041 353 1073 281 
Q 1106 209 1195 161 
Q 1284 113 1503 113 
L 1503 0 
L 84 0 
L 84 113 
Q 275 113 384 172 
Q 447 203 484 290 
Q 522 378 522 647 
L 522 3238 
Q 522 3728 498 3840 
Q 475 3953 426 3993 
Q 378 4034 297 4034 
Q 231 4034 84 3984 
L 41 4094 
L 897 4444 
L 1041 4444 
z
" transform="scale(0.015625)"/>
      <path id="TimesNewRomanPSMT-67" d="M 966 1044 
Q 703 1172 562 1401 
Q 422 1631 422 1909 
Q 422 2334 742 2640 
Q 1063 2947 1563 2947 
Q 1972 2947 2272 2747 
L 2878 2747 
Q 3013 2747 3034 2739 
Q 3056 2731 3066 2713 
Q 3084 2684 3084 2613 
Q 3084 2531 3069 2500 
Q 3059 2484 3036 2475 
Q 3013 2466 2878 2466 
L 2506 2466 
Q 2681 2241 2681 1891 
Q 2681 1491 2375 1206 
Q 2069 922 1553 922 
Q 1341 922 1119 984 
Q 981 866 932 777 
Q 884 688 884 625 
Q 884 572 936 522 
Q 988 472 1138 450 
Q 1225 438 1575 428 
Q 2219 413 2409 384 
Q 2700 344 2873 169 
Q 3047 -6 3047 -263 
Q 3047 -616 2716 -925 
Q 2228 -1381 1444 -1381 
Q 841 -1381 425 -1109 
Q 191 -953 191 -784 
Q 191 -709 225 -634 
Q 278 -519 444 -313 
Q 466 -284 763 25 
Q 600 122 533 198 
Q 466 275 466 372 
Q 466 481 555 628 
Q 644 775 966 1044 
z
M 1509 2797 
Q 1278 2797 1122 2612 
Q 966 2428 966 2047 
Q 966 1553 1178 1281 
Q 1341 1075 1591 1075 
Q 1828 1075 1981 1253 
Q 2134 1431 2134 1813 
Q 2134 2309 1919 2591 
Q 1759 2797 1509 2797 
z
M 934 0 
Q 788 -159 713 -296 
Q 638 -434 638 -550 
Q 638 -700 819 -813 
Q 1131 -1006 1722 -1006 
Q 2284 -1006 2551 -807 
Q 2819 -609 2819 -384 
Q 2819 -222 2659 -153 
Q 2497 -84 2016 -72 
Q 1313 -53 934 0 
z
" transform="scale(0.015625)"/>
     </defs>
     <use xlink:href="#TimesNewRomanPSMT-4a"/>
     <use xlink:href="#TimesNewRomanPSMT-2e" x="38.916016"/>
     <use xlink:href="#TimesNewRomanPSMT-57" x="63.916016"/>
     <use xlink:href="#TimesNewRomanPSMT-61" x="150.300781"/>
     <use xlink:href="#TimesNewRomanPSMT-73" x="194.685547"/>
     <use xlink:href="#TimesNewRomanPSMT-68" x="233.601562"/>
     <use xlink:href="#TimesNewRomanPSMT-69" x="283.601562"/>
     <use xlink:href="#TimesNewRomanPSMT-6e" x="311.384766"/>
     <use xlink:href="#TimesNewRomanPSMT-67" x="361.384766"/>
     <use xlink:href="#TimesNewRomanPSMT-74" x="411.384766"/>
     <use xlink:href="#TimesNewRomanPSMT-6f" x="439.167969"/>
     <use xlink:href="#TimesNewRomanPSMT-6e" x="489.167969"/>
    </g>
   </g>
   <g id="text_5">
    <g id="patch_6">
     <path d="M 126.976144 202.504876 
L 249.933175 202.504876 
L 249.933175 171.797844 
L 126.976144 171.797844 
L 126.976144 202.504876 
z
" style="fill: none"/>
    </g>
    <!-- K.Williams -->
    <g transform="translate(130.976144 193.157219)scale(0.25 -0.25)">
     <defs>
      <path id="TimesNewRomanPSMT-4b" d="M 1913 2350 
L 3475 797 
Q 3859 413 4131 273 
Q 4403 134 4675 116 
L 4675 0 
L 2659 0 
L 2659 116 
Q 2841 116 2920 177 
Q 3000 238 3000 313 
Q 3000 388 2970 447 
Q 2941 506 2775 669 
L 1313 2116 
L 1313 750 
Q 1313 428 1353 325 
Q 1384 247 1484 191 
Q 1619 116 1769 116 
L 1913 116 
L 1913 0 
L 106 0 
L 106 116 
L 256 116 
Q 519 116 638 269 
Q 713 369 713 750 
L 713 3488 
Q 713 3809 672 3916 
Q 641 3991 544 4047 
Q 406 4122 256 4122 
L 106 4122 
L 106 4238 
L 1913 4238 
L 1913 4122 
L 1769 4122 
Q 1622 4122 1484 4050 
Q 1388 4000 1350 3900 
Q 1313 3800 1313 3488 
L 1313 2191 
Q 1375 2250 1741 2588 
Q 2669 3438 2863 3722 
Q 2947 3847 2947 3941 
Q 2947 4013 2881 4067 
Q 2816 4122 2659 4122 
L 2563 4122 
L 2563 4238 
L 4119 4238 
L 4119 4122 
Q 3981 4119 3868 4084 
Q 3756 4050 3593 3951 
Q 3431 3853 3194 3634 
Q 3125 3572 2559 2994 
L 1913 2350 
z
" transform="scale(0.015625)"/>
      <path id="TimesNewRomanPSMT-6d" d="M 1050 2338 
Q 1363 2650 1419 2697 
Q 1559 2816 1721 2881 
Q 1884 2947 2044 2947 
Q 2313 2947 2506 2790 
Q 2700 2634 2766 2338 
Q 3088 2713 3309 2830 
Q 3531 2947 3766 2947 
Q 3994 2947 4170 2830 
Q 4347 2713 4450 2447 
Q 4519 2266 4519 1878 
L 4519 647 
Q 4519 378 4559 278 
Q 4591 209 4675 161 
Q 4759 113 4950 113 
L 4950 0 
L 3538 0 
L 3538 113 
L 3597 113 
Q 3781 113 3884 184 
Q 3956 234 3988 344 
Q 4000 397 4000 647 
L 4000 1878 
Q 4000 2228 3916 2372 
Q 3794 2572 3525 2572 
Q 3359 2572 3192 2489 
Q 3025 2406 2788 2181 
L 2781 2147 
L 2788 2013 
L 2788 647 
Q 2788 353 2820 281 
Q 2853 209 2943 161 
Q 3034 113 3253 113 
L 3253 0 
L 1806 0 
L 1806 113 
Q 2044 113 2133 169 
Q 2222 225 2256 338 
Q 2272 391 2272 647 
L 2272 1878 
Q 2272 2228 2169 2381 
Q 2031 2581 1784 2581 
Q 1616 2581 1450 2491 
Q 1191 2353 1050 2181 
L 1050 647 
Q 1050 366 1089 281 
Q 1128 197 1204 155 
Q 1281 113 1516 113 
L 1516 0 
L 100 0 
L 100 113 
Q 297 113 375 155 
Q 453 197 493 289 
Q 534 381 534 647 
L 534 1741 
Q 534 2213 506 2350 
Q 484 2453 437 2492 
Q 391 2531 309 2531 
Q 222 2531 100 2484 
L 53 2597 
L 916 2947 
L 1050 2947 
L 1050 2338 
z
" transform="scale(0.015625)"/>
     </defs>
     <use xlink:href="#TimesNewRomanPSMT-4b"/>
     <use xlink:href="#TimesNewRomanPSMT-2e" x="72.216797"/>
     <use xlink:href="#TimesNewRomanPSMT-57" x="97.216797"/>
     <use xlink:href="#TimesNewRomanPSMT-69" x="187.601562"/>
     <use xlink:href="#TimesNewRomanPSMT-6c" x="215.384766"/>
     <use xlink:href="#TimesNewRomanPSMT-6c" x="243.167969"/>
     <use xlink:href="#TimesNewRomanPSMT-69" x="270.951172"/>
     <use xlink:href="#TimesNewRomanPSMT-61" x="298.734375"/>
     <use xlink:href="#TimesNewRomanPSMT-6d" x="343.119141"/>
     <use xlink:href="#TimesNewRomanPSMT-73" x="420.902344"/>
    </g>
   </g>
   <g id="text_6">
    <g id="patch_7">
     <path d="M 178.128259 182.52366 
L 265.100915 182.52366 
L 265.100915 151.816629 
L 178.128259 151.816629 
L 178.128259 182.52366 
z
" style="fill: none"/>
    </g>
    <!-- M.Tune -->
    <g transform="translate(182.128259 173.176004)scale(0.25 -0.25)">
     <defs>
      <path id="TimesNewRomanPSMT-54" d="M 3703 4238 
L 3750 3244 
L 3631 3244 
Q 3597 3506 3538 3619 
Q 3441 3800 3280 3886 
Q 3119 3972 2856 3972 
L 2259 3972 
L 2259 734 
Q 2259 344 2344 247 
Q 2463 116 2709 116 
L 2856 116 
L 2856 0 
L 1059 0 
L 1059 116 
L 1209 116 
Q 1478 116 1591 278 
Q 1659 378 1659 734 
L 1659 3972 
L 1150 3972 
Q 853 3972 728 3928 
Q 566 3869 450 3700 
Q 334 3531 313 3244 
L 194 3244 
L 244 4238 
L 3703 4238 
z
" transform="scale(0.015625)"/>
      <path id="TimesNewRomanPSMT-75" d="M 2709 2863 
L 2709 1128 
Q 2709 631 2732 520 
Q 2756 409 2807 365 
Q 2859 322 2928 322 
Q 3025 322 3147 375 
L 3191 266 
L 2334 -88 
L 2194 -88 
L 2194 519 
Q 1825 119 1631 15 
Q 1438 -88 1222 -88 
Q 981 -88 804 51 
Q 628 191 559 409 
Q 491 628 491 1028 
L 491 2306 
Q 491 2509 447 2587 
Q 403 2666 317 2708 
Q 231 2750 6 2747 
L 6 2863 
L 1009 2863 
L 1009 947 
Q 1009 547 1148 422 
Q 1288 297 1484 297 
Q 1619 297 1789 381 
Q 1959 466 2194 703 
L 2194 2325 
Q 2194 2569 2105 2655 
Q 2016 2741 1734 2747 
L 1734 2863 
L 2709 2863 
z
" transform="scale(0.015625)"/>
     </defs>
     <use xlink:href="#TimesNewRomanPSMT-4d"/>
     <use xlink:href="#TimesNewRomanPSMT-2e" x="88.916016"/>
     <use xlink:href="#TimesNewRomanPSMT-54" x="113.916016"/>
     <use xlink:href="#TimesNewRomanPSMT-75" x="171.5"/>
     <use xlink:href="#TimesNewRomanPSMT-6e" x="221.5"/>
     <use xlink:href="#TimesNewRomanPSMT-65" x="271.5"/>
    </g>
   </g>
   <g id="text_7">
    <g id="patch_8">
     <path d="M 47.883131 179.140129 
L 148.234694 179.140129 
L 148.234694 148.433098 
L 47.883131 148.433098 
L 47.883131 179.140129 
z
" style="fill: none"/>
    </g>
    <!-- R.Barnes -->
    <g transform="translate(51.883131 169.792473)scale(0.25 -0.25)">
     <defs>
      <path id="TimesNewRomanPSMT-52" d="M 4325 0 
L 3194 0 
L 1759 1981 
Q 1600 1975 1500 1975 
Q 1459 1975 1412 1976 
Q 1366 1978 1316 1981 
L 1316 750 
Q 1316 350 1403 253 
Q 1522 116 1759 116 
L 1925 116 
L 1925 0 
L 109 0 
L 109 116 
L 269 116 
Q 538 116 653 291 
Q 719 388 719 750 
L 719 3488 
Q 719 3888 631 3984 
Q 509 4122 269 4122 
L 109 4122 
L 109 4238 
L 1653 4238 
Q 2328 4238 2648 4139 
Q 2969 4041 3192 3777 
Q 3416 3513 3416 3147 
Q 3416 2756 3161 2468 
Q 2906 2181 2372 2063 
L 3247 847 
Q 3547 428 3762 290 
Q 3978 153 4325 116 
L 4325 0 
z
M 1316 2178 
Q 1375 2178 1419 2176 
Q 1463 2175 1491 2175 
Q 2097 2175 2405 2437 
Q 2713 2700 2713 3106 
Q 2713 3503 2464 3751 
Q 2216 4000 1806 4000 
Q 1625 4000 1316 3941 
L 1316 2178 
z
" transform="scale(0.015625)"/>
     </defs>
     <use xlink:href="#TimesNewRomanPSMT-52"/>
     <use xlink:href="#TimesNewRomanPSMT-2e" x="66.699219"/>
     <use xlink:href="#TimesNewRomanPSMT-42" x="91.699219"/>
     <use xlink:href="#TimesNewRomanPSMT-61" x="158.398438"/>
     <use xlink:href="#TimesNewRomanPSMT-72" x="202.783203"/>
     <use xlink:href="#TimesNewRomanPSMT-6e" x="236.083984"/>
     <use xlink:href="#TimesNewRomanPSMT-65" x="286.083984"/>
     <use xlink:href="#TimesNewRomanPSMT-73" x="330.46875"/>
    </g>
   </g>
   <g id="text_8">
    <g id="patch_9">
     <path d="M 410.99487 309.486902 
L 475.940183 309.486902 
L 475.940183 278.779871 
L 410.99487 278.779871 
L 410.99487 309.486902 
z
" style="fill: none"/>
    </g>
    <!-- Kristi -->
    <g transform="translate(414.99487 300.139246)scale(0.25 -0.25)">
     <use xlink:href="#TimesNewRomanPSMT-4b"/>
     <use xlink:href="#TimesNewRomanPSMT-72" x="72.216797"/>
     <use xlink:href="#TimesNewRomanPSMT-69" x="105.517578"/>
     <use xlink:href="#TimesNewRomanPSMT-73" x="133.300781"/>
     <use xlink:href="#TimesNewRomanPSMT-74" x="172.216797"/>
     <use xlink:href="#TimesNewRomanPSMT-69" x="200"/>
    </g>
   </g>
   <g id="text_9">
    <g id="patch_10">
     <path d="M 424.61298 271.324356 
L 506.902042 271.324356 
L 506.902042 240.617325 
L 424.61298 240.617325 
L 424.61298 271.324356 
z
" style="fill: none"/>
    </g>
    <!-- L.Ernst -->
    <g transform="translate(428.61298 261.9767)scale(0.25 -0.25)">
     <defs>
      <path id="TimesNewRomanPSMT-4c" d="M 3669 1172 
L 3772 1150 
L 3409 0 
L 128 0 
L 128 116 
L 288 116 
Q 556 116 672 291 
Q 738 391 738 753 
L 738 3488 
Q 738 3884 650 3984 
Q 528 4122 288 4122 
L 128 4122 
L 128 4238 
L 2047 4238 
L 2047 4122 
Q 1709 4125 1573 4059 
Q 1438 3994 1388 3894 
Q 1338 3794 1338 3416 
L 1338 753 
Q 1338 494 1388 397 
Q 1425 331 1503 300 
Q 1581 269 1991 269 
L 2300 269 
Q 2788 269 2984 341 
Q 3181 413 3343 595 
Q 3506 778 3669 1172 
z
" transform="scale(0.015625)"/>
      <path id="TimesNewRomanPSMT-45" d="M 1338 4006 
L 1338 2331 
L 2269 2331 
Q 2631 2331 2753 2441 
Q 2916 2584 2934 2947 
L 3050 2947 
L 3050 1472 
L 2934 1472 
Q 2891 1781 2847 1869 
Q 2791 1978 2662 2040 
Q 2534 2103 2269 2103 
L 1338 2103 
L 1338 706 
Q 1338 425 1363 364 
Q 1388 303 1450 267 
Q 1513 231 1688 231 
L 2406 231 
Q 2766 231 2928 281 
Q 3091 331 3241 478 
Q 3434 672 3638 1063 
L 3763 1063 
L 3397 0 
L 131 0 
L 131 116 
L 281 116 
Q 431 116 566 188 
Q 666 238 702 338 
Q 738 438 738 747 
L 738 3500 
Q 738 3903 656 3997 
Q 544 4122 281 4122 
L 131 4122 
L 131 4238 
L 3397 4238 
L 3444 3309 
L 3322 3309 
Q 3256 3644 3176 3769 
Q 3097 3894 2941 3959 
Q 2816 4006 2500 4006 
L 1338 4006 
z
" transform="scale(0.015625)"/>
     </defs>
     <use xlink:href="#TimesNewRomanPSMT-4c"/>
     <use xlink:href="#TimesNewRomanPSMT-2e" x="61.083984"/>
     <use xlink:href="#TimesNewRomanPSMT-45" x="86.083984"/>
     <use xlink:href="#TimesNewRomanPSMT-72" x="147.167969"/>
     <use xlink:href="#TimesNewRomanPSMT-6e" x="180.46875"/>
     <use xlink:href="#TimesNewRomanPSMT-73" x="230.46875"/>
     <use xlink:href="#TimesNewRomanPSMT-74" x="269.384766"/>
    </g>
   </g>
  </g>
 </g>
 <defs>
  <clipPath id="pf80e96aa1f">
   <rect x="7.2" y="7.2" width="446.4" height="443.52"/>
  </clipPath>
 </defs>
</svg>
