<?xml version="1.0" encoding="UTF-8" standalone="no"?>
<svg
   width="528.372582pt"
   height="457.92pt"
   viewBox="0 0 528.372582 457.92"
   version="1.1"
   id="svg39040"
   sodipodi:docname="naive_nbr3.svg"
   inkscape:version="1.2.1 (9c6d41e410, 2022-07-14)"
   xmlns:inkscape="http://www.inkscape.org/namespaces/inkscape"
   xmlns:sodipodi="http://sodipodi.sourceforge.net/DTD/sodipodi-0.dtd"
   xmlns:xlink="http://www.w3.org/1999/xlink"
   xmlns="http://www.w3.org/2000/svg"
   xmlns:svg="http://www.w3.org/2000/svg"
   xmlns:rdf="http://www.w3.org/1999/02/22-rdf-syntax-ns#"
   xmlns:cc="http://creativecommons.org/ns#"
   xmlns:dc="http://purl.org/dc/elements/1.1/">
  <sodipodi:namedview
     id="namedview39042"
     pagecolor="#ffffff"
     bordercolor="#000000"
     borderopacity="0.25"
     inkscape:showpageshadow="2"
     inkscape:pageopacity="0.0"
     inkscape:pagecheckerboard="0"
     inkscape:deskcolor="#d1d1d1"
     inkscape:document-units="pt"
     showgrid="false"
     inkscape:zoom="0.92537997"
     inkscape:cx="359.31186"
     inkscape:cy="272.32057"
     inkscape:window-width="1366"
     inkscape:window-height="705"
     inkscape:window-x="-8"
     inkscape:window-y="-8"
     inkscape:window-maximized="1"
     inkscape:current-layer="g10105" />
  <metadata
     id="metadata38730">
    <rdf:RDF>
      <cc:Work>
        <dc:type
           rdf:resource="http://purl.org/dc/dcmitype/StillImage" />
        <dc:date>2022-12-05T21:35:45.941533</dc:date>
        <dc:format>image/svg+xml</dc:format>
        <dc:creator>
          <cc:Agent>
            <dc:title>Matplotlib v3.5.2, https://matplotlib.org/</dc:title>
          </cc:Agent>
        </dc:creator>
      </cc:Work>
    </rdf:RDF>
  </metadata>
  <defs
     id="defs38734">
    <style
       type="text/css"
       id="style38732">*{stroke-linejoin: round; stroke-linecap: butt}</style>
  </defs>
  <g
     id="figure_1">
    <g
       id="axes_1">
      <g
         id="PolyCollection_1">
        <path
           d="M 128.64674 245.865282  L 128.161793 249.548822  L 128.64674 253.232363  L 130.068534 256.664876  L 132.330281 259.612442  L 135.277847 261.874189  L 138.71036 263.295983  L 142.393901 263.78093  L 146.077441 263.295983  L 230.747576 231.419388  L 234.180089 229.997594  L 237.127655 227.735847  L 239.389402 224.788281  L 240.811196 221.355768  L 241.296143 217.672227  L 240.811196 213.988687  L 239.389402 210.556173  L 237.127655 207.608607  L 172.069929 154.917136  L 169.122363 152.655389  L 165.689849 151.233595  L 162.006309 150.748648  L 158.322768 151.233595  L 154.890255 152.655389  L 151.942689 154.917136  L 149.680942 157.864702  L 148.259148 161.297215  z "
           clip-path="url(#pc39d38f1dc)"
           style="fill:#7e70ff;fill-opacity:0.5284974;stroke:#000000;stroke-width:0.5"
           id="path38739" />
        <path
           d="m 333.07715,228.42205 -101.10173,-29.07937 -4.91139,-0.6466 -4.91138,0.6466 -4.57669,1.89572 -3.93009,3.01567 -3.01566,3.93008 -1.89572,4.57669 -0.6466,4.91139 0.6466,4.91138 11.61142,47.13073 6.51327,22.16441 1.42179,3.43251 2.26175,2.94757 2.94757,2.26174 3.43251,1.4218 3.68354,0.48495 3.68354,-0.48495 3.43251,-1.4218 88.78727,-46.02599 2.94757,-2.26175 2.26175,-2.94757 1.42179,-3.43251 0.48495,-3.68354 -0.48495,-3.68354 -1.42179,-3.43251 -2.26175,-2.94757 -2.94757,-2.26175 z"
           clip-path="url(#pc39d38f1dc)"
           style="fill:#ffff00;fill-opacity:0.5;stroke:#000000;stroke-width:0.5"
           id="path38741"
           transform="matrix(1.0415584,0,0,1.1246088,-12.679886,-24.73838)" />
        <path
           d="m 415.39344,206.28053 -90.91122,17.55913 -4.57668,1.89573 -3.93009,3.01566 -3.01566,3.93009 -1.89573,4.57668 -0.64659,4.91139 0.64659,4.91139 1.89573,4.57668 3.01566,3.93009 3.93009,3.01566 4.57668,1.89573 4.91139,0.64659 4.91139,-0.64659 88.45552,-26.72391 3.43252,-1.42179 2.94756,-2.26175 2.26175,-2.94757 1.42179,-3.43251 0.48495,-3.68354 -0.48495,-3.68354 -1.42179,-3.43252 -2.26175,-2.94756 -2.94756,-2.26175 -3.43252,-1.42179 -3.68354,-0.48495 z"
           clip-path="url(#pc39d38f1dc)"
           style="fill:#ff4343;fill-opacity:0.507772;stroke:#000000;stroke-width:0.5"
           id="path38743"
           transform="translate(6,-4.5)" />
        <path
           d="m 142.3939,230.57268 -100.670883,-6.70346 -3.683541,0.48495 -3.432513,1.4218 -2.947566,2.26174 -2.261747,2.94757 -1.421794,3.43251 -0.484947,3.68354 2.869126,43.56009 0.484947,3.68354 1.421794,3.43252 2.261747,2.94756 2.947566,2.26175 3.432513,1.42179 3.683541,0.48495 3.68354,-0.48495 99.029607,-27.53021 4.57668,-1.89573 3.93009,-3.01566 3.01566,-3.93009 1.89573,-4.57668 0.64659,-4.91139 -0.64659,-4.91139 -1.89573,-4.57668 -3.01566,-3.93009 -3.93009,-3.01566 -4.57668,-1.89573 z"
           clip-path="url(#pc39d38f1dc)"
           style="fill:#01ff01;fill-opacity:0.51295334;stroke:#000000;stroke-width:0.5"
           id="path38745"
           transform="translate(4.5,-3)" />
        <path
           d="m 243.58114,249.59698 -4.57668,-1.89572 -90.47133,-21.06437 -6.13923,-0.80825 -6.13923,0.80825 -5.72086,2.36965 -4.91261,3.76958 -3.76958,4.91261 -2.36965,5.72086 -0.80825,6.13923 0.80825,6.13924 2.36965,5.72085 3.76958,4.91261 4.91261,3.76958 5.72086,2.36966 99.44028,34.064 4.91139,0.64659 4.91139,-0.64659 4.57668,-1.89573 3.93009,-3.01566 3.01566,-3.93009 1.89573,-4.57668 0.64659,-4.91139 -0.64659,-4.91139 -6.51327,-22.1644 -1.89573,-4.57669 -3.01566,-3.93009 z"
           clip-path="url(#pc39d38f1dc)"
           style="fill:#00ffe3;fill-opacity:0.5;stroke:#000000;stroke-width:0.5"
           id="path38747"
           transform="matrix(0.80994311,0,0,1.1121763,40.264716,-21.536556)" />
      </g>
      <g
         id="PolyCollection_2">
        <path
           d="M 231.808071 217.672227  L 231.646422 216.44438  L 231.172491 215.300209  L 230.418575 214.317687  L 229.436053 213.563772  L 228.291882 213.08984  L 227.064035 212.928191  L 225.836188 213.08984  L 224.692017 213.563772  L 223.709495 214.317687  L 222.95558 215.300209  L 222.481648 216.44438  L 222.319999 217.672227  L 222.481648 218.900074  L 222.95558 220.044245  L 223.709495 221.026767  L 224.692017 221.780683  L 225.836188 222.254614  L 227.064035 222.416263  L 228.291882 222.254614  L 229.436053 221.780683  L 230.418575 221.026767  L 231.172491 220.044245  L 231.646422 218.900074  z "
           clip-path="url(#pc39d38f1dc)"
           style="fill-opacity: 0.5"
           id="path38750" />
        <path
           d="m 147.13794,249.54882 -0.16165,-1.22785 -0.47393,-1.14417 -0.75392,-0.98252 -0.98252,-0.75391 -1.14417,-0.47393 -1.22785,-0.16165 -1.22785,0.16165 -1.14417,0.47393 -0.98252,0.75391 -0.75392,0.98252 -0.47393,1.14417 -0.16165,1.22785 0.16165,1.22785 0.47393,1.14417 0.75392,0.98252 0.98252,0.75392 1.14417,0.47393 1.22785,0.16165 1.22785,-0.16165 1.14417,-0.47393 0.98252,-0.75392 0.75392,-0.98252 0.47393,-1.14417 z"
           clip-path="url(#pc39d38f1dc)"
           style="fill-opacity:0.5"
           id="path38752"
           transform="translate(4.5,-4.5)" />
        <path
           d="M 166.750345 164.980756  L 166.588696 163.752909  L 166.114764 162.608738  L 165.360849 161.626216  L 164.378327 160.8723  L 163.234156 160.398369  L 162.006309 160.23672  L 160.778462 160.398369  L 159.634291 160.8723  L 158.651769 161.626216  L 157.897853 162.608738  L 157.423922 163.752909  L 157.262273 164.980756  L 157.423922 166.208603  L 157.897853 167.352774  L 158.651769 168.335296  L 159.634291 169.089211  L 160.778462 169.563143  L 162.006309 169.724792  L 163.234156 169.563143  L 164.378327 169.089211  L 165.360849 168.335296  L 166.114764 167.352774  L 166.588696 166.208603  z "
           clip-path="url(#pc39d38f1dc)"
           style="fill-opacity: 0.5"
           id="path38754" />
        <path
           d="m 245.35038,288.19521 -0.16165,-1.22785 -0.47393,-1.14417 -0.75392,-0.98252 -0.98252,-0.75392 -1.14417,-0.47393 -1.22785,-0.16165 -1.22785,0.16165 -1.14417,0.47393 -0.98252,0.75392 -0.75392,0.98252 -0.47393,1.14417 -0.16165,1.22785 0.16165,1.22784 0.47393,1.14418 0.75392,0.98252 0.98252,0.75391 1.14417,0.47394 1.22785,0.16164 1.22785,-0.16164 1.14417,-0.47394 0.98252,-0.75391 0.75392,-0.98252 0.47393,-1.14418 z"
           clip-path="url(#pc39d38f1dc)"
           style="fill-opacity:0.5"
           id="path38756"
           transform="translate(3,15)" />
        <path
           d="M 334.137647 242.169211  L 333.975998 240.941364  L 333.502067 239.797193  L 332.748151 238.814671  L 331.765629 238.060755  L 330.621458 237.586824  L 329.393611 237.425175  L 328.165765 237.586824  L 327.021593 238.060755  L 326.039071 238.814671  L 325.285156 239.797193  L 324.811225 240.941364  L 324.649576 242.169211  L 324.811225 243.397057  L 325.285156 244.541229  L 326.039071 245.523751  L 327.021593 246.277666  L 328.165765 246.751597  L 329.393611 246.913247  L 330.621458 246.751597  L 331.765629 246.277666  L 332.748151 245.523751  L 333.502067 244.541229  L 333.975998 243.397057  z "
           clip-path="url(#pc39d38f1dc)"
           style="fill-opacity: 0.5"
           id="path38758" />
        <path
           d="m 238.83711,266.0308 -0.16165,-1.22784 -0.47393,-1.14417 -0.75392,-0.98253 -0.98252,-0.75391 -1.14417,-0.47393 -1.22785,-0.16165 -1.22785,0.16165 -1.14417,0.47393 -0.98252,0.75391 -0.75392,0.98253 -0.47393,1.14417 -0.16165,1.22784 0.16165,1.22785 0.47393,1.14417 0.75392,0.98252 0.98252,0.75392 1.14417,0.47393 1.22785,0.16165 1.22785,-0.16165 1.14417,-0.47393 0.98252,-0.75392 0.75392,-0.98252 0.47393,-1.14417 z"
           clip-path="url(#pc39d38f1dc)"
           style="fill-opacity:0.5"
           id="path38760"
           transform="translate(-13.5,-4.5)" />
        <path
           d="M 423.821019 220.027689  L 423.65937 218.799842  L 423.185439 217.655671  L 422.431523 216.673149  L 421.449001 215.919233  L 420.30483 215.445302  L 419.076983 215.283653  L 417.849136 215.445302  L 416.704965 215.919233  L 415.722443 216.673149  L 414.968527 217.655671  L 414.494596 218.799842  L 414.332947 220.027689  L 414.494596 221.255536  L 414.968527 222.399707  L 415.722443 223.382229  L 416.704965 224.136145  L 417.849136 224.610076  L 419.076983 224.771725  L 420.30483 224.610076  L 421.449001 224.136145  L 422.431523 223.382229  L 423.185439 222.399707  L 423.65937 221.255536  z "
           clip-path="url(#pc39d38f1dc)"
           style="fill-opacity: 0.5"
           id="path38762" />
        <path
           d="M 49.336178 281.661423  L 49.174529 280.433576  L 48.700598 279.289405  L 47.946683 278.306883  L 46.964161 277.552967  L 45.819989 277.079036  L 44.592143 276.917387  L 43.364296 277.079036  L 42.220125 277.552967  L 41.237603 278.306883  L 40.483687 279.289405  L 40.009756 280.433576  L 39.848107 281.661423  L 40.009756 282.88927  L 40.483687 284.033441  L 41.237603 285.015963  L 42.220125 285.769879  L 43.364296 286.24381  L 44.592143 286.405459  L 45.819989 286.24381  L 46.964161 285.769879  L 47.946683 285.015963  L 48.700598 284.033441  L 49.174529 282.88927  z "
           clip-path="url(#pc39d38f1dc)"
           style="fill-opacity: 0.5"
           id="path38764" />
        <path
           d="M 46.467053 238.101333  L 46.305404 236.873486  L 45.831473 235.729315  L 45.077557 234.746793  L 44.095035 233.992877  L 42.950864 233.518946  L 41.723017 233.357297  L 40.49517 233.518946  L 39.350999 233.992877  L 38.368477 234.746793  L 37.614561 235.729315  L 37.14063 236.873486  L 36.978981 238.101333  L 37.14063 239.32918  L 37.614561 240.473351  L 38.368477 241.455873  L 39.350999 242.209789  L 40.49517 242.68372  L 41.723017 242.845369  L 42.950864 242.68372  L 44.095035 242.209789  L 45.077557 241.455873  L 45.831473 240.473351  L 46.305404 239.32918  z "
           clip-path="url(#pc39d38f1dc)"
           style="fill-opacity: 0.5"
           id="path38766" />
      </g>
      <g
         id="text_1"
         transform="rotate(-16.388044,244.67139,201.25524)">
        <g
           id="patch_2">
          <path
             d="m 232.80807,233.02574 h 104.0625 v -30.70703 h -104.0625 z"
             style="fill:none"
             id="path38769" />
        </g>
        <!-- C.Jeffries -->
        <g
           transform="matrix(0.25,0,0,-0.25,236.80807,223.67809)"
           id="g38802">
          <defs
             id="defs38780">
            <path
               id="TimesNewRomanPSMT-43"
               d="m 3853,4334 97,-1440 h -97 q -194,647 -553,931 -359,284 -862,284 -422,0 -763,-214 -341,-214 -536,-683 -195,-468 -195,-1165 0,-575 184,-997 185,-422 555,-647 370,-225 845,-225 413,0 728,176 316,177 694,702 l 97,-62 Q 3728,428 3303,165 2878,-97 2294,-97 1241,-97 663,684 231,1266 231,2053 q 0,635 284,1166 285,531 783,823 499,292 1090,292 459,0 906,-225 131,-68 187,-68 85,0 147,59 81,84 116,234 z"
               transform="scale(0.015625)" />
            <path
               id="TimesNewRomanPSMT-2e"
               d="M 800,606 Q 947,606 1047,504 1147,403 1147,259 1147,116 1045,14 944,-88 800,-88 656,-88 554,14 453,116 453,259 q 0,147 101,247 102,100 246,100 z"
               transform="scale(0.015625)" />
            <path
               id="TimesNewRomanPSMT-4a"
               d="m 638,4122 v 116 h 1815 v -116 h -153 q -259,0 -378,-153 -75,-100 -75,-481 V 1416 Q 1847,938 1742,641 1638,344 1381,123 1125,-97 763,-97 469,-97 300,48 131,194 131,381 q 0,153 78,232 104,96 241,96 100,0 179,-66 80,-65 202,-349 72,-169 185,-169 84,0 157,103 74,103 74,366 v 2894 q 0,321 -41,425 -31,78 -131,134 -134,75 -284,75 z"
               transform="scale(0.015625)" />
            <path
               id="TimesNewRomanPSMT-65"
               d="m 681,1784 q -3,-637 310,-1000 312,-362 734,-362 281,0 489,154 208,155 349,530 l 96,-62 Q 2594,616 2278,264 1963,-88 1488,-88 972,-88 605,314 238,716 238,1394 q 0,734 376,1145 377,411 945,411 482,0 791,-317 309,-317 309,-849 z m 0,182 h 1325 q -15,275 -65,387 -78,175 -233,275 -155,100 -324,100 -259,0 -464,-202 -204,-201 -239,-560 z"
               transform="scale(0.015625)" />
            <path
               id="TimesNewRomanPSMT-66"
               d="M 1319,2638 V 756 q 0,-400 87,-506 116,-137 310,-137 h 259 V 0 H 266 v 113 h 128 q 125,0 228,62 103,63 142,169 39,106 39,412 V 2638 H 247 v 225 h 556 v 187 q 0,428 137,725 138,297 421,480 283,183 636,183 328,0 603,-213 181,-141 181,-316 0,-93 -81,-176 -81,-83 -175,-83 -72,0 -152,51 -79,52 -195,222 -115,171 -212,230 -97,60 -216,60 -144,0 -244,-77 -100,-77 -144,-238 -43,-160 -43,-829 v -206 h 737 v -225 z"
               transform="scale(0.015625)" />
            <path
               id="TimesNewRomanPSMT-72"
               d="m 1038,2947 v -644 q 359,644 737,644 172,0 284,-105 113,-104 113,-242 0,-122 -82,-207 -81,-84 -193,-84 -109,0 -245,108 -136,108 -202,108 -56,0 -122,-62 -140,-129 -290,-422 V 669 q 0,-238 59,-360 41,-84 144,-140 103,-56 297,-56 V 0 H 72 v 113 q 219,0 325,68 78,50 109,160 16,53 16,303 v 1109 q 0,500 -21,595 -20,96 -75,139 -54,44 -135,44 -97,0 -219,-47 l -31,113 865,350 z"
               transform="scale(0.015625)" />
            <path
               id="TimesNewRomanPSMT-69"
               d="m 928,4444 q 131,0 223,-93 93,-92 93,-223 0,-131 -93,-225 -92,-94 -223,-94 -131,0 -225,94 -94,94 -94,225 0,131 92,223 93,93 227,93 z M 1188,2947 V 647 q 0,-269 39,-358 39,-89 115,-133 77,-43 280,-43 V 0 H 231 v 113 q 210,0 281,40 72,41 114,134 43,94 43,360 v 1103 q 0,466 -28,603 -22,100 -69,139 -47,39 -128,39 -88,0 -213,-47 l -43,113 862,350 z"
               transform="scale(0.015625)" />
            <path
               id="TimesNewRomanPSMT-73"
               d="m 2050,2947 v -975 h -103 q -119,459 -305,625 -186,166 -473,166 -219,0 -354,-116 -134,-116 -134,-256 0,-175 100,-300 97,-128 394,-272 l 456,-222 Q 2266,1288 2266,781 2266,391 1970,151 1675,-88 1309,-88 1047,-88 709,6 606,38 541,38 469,38 428,-44 H 325 V 978 H 428 Q 516,541 762,319 1009,97 1316,97 q 215,0 351,126 136,127 136,305 0,216 -152,363 -151,147 -604,372 -453,225 -594,406 -140,178 -140,450 0,353 242,590 242,238 626,238 169,0 410,-72 159,-47 212,-47 50,0 78,22 28,22 66,97 z"
               transform="scale(0.015625)" />
          </defs>
          <use
             xlink:href="#TimesNewRomanPSMT-43"
             id="use38782" />
          <use
             xlink:href="#TimesNewRomanPSMT-2e"
             x="66.699219"
             id="use38784" />
          <use
             xlink:href="#TimesNewRomanPSMT-4a"
             x="91.699219"
             id="use38786" />
          <use
             xlink:href="#TimesNewRomanPSMT-65"
             x="130.61523"
             id="use38788" />
          <use
             xlink:href="#TimesNewRomanPSMT-66"
             x="175"
             id="use38790" />
          <use
             xlink:href="#TimesNewRomanPSMT-66"
             x="206.55078"
             id="use38792" />
          <use
             xlink:href="#TimesNewRomanPSMT-72"
             x="239.85156"
             id="use38794" />
          <use
             xlink:href="#TimesNewRomanPSMT-69"
             x="273.15234"
             id="use38796" />
          <use
             xlink:href="#TimesNewRomanPSMT-65"
             x="300.93555"
             id="use38798" />
          <use
             xlink:href="#TimesNewRomanPSMT-73"
             x="345.32031"
             id="use38800" />
        </g>
      </g>
      <g
         id="text_2"
         transform="rotate(-20.021792,73.440064,299.61515)">
        <g
           id="patch_3">
          <path
             d="M 148.13794,264.90234 H 267.13012 V 234.19531 H 148.13794 Z"
             style="fill:none"
             id="path38805" />
        </g>
        <!-- M.B.Wyatt -->
        <g
           transform="matrix(0.25,0,0,-0.25,152.13794,255.50781)"
           id="g38834">
          <defs
             id="defs38814">
            <path
               id="TimesNewRomanPSMT-4d"
               d="M 2619,0 981,3566 V 734 q 0,-390 85,-487 115,-131 365,-131 h 150 V 0 H 106 v 116 h 150 q 269,0 382,162 68,100 68,456 v 2769 q 0,281 -62,406 -44,91 -161,152 -117,61 -377,61 v 116 H 1306 L 2844,922 4356,4238 h 1200 v -116 h -147 q -271,0 -384,-163 -69,-100 -69,-456 V 734 q 0,-390 88,-487 115,-131 365,-131 h 147 V 0 H 3756 v 116 h 150 q 272,0 382,162 68,100 68,456 V 3566 L 2722,0 Z"
               transform="scale(0.015625)" />
            <path
               id="TimesNewRomanPSMT-42"
               d="m 2956,2163 q 441,-94 660,-300 303,-288 303,-704 0,-315 -200,-604 Q 3519,266 3170,133 2822,0 2106,0 H 106 v 116 h 160 q 265,0 381,168 72,110 72,466 v 2738 q 0,393 -91,496 -122,138 -362,138 H 106 v 116 h 1832 q 512,0 821,-75 469,-113 716,-399 247,-286 247,-658 0,-318 -194,-570 -194,-252 -572,-373 z m -1637,168 q 115,-22 263,-33 149,-10 327,-10 457,0 686,98 230,98 352,301 122,204 122,444 0,372 -303,634 -303,263 -885,263 -312,0 -562,-69 z m 0,-2025 q 362,-84 715,-84 566,0 863,254 297,255 297,630 0,247 -135,475 -134,228 -437,359 -303,132 -750,132 -194,0 -332,-7 -137,-6 -221,-21 z"
               transform="scale(0.015625)" />
            <path
               id="TimesNewRomanPSMT-57"
               d="m 5991,4238 v -116 q -166,0 -269,-60 -103,-59 -197,-221 -62,-110 -197,-522 L 4147,-97 H 4022 L 3056,2613 2097,-97 H 1984 L 725,3422 q -141,394 -178,466 -63,118 -171,176 -107,58 -292,58 v 116 h 1569 v -116 h -75 q -165,0 -253,-75 -87,-75 -87,-181 0,-110 137,-503 l 834,-2379 704,2022 -125,357 -100,284 q -66,156 -147,275 -41,59 -100,100 -78,56 -157,81 -59,19 -187,19 v 116 h 1650 v -116 h -113 q -175,0 -256,-75 -81,-75 -81,-203 0,-160 141,-556 l 812,-2304 806,2335 q 138,387 138,537 0,72 -46,134 -45,63 -114,88 -118,44 -309,44 v 116 z"
               transform="scale(0.015625)" />
            <path
               id="TimesNewRomanPSMT-79"
               d="m 38,2863 h 1334 v -116 h -66 q -140,0 -211,-61 -70,-61 -70,-152 0,-121 103,-337 l 697,-1444 641,1581 q 53,129 53,254 0,56 -22,84 -25,34 -78,54 -53,21 -188,21 v 116 h 932 v -116 q -116,-13 -179,-51 -62,-37 -137,-140 -28,-43 -106,-240 L 1575,-541 q -169,-415 -443,-627 -273,-213 -526,-213 -184,0 -303,106 -119,106 -119,244 0,131 86,211 86,79 236,79 103,0 282,-68 125,-47 156,-47 94,0 204,97 111,96 224,375 L 1575,113 547,2272 q -47,97 -150,241 -78,109 -128,146 -72,50 -231,88 z"
               transform="scale(0.015625)" />
            <path
               id="TimesNewRomanPSMT-61"
               d="M 1822,413 Q 1381,72 1269,19 1100,-59 909,-59 613,-59 420,144 228,347 228,678 q 0,210 94,363 128,212 445,399 317,188 1055,457 v 112 q 0,429 -136,588 -136,159 -395,159 -197,0 -313,-106 -119,-106 -119,-244 l 7,-181 q 0,-144 -74,-222 -73,-78 -192,-78 -116,0 -189,81 -73,82 -73,222 0,269 275,494 275,225 771,225 382,0 625,-128 185,-97 272,-303 57,-135 57,-550 V 994 q 0,-410 15,-502 16,-92 52,-123 36,-31 83,-31 50,0 87,21 66,41 253,229 V 413 q -350,-469 -669,-469 -153,0 -244,106 -90,106 -93,363 z m 0,203 V 1706 Q 1350,1519 1213,1441 966,1303 859,1153 753,1003 753,825 q 0,-225 134,-374 135,-148 310,-148 237,0 625,313 z"
               transform="scale(0.015625)" />
            <path
               id="TimesNewRomanPSMT-74"
               d="m 1031,3803 v -940 h 669 V 2644 H 1031 V 788 q 0,-279 80,-376 80,-96 205,-96 103,0 200,64 97,64 150,189 h 122 Q 1678,263 1478,108 1278,-47 1066,-47 922,-47 784,33 647,113 581,261 516,409 516,719 V 2644 H 63 v 103 q 171,69 351,233 180,164 320,389 72,119 200,434 z"
               transform="scale(0.015625)" />
          </defs>
          <use
             xlink:href="#TimesNewRomanPSMT-4d"
             id="use38816" />
          <use
             xlink:href="#TimesNewRomanPSMT-2e"
             x="88.916016"
             id="use38818" />
          <use
             xlink:href="#TimesNewRomanPSMT-42"
             x="113.91602"
             id="use38820" />
          <use
             xlink:href="#TimesNewRomanPSMT-2e"
             x="180.61523"
             id="use38822" />
          <use
             xlink:href="#TimesNewRomanPSMT-57"
             x="205.61523"
             id="use38824" />
          <use
             xlink:href="#TimesNewRomanPSMT-79"
             x="294"
             id="use38826" />
          <use
             xlink:href="#TimesNewRomanPSMT-61"
             x="344"
             id="use38828" />
          <use
             xlink:href="#TimesNewRomanPSMT-74"
             x="388.38477"
             id="use38830" />
          <use
             xlink:href="#TimesNewRomanPSMT-74"
             x="416.16797"
             id="use38832" />
        </g>
      </g>
      <g
         id="text_4"
         transform="rotate(-26.003327,278.34006,408.08618)">
        <g
           id="patch_5">
          <path
             d="m 246.35038,303.57216 h 142.79687 v -30.7539 H 246.35038 Z"
             style="fill:none"
             id="path38880" />
        </g>
        <!-- J.Washington -->
        <g
           transform="matrix(0.25,0,0,-0.25,250.35038,294.17763)"
           id="g38911">
          <defs
             id="defs38885">
            <path
               id="TimesNewRomanPSMT-68"
               d="M 1041,4444 V 2350 q 347,381 550,489 203,108 406,108 244,0 419,-135 175,-134 259,-421 59,-200 59,-732 V 647 q 0,-272 44,-372 31,-75 106,-119 75,-43 275,-43 V 0 H 1753 v 113 h 66 q 200,0 278,60 78,61 109,180 10,50 10,294 v 1012 q 0,469 -49,616 -48,147 -155,220 -106,74 -256,74 -153,0 -319,-82 -165,-81 -396,-328 V 647 q 0,-294 32,-366 33,-72 122,-120 89,-48 308,-48 V 0 H 84 v 113 q 191,0 300,59 63,31 100,118 38,88 38,357 v 2591 q 0,490 -24,602 -23,113 -72,153 -48,41 -129,41 -66,0 -213,-50 l -43,110 856,350 z"
               transform="scale(0.015625)" />
            <path
               id="TimesNewRomanPSMT-67"
               d="m 966,1044 q -263,128 -404,357 -140,230 -140,508 0,425 320,731 321,307 821,307 409,0 709,-200 h 606 q 135,0 156,-8 22,-8 32,-26 18,-29 18,-100 0,-82 -15,-113 -10,-16 -33,-25 -23,-9 -158,-9 h -372 q 175,-225 175,-575 0,-400 -306,-685 -306,-284 -822,-284 -212,0 -434,62 Q 981,866 932,777 884,688 884,625 q 0,-53 52,-103 52,-50 202,-72 87,-12 437,-22 644,-15 834,-44 291,-40 464,-215 174,-175 174,-432 0,-353 -331,-662 -488,-456 -1272,-456 -603,0 -1019,272 -234,156 -234,325 0,75 34,150 53,115 219,321 22,29 319,338 -163,97 -230,173 -67,77 -67,174 0,109 89,256 89,147 411,416 z m 543,1753 q -231,0 -387,-185 -156,-184 -156,-565 0,-494 212,-766 163,-206 413,-206 237,0 390,178 153,178 153,560 0,496 -215,778 -160,206 -410,206 z M 934,0 q -146,-159 -221,-296 -75,-138 -75,-254 0,-150 181,-263 312,-193 903,-193 562,0 829,199 268,198 268,423 0,162 -160,231 -162,69 -643,81 -703,19 -1082,72 z"
               transform="scale(0.015625)" />
          </defs>
          <use
             xlink:href="#TimesNewRomanPSMT-4a"
             id="use38887" />
          <use
             xlink:href="#TimesNewRomanPSMT-2e"
             x="38.916016"
             id="use38889" />
          <use
             xlink:href="#TimesNewRomanPSMT-57"
             x="63.916016"
             id="use38891" />
          <use
             xlink:href="#TimesNewRomanPSMT-61"
             x="150.30078"
             id="use38893" />
          <use
             xlink:href="#TimesNewRomanPSMT-73"
             x="194.68555"
             id="use38895" />
          <use
             xlink:href="#TimesNewRomanPSMT-68"
             x="233.60156"
             id="use38897" />
          <use
             xlink:href="#TimesNewRomanPSMT-69"
             x="283.60156"
             id="use38899" />
          <use
             xlink:href="#TimesNewRomanPSMT-6e"
             x="311.38477"
             id="use38901" />
          <use
             xlink:href="#TimesNewRomanPSMT-67"
             x="361.38477"
             id="use38903" />
          <use
             xlink:href="#TimesNewRomanPSMT-74"
             x="411.38477"
             id="use38905" />
          <use
             xlink:href="#TimesNewRomanPSMT-6f"
             x="439.16797"
             id="use38907" />
          <use
             xlink:href="#TimesNewRomanPSMT-6e"
             x="489.16797"
             id="use38909" />
        </g>
      </g>
      <g
         id="text_5"
         transform="rotate(-15.011624,453.23206,295.95804)">
        <g
           id="patch_6">
          <path
             d="M 335.13765,257.52273 H 458.09468 V 226.81569 H 335.13765 Z"
             style="fill:none"
             id="path38914" />
        </g>
        <!-- K.Williams -->
        <g
           transform="matrix(0.25,0,0,-0.25,339.13765,248.17507)"
           id="g38941">
          <defs
             id="defs38919">
            <path
               id="TimesNewRomanPSMT-4b"
               d="M 1913,2350 3475,797 Q 3859,413 4131,273 4403,134 4675,116 V 0 H 2659 v 116 q 182,0 261,61 80,61 80,136 0,75 -30,134 -29,59 -195,222 L 1313,2116 V 750 q 0,-322 40,-425 31,-78 131,-134 135,-75 285,-75 h 144 V 0 H 106 v 116 h 150 q 263,0 382,153 75,100 75,481 v 2738 q 0,321 -41,428 -31,75 -128,131 -138,75 -288,75 H 106 v 116 h 1807 v -116 h -144 q -147,0 -285,-72 -96,-50 -134,-150 -37,-100 -37,-412 V 2191 q 62,59 428,397 928,850 1122,1134 84,125 84,219 0,72 -66,126 -65,55 -222,55 h -96 v 116 h 1556 v -116 q -138,-3 -251,-38 -112,-34 -275,-133 -162,-98 -399,-317 -69,-62 -635,-640 z"
               transform="scale(0.015625)" />
            <path
               id="TimesNewRomanPSMT-6d"
               d="m 1050,2338 q 313,312 369,359 140,119 302,184 163,66 323,66 269,0 462,-157 194,-156 260,-452 322,375 543,492 222,117 457,117 228,0 404,-117 177,-117 280,-383 69,-181 69,-569 V 647 q 0,-269 40,-369 32,-69 116,-117 84,-48 275,-48 V 0 H 3538 v 113 h 59 q 184,0 287,71 72,50 104,160 12,53 12,303 v 1231 q 0,350 -84,494 -122,200 -391,200 -166,0 -333,-83 -167,-83 -404,-308 l -7,-34 7,-134 V 647 q 0,-294 32,-366 33,-72 123,-120 91,-48 310,-48 V 0 H 1806 v 113 q 238,0 327,56 89,56 123,169 16,53 16,309 v 1231 q 0,350 -103,503 -138,200 -385,200 -168,0 -334,-90 -259,-138 -400,-310 V 647 q 0,-281 39,-366 39,-84 115,-126 77,-42 312,-42 V 0 H 100 v 113 q 197,0 275,42 78,42 118,134 41,92 41,358 v 1094 q 0,472 -28,609 -22,103 -69,142 -46,39 -128,39 -87,0 -209,-47 l -47,113 863,350 h 134 z"
               transform="scale(0.015625)" />
          </defs>
          <use
             xlink:href="#TimesNewRomanPSMT-4b"
             id="use38921" />
          <use
             xlink:href="#TimesNewRomanPSMT-2e"
             x="72.216797"
             id="use38923" />
          <use
             xlink:href="#TimesNewRomanPSMT-57"
             x="97.216797"
             id="use38925" />
          <use
             xlink:href="#TimesNewRomanPSMT-69"
             x="187.60156"
             id="use38927" />
          <use
             xlink:href="#TimesNewRomanPSMT-6c"
             x="215.38477"
             id="use38929" />
          <use
             xlink:href="#TimesNewRomanPSMT-6c"
             x="243.16797"
             id="use38931" />
          <use
             xlink:href="#TimesNewRomanPSMT-69"
             x="270.95117"
             id="use38933" />
          <use
             xlink:href="#TimesNewRomanPSMT-61"
             x="298.73438"
             id="use38935" />
          <use
             xlink:href="#TimesNewRomanPSMT-6d"
             x="343.11914"
             id="use38937" />
          <use
             xlink:href="#TimesNewRomanPSMT-73"
             x="420.90234"
             id="use38939" />
        </g>
      </g>
      <g
         id="text_6"
         transform="rotate(-22.440224,219.22325,309.28007)">
        <g
           id="patch_7">
          <path
             d="m 239.83711,281.38432 h 86.97265 v -30.70703 h -86.97265 z"
             style="fill:none"
             id="path38944" />
        </g>
        <!-- M.Tune -->
        <g
           transform="matrix(0.25,0,0,-0.25,243.83711,272.03666)"
           id="g38963">
          <defs
             id="defs38949">
            <path
               id="TimesNewRomanPSMT-54"
               d="m 3703,4238 47,-994 h -119 q -34,262 -93,375 -97,181 -258,267 -161,86 -424,86 H 2259 V 734 q 0,-390 85,-487 119,-131 365,-131 h 147 V 0 H 1059 v 116 h 150 q 269,0 382,162 68,100 68,456 V 3972 H 1150 Q 853,3972 728,3928 566,3869 450,3700 334,3531 313,3244 H 194 l 50,994 z"
               transform="scale(0.015625)" />
            <path
               id="TimesNewRomanPSMT-75"
               d="M 2709,2863 V 1128 q 0,-497 23,-608 24,-111 75,-155 52,-43 121,-43 97,0 219,53 L 3191,266 2334,-88 H 2194 V 519 Q 1825,119 1631,15 1438,-88 1222,-88 981,-88 804,51 628,191 559,409 491,628 491,1028 v 1278 q 0,203 -44,281 -44,79 -130,121 -86,42 -311,39 v 116 H 1009 V 947 q 0,-400 139,-525 140,-125 336,-125 135,0 305,84 170,85 405,322 v 1622 q 0,244 -89,330 -89,86 -371,92 v 116 z"
               transform="scale(0.015625)" />
          </defs>
          <use
             xlink:href="#TimesNewRomanPSMT-4d"
             id="use38951" />
          <use
             xlink:href="#TimesNewRomanPSMT-2e"
             x="88.916016"
             id="use38953" />
          <use
             xlink:href="#TimesNewRomanPSMT-54"
             x="113.91602"
             id="use38955" />
          <use
             xlink:href="#TimesNewRomanPSMT-75"
             x="171.5"
             id="use38957" />
          <use
             xlink:href="#TimesNewRomanPSMT-6e"
             x="221.5"
             id="use38959" />
          <use
             xlink:href="#TimesNewRomanPSMT-65"
             x="271.5"
             id="use38961" />
        </g>
      </g>
      <g
         id="text_7"
         transform="rotate(-10.345594,325.71222,583.96033)">
        <g
           id="patch_8">
          <path
             d="M 424.82102,235.3812 H 525.17258 V 204.67417 H 424.82102 Z"
             style="fill:none"
             id="path38966" />
        </g>
        <!-- R.Barnes -->
        <g
           transform="matrix(0.25,0,0,-0.25,428.82102,226.03355)"
           id="g38988">
          <defs
             id="defs38970">
            <path
               id="TimesNewRomanPSMT-52"
               d="M 4325,0 H 3194 L 1759,1981 q -159,-6 -259,-6 -41,0 -88,1 -46,2 -96,5 V 750 q 0,-400 87,-497 119,-137 356,-137 h 166 V 0 H 109 v 116 h 160 q 269,0 384,175 66,97 66,459 v 2738 q 0,400 -88,496 -122,138 -362,138 H 109 v 116 h 1544 q 675,0 995,-99 321,-98 544,-362 224,-264 224,-630 0,-391 -255,-679 -255,-287 -789,-405 L 3247,847 Q 3547,428 3762,290 3978,153 4325,116 Z M 1316,2178 q 59,0 103,-2 44,-1 72,-1 606,0 914,262 308,263 308,669 0,397 -249,645 -248,249 -658,249 -181,0 -490,-59 z"
               transform="scale(0.015625)" />
          </defs>
          <use
             xlink:href="#TimesNewRomanPSMT-52"
             id="use38972" />
          <use
             xlink:href="#TimesNewRomanPSMT-2e"
             x="66.699219"
             id="use38974" />
          <use
             xlink:href="#TimesNewRomanPSMT-42"
             x="91.699219"
             id="use38976" />
          <use
             xlink:href="#TimesNewRomanPSMT-61"
             x="158.39844"
             id="use38978" />
          <use
             xlink:href="#TimesNewRomanPSMT-72"
             x="202.7832"
             id="use38980" />
          <use
             xlink:href="#TimesNewRomanPSMT-6e"
             x="236.08398"
             id="use38982" />
          <use
             xlink:href="#TimesNewRomanPSMT-65"
             x="286.08398"
             id="use38984" />
          <use
             xlink:href="#TimesNewRomanPSMT-73"
             x="330.46875"
             id="use38986" />
        </g>
      </g>
      <g
         id="text_8"
         transform="rotate(-13.4565,48.458658,277.60903)">
        <g
           id="patch_9">
          <path
             d="M 50.336178,297.01494 H 115.28149 V 266.30791 H 50.336178 Z"
             style="fill:none"
             id="path38991" />
        </g>
        <!-- Kristi -->
        <g
           transform="matrix(0.25,0,0,-0.25,54.336178,287.66728)"
           id="g39006">
          <use
             xlink:href="#TimesNewRomanPSMT-4b"
             id="use38994" />
          <use
             xlink:href="#TimesNewRomanPSMT-72"
             x="72.216797"
             id="use38996" />
          <use
             xlink:href="#TimesNewRomanPSMT-69"
             x="105.51758"
             id="use38998" />
          <use
             xlink:href="#TimesNewRomanPSMT-73"
             x="133.30078"
             id="use39000" />
          <use
             xlink:href="#TimesNewRomanPSMT-74"
             x="172.2168"
             id="use39002" />
          <use
             xlink:href="#TimesNewRomanPSMT-69"
             x="200"
             id="use39004" />
        </g>
      </g>
      <g
         id="text_9">
        <g
           id="patch_10">
          <path
             d="M 47.467053 253.454849  L 129.756115 253.454849  L 129.756115 222.747817  L 47.467053 222.747817  L 47.467053 253.454849  z "
             style="fill: none"
             id="path39009" />
        </g>
        <!-- L.Ernst -->
        <g
           transform="translate(51.467053 244.107192)scale(0.25 -0.25)"
           id="g39030">
          <defs
             id="defs39014">
            <path
               id="TimesNewRomanPSMT-4c"
               d="M 3669 1172  L 3772 1150  L 3409 0  L 128 0  L 128 116  L 288 116  Q 556 116 672 291  Q 738 391 738 753  L 738 3488  Q 738 3884 650 3984  Q 528 4122 288 4122  L 128 4122  L 128 4238  L 2047 4238  L 2047 4122  Q 1709 4125 1573 4059  Q 1438 3994 1388 3894  Q 1338 3794 1338 3416  L 1338 753  Q 1338 494 1388 397  Q 1425 331 1503 300  Q 1581 269 1991 269  L 2300 269  Q 2788 269 2984 341  Q 3181 413 3343 595  Q 3506 778 3669 1172  z "
               transform="scale(0.015625)" />
            <path
               id="TimesNewRomanPSMT-45"
               d="M 1338 4006  L 1338 2331  L 2269 2331  Q 2631 2331 2753 2441  Q 2916 2584 2934 2947  L 3050 2947  L 3050 1472  L 2934 1472  Q 2891 1781 2847 1869  Q 2791 1978 2662 2040  Q 2534 2103 2269 2103  L 1338 2103  L 1338 706  Q 1338 425 1363 364  Q 1388 303 1450 267  Q 1513 231 1688 231  L 2406 231  Q 2766 231 2928 281  Q 3091 331 3241 478  Q 3434 672 3638 1063  L 3763 1063  L 3397 0  L 131 0  L 131 116  L 281 116  Q 431 116 566 188  Q 666 238 702 338  Q 738 438 738 747  L 738 3500  Q 738 3903 656 3997  Q 544 4122 281 4122  L 131 4122  L 131 4238  L 3397 4238  L 3444 3309  L 3322 3309  Q 3256 3644 3176 3769  Q 3097 3894 2941 3959  Q 2816 4006 2500 4006  L 1338 4006  z "
               transform="scale(0.015625)" />
          </defs>
          <use
             xlink:href="#TimesNewRomanPSMT-4c"
             id="use39016" />
          <use
             xlink:href="#TimesNewRomanPSMT-2e"
             x="61.083984"
             id="use39018" />
          <use
             xlink:href="#TimesNewRomanPSMT-45"
             x="86.083984"
             id="use39020" />
          <use
             xlink:href="#TimesNewRomanPSMT-72"
             x="147.167969"
             id="use39022" />
          <use
             xlink:href="#TimesNewRomanPSMT-6e"
             x="180.46875"
             id="use39024" />
          <use
             xlink:href="#TimesNewRomanPSMT-73"
             x="230.46875"
             id="use39026" />
          <use
             xlink:href="#TimesNewRomanPSMT-74"
             x="269.384766"
             id="use39028" />
        </g>
      </g>
      <ellipse
         style="fill:#e9e9e9;fill-opacity:0.04663211;stroke:#000000;stroke-width:1.9712;stroke-dasharray:1.9712, 11.8272;stroke-dashoffset:0"
         id="path47287"
         cx="246.69881"
         cy="233.34164"
         rx="229.8109"
         ry="103.88686" />
      <ellipse
         style="fill:none;fill-opacity:0.501961;stroke:#000000;stroke-width:1.947;stroke-dasharray:1.94700003,11.68200016;stroke-dashoffset:0"
         id="ellipse47289"
         cx="189.41014"
         cy="237.98529"
         rx="169.14349"
         ry="88.099945" />
      <g
         id="text_3"
         transform="rotate(-16.461703,231.07274,200.95275)">
        <g
           id="patch_4">
          <path
             d="M 167.75034,180.35771 H 330.58628 V 149.6038 H 167.75034 Z"
             style="fill:none"
             id="path38837" />
        </g>
        <!-- P.Bailey-brown -->
        <g
           transform="matrix(0.25,0,0,-0.25,171.75034,170.96318)"
           id="g38877">
          <defs
             id="defs38847">
            <path
               id="TimesNewRomanPSMT-50"
               d="M 1313,1984 V 750 q 0,-400 87,-497 119,-137 359,-137 h 163 V 0 H 106 v 116 h 160 q 268,0 384,175 63,97 63,459 v 2738 q 0,400 -85,496 -122,138 -362,138 H 106 v 116 h 1553 q 569,0 897,-118 328,-117 553,-395 225,-278 225,-659 0,-519 -342,-844 -342,-325 -967,-325 -153,0 -331,22 -178,22 -381,65 z m 0,179 q 165,-32 293,-48 128,-15 219,-15 325,0 561,251 236,252 236,652 0,275 -113,511 -112,236 -319,353 -206,117 -468,117 -159,0 -409,-59 z"
               transform="scale(0.015625)" />
            <path
               id="TimesNewRomanPSMT-6c"
               d="M 1184,4444 V 647 q 0,-269 39,-357 40,-87 121,-132 81,-45 303,-45 V 0 H 244 v 113 q 197,0 268,40 72,41 113,134 41,94 41,360 v 2600 q 0,484 -22,595 -22,111 -71,151 -48,41 -123,41 -81,0 -206,-50 l -53,110 853,350 z"
               transform="scale(0.015625)" />
            <path
               id="TimesNewRomanPSMT-2d"
               d="M 259,1672 H 1875 V 1200 H 259 Z"
               transform="scale(0.015625)" />
            <path
               id="TimesNewRomanPSMT-62"
               d="m 984,2369 q 416,578 897,578 441,0 769,-377 328,-376 328,-1029 Q 2978,778 2472,313 2038,-88 1503,-88 1253,-88 995,3 738,94 469,275 v 2966 q 0,487 -24,599 -23,113 -73,153 -50,41 -125,41 -88,0 -219,-50 l -44,110 860,350 h 140 z m 0,-200 V 456 q 160,-156 330,-236 170,-79 349,-79 284,0 529,312 246,313 246,910 0,550 -246,845 -245,295 -558,295 -165,0 -331,-84 -125,-63 -319,-250 z"
               transform="scale(0.015625)" />
            <path
               id="TimesNewRomanPSMT-6f"
               d="m 1600,2947 q 650,0 1044,-494 334,-422 334,-969 0,-384 -185,-778 Q 2609,313 2286,112 1963,-88 1566,-88 919,-88 538,428 216,863 216,1403 q 0,394 195,783 195,389 514,575 319,186 675,186 z m -97,-203 q -165,0 -333,-99 -167,-98 -270,-345 -103,-247 -103,-634 0,-625 248,-1079 249,-453 655,-453 303,0 500,250 197,250 197,860 0,762 -328,1200 -222,300 -566,300 z"
               transform="scale(0.015625)" />
            <path
               id="TimesNewRomanPSMT-77"
               d="m 41,2863 h 1200 v -116 q -166,-13 -218,-60 -51,-46 -51,-134 0,-97 53,-234 l 613,-1647 615,1341 -162,421 q -75,188 -197,260 -69,44 -256,53 v 116 h 1362 v -116 q -225,-9 -319,-81 -62,-50 -62,-160 0,-62 25,-128 l 650,-1644 603,1585 q 62,169 62,269 0,59 -61,106 -60,47 -239,53 v 116 h 904 v -116 q -272,-41 -400,-369 L 3206,-88 H 3078 L 2363,1741 1528,-88 H 1413 L 494,2319 q -91,228 -179,307 -87,80 -274,121 z"
               transform="scale(0.015625)" />
            <path
               id="TimesNewRomanPSMT-6e"
               d="m 1034,2341 q 504,606 960,606 234,0 403,-117 169,-117 269,-386 68,-188 68,-575 V 647 q 0,-272 44,-369 35,-78 111,-122 77,-43 283,-43 V 0 H 1756 v 113 h 60 q 200,0 279,60 80,61 111,180 13,47 13,294 v 1172 q 0,390 -102,567 -101,177 -342,177 -372,0 -741,-407 V 647 q 0,-291 35,-359 44,-91 120,-133 77,-42 311,-42 V 0 H 84 v 113 h 63 q 219,0 295,110 77,111 77,424 v 1062 q 0,516 -24,628 -23,113 -72,153 -48,41 -129,41 -88,0 -210,-47 l -46,113 862,350 h 134 z"
               transform="scale(0.015625)" />
          </defs>
          <use
             xlink:href="#TimesNewRomanPSMT-50"
             id="use38849" />
          <use
             xlink:href="#TimesNewRomanPSMT-2e"
             x="44.490234"
             id="use38851" />
          <use
             xlink:href="#TimesNewRomanPSMT-42"
             x="69.490234"
             id="use38853" />
          <use
             xlink:href="#TimesNewRomanPSMT-61"
             x="136.18945"
             id="use38855" />
          <use
             xlink:href="#TimesNewRomanPSMT-69"
             x="180.57422"
             id="use38857" />
          <use
             xlink:href="#TimesNewRomanPSMT-6c"
             x="208.35742"
             id="use38859" />
          <use
             xlink:href="#TimesNewRomanPSMT-65"
             x="236.14062"
             id="use38861" />
          <use
             xlink:href="#TimesNewRomanPSMT-79"
             x="280.52539"
             id="use38863" />
          <use
             xlink:href="#TimesNewRomanPSMT-2d"
             x="330.52539"
             id="use38865" />
          <use
             xlink:href="#TimesNewRomanPSMT-62"
             x="363.82617"
             id="use38867" />
          <use
             xlink:href="#TimesNewRomanPSMT-72"
             x="413.82617"
             id="use38869" />
          <use
             xlink:href="#TimesNewRomanPSMT-6f"
             x="447.12695"
             id="use38871" />
          <use
             xlink:href="#TimesNewRomanPSMT-77"
             x="497.12695"
             id="use38873" />
          <use
             xlink:href="#TimesNewRomanPSMT-6e"
             x="569.34375"
             id="use38875" />
        </g>
      </g>
      <ellipse
         style="fill:none;fill-opacity:0.501961;stroke:#000000;stroke-width:2;stroke-dasharray:2,6;stroke-dashoffset:0"
         id="ellipse47291"
         cx="272.60986"
         cy="251.81622"
         rx="77.891876"
         ry="61.281097" />
    </g>
    <g
       id="g10105"
       transform="matrix(0.72083489,-0.10578348,0.09921478,0.76855905,-15.594313,59.796546)"
       style="stroke-linecap:butt;stroke-linejoin:round">
      <g
         id="g8107"
         transform="translate(-0.57190504,-28.847403)"
         style="stroke-linecap:butt;stroke-linejoin:round">
        <rect
           style="fill:#ff0000;fill-opacity:0.501961;stroke:none;stroke-width:2.83465;stroke-linecap:butt;stroke-linejoin:round;stroke-dasharray:2.83465, 8.50395;stroke-dashoffset:0;stroke-opacity:0.994819"
           id="rect7769"
           width="48.346138"
           height="18.243826"
           x="38.759163"
           y="-5.7155876"
           transform="rotate(7.8368761)" />
        <text
           xml:space="preserve"
           style="font-style:normal;font-weight:normal;font-size:30px;line-height:1.25;font-family:sans-serif;fill:#000000;fill-opacity:1;stroke:none;stroke-width:0.75;stroke-linecap:butt;stroke-linejoin:round"
           x="101.70037"
           y="10.703858"
           id="text7825"
           transform="rotate(7.8368761)"><tspan
             sodipodi:role="line"
             id="tspan7823"
             style="font-style:normal;font-variant:normal;font-weight:normal;font-stretch:normal;font-size:20px;font-family:sans-serif;-inkscape-font-specification:'sans-serif, Normal';font-variant-ligatures:normal;font-variant-caps:normal;font-variant-numeric:normal;font-variant-east-asian:normal;stroke-width:0.75"
             x="101.70037"
             y="10.703858">Sound &amp; your health (e1)</tspan></text>
      </g>
      <g
         id="g8115"
         transform="translate(-3.6398521,-6.5575518)"
         style="stroke-linecap:butt;stroke-linejoin:round">
        <rect
           style="fill:#ffff00;fill-opacity:0.501961;stroke:none;stroke-width:2.83465;stroke-linecap:butt;stroke-linejoin:round;stroke-dasharray:2.83465, 8.50395;stroke-dashoffset:0;stroke-opacity:0.994819"
           id="rect8109"
           width="48.346138"
           height="18.243826"
           x="38.759163"
           y="-5.7155876"
           transform="rotate(7.8368761)" />
        <text
           xml:space="preserve"
           style="font-style:normal;font-weight:normal;font-size:30px;line-height:1.25;font-family:sans-serif;fill:#000000;fill-opacity:1;stroke:none;stroke-width:0.75;stroke-linecap:butt;stroke-linejoin:round"
           x="101.70037"
           y="10.703858"
           id="text8113"
           transform="rotate(7.8368761)"><tspan
             sodipodi:role="line"
             id="tspan8111"
             style="font-style:normal;font-variant:normal;font-weight:normal;font-stretch:normal;font-size:20px;font-family:sans-serif;-inkscape-font-specification:'sans-serif, Normal';font-variant-ligatures:normal;font-variant-caps:normal;font-variant-numeric:normal;font-variant-east-asian:normal;stroke-width:0.75"
             x="101.70037"
             y="10.703858">Spy on Competitor's Traffic Sources to help generate leads (e2)</tspan></text>
      </g>
      <g
         id="g8123"
         transform="translate(-6.7077991,15.732303)"
         style="stroke-linecap:butt;stroke-linejoin:round">
        <rect
           style="fill:#7d6fff;fill-opacity:0.52941179;stroke:none;stroke-width:2.83465;stroke-linecap:butt;stroke-linejoin:round;stroke-dasharray:2.83465, 8.50395;stroke-dashoffset:0;stroke-opacity:0.994819"
           id="rect8117"
           width="48.346138"
           height="18.243826"
           x="38.759163"
           y="-5.7155876"
           transform="rotate(7.8368761)" />
        <text
           xml:space="preserve"
           style="font-style:normal;font-weight:normal;font-size:30px;line-height:1.25;font-family:sans-serif;fill:#000000;fill-opacity:1;stroke:none;stroke-width:0.75;stroke-linecap:butt;stroke-linejoin:round"
           x="101.70037"
           y="10.703858"
           id="text8121"
           transform="rotate(7.8368761)"><tspan
             sodipodi:role="line"
             id="tspan8119"
             style="font-style:normal;font-variant:normal;font-weight:normal;font-stretch:normal;font-size:20px;font-family:sans-serif;-inkscape-font-specification:'sans-serif, Normal';font-variant-ligatures:normal;font-variant-caps:normal;font-variant-numeric:normal;font-variant-east-asian:normal;stroke-width:0.75"
             x="101.70037"
             y="10.703858">Women's business network event (e3)</tspan></text>
      </g>
      <g
         id="g8131"
         transform="translate(-13.143908,62.493159)"
         style="stroke-linecap:butt;stroke-linejoin:round">
        <rect
           style="fill:#00ff00;fill-opacity:0.51372552;stroke:none;stroke-width:2.83465;stroke-linecap:butt;stroke-linejoin:round;stroke-dasharray:2.83465, 8.50395;stroke-dashoffset:0;stroke-opacity:0.994819"
           id="rect8125"
           width="48.346138"
           height="18.243826"
           x="38.759163"
           y="-5.7155876"
           transform="rotate(7.8368761)" />
        <text
           xml:space="preserve"
           style="font-style:normal;font-weight:normal;font-size:30px;line-height:1.25;font-family:sans-serif;fill:#000000;fill-opacity:1;stroke:none;stroke-width:0.75;stroke-linecap:butt;stroke-linejoin:round"
           x="101.70037"
           y="10.703858"
           id="text8129"
           transform="rotate(7.8368761)"><tspan
             sodipodi:role="line"
             id="tspan8127"
             style="font-style:normal;font-variant:normal;font-weight:normal;font-stretch:normal;font-size:20px;font-family:sans-serif;-inkscape-font-specification:'sans-serif, Normal';font-variant-ligatures:normal;font-variant-caps:normal;font-variant-numeric:normal;font-variant-east-asian:normal;stroke-width:0.75"
             x="101.70037"
             y="10.703858">One Dharma Nashv. weekly Meditation (e5)</tspan></text>
      </g>
      <g
         id="g72215"
         transform="translate(-9.9802764,39.508143)"
         style="stroke-linecap:butt;stroke-linejoin:round">
        <rect
           style="fill:#00ffe1;fill-opacity:0.50196081;stroke:none;stroke-width:2.83465;stroke-linecap:butt;stroke-linejoin:round;stroke-dasharray:2.83465, 8.50395;stroke-dashoffset:0;stroke-opacity:0.994819"
           id="rect72209"
           width="48.346138"
           height="18.243826"
           x="38.759163"
           y="-5.7155876"
           transform="rotate(7.8368761)" />
        <text
           xml:space="preserve"
           style="font-style:normal;font-weight:normal;font-size:30px;line-height:1.25;font-family:sans-serif;fill:#000000;fill-opacity:1;stroke:none;stroke-width:0.75;stroke-linecap:butt;stroke-linejoin:round"
           x="101.70037"
           y="10.703858"
           id="text72213"
           transform="rotate(7.8368761)"><tspan
             sodipodi:role="line"
             id="tspan72211"
             style="font-style:normal;font-variant:normal;font-weight:normal;font-stretch:normal;font-size:20px;font-family:sans-serif;-inkscape-font-specification:'sans-serif, Normal';font-variant-ligatures:normal;font-variant-caps:normal;font-variant-numeric:normal;font-variant-east-asian:normal;stroke-width:0.75"
             x="101.70037"
             y="10.703858">How to promote your blog to make $10K/month (e4)</tspan></text>
      </g>
    </g>
  </g>
  <defs
     id="defs39038">
    <clipPath
       id="pc39d38f1dc">
      <rect
         x="7.2"
         y="7.2"
         width="446.4"
         height="443.52"
         id="rect39035" />
    </clipPath>
  </defs>
</svg>
