<?xml version="1.0" encoding="UTF-8" standalone="no"?>
<svg
   width="510.102042pt"
   height="457.92pt"
   viewBox="0 0 510.102042 457.92"
   version="1.1"
   id="svg1669"
   sodipodi:docname="naive_nbr.svg"
   inkscape:version="1.2.1 (9c6d41e410, 2022-07-14)"
   xmlns:inkscape="http://www.inkscape.org/namespaces/inkscape"
   xmlns:sodipodi="http://sodipodi.sourceforge.net/DTD/sodipodi-0.dtd"
   xmlns:xlink="http://www.w3.org/1999/xlink"
   xmlns="http://www.w3.org/2000/svg"
   xmlns:svg="http://www.w3.org/2000/svg"
   xmlns:rdf="http://www.w3.org/1999/02/22-rdf-syntax-ns#"
   xmlns:cc="http://creativecommons.org/ns#"
   xmlns:dc="http://purl.org/dc/elements/1.1/">
  <sodipodi:namedview
     id="namedview1671"
     pagecolor="#ffffff"
     bordercolor="#000000"
     borderopacity="0.25"
     inkscape:showpageshadow="2"
     inkscape:pageopacity="0.0"
     inkscape:pagecheckerboard="0"
     inkscape:deskcolor="#d1d1d1"
     inkscape:document-units="pt"
     showgrid="false"
     inkscape:zoom="0.82219599"
     inkscape:cx="336.29451"
     inkscape:cy="237.16973"
     inkscape:window-width="1350"
     inkscape:window-height="705"
     inkscape:window-x="117"
     inkscape:window-y="49"
     inkscape:window-maximized="0"
     inkscape:current-layer="g10492" />
  <metadata
     id="metadata1361">
    <rdf:RDF>
      <cc:Work>
        <dc:type
           rdf:resource="http://purl.org/dc/dcmitype/StillImage" />
        <dc:date>2022-12-05T14:38:20.399880</dc:date>
        <dc:format>image/svg+xml</dc:format>
        <dc:creator>
          <cc:Agent>
            <dc:title>Matplotlib v3.5.2, https://matplotlib.org/</dc:title>
          </cc:Agent>
        </dc:creator>
      </cc:Work>
    </rdf:RDF>
  </metadata>
  <defs
     id="defs1365">
    <style
       type="text/css"
       id="style1363">*{stroke-linejoin: round; stroke-linecap: butt}</style>
  </defs>
  <g
     id="figure_1">
    <g
       id="axes_1"
       transform="rotate(-7.8368764,267.07148,228.96)" />
    <text
       xml:space="preserve"
       style="font-style:normal;font-variant:normal;font-weight:bold;font-stretch:normal;font-size:20px;font-family:'Times New Roman';-inkscape-font-specification:'Times New Roman, Bold';font-variant-ligatures:normal;font-variant-caps:normal;font-variant-numeric:normal;font-variant-east-asian:normal;fill:none;stroke:#000000;stroke-width:2.83465;stroke-dasharray:2.83465, 8.50395;stroke-dashoffset:0;stroke-opacity:0.994819"
       x="187.91139"
       y="108.55076"
       id="text4730"><tspan
         sodipodi:role="line"
         id="tspan4728"
         style="stroke-width:2.83465"></tspan></text>
    <text
       xml:space="preserve"
       style="font-style:normal;font-variant:normal;font-weight:bold;font-stretch:normal;font-size:20px;font-family:'Times New Roman';-inkscape-font-specification:'Times New Roman, Bold';font-variant-ligatures:normal;font-variant-caps:normal;font-variant-numeric:normal;font-variant-east-asian:normal;fill:none;stroke:#000000;stroke-width:2.83465;stroke-dasharray:2.83465, 8.50395;stroke-dashoffset:0;stroke-opacity:0.994819"
       x="204.33084"
       y="349.36926"
       id="text4784"><tspan
         sodipodi:role="line"
         id="tspan4782"
         style="stroke-width:2.83465"></tspan></text>
    <g
       id="g10492">
      <g
         id="g17567">
        <g
           id="PolyCollection_1"
           transform="rotate(-7.8368762,267.07151,228.95998)">
          <path
             d="m 225.57313,227.87106 105.84178,32.71779 3.7643,0.49558 3.76431,-0.49558 3.50778,-1.45296 3.01219,-2.31134 2.31134,-3.0122 1.45297,-3.50777 0.49558,-3.76431 -0.49558,-3.76431 -1.45297,-3.50778 -32.71621,-49.5318 -2.31134,-3.0122 -3.01219,-2.31134 -3.50778,-1.45297 -3.76431,-0.49558 -3.7643,0.49558 -73.12557,16.81402 -3.50777,1.45297 -3.0122,2.31134 -2.31134,3.01219 -1.45296,3.50778 -0.49559,3.76431 0.49559,3.7643 1.45296,3.50778 2.31134,3.01219 3.0122,2.31134 z"
             clip-path="url(#pf80e96aa1f)"
             style="fill:#0000ff;fill-opacity:0.5;stroke:#000000;stroke-width:0.5"
             id="path1370" />
          <path
             d="m 146.36033,242.67314 3.0122,2.31134 3.50777,1.45297 3.76431,0.49558 3.76431,-0.49558 73.9476,-13.88353 4.67703,-1.93729 4.01626,-3.08178 3.08179,-4.01626 1.93729,-4.67704 0.66077,-5.01907 -0.66077,-5.01908 -1.93729,-4.67703 -3.08179,-4.01627 -4.01626,-3.08178 -59.48126,-42.45379 -3.50778,-1.45297 -3.76431,-0.49558 -3.7643,0.49558 -51.15212,19.98121 -3.50778,1.45297 -3.01219,2.31134 -2.31134,3.0122 -1.45297,3.50777 -0.49558,3.76431 0.49558,3.76431 1.45297,3.50777 2.31134,3.0122 z"
             clip-path="url(#pf80e96aa1f)"
             style="fill:#ffff00;fill-opacity:0.5;stroke:#000000;stroke-width:0.5"
             id="path1372" />
          <path
             d="m 126.14717,168.41991 -80.347787,-18.68188 -3.764307,-0.49558 -3.764308,0.49558 -3.507776,1.45297 -3.012195,2.31133 -2.311339,3.0122 -1.452968,3.50778 -0.495581,3.7643 0.495581,3.76431 1.452968,3.50778 2.311339,3.01219 3.012195,2.31134 3.507776,1.45297 77.838242,28.04761 5.01908,0.66077 5.01908,-0.66077 4.67703,-1.93729 4.01626,-3.08179 3.08178,-4.01626 1.9373,-4.67703 0.66077,-5.01908 -0.66077,-5.01908 -1.9373,-4.67703 -3.08178,-4.01626 -4.01626,-3.08179 z"
             clip-path="url(#pf80e96aa1f)"
             style="fill:#ff0000;fill-opacity:0.5;stroke:#000000;stroke-width:0.5"
             id="path1374" />
          <path
             d="m 325.4831,263.33442 72.39163,43.39458 3.50778,1.45297 3.7643,0.49558 3.76431,-0.49558 3.50778,-1.45297 3.01219,-2.31133 2.31134,-3.0122 1.45297,-3.50778 13.61811,-38.16254 0.49558,-3.76431 -0.49558,-3.76431 -1.45297,-3.50777 -2.31134,-3.0122 -3.01219,-2.31134 -3.50778,-1.45297 -82.33094,-14.11343 -5.01908,-0.66077 -5.01907,0.66077 -4.67704,1.93729 -4.01626,3.08179 -3.08178,4.01626 -1.93729,4.67703 -0.66078,5.01908 0.66078,5.01907 1.93729,4.67704 3.08178,4.01626 z"
             clip-path="url(#pf80e96aa1f)"
             style="fill:#008000;fill-opacity:0.5;stroke:#000000;stroke-width:0.5"
             id="path1376" />
        </g>
        <g
           id="PolyCollection_2"
           transform="rotate(-7.8368762,267.07151,228.95998)">
          <path
             d="m 234.1855,213.82248 -0.1652,-1.25477 -0.48432,-1.16926 -0.77045,-1.00407 -1.00406,-0.77044 -1.16926,-0.48433 -1.25477,-0.16519 -1.25477,0.16519 -1.16926,0.48433 -1.00406,0.77044 -0.77045,1.00407 -0.48432,1.16926 -0.16519,1.25477 0.16519,1.25477 0.48432,1.16925 0.77045,1.00407 1.00406,0.77045 1.16926,0.48432 1.25477,0.16519 1.25477,-0.16519 1.16926,-0.48432 1.00406,-0.77045 0.77045,-1.00407 0.48432,-1.16925 z"
             clip-path="url(#pf80e96aa1f)"
             style="fill-opacity:0.5"
             id="path1379" />
          <path
             d="m 340.02727,246.54027 -0.16519,-1.25477 -0.48433,-1.16926 -0.77044,-1.00407 -1.00407,-0.77044 -1.16926,-0.48432 -1.25477,-0.1652 -1.25477,0.1652 -1.16925,0.48432 -1.00407,0.77044 -0.77045,1.00407 -0.48432,1.16926 -0.16519,1.25477 0.16519,1.25477 0.48432,1.16926 0.77045,1.00406 1.00407,0.77045 1.16925,0.48432 1.25477,0.16519 1.25477,-0.16519 1.16926,-0.48432 1.00407,-0.77045 0.77044,-1.00406 0.48433,-1.16926 z"
             clip-path="url(#pf80e96aa1f)"
             style="fill-opacity:0.5"
             id="path1381" />
          <path
             d="m 307.31106,197.00846 -0.16519,-1.25477 -0.48433,-1.16926 -0.77044,-1.00406 -1.00407,-0.77045 -1.16926,-0.48432 -1.25477,-0.1652 -1.25477,0.1652 -1.16925,0.48432 -1.00407,0.77045 -0.77045,1.00406 -0.48432,1.16926 -0.16519,1.25477 0.16519,1.25477 0.48432,1.16926 0.77045,1.00406 1.00407,0.77045 1.16925,0.48432 1.25477,0.16519 1.25477,-0.16519 1.16926,-0.48432 1.00407,-0.77045 0.77044,-1.00406 0.48433,-1.16926 z"
             clip-path="url(#pf80e96aa1f)"
             style="fill-opacity:0.5"
             id="path1383" />
          <path
             d="m 161.49266,232.38886 -0.16519,-1.25477 -0.48432,-1.16926 -0.77045,-1.00406 -1.00406,-0.77045 -1.16926,-0.48432 -1.25477,-0.16519 -1.25477,0.16519 -1.16926,0.48432 -1.00406,0.77045 -0.77045,1.00406 -0.48432,1.16926 -0.1652,1.25477 0.1652,1.25477 0.48432,1.16926 0.77045,1.00406 1.00406,0.77045 1.16926,0.48432 1.25477,0.1652 1.25477,-0.1652 1.16926,-0.48432 1.00406,-0.77045 0.77045,-1.00406 0.48432,-1.16926 z"
             clip-path="url(#pf80e96aa1f)"
             style="fill-opacity:0.5"
             id="path1385" />
          <path
             d="m 125.97614,187.15136 -0.16519,-1.25477 -0.48432,-1.16926 -0.77045,-1.00406 -1.00406,-0.77045 -1.16926,-0.48432 -1.25477,-0.1652 -1.25477,0.1652 -1.16926,0.48432 -1.00406,0.77045 -0.77045,1.00406 -0.48432,1.16926 -0.1652,1.25477 0.1652,1.25477 0.48432,1.16926 0.77045,1.00406 1.00406,0.77045 1.16926,0.48432 1.25477,0.1652 1.25477,-0.1652 1.16926,-0.48432 1.00406,-0.77045 0.77045,-1.00406 0.48432,-1.16926 z"
             clip-path="url(#pf80e96aa1f)"
             style="fill-opacity:0.5"
             id="path1387" />
          <path
             d="m 177.12826,167.17014 -0.16519,-1.25476 -0.48433,-1.16926 -0.77044,-1.00407 -1.00407,-0.77045 -1.16926,-0.48432 -1.25477,-0.16519 -1.25477,0.16519 -1.16925,0.48432 -1.00407,0.77045 -0.77045,1.00407 -0.48432,1.16926 -0.16519,1.25476 0.16519,1.25477 0.48432,1.16926 0.77045,1.00407 1.00407,0.77044 1.16925,0.48433 1.25477,0.16519 1.25477,-0.16519 1.16926,-0.48433 1.00407,-0.77044 0.77044,-1.00407 0.48433,-1.16926 z"
             clip-path="url(#pf80e96aa1f)"
             style="fill-opacity:0.5"
             id="path1389" />
          <path
             d="m 46.883131,163.78661 -0.165193,-1.25477 -0.484323,-1.16926 -0.770446,-1.00406 -1.004066,-0.77045 -1.169258,-0.48432 -1.254769,-0.16519 -1.254769,0.16519 -1.169259,0.48432 -1.004065,0.77045 -0.770447,1.00406 -0.484322,1.16926 -0.165194,1.25477 0.165194,1.25477 0.484322,1.16926 0.770447,1.00407 1.004065,0.77044 1.169259,0.48432 1.254769,0.1652 1.254769,-0.1652 1.169258,-0.48432 1.004066,-0.77044 0.770446,-1.00407 0.484323,-1.16926 z"
             clip-path="url(#pf80e96aa1f)"
             style="fill-opacity:0.5"
             id="path1391" />
          <path
             d="m 409.99487,294.13339 -0.16519,-1.25477 -0.48433,-1.16926 -0.77044,-1.00407 -1.00407,-0.77044 -1.16926,-0.48432 -1.25477,-0.1652 -1.25477,0.1652 -1.16925,0.48432 -1.00407,0.77044 -0.77044,1.00407 -0.48433,1.16926 -0.16519,1.25477 0.16519,1.25477 0.48433,1.16925 0.77044,1.00407 1.00407,0.77045 1.16925,0.48432 1.25477,0.16519 1.25477,-0.16519 1.16926,-0.48432 1.00407,-0.77045 0.77044,-1.00407 0.48433,-1.16925 z"
             clip-path="url(#pf80e96aa1f)"
             style="fill-opacity:0.5"
             id="path1393" />
          <path
             d="m 423.61298,255.97084 -0.16519,-1.25477 -0.48433,-1.16926 -0.77044,-1.00406 -1.00407,-0.77045 -1.16926,-0.48432 -1.25477,-0.1652 -1.25477,0.1652 -1.16925,0.48432 -1.00407,0.77045 -0.77044,1.00406 -0.48433,1.16926 -0.16519,1.25477 0.16519,1.25477 0.48433,1.16926 0.77044,1.00406 1.00407,0.77045 1.16925,0.48432 1.25477,0.1652 1.25477,-0.1652 1.16926,-0.48432 1.00407,-0.77045 0.77044,-1.00406 0.48433,-1.16926 z"
             clip-path="url(#pf80e96aa1f)"
             style="fill-opacity:0.5"
             id="path1395" />
        </g>
        <g
           id="text_1"
           transform="rotate(-7.8368762,299.91992,231.20998)">
          <g
             id="patch_2">
            <path
               d="M 235.1855,229.17599 H 339.248 V 198.46896 H 235.1855 Z"
               style="fill:none"
               id="path1398" />
          </g>
          <!-- C.Jeffries -->
          <g
             transform="matrix(0.25,0,0,-0.25,239.1855,219.82834)"
             id="g1431">
            <defs
               id="defs1409">
              <path
                 id="TimesNewRomanPSMT-43"
                 d="m 3853,4334 97,-1440 h -97 q -194,647 -553,931 -359,284 -862,284 -422,0 -763,-214 -341,-214 -536,-683 -195,-468 -195,-1165 0,-575 184,-997 185,-422 555,-647 370,-225 845,-225 413,0 728,176 316,177 694,702 l 97,-62 Q 3728,428 3303,165 2878,-97 2294,-97 1241,-97 663,684 231,1266 231,2053 q 0,635 284,1166 285,531 783,823 499,292 1090,292 459,0 906,-225 131,-68 187,-68 85,0 147,59 81,84 116,234 z"
                 transform="scale(0.015625)" />
              <path
                 id="TimesNewRomanPSMT-2e"
                 d="M 800,606 Q 947,606 1047,504 1147,403 1147,259 1147,116 1045,14 944,-88 800,-88 656,-88 554,14 453,116 453,259 q 0,147 101,247 102,100 246,100 z"
                 transform="scale(0.015625)" />
              <path
                 id="TimesNewRomanPSMT-4a"
                 d="m 638,4122 v 116 h 1815 v -116 h -153 q -259,0 -378,-153 -75,-100 -75,-481 V 1416 Q 1847,938 1742,641 1638,344 1381,123 1125,-97 763,-97 469,-97 300,48 131,194 131,381 q 0,153 78,232 104,96 241,96 100,0 179,-66 80,-65 202,-349 72,-169 185,-169 84,0 157,103 74,103 74,366 v 2894 q 0,321 -41,425 -31,78 -131,134 -134,75 -284,75 z"
                 transform="scale(0.015625)" />
              <path
                 id="TimesNewRomanPSMT-65"
                 d="m 681,1784 q -3,-637 310,-1000 312,-362 734,-362 281,0 489,154 208,155 349,530 l 96,-62 Q 2594,616 2278,264 1963,-88 1488,-88 972,-88 605,314 238,716 238,1394 q 0,734 376,1145 377,411 945,411 482,0 791,-317 309,-317 309,-849 z m 0,182 h 1325 q -15,275 -65,387 -78,175 -233,275 -155,100 -324,100 -259,0 -464,-202 -204,-201 -239,-560 z"
                 transform="scale(0.015625)" />
              <path
                 id="TimesNewRomanPSMT-66"
                 d="M 1319,2638 V 756 q 0,-400 87,-506 116,-137 310,-137 h 259 V 0 H 266 v 113 h 128 q 125,0 228,62 103,63 142,169 39,106 39,412 V 2638 H 247 v 225 h 556 v 187 q 0,428 137,725 138,297 421,480 283,183 636,183 328,0 603,-213 181,-141 181,-316 0,-93 -81,-176 -81,-83 -175,-83 -72,0 -152,51 -79,52 -195,222 -115,171 -212,230 -97,60 -216,60 -144,0 -244,-77 -100,-77 -144,-238 -43,-160 -43,-829 v -206 h 737 v -225 z"
                 transform="scale(0.015625)" />
              <path
                 id="TimesNewRomanPSMT-72"
                 d="m 1038,2947 v -644 q 359,644 737,644 172,0 284,-105 113,-104 113,-242 0,-122 -82,-207 -81,-84 -193,-84 -109,0 -245,108 -136,108 -202,108 -56,0 -122,-62 -140,-129 -290,-422 V 669 q 0,-238 59,-360 41,-84 144,-140 103,-56 297,-56 V 0 H 72 v 113 q 219,0 325,68 78,50 109,160 16,53 16,303 v 1109 q 0,500 -21,595 -20,96 -75,139 -54,44 -135,44 -97,0 -219,-47 l -31,113 865,350 z"
                 transform="scale(0.015625)" />
              <path
                 id="TimesNewRomanPSMT-69"
                 d="m 928,4444 q 131,0 223,-93 93,-92 93,-223 0,-131 -93,-225 -92,-94 -223,-94 -131,0 -225,94 -94,94 -94,225 0,131 92,223 93,93 227,93 z M 1188,2947 V 647 q 0,-269 39,-358 39,-89 115,-133 77,-43 280,-43 V 0 H 231 v 113 q 210,0 281,40 72,41 114,134 43,94 43,360 v 1103 q 0,466 -28,603 -22,100 -69,139 -47,39 -128,39 -88,0 -213,-47 l -43,113 862,350 z"
                 transform="scale(0.015625)" />
              <path
                 id="TimesNewRomanPSMT-73"
                 d="m 2050,2947 v -975 h -103 q -119,459 -305,625 -186,166 -473,166 -219,0 -354,-116 -134,-116 -134,-256 0,-175 100,-300 97,-128 394,-272 l 456,-222 Q 2266,1288 2266,781 2266,391 1970,151 1675,-88 1309,-88 1047,-88 709,6 606,38 541,38 469,38 428,-44 H 325 V 978 H 428 Q 516,541 762,319 1009,97 1316,97 q 215,0 351,126 136,127 136,305 0,216 -152,363 -151,147 -604,372 -453,225 -594,406 -140,178 -140,450 0,353 242,590 242,238 626,238 169,0 410,-72 159,-47 212,-47 50,0 78,22 28,22 66,97 z"
                 transform="scale(0.015625)" />
            </defs>
            <use
               xlink:href="#TimesNewRomanPSMT-43"
               id="use1411" />
            <use
               xlink:href="#TimesNewRomanPSMT-2e"
               x="66.699219"
               id="use1413" />
            <use
               xlink:href="#TimesNewRomanPSMT-4a"
               x="91.699219"
               id="use1415" />
            <use
               xlink:href="#TimesNewRomanPSMT-65"
               x="130.61523"
               id="use1417" />
            <use
               xlink:href="#TimesNewRomanPSMT-66"
               x="175"
               id="use1419" />
            <use
               xlink:href="#TimesNewRomanPSMT-66"
               x="206.55078"
               id="use1421" />
            <use
               xlink:href="#TimesNewRomanPSMT-72"
               x="239.85156"
               id="use1423" />
            <use
               xlink:href="#TimesNewRomanPSMT-69"
               x="273.15234"
               id="use1425" />
            <use
               xlink:href="#TimesNewRomanPSMT-65"
               x="300.93555"
               id="use1427" />
            <use
               xlink:href="#TimesNewRomanPSMT-73"
               x="345.32031"
               id="use1429" />
          </g>
        </g>
        <g
           id="text_2"
           transform="rotate(-7.8368762,101.32947,239.60893)">
          <g
             id="patch_3">
            <path
               d="M 341.02727,261.89378 H 460.01946 V 231.18675 H 341.02727 Z"
               style="fill:none"
               id="path1434" />
          </g>
          <!-- M.B.Wyatt -->
          <g
             transform="matrix(0.25,0,0,-0.25,345.02727,252.49925)"
             id="g1463">
            <defs
               id="defs1443">
              <path
                 id="TimesNewRomanPSMT-4d"
                 d="M 2619,0 981,3566 V 734 q 0,-390 85,-487 115,-131 365,-131 h 150 V 0 H 106 v 116 h 150 q 269,0 382,162 68,100 68,456 v 2769 q 0,281 -62,406 -44,91 -161,152 -117,61 -377,61 v 116 H 1306 L 2844,922 4356,4238 h 1200 v -116 h -147 q -271,0 -384,-163 -69,-100 -69,-456 V 734 q 0,-390 88,-487 115,-131 365,-131 h 147 V 0 H 3756 v 116 h 150 q 272,0 382,162 68,100 68,456 V 3566 L 2722,0 Z"
                 transform="scale(0.015625)" />
              <path
                 id="TimesNewRomanPSMT-42"
                 d="m 2956,2163 q 441,-94 660,-300 303,-288 303,-704 0,-315 -200,-604 Q 3519,266 3170,133 2822,0 2106,0 H 106 v 116 h 160 q 265,0 381,168 72,110 72,466 v 2738 q 0,393 -91,496 -122,138 -362,138 H 106 v 116 h 1832 q 512,0 821,-75 469,-113 716,-399 247,-286 247,-658 0,-318 -194,-570 -194,-252 -572,-373 z m -1637,168 q 115,-22 263,-33 149,-10 327,-10 457,0 686,98 230,98 352,301 122,204 122,444 0,372 -303,634 -303,263 -885,263 -312,0 -562,-69 z m 0,-2025 q 362,-84 715,-84 566,0 863,254 297,255 297,630 0,247 -135,475 -134,228 -437,359 -303,132 -750,132 -194,0 -332,-7 -137,-6 -221,-21 z"
                 transform="scale(0.015625)" />
              <path
                 id="TimesNewRomanPSMT-57"
                 d="m 5991,4238 v -116 q -166,0 -269,-60 -103,-59 -197,-221 -62,-110 -197,-522 L 4147,-97 H 4022 L 3056,2613 2097,-97 H 1984 L 725,3422 q -141,394 -178,466 -63,118 -171,176 -107,58 -292,58 v 116 h 1569 v -116 h -75 q -165,0 -253,-75 -87,-75 -87,-181 0,-110 137,-503 l 834,-2379 704,2022 -125,357 -100,284 q -66,156 -147,275 -41,59 -100,100 -78,56 -157,81 -59,19 -187,19 v 116 h 1650 v -116 h -113 q -175,0 -256,-75 -81,-75 -81,-203 0,-160 141,-556 l 812,-2304 806,2335 q 138,387 138,537 0,72 -46,134 -45,63 -114,88 -118,44 -309,44 v 116 z"
                 transform="scale(0.015625)" />
              <path
                 id="TimesNewRomanPSMT-79"
                 d="m 38,2863 h 1334 v -116 h -66 q -140,0 -211,-61 -70,-61 -70,-152 0,-121 103,-337 l 697,-1444 641,1581 q 53,129 53,254 0,56 -22,84 -25,34 -78,54 -53,21 -188,21 v 116 h 932 v -116 q -116,-13 -179,-51 -62,-37 -137,-140 -28,-43 -106,-240 L 1575,-541 q -169,-415 -443,-627 -273,-213 -526,-213 -184,0 -303,106 -119,106 -119,244 0,131 86,211 86,79 236,79 103,0 282,-68 125,-47 156,-47 94,0 204,97 111,96 224,375 L 1575,113 547,2272 q -47,97 -150,241 -78,109 -128,146 -72,50 -231,88 z"
                 transform="scale(0.015625)" />
              <path
                 id="TimesNewRomanPSMT-61"
                 d="M 1822,413 Q 1381,72 1269,19 1100,-59 909,-59 613,-59 420,144 228,347 228,678 q 0,210 94,363 128,212 445,399 317,188 1055,457 v 112 q 0,429 -136,588 -136,159 -395,159 -197,0 -313,-106 -119,-106 -119,-244 l 7,-181 q 0,-144 -74,-222 -73,-78 -192,-78 -116,0 -189,81 -73,82 -73,222 0,269 275,494 275,225 771,225 382,0 625,-128 185,-97 272,-303 57,-135 57,-550 V 994 q 0,-410 15,-502 16,-92 52,-123 36,-31 83,-31 50,0 87,21 66,41 253,229 V 413 q -350,-469 -669,-469 -153,0 -244,106 -90,106 -93,363 z m 0,203 V 1706 Q 1350,1519 1213,1441 966,1303 859,1153 753,1003 753,825 q 0,-225 134,-374 135,-148 310,-148 237,0 625,313 z"
                 transform="scale(0.015625)" />
              <path
                 id="TimesNewRomanPSMT-74"
                 d="m 1031,3803 v -940 h 669 V 2644 H 1031 V 788 q 0,-279 80,-376 80,-96 205,-96 103,0 200,64 97,64 150,189 h 122 Q 1678,263 1478,108 1278,-47 1066,-47 922,-47 784,33 647,113 581,261 516,409 516,719 V 2644 H 63 v 103 q 171,69 351,233 180,164 320,389 72,119 200,434 z"
                 transform="scale(0.015625)" />
            </defs>
            <use
               xlink:href="#TimesNewRomanPSMT-4d"
               id="use1445" />
            <use
               xlink:href="#TimesNewRomanPSMT-2e"
               x="88.916016"
               id="use1447" />
            <use
               xlink:href="#TimesNewRomanPSMT-42"
               x="113.91602"
               id="use1449" />
            <use
               xlink:href="#TimesNewRomanPSMT-2e"
               x="180.61523"
               id="use1451" />
            <use
               xlink:href="#TimesNewRomanPSMT-57"
               x="205.61523"
               id="use1453" />
            <use
               xlink:href="#TimesNewRomanPSMT-79"
               x="294"
               id="use1455" />
            <use
               xlink:href="#TimesNewRomanPSMT-61"
               x="344"
               id="use1457" />
            <use
               xlink:href="#TimesNewRomanPSMT-74"
               x="388.38477"
               id="use1459" />
            <use
               xlink:href="#TimesNewRomanPSMT-74"
               x="416.16797"
               id="use1461" />
          </g>
        </g>
        <g
           id="text_3"
           transform="rotate(-7.8368762,124.42788,384.20202)">
          <g
             id="patch_4">
            <path
               d="M 308.31106,212.38541 H 471.147 v -30.7539 H 308.31106 Z"
               style="fill:none"
               id="path1466" />
          </g>
          <!-- P.Bailey-brown -->
          <g
             transform="matrix(0.25,0,0,-0.25,312.31106,202.99088)"
             id="g1506">
            <defs
               id="defs1476">
              <path
                 id="TimesNewRomanPSMT-50"
                 d="M 1313,1984 V 750 q 0,-400 87,-497 119,-137 359,-137 h 163 V 0 H 106 v 116 h 160 q 268,0 384,175 63,97 63,459 v 2738 q 0,400 -85,496 -122,138 -362,138 H 106 v 116 h 1553 q 569,0 897,-118 328,-117 553,-395 225,-278 225,-659 0,-519 -342,-844 -342,-325 -967,-325 -153,0 -331,22 -178,22 -381,65 z m 0,179 q 165,-32 293,-48 128,-15 219,-15 325,0 561,251 236,252 236,652 0,275 -113,511 -112,236 -319,353 -206,117 -468,117 -159,0 -409,-59 z"
                 transform="scale(0.015625)" />
              <path
                 id="TimesNewRomanPSMT-6c"
                 d="M 1184,4444 V 647 q 0,-269 39,-357 40,-87 121,-132 81,-45 303,-45 V 0 H 244 v 113 q 197,0 268,40 72,41 113,134 41,94 41,360 v 2600 q 0,484 -22,595 -22,111 -71,151 -48,41 -123,41 -81,0 -206,-50 l -53,110 853,350 z"
                 transform="scale(0.015625)" />
              <path
                 id="TimesNewRomanPSMT-2d"
                 d="M 259,1672 H 1875 V 1200 H 259 Z"
                 transform="scale(0.015625)" />
              <path
                 id="TimesNewRomanPSMT-62"
                 d="m 984,2369 q 416,578 897,578 441,0 769,-377 328,-376 328,-1029 Q 2978,778 2472,313 2038,-88 1503,-88 1253,-88 995,3 738,94 469,275 v 2966 q 0,487 -24,599 -23,113 -73,153 -50,41 -125,41 -88,0 -219,-50 l -44,110 860,350 h 140 z m 0,-200 V 456 q 160,-156 330,-236 170,-79 349,-79 284,0 529,312 246,313 246,910 0,550 -246,845 -245,295 -558,295 -165,0 -331,-84 -125,-63 -319,-250 z"
                 transform="scale(0.015625)" />
              <path
                 id="TimesNewRomanPSMT-6f"
                 d="m 1600,2947 q 650,0 1044,-494 334,-422 334,-969 0,-384 -185,-778 Q 2609,313 2286,112 1963,-88 1566,-88 919,-88 538,428 216,863 216,1403 q 0,394 195,783 195,389 514,575 319,186 675,186 z m -97,-203 q -165,0 -333,-99 -167,-98 -270,-345 -103,-247 -103,-634 0,-625 248,-1079 249,-453 655,-453 303,0 500,250 197,250 197,860 0,762 -328,1200 -222,300 -566,300 z"
                 transform="scale(0.015625)" />
              <path
                 id="TimesNewRomanPSMT-77"
                 d="m 41,2863 h 1200 v -116 q -166,-13 -218,-60 -51,-46 -51,-134 0,-97 53,-234 l 613,-1647 615,1341 -162,421 q -75,188 -197,260 -69,44 -256,53 v 116 h 1362 v -116 q -225,-9 -319,-81 -62,-50 -62,-160 0,-62 25,-128 l 650,-1644 603,1585 q 62,169 62,269 0,59 -61,106 -60,47 -239,53 v 116 h 904 v -116 q -272,-41 -400,-369 L 3206,-88 H 3078 L 2363,1741 1528,-88 H 1413 L 494,2319 q -91,228 -179,307 -87,80 -274,121 z"
                 transform="scale(0.015625)" />
              <path
                 id="TimesNewRomanPSMT-6e"
                 d="m 1034,2341 q 504,606 960,606 234,0 403,-117 169,-117 269,-386 68,-188 68,-575 V 647 q 0,-272 44,-369 35,-78 111,-122 77,-43 283,-43 V 0 H 1756 v 113 h 60 q 200,0 279,60 80,61 111,180 13,47 13,294 v 1172 q 0,390 -102,567 -101,177 -342,177 -372,0 -741,-407 V 647 q 0,-291 35,-359 44,-91 120,-133 77,-42 311,-42 V 0 H 84 v 113 h 63 q 219,0 295,110 77,111 77,424 v 1062 q 0,516 -24,628 -23,113 -72,153 -48,41 -129,41 -88,0 -210,-47 l -46,113 862,350 h 134 z"
                 transform="scale(0.015625)" />
            </defs>
            <use
               xlink:href="#TimesNewRomanPSMT-50"
               id="use1478" />
            <use
               xlink:href="#TimesNewRomanPSMT-2e"
               x="44.490234"
               id="use1480" />
            <use
               xlink:href="#TimesNewRomanPSMT-42"
               x="69.490234"
               id="use1482" />
            <use
               xlink:href="#TimesNewRomanPSMT-61"
               x="136.18945"
               id="use1484" />
            <use
               xlink:href="#TimesNewRomanPSMT-69"
               x="180.57422"
               id="use1486" />
            <use
               xlink:href="#TimesNewRomanPSMT-6c"
               x="208.35742"
               id="use1488" />
            <use
               xlink:href="#TimesNewRomanPSMT-65"
               x="236.14062"
               id="use1490" />
            <use
               xlink:href="#TimesNewRomanPSMT-79"
               x="280.52539"
               id="use1492" />
            <use
               xlink:href="#TimesNewRomanPSMT-2d"
               x="330.52539"
               id="use1494" />
            <use
               xlink:href="#TimesNewRomanPSMT-62"
               x="363.82617"
               id="use1496" />
            <use
               xlink:href="#TimesNewRomanPSMT-72"
               x="413.82617"
               id="use1498" />
            <use
               xlink:href="#TimesNewRomanPSMT-6f"
               x="447.12695"
               id="use1500" />
            <use
               xlink:href="#TimesNewRomanPSMT-77"
               x="497.12695"
               id="use1502" />
            <use
               xlink:href="#TimesNewRomanPSMT-6e"
               x="569.34375"
               id="use1504" />
          </g>
        </g>
        <g
           id="text_4"
           transform="rotate(-7.8368762,382.71512,467.8988)">
          <g
             id="patch_5">
            <path
               d="m 162.49266,247.76581 h 142.79688 v -30.7539 H 162.49266 Z"
               style="fill:none"
               id="path1509" />
          </g>
          <!-- J.Washington -->
          <g
             transform="matrix(0.25,0,0,-0.25,166.49266,238.37128)"
             id="g1540">
            <defs
               id="defs1514">
              <path
                 id="TimesNewRomanPSMT-68"
                 d="M 1041,4444 V 2350 q 347,381 550,489 203,108 406,108 244,0 419,-135 175,-134 259,-421 59,-200 59,-732 V 647 q 0,-272 44,-372 31,-75 106,-119 75,-43 275,-43 V 0 H 1753 v 113 h 66 q 200,0 278,60 78,61 109,180 10,50 10,294 v 1012 q 0,469 -49,616 -48,147 -155,220 -106,74 -256,74 -153,0 -319,-82 -165,-81 -396,-328 V 647 q 0,-294 32,-366 33,-72 122,-120 89,-48 308,-48 V 0 H 84 v 113 q 191,0 300,59 63,31 100,118 38,88 38,357 v 2591 q 0,490 -24,602 -23,113 -72,153 -48,41 -129,41 -66,0 -213,-50 l -43,110 856,350 z"
                 transform="scale(0.015625)" />
              <path
                 id="TimesNewRomanPSMT-67"
                 d="m 966,1044 q -263,128 -404,357 -140,230 -140,508 0,425 320,731 321,307 821,307 409,0 709,-200 h 606 q 135,0 156,-8 22,-8 32,-26 18,-29 18,-100 0,-82 -15,-113 -10,-16 -33,-25 -23,-9 -158,-9 h -372 q 175,-225 175,-575 0,-400 -306,-685 -306,-284 -822,-284 -212,0 -434,62 Q 981,866 932,777 884,688 884,625 q 0,-53 52,-103 52,-50 202,-72 87,-12 437,-22 644,-15 834,-44 291,-40 464,-215 174,-175 174,-432 0,-353 -331,-662 -488,-456 -1272,-456 -603,0 -1019,272 -234,156 -234,325 0,75 34,150 53,115 219,321 22,29 319,338 -163,97 -230,173 -67,77 -67,174 0,109 89,256 89,147 411,416 z m 543,1753 q -231,0 -387,-185 -156,-184 -156,-565 0,-494 212,-766 163,-206 413,-206 237,0 390,178 153,178 153,560 0,496 -215,778 -160,206 -410,206 z M 934,0 q -146,-159 -221,-296 -75,-138 -75,-254 0,-150 181,-263 312,-193 903,-193 562,0 829,199 268,198 268,423 0,162 -160,231 -162,69 -643,81 -703,19 -1082,72 z"
                 transform="scale(0.015625)" />
            </defs>
            <use
               xlink:href="#TimesNewRomanPSMT-4a"
               id="use1516" />
            <use
               xlink:href="#TimesNewRomanPSMT-2e"
               x="38.916016"
               id="use1518" />
            <use
               xlink:href="#TimesNewRomanPSMT-57"
               x="63.916016"
               id="use1520" />
            <use
               xlink:href="#TimesNewRomanPSMT-61"
               x="150.30078"
               id="use1522" />
            <use
               xlink:href="#TimesNewRomanPSMT-73"
               x="194.68555"
               id="use1524" />
            <use
               xlink:href="#TimesNewRomanPSMT-68"
               x="233.60156"
               id="use1526" />
            <use
               xlink:href="#TimesNewRomanPSMT-69"
               x="283.60156"
               id="use1528" />
            <use
               xlink:href="#TimesNewRomanPSMT-6e"
               x="311.38477"
               id="use1530" />
            <use
               xlink:href="#TimesNewRomanPSMT-67"
               x="361.38477"
               id="use1532" />
            <use
               xlink:href="#TimesNewRomanPSMT-74"
               x="411.38477"
               id="use1534" />
            <use
               xlink:href="#TimesNewRomanPSMT-6f"
               x="439.16797"
               id="use1536" />
            <use
               xlink:href="#TimesNewRomanPSMT-6e"
               x="489.16797"
               id="use1538" />
          </g>
        </g>
        <g
           id="text_5"
           transform="rotate(-7.8368762,267.07151,228.95998)">
          <g
             id="patch_6">
            <path
               d="M 126.97614,202.50488 H 249.93317 V 171.79784 H 126.97614 Z"
               style="fill:none"
               id="path1543" />
          </g>
          <!-- K.Williams -->
          <g
             transform="matrix(0.25,0,0,-0.25,130.97614,193.15722)"
             id="g1570">
            <defs
               id="defs1548">
              <path
                 id="TimesNewRomanPSMT-4b"
                 d="M 1913,2350 3475,797 Q 3859,413 4131,273 4403,134 4675,116 V 0 H 2659 v 116 q 182,0 261,61 80,61 80,136 0,75 -30,134 -29,59 -195,222 L 1313,2116 V 750 q 0,-322 40,-425 31,-78 131,-134 135,-75 285,-75 h 144 V 0 H 106 v 116 h 150 q 263,0 382,153 75,100 75,481 v 2738 q 0,321 -41,428 -31,75 -128,131 -138,75 -288,75 H 106 v 116 h 1807 v -116 h -144 q -147,0 -285,-72 -96,-50 -134,-150 -37,-100 -37,-412 V 2191 q 62,59 428,397 928,850 1122,1134 84,125 84,219 0,72 -66,126 -65,55 -222,55 h -96 v 116 h 1556 v -116 q -138,-3 -251,-38 -112,-34 -275,-133 -162,-98 -399,-317 -69,-62 -635,-640 z"
                 transform="scale(0.015625)" />
              <path
                 id="TimesNewRomanPSMT-6d"
                 d="m 1050,2338 q 313,312 369,359 140,119 302,184 163,66 323,66 269,0 462,-157 194,-156 260,-452 322,375 543,492 222,117 457,117 228,0 404,-117 177,-117 280,-383 69,-181 69,-569 V 647 q 0,-269 40,-369 32,-69 116,-117 84,-48 275,-48 V 0 H 3538 v 113 h 59 q 184,0 287,71 72,50 104,160 12,53 12,303 v 1231 q 0,350 -84,494 -122,200 -391,200 -166,0 -333,-83 -167,-83 -404,-308 l -7,-34 7,-134 V 647 q 0,-294 32,-366 33,-72 123,-120 91,-48 310,-48 V 0 H 1806 v 113 q 238,0 327,56 89,56 123,169 16,53 16,309 v 1231 q 0,350 -103,503 -138,200 -385,200 -168,0 -334,-90 -259,-138 -400,-310 V 647 q 0,-281 39,-366 39,-84 115,-126 77,-42 312,-42 V 0 H 100 v 113 q 197,0 275,42 78,42 118,134 41,92 41,358 v 1094 q 0,472 -28,609 -22,103 -69,142 -46,39 -128,39 -87,0 -209,-47 l -47,113 863,350 h 134 z"
                 transform="scale(0.015625)" />
            </defs>
            <use
               xlink:href="#TimesNewRomanPSMT-4b"
               id="use1550" />
            <use
               xlink:href="#TimesNewRomanPSMT-2e"
               x="72.216797"
               id="use1552" />
            <use
               xlink:href="#TimesNewRomanPSMT-57"
               x="97.216797"
               id="use1554" />
            <use
               xlink:href="#TimesNewRomanPSMT-69"
               x="187.60156"
               id="use1556" />
            <use
               xlink:href="#TimesNewRomanPSMT-6c"
               x="215.38477"
               id="use1558" />
            <use
               xlink:href="#TimesNewRomanPSMT-6c"
               x="243.16797"
               id="use1560" />
            <use
               xlink:href="#TimesNewRomanPSMT-69"
               x="270.95117"
               id="use1562" />
            <use
               xlink:href="#TimesNewRomanPSMT-61"
               x="298.73438"
               id="use1564" />
            <use
               xlink:href="#TimesNewRomanPSMT-6d"
               x="343.11914"
               id="use1566" />
            <use
               xlink:href="#TimesNewRomanPSMT-73"
               x="420.90234"
               id="use1568" />
          </g>
        </g>
        <g
           id="text_6"
           transform="rotate(-7.8368762,187.42522,267.50787)">
          <g
             id="patch_7">
            <path
               d="m 178.12826,182.52366 h 86.97265 v -30.70703 h -86.97265 z"
               style="fill:none"
               id="path1573" />
          </g>
          <!-- M.Tune -->
          <g
             transform="matrix(0.25,0,0,-0.25,182.12826,173.176)"
             id="g1592">
            <defs
               id="defs1578">
              <path
                 id="TimesNewRomanPSMT-54"
                 d="m 3703,4238 47,-994 h -119 q -34,262 -93,375 -97,181 -258,267 -161,86 -424,86 H 2259 V 734 q 0,-390 85,-487 119,-131 365,-131 h 147 V 0 H 1059 v 116 h 150 q 269,0 382,162 68,100 68,456 V 3972 H 1150 Q 853,3972 728,3928 566,3869 450,3700 334,3531 313,3244 H 194 l 50,994 z"
                 transform="scale(0.015625)" />
              <path
                 id="TimesNewRomanPSMT-75"
                 d="M 2709,2863 V 1128 q 0,-497 23,-608 24,-111 75,-155 52,-43 121,-43 97,0 219,53 L 3191,266 2334,-88 H 2194 V 519 Q 1825,119 1631,15 1438,-88 1222,-88 981,-88 804,51 628,191 559,409 491,628 491,1028 v 1278 q 0,203 -44,281 -44,79 -130,121 -86,42 -311,39 v 116 H 1009 V 947 q 0,-400 139,-525 140,-125 336,-125 135,0 305,84 170,85 405,322 v 1622 q 0,244 -89,330 -89,86 -371,92 v 116 z"
                 transform="scale(0.015625)" />
            </defs>
            <use
               xlink:href="#TimesNewRomanPSMT-4d"
               id="use1580" />
            <use
               xlink:href="#TimesNewRomanPSMT-2e"
               x="88.916016"
               id="use1582" />
            <use
               xlink:href="#TimesNewRomanPSMT-54"
               x="113.91602"
               id="use1584" />
            <use
               xlink:href="#TimesNewRomanPSMT-75"
               x="171.5"
               id="use1586" />
            <use
               xlink:href="#TimesNewRomanPSMT-6e"
               x="221.5"
               id="use1588" />
            <use
               xlink:href="#TimesNewRomanPSMT-65"
               x="271.5"
               id="use1590" />
          </g>
        </g>
        <g
           id="text_7"
           transform="rotate(-7.8368762,182.17522,344.15415)">
          <g
             id="patch_8">
            <path
               d="M 47.883131,179.14013 H 148.23469 V 148.4331 H 47.883131 Z"
               style="fill:none"
               id="path1595" />
          </g>
          <!-- R.Barnes -->
          <g
             transform="matrix(0.25,0,0,-0.25,51.883131,169.79247)"
             id="g1617">
            <defs
               id="defs1599">
              <path
                 id="TimesNewRomanPSMT-52"
                 d="M 4325,0 H 3194 L 1759,1981 q -159,-6 -259,-6 -41,0 -88,1 -46,2 -96,5 V 750 q 0,-400 87,-497 119,-137 356,-137 h 166 V 0 H 109 v 116 h 160 q 269,0 384,175 66,97 66,459 v 2738 q 0,400 -88,496 -122,138 -362,138 H 109 v 116 h 1544 q 675,0 995,-99 321,-98 544,-362 224,-264 224,-630 0,-391 -255,-679 -255,-287 -789,-405 L 3247,847 Q 3547,428 3762,290 3978,153 4325,116 Z M 1316,2178 q 59,0 103,-2 44,-1 72,-1 606,0 914,262 308,263 308,669 0,397 -249,645 -248,249 -658,249 -181,0 -490,-59 z"
                 transform="scale(0.015625)" />
            </defs>
            <use
               xlink:href="#TimesNewRomanPSMT-52"
               id="use1601" />
            <use
               xlink:href="#TimesNewRomanPSMT-2e"
               x="66.699219"
               id="use1603" />
            <use
               xlink:href="#TimesNewRomanPSMT-42"
               x="91.699219"
               id="use1605" />
            <use
               xlink:href="#TimesNewRomanPSMT-61"
               x="158.39844"
               id="use1607" />
            <use
               xlink:href="#TimesNewRomanPSMT-72"
               x="202.7832"
               id="use1609" />
            <use
               xlink:href="#TimesNewRomanPSMT-6e"
               x="236.08398"
               id="use1611" />
            <use
               xlink:href="#TimesNewRomanPSMT-65"
               x="286.08398"
               id="use1613" />
            <use
               xlink:href="#TimesNewRomanPSMT-73"
               x="330.46875"
               id="use1615" />
          </g>
        </g>
        <g
           id="text_8"
           transform="rotate(-7.8368762,447.06084,813.33231)">
          <g
             id="patch_9">
            <path
               d="m 410.99487,309.4869 h 64.94531 v -30.70703 h -64.94531 z"
               style="fill:none"
               id="path1620" />
          </g>
          <!-- Kristi -->
          <g
             transform="matrix(0.25,0,0,-0.25,414.99487,300.13925)"
             id="g1635">
            <use
               xlink:href="#TimesNewRomanPSMT-4b"
               id="use1623" />
            <use
               xlink:href="#TimesNewRomanPSMT-72"
               x="72.216797"
               id="use1625" />
            <use
               xlink:href="#TimesNewRomanPSMT-69"
               x="105.51758"
               id="use1627" />
            <use
               xlink:href="#TimesNewRomanPSMT-73"
               x="133.30078"
               id="use1629" />
            <use
               xlink:href="#TimesNewRomanPSMT-74"
               x="172.2168"
               id="use1631" />
            <use
               xlink:href="#TimesNewRomanPSMT-69"
               x="200"
               id="use1633" />
          </g>
        </g>
        <g
           id="text_9"
           transform="rotate(-7.8368762,268.5715,207.06103)">
          <g
             id="patch_10">
            <path
               d="m 424.61298,271.32436 h 82.28906 v -30.70704 h -82.28906 z"
               style="fill:none"
               id="path1638" />
          </g>
          <!-- L.Ernst -->
          <g
             transform="matrix(0.25,0,0,-0.25,428.61298,261.9767)"
             id="g1659">
            <defs
               id="defs1643">
              <path
                 id="TimesNewRomanPSMT-4c"
                 d="M 3669,1172 3772,1150 3409,0 H 128 v 116 h 160 q 268,0 384,175 66,100 66,462 v 2735 q 0,396 -88,496 -122,138 -362,138 H 128 v 116 h 1919 v -116 q -338,3 -474,-63 -135,-65 -185,-165 -50,-100 -50,-478 V 753 q 0,-259 50,-356 37,-66 115,-97 78,-31 488,-31 h 309 q 488,0 684,72 197,72 359,254 163,183 326,577 z"
                 transform="scale(0.015625)" />
              <path
                 id="TimesNewRomanPSMT-45"
                 d="M 1338,4006 V 2331 h 931 q 362,0 484,110 163,143 181,506 h 116 V 1472 h -116 q -43,309 -87,397 -56,109 -185,171 -128,63 -393,63 H 1338 V 706 q 0,-281 25,-342 25,-61 87,-97 63,-36 238,-36 h 718 q 360,0 522,50 163,50 313,197 193,194 397,585 h 125 L 3397,0 H 131 v 116 h 150 q 150,0 285,72 100,50 136,150 36,100 36,409 v 2753 q 0,403 -82,497 -112,125 -375,125 H 131 v 116 h 3266 l 47,-929 h -122 q -66,335 -146,460 -79,125 -235,190 -125,47 -441,47 z"
                 transform="scale(0.015625)" />
            </defs>
            <use
               xlink:href="#TimesNewRomanPSMT-4c"
               id="use1645" />
            <use
               xlink:href="#TimesNewRomanPSMT-2e"
               x="61.083984"
               id="use1647" />
            <use
               xlink:href="#TimesNewRomanPSMT-45"
               x="86.083984"
               id="use1649" />
            <use
               xlink:href="#TimesNewRomanPSMT-72"
               x="147.16797"
               id="use1651" />
            <use
               xlink:href="#TimesNewRomanPSMT-6e"
               x="180.46875"
               id="use1653" />
            <use
               xlink:href="#TimesNewRomanPSMT-73"
               x="230.46875"
               id="use1655" />
            <use
               xlink:href="#TimesNewRomanPSMT-74"
               x="269.38477"
               id="use1657" />
          </g>
        </g>
        <g
           id="g10105"
           transform="matrix(0.7954251,-0.11211695,0.10948128,0.81457425,-21.973406,60.972781)">
          <g
             id="g8107"
             transform="translate(-0.57190504,-28.847403)">
            <rect
               style="fill:#ff0000;fill-opacity:0.501961;stroke:none;stroke-width:2.83465;stroke-dasharray:2.83465, 8.50395;stroke-dashoffset:0;stroke-opacity:0.994819"
               id="rect7769"
               width="48.346138"
               height="18.243826"
               x="38.759163"
               y="-5.7155876"
               transform="rotate(7.8368761)" />
            <text
               xml:space="preserve"
               style="font-style:normal;font-weight:normal;font-size:30px;line-height:1.25;font-family:sans-serif;fill:#000000;fill-opacity:1;stroke:none;stroke-width:0.75;stroke-linecap:butt;stroke-linejoin:round"
               x="101.70037"
               y="10.703858"
               id="text7825"
               transform="rotate(7.8368761)"><tspan
                 sodipodi:role="line"
                 id="tspan7823"
                 style="font-style:normal;font-variant:normal;font-weight:normal;font-stretch:normal;font-size:20px;font-family:sans-serif;-inkscape-font-specification:'sans-serif, Normal';font-variant-ligatures:normal;font-variant-caps:normal;font-variant-numeric:normal;font-variant-east-asian:normal;stroke-width:0.75"
                 x="101.70037"
                 y="10.703858">Wellness Nashv.</tspan></text>
          </g>
          <g
             id="g8115"
             transform="translate(-3.6398521,-6.5575518)">
            <rect
               style="fill:#ffff00;fill-opacity:0.501961;stroke:none;stroke-width:2.83465;stroke-dasharray:2.83465, 8.50395;stroke-dashoffset:0;stroke-opacity:0.994819"
               id="rect8109"
               width="48.346138"
               height="18.243826"
               x="38.759163"
               y="-5.7155876"
               transform="rotate(7.8368761)" />
            <text
               xml:space="preserve"
               style="font-style:normal;font-weight:normal;font-size:30px;line-height:1.25;font-family:sans-serif;fill:#000000;fill-opacity:1;stroke:none;stroke-width:0.75;stroke-linecap:butt;stroke-linejoin:round"
               x="101.70037"
               y="10.703858"
               id="text8113"
               transform="rotate(7.8368761)"><tspan
                 sodipodi:role="line"
                 id="tspan8111"
                 style="font-style:normal;font-variant:normal;font-weight:normal;font-stretch:normal;font-size:20px;font-family:sans-serif;-inkscape-font-specification:'sans-serif, Normal';font-variant-ligatures:normal;font-variant-caps:normal;font-variant-numeric:normal;font-variant-east-asian:normal;stroke-width:0.75"
                 x="101.70037"
                 y="10.703858">Nashv. online business strategy meetup</tspan></text>
          </g>
          <g
             id="g8123"
             transform="translate(-6.7077991,15.732303)">
            <rect
               style="fill:#0000ff;fill-opacity:0.501961;stroke:none;stroke-width:2.83465;stroke-dasharray:2.83465, 8.50395;stroke-dashoffset:0;stroke-opacity:0.994819"
               id="rect8117"
               width="48.346138"
               height="18.243826"
               x="38.759163"
               y="-5.7155876"
               transform="rotate(7.8368761)" />
            <text
               xml:space="preserve"
               style="font-style:normal;font-weight:normal;font-size:30px;line-height:1.25;font-family:sans-serif;fill:#000000;fill-opacity:1;stroke:none;stroke-width:0.75;stroke-linecap:butt;stroke-linejoin:round"
               x="101.70037"
               y="10.703858"
               id="text8121"
               transform="rotate(7.8368761)"><tspan
                 sodipodi:role="line"
                 id="tspan8119"
                 style="font-style:normal;font-variant:normal;font-weight:normal;font-stretch:normal;font-size:20px;font-family:sans-serif;-inkscape-font-specification:'sans-serif, Normal';font-variant-ligatures:normal;font-variant-caps:normal;font-variant-numeric:normal;font-variant-east-asian:normal;stroke-width:0.75"
                 x="101.70037"
                 y="10.703858">Women's business network</tspan></text>
          </g>
          <g
             id="g8131"
             transform="translate(-9.9802762,39.508143)">
            <rect
               style="fill:#008000;fill-opacity:0.501961;stroke:none;stroke-width:2.83465;stroke-dasharray:2.83465, 8.50395;stroke-dashoffset:0;stroke-opacity:0.994819"
               id="rect8125"
               width="48.346138"
               height="18.243826"
               x="38.759163"
               y="-5.7155876"
               transform="rotate(7.8368761)" />
            <text
               xml:space="preserve"
               style="font-style:normal;font-weight:normal;font-size:30px;line-height:1.25;font-family:sans-serif;fill:#000000;fill-opacity:1;stroke:none;stroke-width:0.75;stroke-linecap:butt;stroke-linejoin:round"
               x="101.70037"
               y="10.703858"
               id="text8129"
               transform="rotate(7.8368761)"><tspan
                 sodipodi:role="line"
                 id="tspan8127"
                 style="font-style:normal;font-variant:normal;font-weight:normal;font-stretch:normal;font-size:20px;font-family:sans-serif;-inkscape-font-specification:'sans-serif, Normal';font-variant-ligatures:normal;font-variant-caps:normal;font-variant-numeric:normal;font-variant-east-asian:normal;stroke-width:0.75"
                 x="101.70037"
                 y="10.703858">One Dharma Nashv. Meditation</tspan></text>
          </g>
        </g>
        <ellipse
           style="fill:none;stroke:#000000;stroke-width:3.00258;stroke-dasharray:3.00258, 9.00776;stroke-dashoffset:0;stroke-opacity:0.994819"
           id="path3944"
           cx="254.63147"
           cy="223.67976"
           rx="256.6987"
           ry="107.09914" />
        <text
           xml:space="preserve"
           style="font-style:normal;font-weight:normal;font-size:30px;line-height:1.25;font-family:sans-serif;fill:#000000;fill-opacity:1;stroke:none;stroke-width:0.75"
           x="10.946303"
           y="340.24731"
           id="text5566"><tspan
             sodipodi:role="line"
             id="tspan5564"
             style="stroke-width:0.75"
             x="10.946303"
             y="340.24731">1-core</tspan></text>
        <ellipse
           style="fill:none;stroke:#000000;stroke-width:2.83464567;stroke-dasharray:2.83464567,8.50391566;stroke-dashoffset:0;stroke-opacity:0.994819"
           id="ellipse6772"
           cx="178.06377"
           cy="211.36516"
           rx="75.962677"
           ry="70.978073" />
        <ellipse
           style="fill:none;stroke:#000000;stroke-width:2.74851;stroke-dasharray:2.74851, 8.24554;stroke-dashoffset:0;stroke-opacity:0.994819"
           id="ellipse6774"
           cx="296.61218"
           cy="223.67976"
           rx="214.84999"
           ry="107.22067" />
        <text
           xml:space="preserve"
           style="font-style:normal;font-weight:normal;font-size:30px;line-height:1.25;font-family:sans-serif;fill:#000000;fill-opacity:1;stroke:none;stroke-width:0.75"
           x="111.4071"
           y="308.72556"
           id="text7504"><tspan
             sodipodi:role="line"
             id="tspan7502"
             style="stroke-width:0.75"
             x="111.4071"
             y="308.72556">2-core</tspan></text>
        <text
           xml:space="preserve"
           style="font-style:normal;font-weight:normal;font-size:30px;line-height:1.25;font-family:sans-serif;fill:#000000;fill-opacity:1;stroke:none;stroke-width:0.75"
           x="212.68208"
           y="293.72556"
           id="text7508"><tspan
             sodipodi:role="line"
             id="tspan7506"
             style="stroke-width:0.75"
             x="212.68208"
             y="293.72556">3-core</tspan></text>
      </g>
    </g>
  </g>
  <defs
     id="defs1667">
    <clipPath
       id="pf80e96aa1f">
      <rect
         x="7.2"
         y="7.2"
         width="446.4"
         height="443.52"
         id="rect1664" />
    </clipPath>
  </defs>
</svg>
